<svg width="535" height="714" viewBox="0 0 535 714" fill="none" xmlns="http://www.w3.org/2000/svg">
<path fill-rule="evenodd" clip-rule="evenodd" d="M170.439 558.312C171.536 553.706 170.083 544.044 176.751 544.101C183.417 544.927 192.144 542.909 194.196 553.093C195.892 561.508 197.119 570.052 204.923 575.719C207.971 579.226 204.652 587.718 199.031 586.502C181.858 585.87 165.716 578.47 170.439 558.312Z" fill="black"/>
<path fill-rule="evenodd" clip-rule="evenodd" d="M121.375 152.352C118.802 166.751 84.6686 173.53 72.4582 183.55C61.0128 186.862 66.3993 172.636 71.2235 168.418C84.0803 151.551 103.273 156.274 121.375 152.352Z" fill="black"/>
<path fill-rule="evenodd" clip-rule="evenodd" d="M203.569 7.33816C206.086 5.41091 202.907 -0.00223514 206.372 0.0845271C217.991 0.838177 241.811 4.67625 237.902 20.6189C234.908 23.2793 234.938 30.192 228.101 27.9701C215.515 25.7009 200.834 23.556 203.569 7.33816Z" fill="black"/>
<path fill-rule="evenodd" clip-rule="evenodd" d="M16.2649 692.65C15.7485 680.338 19.7026 675.96 30.861 677.962C43.2213 677.006 44.6567 692.783 43.7398 701.54C40.3679 711.592 32.5346 703.521 27.2617 705.733C18.7492 705.45 16.4333 699.953 16.2649 692.65Z" fill="black"/>
<path fill-rule="evenodd" clip-rule="evenodd" d="M26.1873 303.759C34.022 303.605 40.8547 305.06 47.3932 307.044C47.2833 315.588 41.2284 322.386 37.9089 329.99C31.1553 333.507 20.8532 328.273 13.5508 326.01C13.7176 316.647 18.6877 309.131 26.1873 303.759Z" fill="black"/>
<path fill-rule="evenodd" clip-rule="evenodd" d="M473.553 476.233C497.82 532.464 435.64 480.739 444 454.396C441.895 448.413 448.324 448.024 451.577 451.955C446.274 455.493 448.823 460.994 448.519 465.601C444.665 478.451 465.841 473.544 473.553 476.233Z" fill="black"/>
<path fill-rule="evenodd" clip-rule="evenodd" d="M465.1 36.3437C469.505 38.6144 478.329 37.4172 479.999 42.2661C476.165 58.5287 444.473 47.9159 431.963 45.9158C410.736 36.1645 458.408 32.748 465.1 36.3437Z" fill="black"/>
<path fill-rule="evenodd" clip-rule="evenodd" d="M216.202 394.424C166.181 407.779 210.678 365.705 234.76 376.72C244.795 383.363 223.311 394.37 216.202 394.424Z" fill="black"/>
<path fill-rule="evenodd" clip-rule="evenodd" d="M121.375 152.352C111.608 154.975 101.686 155.201 91.6908 154.276C36.2302 147.403 144.968 123.001 121.375 152.352Z" fill="black"/>
<path fill-rule="evenodd" clip-rule="evenodd" d="M339.258 12.9336C373.653 15.098 366.995 28.5955 338.985 35.7402C315.921 39.0233 324.172 18.5654 339.258 12.9336Z" fill="black"/>
<path fill-rule="evenodd" clip-rule="evenodd" d="M473.553 476.232C465.85 473.555 444.659 478.445 448.518 465.602C448.823 460.994 446.274 455.493 451.576 451.954C463.727 448.856 500.079 471.475 473.553 476.232Z" fill="black"/>
<path fill-rule="evenodd" clip-rule="evenodd" d="M513.579 349.028C548.33 352.883 510.006 384.294 492.474 366.938C488.111 357.742 504.736 349.112 513.579 349.028Z" fill="black"/>
<path fill-rule="evenodd" clip-rule="evenodd" d="M438.731 275.462C479.173 281.491 415.543 316.435 420.656 287.331C421.726 273.348 426.976 274.196 438.731 275.462Z" fill="black"/>
<path fill-rule="evenodd" clip-rule="evenodd" d="M216.201 394.424C225.364 393.219 232.663 388.997 237.701 381.123C245.724 385.426 239.346 390.945 237.869 394.747C229.632 419.887 191.393 431.602 216.201 394.424Z" fill="black"/>
<path fill-rule="evenodd" clip-rule="evenodd" d="M438.732 275.462C426.967 274.2 421.73 273.345 420.659 287.332C420.259 301.583 392.775 302.935 401.915 285.557C407.353 270.574 431.388 259.439 438.732 275.462Z" fill="black"/>
<path fill-rule="evenodd" clip-rule="evenodd" d="M90.0159 598.144C80.4453 610.484 63.6941 624.458 48.1585 614.271C44.841 597.603 78.1982 595.677 90.0159 598.144Z" fill="black"/>
<path fill-rule="evenodd" clip-rule="evenodd" d="M339.258 12.9338C324.397 18.33 327.525 35.9822 308.156 25.3064C306.875 8.61618 324.012 -2.02066 337.958 7.18589C340.186 8.08123 338.736 11.0024 339.258 12.9338Z" fill="black"/>
<path fill-rule="evenodd" clip-rule="evenodd" d="M159.375 244.228C188.659 248.648 122.278 293.841 136.321 257.875C142.015 241.567 156.789 261.874 159.375 244.228Z" fill="black"/>
<path fill-rule="evenodd" clip-rule="evenodd" d="M481.227 159.626C488.821 148.697 508.204 126.52 520.109 142.713C518.922 159.49 493.769 156.608 481.227 159.626Z" fill="black"/>
<path fill-rule="evenodd" clip-rule="evenodd" d="M309.37 134.52C305.147 106.675 359.391 171.435 336.263 169.39C325.102 167.224 322.885 157.215 317.883 149.075C323.85 151.788 324.833 146.938 326.74 143.322C329.437 135.66 313.455 138.294 309.336 134.483L309.37 134.52Z" fill="black"/>
<path fill-rule="evenodd" clip-rule="evenodd" d="M481.227 159.626C492.984 157.747 509.291 154.224 518.838 162.144C523.053 177.553 464.314 170.116 481.227 159.626Z" fill="black"/>
<path fill-rule="evenodd" clip-rule="evenodd" d="M203.568 7.33838C203.025 16.7924 205.614 24.0291 216.391 25.4681C213.093 35.0992 211.68 50.6841 198.322 42.626C196.227 33.6289 194.217 13.8851 203.568 7.33838Z" fill="black"/>
<path fill-rule="evenodd" clip-rule="evenodd" d="M166.187 681.509C177.314 684.905 151.537 704.686 144.989 706.622C141.385 707.97 130.408 708.012 134.748 702.303C147.754 678.846 155.984 692.606 166.187 681.509Z" fill="black"/>
<path fill-rule="evenodd" clip-rule="evenodd" d="M52.9398 434.098C51.0829 432.083 48.8199 430.292 47.5411 427.96C46.9081 426.805 41.5955 427.049 45.8007 423.847C45.8669 423.797 45.2935 422.381 44.8745 422.293C37.6455 420.786 42.113 416.756 42.9966 413.575C45.2221 411.002 53.8901 415.578 56.1326 416.497C60.8624 421.392 68.4241 424.308 69.3343 432.42C69.7019 435.697 74.7787 439.514 68.2048 441.964C64.8724 440.918 64.7492 440.729 65.317 440.358C72.5702 436.007 55.5514 435.864 52.9398 434.098Z" fill="black"/>
<path fill-rule="evenodd" clip-rule="evenodd" d="M90.0146 598.144C79.0959 596.358 62.0798 598.19 54.4375 591.213C54.6947 578.687 80.3625 587.912 89.6819 586.789C95.5202 588.327 92.9815 594.617 90.0146 598.144Z" fill="black"/>
<path fill-rule="evenodd" clip-rule="evenodd" d="M246.045 505.673C244.803 502.476 235.97 506.744 232.185 506.894C225.957 510.02 218.247 501.112 223.677 497.543C231.28 496.155 267.281 483.341 258.553 500.221C253.014 498.893 248.667 500.302 246.045 505.673Z" fill="black"/>
<path fill-rule="evenodd" clip-rule="evenodd" d="M366.395 620.376C361.165 628.565 351.252 649.103 339.821 639.766C339.07 624.12 351.014 614.913 366.395 620.376Z" fill="black"/>
<path fill-rule="evenodd" clip-rule="evenodd" d="M52.9398 434.097C55.5807 435.88 72.5311 435.983 65.318 440.357C64.7492 440.729 64.8724 440.918 68.2048 441.964C61.8137 454.442 41.8378 439.147 30.6234 439.382C23.2769 428.504 47.1442 432.976 52.9398 434.097Z" fill="black"/>
<path fill-rule="evenodd" clip-rule="evenodd" d="M366.396 620.376C358.878 617.462 338.377 622.778 340.094 610.593C343.046 606.124 352.185 610.302 357.262 609.335C359.703 610.008 360.284 606.882 362.585 606.056C364.486 605.771 365.861 607.538 367.624 605.158C368.629 608.829 371.64 604.831 373.14 606.605C377.074 615.209 374.415 620.638 366.396 620.376Z" fill="black"/>
<path fill-rule="evenodd" clip-rule="evenodd" d="M166.186 681.509C161.362 690.992 128.918 686.887 133.819 673.466C141.406 671.758 165.285 670.656 166.186 681.509Z" fill="black"/>
<path fill-rule="evenodd" clip-rule="evenodd" d="M356.159 368.698C365.627 371.321 358.498 381.026 351.065 377.902C342.015 373.76 324.759 373.841 320.6 364.927C323.979 355.342 347.326 368.53 356.159 368.698Z" fill="black"/>
<path fill-rule="evenodd" clip-rule="evenodd" d="M356.159 368.699C349.26 367.993 307.506 355.063 325.555 348.75C335.78 351.17 359.319 353.989 356.159 368.699Z" fill="black"/>
<path fill-rule="evenodd" clip-rule="evenodd" d="M170.437 558.312C169.443 565.878 170.215 573.109 174.496 579.672C152.657 576.302 134.466 541.637 170.437 558.312Z" fill="black"/>
<path fill-rule="evenodd" clip-rule="evenodd" d="M510.248 681.375C501.101 670.673 540.544 674.983 534.334 685.937C535.067 696.189 501.503 693.133 510.248 681.375Z" fill="black"/>
<path fill-rule="evenodd" clip-rule="evenodd" d="M309.998 135.035C314.386 137.797 329.455 136.149 326.743 143.32C324.833 146.939 323.85 151.788 317.883 149.076C309.984 146.391 290.88 148.135 295.297 134.813C297.102 131.677 306.702 134.601 309.998 135.035Z" fill="black"/>
<path fill-rule="evenodd" clip-rule="evenodd" d="M279.275 197.62C285.299 199.057 280.73 209.099 275.367 207.393C268.56 205.987 217.006 196.507 241.96 188.249C246.007 188.584 249.986 189.726 253.993 190.533C255.196 192.652 251.93 196.107 254.617 196.955C261.607 197.386 276.449 206.788 279.275 197.62Z" fill="black"/>
<path fill-rule="evenodd" clip-rule="evenodd" d="M448.093 618.797C446.999 627.043 440.936 624.948 436.175 623.985C431.918 623.125 425.025 624.901 424.751 618.105C424.573 613.707 424.606 607.056 432.511 607.451C438.068 608.783 454.068 609.059 448.093 618.797Z" fill="black"/>
<path fill-rule="evenodd" clip-rule="evenodd" d="M269.544 698.541C260.783 700.498 254.678 710.046 244.224 707.292C240.591 706.335 242.373 703.834 242.369 701.904C241.286 692.269 250.058 689.206 258.241 690.796C262.265 692.928 272.151 686.848 269.544 698.541Z" fill="black"/>
<path fill-rule="evenodd" clip-rule="evenodd" d="M465.1 36.3438C449.505 32.2824 433.976 41.1388 420.786 29.0732C413.795 10.7305 458 31.8455 465.1 36.3438Z" fill="black"/>
<path fill-rule="evenodd" clip-rule="evenodd" d="M13.8113 31.0207C6.29074 28.9528 17.959 22.3758 11.6664 20.2473C17.5046 15.0385 52.0119 18.9325 36.2181 33.1456C29.7864 35.2859 19.9052 30.6644 13.8113 31.0207Z" fill="black"/>
<path fill-rule="evenodd" clip-rule="evenodd" d="M509.23 682.858C507.069 692.079 515.853 690.518 521.399 691.422C519.529 700.913 511.641 715.338 500.349 709.492C498.996 701.526 503.779 690.424 509.23 682.858Z" fill="black"/>
<path fill-rule="evenodd" clip-rule="evenodd" d="M279.062 197.828C276.448 206.732 261.35 197.302 254.617 196.958C251.93 196.107 255.195 192.652 253.992 190.533C256.142 178.065 263.958 189.321 268.828 187.246C274.946 186.291 289.267 193.19 279.062 197.828Z" fill="black"/>
<path fill-rule="evenodd" clip-rule="evenodd" d="M246.044 505.673C250.634 495.463 261.631 501.574 269.711 502.773C276.522 511.823 259.091 520.845 250.425 514.831C248.929 514.546 254.009 510.541 249.314 512.583C247.639 513.312 246.796 513.111 245.52 512.653C246.515 510.198 245.6 508.557 246.044 505.673Z" fill="black"/>
<path fill-rule="evenodd" clip-rule="evenodd" d="M269.544 698.541C273.255 681.652 243.562 700.042 249.561 682.166C258.81 678.922 272.194 685.034 280.716 690.564C286.919 699.008 276.31 701.671 269.544 698.541Z" fill="black"/>
<path fill-rule="evenodd" clip-rule="evenodd" d="M135.353 355.408C132.275 365.265 116.214 363.828 115.98 353.605C112.718 343.942 114.561 341.503 125.758 340.324C129.074 339.975 132.865 338.226 134.903 342.783C133.921 345.322 129.856 343.03 129.447 346.039C128.818 350.653 127.01 356.329 135.353 355.408Z" fill="black"/>
<path fill-rule="evenodd" clip-rule="evenodd" d="M16.2648 692.65C16.4331 699.953 18.749 705.45 27.2615 705.733C8.8032 725.052 -14.2242 703.953 16.2648 692.65Z" fill="black"/>
<path fill-rule="evenodd" clip-rule="evenodd" d="M99.3678 508.394C97.3517 518.481 86.5588 514.322 79.0531 513.848C76.8748 513.29 72.4571 515.452 72.8073 510.846C71.0089 499.724 78.4869 499.511 88.2838 500.252C85.3092 508.164 94.6277 506.948 99.3678 508.394Z" fill="black"/>
<path fill-rule="evenodd" clip-rule="evenodd" d="M328.587 498.784C337.603 493.732 356.368 515.116 348.838 517.916C339.961 518.243 321.808 508.564 328.587 498.784Z" fill="black"/>
<path fill-rule="evenodd" clip-rule="evenodd" d="M448.093 618.797C454.066 609.051 438.07 608.792 432.51 607.453C418.53 587.334 469.318 614.3 465.419 621.544C461.134 626.212 453.483 619.018 448.093 618.797Z" fill="black"/>
<path fill-rule="evenodd" clip-rule="evenodd" d="M519.157 249.642C514.169 259.577 506.163 253.357 499.234 253.548C490.039 253.802 492.208 247.705 492.574 242.558C496.154 238.937 504.662 243.239 509.792 242.682C508.597 250.819 515.777 247.671 519.157 249.642Z" fill="black"/>
<path fill-rule="evenodd" clip-rule="evenodd" d="M135.353 355.408C127.01 356.329 128.818 350.653 129.447 346.038C135.331 340.104 150.234 342.955 151.465 352.865C152.204 353.946 147.507 359.796 145.646 357.657C142.927 355.84 138.836 356.08 135.353 355.408Z" fill="black"/>
<path fill-rule="evenodd" clip-rule="evenodd" d="M26.1864 303.759C18.691 309.127 13.7132 316.65 13.5479 326.008C-17.6342 337.042 12.979 302.165 26.1864 303.759Z" fill="black"/>
<path fill-rule="evenodd" clip-rule="evenodd" d="M159.377 244.227C157.997 257.651 149.011 249.91 142.897 250.155C135.209 250.245 137.379 244.695 137.461 240.442C143.739 239.003 153.118 240.861 159.377 244.227Z" fill="black"/>
<path fill-rule="evenodd" clip-rule="evenodd" d="M118.91 55.5812C126.739 57.0797 122.589 68.8963 114.869 65.2939C110.909 62.3948 100.39 66.851 99.7792 60.3598C98.9454 49.1946 111.699 55.8235 118.91 55.5812Z" fill="black"/>
<path fill-rule="evenodd" clip-rule="evenodd" d="M497.987 576.912C497.929 565.228 506.266 573.663 510.375 572.118C512.995 571.133 516.742 573.186 519.992 573.828C523.796 575.297 520.402 584.182 516.218 583.799C508.367 583.994 505.519 576.768 497.987 576.912Z" fill="black"/>
<path fill-rule="evenodd" clip-rule="evenodd" d="M35.6778 20.5537C23.2749 16.4573 13.078 20.9033 2.47198 17.9744C-10.0829 6.96279 38.7098 11.3204 35.6778 20.5537Z" fill="black"/>
<path fill-rule="evenodd" clip-rule="evenodd" d="M99.3686 508.394C84.3516 508.822 84.8829 494.709 93.7496 496.79C106.536 494.864 115.98 508.491 99.3686 508.394Z" fill="black"/>
<path fill-rule="evenodd" clip-rule="evenodd" d="M118.911 55.5813C111.706 55.8242 98.9392 49.1948 99.7817 60.3594C90.3985 60.9375 93.9435 54.2183 93.8926 49.6907C95.0621 46.4271 122.95 48.6794 118.911 55.5813Z" fill="black"/>
<path fill-rule="evenodd" clip-rule="evenodd" d="M497.986 576.912C501.542 578.337 506.832 576.558 508.026 582.349C506.972 585.068 506.495 589.293 502.664 588.306C489.741 591.304 482.436 575.324 497.986 576.912Z" fill="black"/>
<path fill-rule="evenodd" clip-rule="evenodd" d="M267.349 292.194C263.308 290.941 255.573 293.515 254.828 287.732C254.878 284.262 254.652 281.758 259.695 282.271C265.113 283.669 278.246 280.142 279.107 287.522C275.455 289.759 267.643 281.507 267.349 292.194Z" fill="black"/>
<path fill-rule="evenodd" clip-rule="evenodd" d="M519.156 249.642C515.775 247.671 508.596 250.819 509.791 242.684C511.504 233.946 517.183 239.595 521.042 239.835C530.581 239.451 525.191 251.332 519.156 249.642Z" fill="black"/>
<path fill-rule="evenodd" clip-rule="evenodd" d="M267.35 292.194C267.644 281.508 275.456 289.759 279.107 287.524C280.488 289.378 286.442 286.51 283.96 292.443C281.058 299.382 276.086 294.029 272.162 294.431C270.938 294.556 267.432 296.024 267.35 292.194Z" fill="black"/>
<path fill-rule="evenodd" clip-rule="evenodd" d="M13.3281 326.523C21.7877 327.965 47.1721 335.881 23.487 330.119C20.0791 329.703 15.6086 330.702 13.3281 326.523Z" fill="black"/>
<path fill-rule="evenodd" clip-rule="evenodd" d="M10.3029 19.8628C17.0857 21.039 9.90758 26.9727 11.552 30.8472C7.00489 31.2769 12.0073 23.0853 10.3029 19.8628Z" fill="black"/>
<path fill-rule="evenodd" clip-rule="evenodd" d="M37.9082 329.99C40.7241 324.562 43.5395 319.134 46.3555 313.705C46.0993 320.462 41.256 324.838 37.9082 329.99Z" fill="black"/>
<path fill-rule="evenodd" clip-rule="evenodd" d="M16.6758 31.7885C21.8564 31.5616 26.9286 32.0056 31.7164 34.2132C26.7032 33.4046 21.6895 32.5966 16.6758 31.7885Z" fill="black"/>
<path fill-rule="evenodd" clip-rule="evenodd" d="M245.521 512.653C246.798 513.111 247.641 513.311 249.316 512.583C254.01 510.542 248.931 514.546 250.425 514.834C245.814 514.441 245.692 514.388 245.521 512.653Z" fill="black"/>
<path fill-rule="evenodd" clip-rule="evenodd" d="M269.156 511.573C269.927 509.738 270.698 507.904 271.469 506.07C272.445 508.641 270.103 509.813 269.156 511.573Z" fill="black"/>
<path fill-rule="evenodd" clip-rule="evenodd" d="M39.0352 28.8816C39.4577 27.4487 39.8797 26.0158 40.3012 24.5835C42.3681 26.75 40.9665 27.8938 39.0352 28.8816Z" fill="black"/>
<path fill-rule="evenodd" clip-rule="evenodd" d="M373.139 606.605C371.639 604.831 368.627 608.829 367.623 605.159C369.461 605.641 371.3 606.123 373.139 606.605Z" fill="black"/>
<path fill-rule="evenodd" clip-rule="evenodd" d="M46.7812 312.945C46.9846 310.978 47.1879 309.011 47.3912 307.044C48.5776 309.155 48.5889 311.144 46.7812 312.945Z" fill="black"/>
<path fill-rule="evenodd" clip-rule="evenodd" d="M367.067 605.307C366.01 608.18 363.988 605.265 362.584 606.056C363.776 603.993 365.548 605.413 367.067 605.307Z" fill="black"/>
<path fill-rule="evenodd" clip-rule="evenodd" d="M36.2188 33.1454L39.0598 30.2817C38.7872 31.9061 37.4776 32.5006 36.2188 33.1454Z" fill="black"/>
<path fill-rule="evenodd" clip-rule="evenodd" d="M32.9277 34.539C34.0315 34.0703 35.1358 33.601 36.2396 33.1323C35.1358 33.601 34.0315 34.0703 32.9277 34.539Z" fill="black"/>
<path fill-rule="evenodd" clip-rule="evenodd" d="M42.3456 305.318C41.1165 306.29 40.2119 305.952 39.5527 304.625C40.484 304.857 41.4148 305.088 42.3456 305.318Z" fill="black"/>
<path fill-rule="evenodd" clip-rule="evenodd" d="M359.761 607.986C359.683 609.835 358.337 609.333 357.262 609.337C358.094 608.887 358.927 608.437 359.761 607.986Z" fill="black"/>
<path fill-rule="evenodd" clip-rule="evenodd" d="M245.78 509.236C245.787 509.937 247.389 510.769 245.613 511.322C245.672 510.626 245.726 509.931 245.78 509.236Z" fill="black"/>
<path fill-rule="evenodd" clip-rule="evenodd" d="M47.1252 306.899C45.8926 307.003 44.738 306.91 44.0352 305.674C45.0655 306.082 46.0954 306.491 47.1252 306.899Z" fill="black"/>
<path fill-rule="evenodd" clip-rule="evenodd" d="M254.221 515.696C255.007 515.893 255.794 516.09 256.578 516.285C255.79 516.089 255.005 515.892 254.221 515.696Z" fill="black"/>
<path fill-rule="evenodd" clip-rule="evenodd" d="M266.971 513.889C267.408 513.498 267.846 513.107 268.279 512.716C267.839 513.108 267.405 513.498 266.971 513.889Z" fill="black"/>
<path fill-rule="evenodd" clip-rule="evenodd" d="M36.1914 331.286C36.771 330.847 37.3506 330.408 37.9302 329.969C37.3506 330.408 36.771 330.847 36.1914 331.286Z" fill="black"/>
<path fill-rule="evenodd" clip-rule="evenodd" d="M36.1258 304.376C35.5878 304.304 35.0497 304.232 34.5117 304.16C35.0497 304.232 35.5878 304.304 36.1258 304.376Z" fill="black"/>
<path fill-rule="evenodd" clip-rule="evenodd" d="M31.5921 303.928C31.111 303.914 30.6295 303.9 30.1484 303.886C30.6295 303.9 31.111 303.914 31.5921 303.928Z" fill="black"/>
<path fill-rule="evenodd" clip-rule="evenodd" d="M35.6777 20.5539C35.6777 20.5539 35.7583 20.3296 35.7578 20.3296C36.3179 20.653 36.8775 20.977 37.4381 21.3009C36.8513 21.0524 36.2645 20.8029 35.6777 20.5539Z" fill="black"/>
<path fill-rule="evenodd" clip-rule="evenodd" d="M174.518 579.685C175.027 580.088 175.536 580.492 176.044 580.895C175.535 580.492 175.026 580.088 174.518 579.685Z" fill="black"/>
<path fill-rule="evenodd" clip-rule="evenodd" d="M264.086 516.389C264.294 516.056 264.502 515.723 264.707 515.392C264.498 515.725 264.292 516.057 264.086 516.389Z" fill="black"/>
<path fill-rule="evenodd" clip-rule="evenodd" d="M258.693 516.884C258.935 516.903 259.177 516.922 259.416 516.94C259.174 516.921 258.934 516.903 258.693 516.884Z" fill="black"/>
<path fill-rule="evenodd" clip-rule="evenodd" d="M13.8125 31.0205C14.4044 30.2833 14.5836 30.7382 14.9358 31.3958C14.5615 31.2705 14.1868 31.1453 13.8125 31.0205Z" fill="black"/>
<path fill-rule="evenodd" clip-rule="evenodd" d="M40.7677 23.0239C40.5501 22.7077 40.3324 22.392 40.1152 22.0752C40.3329 22.392 40.5501 22.7077 40.7677 23.0239Z" fill="black"/>
<path fill-rule="evenodd" clip-rule="evenodd" d="M510.246 681.375C510.197 681.639 510.147 681.903 510.1 682.165C510.15 681.901 510.198 681.638 510.246 681.375Z" fill="black"/>
<path fill-rule="evenodd" clip-rule="evenodd" d="M260.918 517.405C261.138 517.326 261.357 517.246 261.575 517.169C261.355 517.248 261.136 517.327 260.918 517.405Z" fill="black"/>
<path fill-rule="evenodd" clip-rule="evenodd" d="M449.053 618.999C449.053 618.999 449.049 619.001 449.049 619.001C449.05 619 449.052 618.999 449.053 618.999Z" fill="black"/>
<path fill-rule="evenodd" clip-rule="evenodd" d="M13.2676 23.0039C13.6983 23.3258 15.0413 23.4146 14.2851 23.9896C13.9889 23.6544 13.4093 23.3443 13.2676 23.0039Z" fill="black"/>
<path fill-rule="evenodd" clip-rule="evenodd" d="M279.064 197.828C278.944 197.361 278.959 197.268 279.265 197.651C279.266 197.65 279.064 197.828 279.064 197.828Z" fill="black"/>
</svg>
