<svg width="515" height="713" viewBox="0 0 515 713" fill="none" xmlns="http://www.w3.org/2000/svg">
<path fill-rule="evenodd" clip-rule="evenodd" d="M435.02 22.3564C433.922 21.2368 433.658 21.7858 432.611 22.2523C433.26 23.2723 433.755 22.5815 435.02 22.3564ZM440.159 20.0044C439.037 18.5964 438.565 19.6678 437.682 20.4749C438.219 21.9644 439.092 20.8335 440.159 20.0044ZM455.76 16.1198C453.154 18.4472 457.616 19.6698 458.651 17.8948C458.091 16.5809 456.209 18.2446 455.76 16.1198ZM465.669 17.4954C460.082 19.0757 467.754 22.7194 470.257 19.1041C468.8 18.5934 467.342 18.0822 465.669 17.4954ZM404.587 26.2419C402.502 25.2607 412.5 36.0437 410.741 40.9473C413.087 67.3365 444.43 59.0816 455.014 42.8779C461.842 31.2917 472.006 30.5632 484.721 30.0633C479.497 19.0055 452.638 25.0817 453.315 17.7157C448.552 16.4284 447.392 26.2159 442.553 19.0575C431.371 27.6833 417.47 22.8725 404.587 26.2419ZM413.033 71.2579C405.005 67.3262 397.718 61.8702 396.879 52.6208C396.741 52.2209 393.809 47.7972 399.095 49.2013C400.3 45.7165 399.682 21.9644 390.05 31.1426C387.784 34.7392 384.317 31.3673 387.435 28.4526C388.842 26.6109 391.935 25.0866 389.59 21.8182C389.467 21.6474 391.24 19.3411 392.164 19.3166C415.048 1.83876 443.906 -0.603476 472.43 0.10692C513.192 10.6618 505.328 49.6752 463.891 47.6613C450.685 61.2653 434.658 81.0572 413.033 71.2579Z" fill="black"/>
<path fill-rule="evenodd" clip-rule="evenodd" d="M475.103 122.221C474.981 121.596 474.732 121.168 474.225 121.634C474.145 122.259 474.407 122.467 475.103 122.221ZM408.599 396.741C409.174 397.553 409.34 397.654 409.734 396.878C409.598 396.386 409.015 396.357 408.599 396.741ZM475.891 126C475.592 125.266 475.336 124.638 475.08 124.01C474.157 125.576 474.805 129.237 475.891 126ZM409.726 393.897C409.376 391.627 409.089 389.77 408.802 387.913C407.958 389.436 408.045 396.266 409.726 393.897ZM495.49 525.228C496.941 523.797 495.436 520.379 494.797 518.506C493.426 520.58 495.233 523.001 495.49 525.228ZM354.401 101.498C354.488 105.404 352.974 108.53 354.223 110.859C357.327 108.248 355.868 104.846 354.401 101.498ZM419.67 155.211C420.495 157.066 421.136 157.538 421.882 155.176C425.263 139.203 431.265 123.642 435.034 108.022C423.373 120.624 423.094 139.032 419.67 155.211ZM396.265 112.808C389.911 105.496 408.452 148.027 409.866 153.682C415.945 157.943 408.176 142.59 407.285 139.424C410.469 137.992 412.591 149.965 414.094 145.752C406.448 136.445 402.489 121.262 396.265 112.808ZM427.389 705.166C418.376 700.407 430.508 687.452 432.951 680.824C441.929 674.64 439.067 664.015 444.074 655.156L444.038 655.208C464.156 618.145 485.861 578.295 490.155 535.773C486.902 506.972 463.484 484.911 464.594 454.838C467.152 414.92 506.058 370.095 484.154 329.654C477.822 321.993 470.201 309.225 460.883 306.124C456.356 307.031 447.207 304.778 450.122 315.237C425.115 285.932 462.795 232.902 460.256 198.418C471.391 179.504 466.128 154.557 468.031 133.166C468.52 62.5292 430.894 125.281 425.825 155.904C432.944 153.253 425.049 169.342 419.516 163.76C401.527 174.107 393.705 131.761 389.698 119.084C388.246 106.739 366.999 67.1933 363.159 96.3691C367.635 155.824 391.909 212.296 400.666 271.132C418.142 372.449 426.601 478.947 404.185 579.916C396.712 597.666 388.205 686.7 365.159 680.106C362.889 619.266 397.876 559.322 393.564 496.853C394.803 453.982 401.081 465.052 377.603 491.235C344.915 519.691 364.537 502.832 351.111 545.074C349.371 547.403 346.675 551.463 347.704 554.959C353.379 550.088 357.265 539.422 365.573 546.921C357.701 557.91 345.051 566.09 339.185 578.605C350.976 573.444 360.041 564.054 365.65 552.429C372.482 562.312 347.192 580.7 341.442 585.717C330.113 591.071 329.56 612.524 324.159 624.76C318.659 647.553 305.73 666.784 293.934 686.608C278.339 693.135 305.613 645.565 304.61 636.431C307.97 625.625 314.907 614.511 316.094 603.083C311.902 604.951 319.908 586.532 320.002 583.339C321.834 568.771 299.794 553.427 306.825 539.759C332.755 584.87 321.06 575.719 337.044 528.769C333.731 515.449 316.695 506.822 318.033 491.235C318.24 489.374 313.519 488.56 316.883 487.129C328.583 486.542 333.107 511.471 340.275 513.249C345.511 492.818 340.619 471.384 332.856 453.192C345.829 444.396 341.621 479.713 350.572 482.545C351.53 482.601 352.953 482.436 353.366 482.979C360.296 492.115 359.399 481.108 361.712 479.452C368.072 473.387 370.314 464.065 376.496 457.848C385.294 450.795 397.208 474.892 394.585 452.632C392.677 384.047 389.305 314.812 374.427 247.408C371.644 237.222 359.641 181.231 370.942 204.953C379.953 204.66 367.693 178.388 368.225 170.527C366.913 165.559 366.954 160.077 364.749 155.445C363.981 162.399 366.957 169.739 367.598 176.8C367.886 184.62 361.487 175.435 362.595 171.548C363.259 157.815 354.355 164.696 356.742 157.524C350.195 134.512 335.855 93.6796 361.096 78.7412C391.092 78.7706 399.921 121.17 414.841 140.736C422.099 126.843 422.447 105.241 438.372 97.8042C457.886 83.3289 485.57 100.432 481.947 124.305C482.565 129.462 482.222 129.889 478.83 132.897C470.571 126.682 478.415 161.431 477.232 166.037C475.277 173.031 488.114 168.178 479.862 167.779C479.669 167.541 479.889 166.972 479.919 166.555C481.645 165.863 485.099 168.685 484.255 165.161C484.092 164.537 482.128 165.605 482.309 163.846C494.524 135.708 488.285 206.981 486.832 216.129C480.985 242.918 471.078 270.424 474.083 298.458C480.985 319.195 514.608 323.01 513.743 350.028C519.337 400.041 479.315 445.371 484.552 495.252C519.515 534.691 490.291 557.575 481.617 599.605C465.727 632.737 462.263 673.082 434.368 699.04C431.918 698.45 436.536 696.135 434.531 695.081C431.009 695.687 429.835 702.268 427.389 705.166Z" fill="black"/>
<path fill-rule="evenodd" clip-rule="evenodd" d="M239.468 420.689C239.535 420.562 239.595 420.502 239.402 420.516L239.468 420.689ZM55.8512 498.961C54.3769 498.118 53.9481 497.874 53.5198 497.629C52.5651 499.532 53.6606 500.158 55.8512 498.961ZM60.0243 500.238C59.5106 499.211 59.0533 498.296 58.5961 497.381C57.4731 499.648 58.1236 504.532 60.0243 500.238ZM42.3762 357.55C42.1554 352.477 40.6537 356.385 40.8396 359.104C41.4897 361.661 41.9852 358.3 42.3762 357.55ZM314.177 399.776C311.115 398.55 309.037 395.314 306.31 396.407C308.088 399.1 311.098 399.608 314.177 399.776ZM53.0385 505.334C54.293 508.032 52.2933 501.531 51.6011 503.657C51.3469 504.795 52.0303 505.227 53.0385 505.334ZM51.9391 501.623C52.019 501.655 52.099 501.687 52.179 501.719C51.6585 500.484 50.5742 501.009 51.9391 501.623ZM59.228 398.265C59.8256 399.845 56.6602 400.922 59.6053 401.536C60.8362 403.809 57.5796 404.542 59.6063 406.325C59.6877 409.37 59.0808 411.549 60.8362 414.414C62.1711 417.998 58.3729 421.586 60.6012 425.042C60.3873 443.578 69.1152 460.635 68.0864 479.079C66.5017 488.827 69.9114 506.26 57.634 509.339C49.4051 511.016 44.3798 505.813 43.9162 496.488C41.9823 480.345 36.955 445.78 21.9435 441.506C-12.3787 514.438 40.9181 613.454 59.3948 686.763C76.7485 727.455 54.3779 714.592 43.5708 687.142C25.3341 652.059 22.2889 612.29 7.58054 576.523C0.411324 544.81 -0.00568995 510.881 1.30668 478.474C21.8748 398.384 41.1124 451.742 53.563 495.99C55.9552 496.597 52.2634 493.563 54.4598 493.115C54.6085 490.819 54.9803 488.853 53.4703 486.701C55.1329 485.153 52.4503 485.398 53.325 483.978C56.6469 482.765 53.6116 481.117 53.2274 480.261C52.4581 478.548 52.0421 480.85 51.2807 480.913C53.5959 472.516 51.5329 463.592 48.4435 454.953C38.682 426.681 41.3528 392.684 39.33 364.664C39.7049 360.984 40.1989 354.661 37.9014 350.301C42.125 351.747 42.0029 349.666 40.8077 346.715C43.0886 346.385 41.3518 343.41 39.9369 344.979C36.6911 346.009 38.2139 334.359 37.9755 331.922C33.0665 286.75 68.338 123.747 98.2797 175.275C113.344 192.534 109.919 335.663 117.163 253.71C117.716 251.247 120.114 251.327 119.027 253.943C120.793 259.659 124.825 235.338 120.829 233.29C132.01 184.348 141.043 132.976 176.446 94.8189C236.005 33.4633 239.296 88.1879 221.81 150.484C215.066 181.913 160.988 326.85 226.747 236.509C272.685 180.169 335.775 180.446 291.108 266.909C265.317 319.215 218.279 360.175 200.56 416.183C212.108 427.581 255.462 390.58 274.904 389.717C344.737 371.47 339.665 437.302 295.413 468.489C271.634 485.563 243.881 498.122 216.897 513.763C199.847 522.948 184.197 535.15 174.574 552.295C180.754 565.838 204.821 552.42 217.438 555.563C239.799 555.403 268.615 555.828 273.054 583.642C279.156 612.304 252.677 644.653 225.291 648.243C208.513 663.637 167.499 657.466 142.546 671.456C108.494 692.381 169.817 634.146 191.822 645.856C198.523 643.405 204.493 645.772 210.201 643.117C230.624 636.232 265.743 617.392 252.585 592.546C252.626 585.973 251.549 579.559 244.198 577.03C187.744 569.261 109.043 592.486 191.67 516.386C222.392 487.86 265.582 477.395 296.839 449.901C341.456 385.055 261.007 406.077 228.238 426.624C212.414 433.147 193.566 449.559 182.655 428.712C185.619 407.854 191.723 388.415 202.353 370.405C202.174 381.954 198.994 394.763 196.054 406.498C195.437 425.06 216.453 360.652 222.448 357.758C234.512 334.805 252.47 315.939 265.28 293.307C273.76 271.744 303.681 246.577 290.796 223.071C294.146 209.771 282.127 207.651 274.053 212.006C234.574 216.621 223.538 276.692 186.633 279.242C165.07 249.211 195.846 202.124 202.84 169.448C211.107 157.944 213.095 107.918 219.355 111.249C217.039 115.976 221.035 115.067 220.808 110.802C224.722 102.332 220.148 73.3623 225.689 86.147C224.41 53.9505 194.606 85.1579 184.514 96.1131C167.568 116.901 155.752 142.094 145.731 166.773C143.402 193.168 133.324 218.386 129.831 244.565C125.486 267.49 131.114 295.239 114.268 313.621C77.8087 321.218 113.009 187.801 87.8504 169.576C66.4576 177.516 58.9611 236.759 55.6907 258.491C53.8063 265.212 53.8946 252.418 53.0233 250.094C48.393 260.795 54.9328 260.288 55.6534 267.698C54.8199 268.89 53.223 294.123 51.8699 281.34C51.4931 280.856 51.6462 278.858 50.9137 280.492C50.6385 283.943 48.0422 302.163 50.6586 296.733C52.8104 299.471 51.2508 303.515 52.9326 305.213C53.5909 330.32 60.0434 355.349 55.5985 380.188C55.2639 381.074 53.8897 385.653 57.9034 386.531C56.5616 390.745 56.9295 394.549 59.228 398.265Z" fill="black"/>
<path fill-rule="evenodd" clip-rule="evenodd" d="M490.104 535.846C485.908 578.372 464.1 618.159 444.037 655.208C437.255 662.79 442.97 674.821 432.948 680.821C423.275 688.457 421.624 689.562 410.25 684.982C409.148 685.847 408.519 687.074 408.699 688.705C408.791 693.218 402.797 698.76 400.476 698.816C402.76 691.4 392.501 697.334 391.798 678.289C390.793 666.832 399.203 659.885 411.446 661.633C419.552 660.704 423.459 648.216 433.258 651.926C441.796 656.963 447.395 622.368 451.739 615.453C459.636 599.888 468.337 584.615 470.547 566.886C474.456 553.988 472.588 535.1 466.202 519.959C448.415 493.481 440.318 455.304 449.175 424.71C456.029 400.126 468.882 378.175 471.146 353.323C470.963 337.358 450.649 329.579 450.117 315.238C447.205 304.779 456.355 307.031 460.88 306.126C470.206 309.305 477.81 321.946 484.15 329.652C501.068 353.989 481.192 382.344 476.447 406.497C447.274 463.145 477.867 484.824 490.104 535.846Z" fill="black"/>
<path fill-rule="evenodd" clip-rule="evenodd" d="M105.718 540.158C114.648 488.91 117.92 431.127 143.32 385.686C153.655 408.187 137.426 439.481 133.991 463.903C124.263 506.911 119.629 550.889 111.454 594.193C110.156 625.13 102.099 655.097 102.251 686.062C103.897 702.257 83.5214 695.524 86.4194 682.214C90.4684 667.674 86.8109 642.439 96.7241 633.241C96.5441 641.886 89.1016 667.419 92.3793 667.097C94.8765 650.802 97.2221 634.344 102.862 619.831C100.766 604.4 103.742 588.587 106.398 573.348C101.495 576.951 99.522 607.609 97.7578 620.332C93.2285 594.645 103.083 566.509 105.718 540.158Z" fill="black"/>
<path fill-rule="evenodd" clip-rule="evenodd" d="M93.7209 634.284C91.8762 653.225 81.5602 676.069 89.9653 693.665C88.6926 695.801 89.1563 700.31 86.1023 699.657C76.9888 670.523 88.4199 634.69 88.8428 603.664C95.4404 542.343 99.6248 480.696 112.622 420.257C116.448 408.346 146.032 268.44 157.144 300.047C149.085 349.454 124.393 394.968 118.064 444.996C107.134 507.172 100.881 574.962 93.7209 634.284Z" fill="black"/>
<path fill-rule="evenodd" clip-rule="evenodd" d="M253.282 593.993C263.8 620.3 229.852 635.596 210.203 643.116C189.887 646.873 166.036 643.076 148.611 659.413C136.077 667.858 128.56 680.838 120.46 693.196C116.644 699.393 113.327 692.137 111.687 688.462C104.516 665.273 129.682 649.282 145.173 636.893C167.628 621.233 196.96 627.675 220.361 614.254C227.572 611.873 250.272 589.688 253.282 593.993Z" fill="black"/>
<path fill-rule="evenodd" clip-rule="evenodd" d="M29.2157 34.6116H28.7717C28.9322 34.8049 28.9886 34.7661 29.2157 34.6116ZM68.4921 15.2513C68.4411 15.4898 68.5206 15.4279 68.6923 15.3637L68.4921 15.2513ZM30.2848 33.9586C31.2915 32.3666 35.4229 30.6323 33.9103 29.0918C31.9317 29.4121 29.4841 32.528 30.2848 33.9586ZM23.0969 41.9913C26.304 49.9562 23.6228 38.2646 25.2242 34.6626C24.53 37.199 23.3942 39.3292 23.0969 41.9913ZM32.335 52.3254C51.5309 64.5714 57.738 94.4595 80.0277 104.175C80.3638 109.133 87.0124 105.952 87.8587 110.251C87.0281 113.978 94.2552 112.67 94.1949 109.244C95.0863 108.485 95.9572 107.702 96.9133 107.026C98.2409 106.861 97.482 106.022 97.4329 105.412C99.0985 105.608 100.495 106.125 98.8478 107.96C95.4136 111.284 98.8606 114.192 100.553 109.615C102.111 110.842 110.549 65.8298 102.02 76.1374C101.051 75.4687 100.667 75.0615 101.132 73.4763C102.826 68.6645 95.4293 61.2181 91.1787 65.0379C91.5265 60.7564 79.9566 33.6259 75.9704 36.9729C75.18 32.448 57.5344 33.2639 52.4876 32.6781C48.0079 28.7415 38.3327 40.0946 38.2537 31.4379C34.9823 34.4379 29.4473 36.6932 27.1601 39.2581C26.5787 41.8755 27.6934 43.0156 28.9739 45.0674C25.732 46.7231 27.9794 51.953 31.3342 51.0047C31.8071 51.6699 30.6714 52.7497 32.335 52.3254ZM68.5068 11.8799C77.3573 18.425 96.2731 23.3571 101.652 35.9303C117.492 53.23 130.096 83.8305 115.684 97.3874C106.828 150.611 63.1519 103.442 49.0254 80.307C40.6763 64.4183 7.78366 54.9526 17.686 33.9385C23.4335 30.9257 15.7933 43.7035 19.7152 46.5711C22.3487 45.9239 20.0007 33.7094 25.0888 29.9705C28.4092 30.0058 24.8891 31.9118 26.514 33.0274C26.8319 27.6965 32.647 25.945 33.6856 21.4192C44.2076 15.3617 61.5034 20.1225 68.5068 11.8799Z" fill="black"/>
<path fill-rule="evenodd" clip-rule="evenodd" d="M326.758 31.1616C326.709 30.9997 326.614 30.959 326.553 31.1356C326.573 31.3186 326.673 31.3107 326.758 31.1616ZM328.759 30.4801C328.63 30.9982 328.466 31.2764 328.788 31.6806C328.979 31.2087 329.117 30.9815 328.759 30.4801ZM336.675 35.9788C353.001 61.4756 315.086 112.756 300.908 136.179C249.66 188.656 245.557 129.319 275.015 94.849C279.362 92.3508 291.258 85.1242 283.497 94.6547C228.942 193.621 321.545 111.277 327.964 52.5583C326.234 49.755 335.267 48.5055 329.053 45.0521C332.08 45.2817 329.709 42.4955 328.609 41.4417C326.207 43.388 331.924 45.9013 326.741 44.8823C324.604 37.7244 317.812 37.7396 312.477 35.6128C305.594 36.2055 313.257 37.3913 316.177 37.7018C309.07 41.8131 296.798 41.7704 295.746 52.3798C294.454 53.3973 291.486 51.3623 291.488 54.8024C282.551 72.8831 287.864 34.4275 295.219 35.0285C298.988 31.8313 309.277 27.7347 309.206 23.0264C311.226 22.1575 313.869 19.1629 315.637 19.4567C314.232 26.7633 322.958 18.5682 322.719 24.09C327.422 20.9609 326.335 32.604 328.324 25.1536C328.546 24.61 329.038 23.9747 329.055 24.9927C329.213 29.6613 334.524 27.4786 336.675 35.9788Z" fill="black"/>
<path fill-rule="evenodd" clip-rule="evenodd" d="M257.261 306.976C257.109 306.722 257.013 306.911 256.947 307.124C257.059 307.378 257.199 307.17 257.261 306.976ZM224.658 333.397C226.827 333.191 233.995 320.942 233.101 319.463C229.89 319.319 226.126 329.759 224.658 333.397ZM290.79 223.071C309.429 257.225 207.807 357.184 199.264 408.113C197.862 411.642 193.116 409.791 196.053 406.497C202.384 375.465 206.959 344.273 226.799 317.954C244.394 293.406 261.06 268.096 274.637 241.085C278.806 235.258 282.71 221.588 290.79 223.071Z" fill="black"/>
<path fill-rule="evenodd" clip-rule="evenodd" d="M50.5235 136.034C28.6784 173.964 6.77384 218.866 20.4519 262.452C-2.57169 232.86 11.0627 167.907 35.1666 139.752C37.9557 134.388 48.9826 124.47 50.5235 136.034Z" fill="black"/>
<path fill-rule="evenodd" clip-rule="evenodd" d="M277.304 93.7016C276.342 93.9361 275.372 93.784 275.013 94.8491L275.037 94.8158C251.374 101.622 251.772 89.0207 270.787 76.9518C275.837 68.0145 288.089 63.7413 291.489 54.804C291.484 51.3619 294.452 53.3974 295.744 52.3784C323.572 61.7554 289.438 87.151 277.304 93.7016Z" fill="black"/>
<path fill-rule="evenodd" clip-rule="evenodd" d="M344.735 314.01C337.061 315.175 295.594 330.202 303.795 311.927C317.895 305.814 333.624 299.85 349.108 302.182C355.867 304.27 354 315.213 344.735 314.01Z" fill="black"/>
<path fill-rule="evenodd" clip-rule="evenodd" d="M16.5703 99.9404C20.5172 101.868 20.0541 105.91 23.7278 108.198C28.2506 110.109 25.9821 114.076 24.1286 115.867C16.2377 121.361 17.0702 137.594 8.441 139.793C-0.234861 138.223 4.69866 131.234 2.94769 124.824C1.11872 113.556 4.15949 102.453 16.5703 99.9404Z" fill="black"/>
<path fill-rule="evenodd" clip-rule="evenodd" d="M261.989 56.0887C250.999 57.7288 238.178 52.626 231.773 44.0743C232.105 42.4268 233.312 44.5762 233.874 44.1121C240.141 38.764 231.583 41.3818 234.168 38.5991C237.608 39.7344 244.51 40.9486 246.886 40.0498C249.1 37.3868 250.542 41.3455 253.212 40.7264C257.287 39.781 261.875 40.5223 266.292 40.2206C283.123 42.0221 269.629 56.3188 261.989 56.0887Z" fill="black"/>
<path fill-rule="evenodd" clip-rule="evenodd" d="M19.8203 701.596C-3.03504 703.565 1.7935 665.835 12.8076 678.16C13.4787 683.688 16.2477 689.916 21.3716 693.842C22.7688 694.914 22.6844 696.314 22.0947 697.043C20.9448 698.463 24.146 702.525 19.8203 701.596Z" fill="black"/>
<path fill-rule="evenodd" clip-rule="evenodd" d="M68.5062 11.8797C61.4891 20.1131 44.2228 15.3743 33.6836 21.4186C38.3389 12.0765 50.1822 17.7881 57.6133 12.4415C59.1509 12.1103 70.6443 8.72171 68.5062 11.8797Z" fill="black"/>
<path fill-rule="evenodd" clip-rule="evenodd" d="M488.346 156.976C473.954 162.9 484.651 143.529 478.844 136.956C486.109 132.406 481.814 144.114 484.725 147.288L484.703 147.261C485.892 150.506 487.503 153.623 488.346 156.976Z" fill="black"/>
<path fill-rule="evenodd" clip-rule="evenodd" d="M209.125 76.2608C208.575 71.5667 211.663 71.9175 214.436 74.0345C225.036 76.4958 225.168 91.3695 221.151 98.0913C217.948 89.2324 223.71 73.9442 209.125 76.2608Z" fill="black"/>
<path fill-rule="evenodd" clip-rule="evenodd" d="M356.424 161.694C363.264 158.304 362.305 172.763 361.469 177.888C364.87 176.221 364.908 181.487 367.841 179.316C366.792 180.643 369.125 183.117 367.104 183.542C363.396 184.496 365.664 179.558 363.338 179.171C360.591 196.113 358.422 167.969 356.424 161.694Z" fill="black"/>
<path fill-rule="evenodd" clip-rule="evenodd" d="M460.392 198.557C462.589 209.011 457.149 223.96 453.411 233.512C450.335 230.554 453.468 226.754 454.159 225.156C456.566 219.596 453.904 212.779 458.878 207.998C456.159 201.169 460.274 204.75 460.392 198.557Z" fill="black"/>
<path fill-rule="evenodd" clip-rule="evenodd" d="M470.549 566.886C468.665 580.7 463.434 593.302 456.645 605.34C459.351 592.151 466.637 579.665 470.549 566.886Z" fill="black"/>
<path fill-rule="evenodd" clip-rule="evenodd" d="M493.28 560.478C496.25 564.836 488.983 581.102 486.342 586.69C488.629 577.789 487.974 568.449 493.305 560.449L493.28 560.478Z" fill="black"/>
<path fill-rule="evenodd" clip-rule="evenodd" d="M309.204 23.0249C309.419 28.7552 302.85 27.5615 300.777 31.2337C299.629 32.575 295.017 36.7049 294.293 33.2766C298.092 28.2562 302.307 23.6367 309.204 23.0249Z" fill="black"/>
<path fill-rule="evenodd" clip-rule="evenodd" d="M203.588 414.211C203.656 414.088 203.739 414.018 203.534 414.023L203.588 414.211ZM202.512 416.621C202.339 416.997 202.223 417.155 202.671 417.141C202.866 416.976 202.645 416.798 202.512 416.621ZM207.316 419.231C193.968 419.627 204.495 404.301 208.697 398.831C208.045 405.727 200.578 415.044 207.316 419.231Z" fill="black"/>
<path fill-rule="evenodd" clip-rule="evenodd" d="M55.6515 267.698C54.2921 259.671 49.3374 261.6 52.5386 249.98C54.6703 252.364 53.0857 258.61 54.7984 260.878C56.5959 255.444 55.4862 248.296 57.6051 242.552C57.7812 250.898 57.3176 259.55 55.6515 267.698Z" fill="black"/>
<path fill-rule="evenodd" clip-rule="evenodd" d="M333.818 29.0341C327.779 29.093 329.63 23.429 328.323 25.152C326.244 33.325 327.372 20.8229 323.346 24.0775C321.952 19.0135 314.92 26.4737 315.635 19.4575C322.51 19.9486 332.048 21.3939 333.818 29.0341Z" fill="black"/>
<path fill-rule="evenodd" clip-rule="evenodd" d="M52.5219 302.482C50.9235 300.979 51.8782 293.641 49.5469 299.077C49.7112 292.842 49.8403 285.65 51.472 279.734C52.649 286.683 53.5679 295.064 52.5219 302.482Z" fill="black"/>
<path fill-rule="evenodd" clip-rule="evenodd" d="M120.828 233.289C123.6 235.308 123.041 237.861 121.981 240.494C117.077 244.73 123.711 250.191 120.51 254.383C116.037 255.936 120.272 239.2 120.828 233.289Z" fill="black"/>
<path fill-rule="evenodd" clip-rule="evenodd" d="M315.008 600.964C316.406 601.122 312.101 604.222 316.092 603.083C315.62 611.881 309.865 620.358 307.964 629.085C305.429 625.913 314.065 608.581 315.008 600.964Z" fill="black"/>
<path fill-rule="evenodd" clip-rule="evenodd" d="M365.912 559.915C368.015 557.73 367.826 551.118 363.853 552.505C362.059 552.284 363.019 556.848 360.283 554.465C361.702 542.416 376.756 550.143 365.912 559.915Z" fill="black"/>
<path fill-rule="evenodd" clip-rule="evenodd" d="M57.9043 386.531C51.915 383.217 58.0161 372.657 56.7818 366.755C58.4768 365.643 57.9504 377.874 58.5553 381.338C58.621 383.027 61.8325 385.315 57.9043 386.531Z" fill="black"/>
<path fill-rule="evenodd" clip-rule="evenodd" d="M463.139 189.719C463.041 189.678 463.09 189.698 463.139 189.719C463.249 189.503 463.135 189.563 463.139 189.719ZM466.401 179.557C468.515 188.087 458.471 202.249 462.522 186.119C462.077 183.108 466.999 182.891 464.703 179.981L466.401 179.557Z" fill="black"/>
<path fill-rule="evenodd" clip-rule="evenodd" d="M111.686 688.462C115.228 693.121 115.659 698.305 109.545 701.033C110.054 696.789 109.519 692.313 111.686 688.462Z" fill="black"/>
<path fill-rule="evenodd" clip-rule="evenodd" d="M248.225 497.159C252.695 492.121 258.328 489.118 264.843 487.662C261.095 493.464 253.746 493.9 248.225 497.159Z" fill="black"/>
<path fill-rule="evenodd" clip-rule="evenodd" d="M368.267 199.057C361.993 200.294 357.304 177.724 364.282 189.527C365.942 191.93 361.957 197.305 368.344 197.258C368.318 197.858 368.293 198.457 368.267 199.057Z" fill="black"/>
<path fill-rule="evenodd" clip-rule="evenodd" d="M37.7014 339.898C40.3011 341.068 36.077 345.625 39.9361 344.979C40.5366 344.836 41.2117 343.87 41.6827 344.981C41.6047 357.367 34.3309 347.493 37.7014 339.898Z" fill="black"/>
<path fill-rule="evenodd" clip-rule="evenodd" d="M98.2813 175.276C94.3785 177.469 94.8264 168.529 89.9336 168.619C81.4457 162.471 98.4908 168.065 98.2813 175.276Z" fill="black"/>
<path fill-rule="evenodd" clip-rule="evenodd" d="M427.389 705.166C428.05 702.879 437.058 688.976 433.908 697.752C433.887 700.12 431.702 704.956 427.389 705.166Z" fill="black"/>
<path fill-rule="evenodd" clip-rule="evenodd" d="M51.2275 464.239C54.3885 469.32 50.4161 485.908 50.6001 473.568C49.1258 471.189 49.5624 467.285 51.2275 464.239Z" fill="black"/>
<path fill-rule="evenodd" clip-rule="evenodd" d="M59.2283 398.265C57.4062 394.896 56.1846 391.445 57.7609 387.607C61.3909 390.727 59.588 394.596 59.2283 398.265Z" fill="black"/>
<path fill-rule="evenodd" clip-rule="evenodd" d="M117.163 253.708C116.463 260.026 118.425 266.65 114.982 272.651C115.62 266.324 115.083 259.795 117.163 253.708Z" fill="black"/>
<path fill-rule="evenodd" clip-rule="evenodd" d="M364.973 204.518C368.55 207.289 369.01 216.483 368.378 221.698C367.241 215.972 366.107 210.245 364.973 204.518Z" fill="black"/>
<path fill-rule="evenodd" clip-rule="evenodd" d="M53.5103 487.678C56.3186 489.055 53.7233 491.376 54.4592 493.115C52.2627 493.563 55.9545 496.597 53.5653 495.989C49.3289 494.451 51.3595 489.863 53.5103 487.678Z" fill="black"/>
<path fill-rule="evenodd" clip-rule="evenodd" d="M33.6807 21.4189C32.6671 25.9541 26.8034 27.6854 26.5144 33.0276C24.1737 28.6819 29.7725 25.7441 33.6807 21.4189Z" fill="black"/>
<path fill-rule="evenodd" clip-rule="evenodd" d="M354.878 153.381C354.728 153.314 354.646 153.287 354.615 153.487C354.766 153.556 354.847 153.585 354.878 153.381ZM353.65 148.354C353.918 151.828 359.268 157.955 355.419 160.19C356.742 155.959 350.838 152.808 353.65 148.354Z" fill="black"/>
<path fill-rule="evenodd" clip-rule="evenodd" d="M200.637 74.4673C203.779 72.0079 205.535 67.7636 210.391 69.4175C206.858 70.4281 204.701 74.7999 200.637 74.4673Z" fill="black"/>
<path fill-rule="evenodd" clip-rule="evenodd" d="M374.029 199.742C377.754 204.24 368.298 208.06 369.849 201.738C371.693 202.015 373.419 202.045 374.029 199.742Z" fill="black"/>
<path fill-rule="evenodd" clip-rule="evenodd" d="M481.64 160.237C485.264 162.425 481.916 165.558 479.47 165.166C478.43 163.367 479.537 161.295 481.64 160.237Z" fill="black"/>
<path fill-rule="evenodd" clip-rule="evenodd" d="M58.918 94.3018C62.3566 95.2575 62.9326 98.5043 64.3416 101.085C60.247 100.654 60.4859 96.7543 58.918 94.3018Z" fill="black"/>
<path fill-rule="evenodd" clip-rule="evenodd" d="M478.832 132.897C483.09 126.346 485.345 136.71 479.205 135.617C476.224 134.27 484.207 134.689 478.832 132.897Z" fill="black"/>
<path fill-rule="evenodd" clip-rule="evenodd" d="M222.608 651.378C218.295 647.806 226.626 646.883 225.761 650.634C225.025 651.445 223.942 652.397 222.608 651.378Z" fill="black"/>
<path fill-rule="evenodd" clip-rule="evenodd" d="M479.919 166.555C479.003 169.631 482.644 166.715 483.315 168.985C478.719 172.056 474.077 165.563 479.919 166.555Z" fill="black"/>
<path fill-rule="evenodd" clip-rule="evenodd" d="M48.4445 454.953C49.2785 457.8 50.1121 460.648 50.9461 463.495C48.9395 460.991 47.531 458.312 48.4445 454.953Z" fill="black"/>
<path fill-rule="evenodd" clip-rule="evenodd" d="M39.459 369.315C41.5053 372.173 39.6655 375.108 39.6297 378.007C37.9817 375.14 39.1955 372.218 39.459 369.315Z" fill="black"/>
<path fill-rule="evenodd" clip-rule="evenodd" d="M472.134 560.164C471.835 560.057 472.758 565.256 470.906 566.332C471.019 564.217 470.746 562.025 472.134 560.164Z" fill="black"/>
<path fill-rule="evenodd" clip-rule="evenodd" d="M219.288 108.259C217.495 108.959 219.229 101.072 220.089 102.785C220.071 104.642 221.16 106.677 219.288 108.259Z" fill="black"/>
<path fill-rule="evenodd" clip-rule="evenodd" d="M60.6945 413.22C58.3028 411.534 59.8242 409.281 59.8286 407.248C59.7791 409.287 62.6187 410.908 60.6945 413.22Z" fill="black"/>
<path fill-rule="evenodd" clip-rule="evenodd" d="M482.176 129.775C482.1 127.951 482.023 126.127 481.947 124.303C484.621 126.018 485.116 127.825 482.176 129.775Z" fill="black"/>
<path fill-rule="evenodd" clip-rule="evenodd" d="M184.114 422.429C183.703 424.368 183.291 426.307 182.879 428.246C181.347 425.894 180.511 423.69 184.114 422.429Z" fill="black"/>
<path fill-rule="evenodd" clip-rule="evenodd" d="M38.6319 352.277C40.2396 354.457 39.6283 356.838 39.2589 359.196C38.31 356.957 37.9588 354.664 38.6319 352.277Z" fill="black"/>
<path fill-rule="evenodd" clip-rule="evenodd" d="M364.453 199.62C365.675 201.092 367.949 201.778 365.467 203.5C365.802 202.03 362.111 201.614 364.453 199.62Z" fill="black"/>
<path fill-rule="evenodd" clip-rule="evenodd" d="M356.533 572.454C358.096 570.431 359.659 568.409 361.222 566.388C361.058 569.491 358.764 570.948 356.533 572.454Z" fill="black"/>
<path fill-rule="evenodd" clip-rule="evenodd" d="M51.2812 480.912C52.0422 480.849 52.4587 478.548 53.2275 480.26C56.6318 482.97 53.0528 485.513 51.2812 480.912Z" fill="black"/>
<path fill-rule="evenodd" clip-rule="evenodd" d="M37.9773 331.921C37.8684 334.057 37.7595 336.192 37.6506 338.328C36.7209 336.139 36.0242 333.963 37.9773 331.921Z" fill="black"/>
<path fill-rule="evenodd" clip-rule="evenodd" d="M336.673 35.9786C335.849 34.391 335.024 32.8034 334.199 31.2163C337.68 31.4224 336.862 33.8636 336.673 35.9786Z" fill="black"/>
<path fill-rule="evenodd" clip-rule="evenodd" d="M351.514 578.091C351.87 576.101 353.434 575.199 354.959 574.262C354.734 576.37 353.195 577.295 351.514 578.091Z" fill="black"/>
<path fill-rule="evenodd" clip-rule="evenodd" d="M462.308 194.972C461.624 196.121 460.94 197.27 460.255 198.418C458.081 196.655 461.309 195.844 462.308 194.972Z" fill="black"/>
<path fill-rule="evenodd" clip-rule="evenodd" d="M60.6007 425.042C58.4268 421.35 61.7188 417.232 61.0506 423.456C60.8617 423.885 60.7641 424.528 60.6007 425.042Z" fill="black"/>
<path fill-rule="evenodd" clip-rule="evenodd" d="M471.287 556C473.67 556.438 471.709 557.56 471.662 558.376C471.537 557.58 471.412 556.79 471.287 556Z" fill="black"/>
<path fill-rule="evenodd" clip-rule="evenodd" d="M59.6071 406.324C58.2231 405.258 58.9207 404.442 59.9275 403.664C62.0395 404.818 60.3037 405.509 59.6071 406.324Z" fill="black"/>
<path fill-rule="evenodd" clip-rule="evenodd" d="M59.6048 401.536C56.5886 400.887 59.5572 398.893 61.0477 399.369C60.5507 399.962 60.0935 400.842 59.6048 401.536Z" fill="black"/>
<path fill-rule="evenodd" clip-rule="evenodd" d="M341.44 585.717C341.267 583.139 343.366 584.422 344.434 583.954C344.328 586.058 342.368 585.011 341.44 585.717Z" fill="black"/>
<path fill-rule="evenodd" clip-rule="evenodd" d="M182.655 428.712C183.16 429.569 183.663 430.427 184.168 431.283C182.668 431.012 181.17 430.742 182.655 428.712Z" fill="black"/>
<path fill-rule="evenodd" clip-rule="evenodd" d="M338.616 587.557C338.494 585.552 339.631 585.749 340.932 586.233C340.16 586.675 339.388 587.116 338.616 587.557Z" fill="black"/>
<path fill-rule="evenodd" clip-rule="evenodd" d="M39.6766 365.655C40.3223 366.534 40.5892 367.341 39.2582 367.842C39.5152 367.136 37.907 366.072 39.6766 365.655Z" fill="black"/>
<path fill-rule="evenodd" clip-rule="evenodd" d="M55.2896 271.469C54.4134 270.522 54.3884 269.594 55.3524 268.689C55.3313 269.616 55.3102 270.542 55.2896 271.469Z" fill="black"/>
<path fill-rule="evenodd" clip-rule="evenodd" d="M478.798 133.34L480.9 133.657C479.47 134.953 475.231 134.397 478.798 133.34Z" fill="black"/>
<path fill-rule="evenodd" clip-rule="evenodd" d="M54.1875 275.835C54.4873 274.915 54.7875 273.996 55.0873 273.076C55.7432 274.308 54.8425 275.031 54.1875 275.835Z" fill="black"/>
<path fill-rule="evenodd" clip-rule="evenodd" d="M39.3262 362.913C40.4997 363.493 40.2117 364.077 39.3311 364.664C39.3291 364.08 39.3276 363.496 39.3262 362.913Z" fill="black"/>
<path fill-rule="evenodd" clip-rule="evenodd" d="M335.441 589.291C336.093 588.93 336.744 588.568 337.395 588.207C337.433 589.81 336.2 589.124 335.441 589.291Z" fill="black"/>
<path fill-rule="evenodd" clip-rule="evenodd" d="M53.0126 484.906C54.3353 485.204 54.1744 485.883 53.4718 486.7C51.7454 486.505 52.1869 485.754 53.0126 484.906Z" fill="black"/>
<path fill-rule="evenodd" clip-rule="evenodd" d="M61.041 430.384C61.1122 429.615 61.1838 428.845 61.2554 428.075C61.7014 428.893 62.6203 429.755 61.041 430.384Z" fill="black"/>
<path fill-rule="evenodd" clip-rule="evenodd" d="M334.732 591.461C334.864 590.91 334.996 590.359 335.128 589.807C334.996 590.359 334.864 590.91 334.732 591.461Z" fill="black"/>
<path fill-rule="evenodd" clip-rule="evenodd" d="M52.9322 305.212C51.7758 304.726 51.5477 304.165 52.7948 303.487L52.9322 305.212Z" fill="black"/>
<path fill-rule="evenodd" clip-rule="evenodd" d="M362.689 565.144C363.01 564.632 363.331 564.121 363.652 563.609C363.566 564.268 363.912 565.198 362.689 565.144Z" fill="black"/>
<path fill-rule="evenodd" clip-rule="evenodd" d="M61.2005 415.459C61.0783 415.111 60.9561 414.762 60.834 414.414C61.6616 414.642 61.8657 414.802 61.2005 415.459Z" fill="black"/>
<path fill-rule="evenodd" clip-rule="evenodd" d="M427.64 154.721C426.64 153.938 427.415 153.631 428.192 153.173C429.349 153.534 428.285 154.099 427.64 154.721Z" fill="black"/>
<path fill-rule="evenodd" clip-rule="evenodd" d="M436.031 697.433C436.456 696.955 436.88 696.478 437.306 696C436.881 696.478 436.456 696.956 436.031 697.433Z" fill="black"/>
<path fill-rule="evenodd" clip-rule="evenodd" d="M61.0374 427.197C60.6979 426.098 61.189 426.09 62.1196 426.128C61.7586 426.484 61.398 426.84 61.0374 427.197Z" fill="black"/>
<path fill-rule="evenodd" clip-rule="evenodd" d="M37.5023 317.458C37.4434 318.074 37.385 318.69 37.3261 319.306C36.3601 318.593 36.6663 318 37.5023 317.458Z" fill="black"/>
<path fill-rule="evenodd" clip-rule="evenodd" d="M37.2168 328.176C37.336 328.533 37.4552 328.89 37.5744 329.247C37.4552 328.89 37.336 328.533 37.2168 328.176Z" fill="black"/>
<path fill-rule="evenodd" clip-rule="evenodd" d="M333.344 596.859C333.383 596.473 333.421 596.087 333.46 595.701C333.421 596.087 333.383 596.473 333.344 596.859Z" fill="black"/>
<path fill-rule="evenodd" clip-rule="evenodd" d="M466.1 178.665C465.883 178.621 465.672 178.518 465.447 178.452C465.665 178.523 465.882 178.593 466.1 178.665Z" fill="black"/>
<path fill-rule="evenodd" clip-rule="evenodd" d="M464.113 177.32C464.094 177.508 464.013 177.526 463.854 177.446C463.924 177.28 463.949 177.079 464.113 177.32Z" fill="black"/>
<path fill-rule="evenodd" clip-rule="evenodd" d="M413.004 71.2275C412.913 71.4542 412.823 71.6804 412.732 71.9065C412.806 71.6735 413.021 71.4444 413.004 71.2275Z" fill="black"/>
<path fill-rule="evenodd" clip-rule="evenodd" d="M367.162 196.154C366.753 195.638 366.855 195.469 367.459 195.429C368.028 195.688 367.587 195.892 367.162 196.154Z" fill="black"/>
<path fill-rule="evenodd" clip-rule="evenodd" d="M484.725 147.288C485.042 147.245 485.597 146.691 485.688 147.137C485.376 147.206 484.934 147.175 484.725 147.288Z" fill="black"/>
<path fill-rule="evenodd" clip-rule="evenodd" d="M61.0488 399.368L61.4521 399.104C61.3275 399.205 61.0783 399.253 61.0488 399.368Z" fill="black"/>
<path fill-rule="evenodd" clip-rule="evenodd" d="M61.0508 423.455C61.1729 423.379 61.2946 423.302 61.4168 423.225C61.3196 423.31 61.0675 423.368 61.0508 423.455Z" fill="black"/>
<path fill-rule="evenodd" clip-rule="evenodd" d="M50.5342 487.882C50.2884 487.013 50.4832 487.035 51.2269 487.387C50.9959 487.552 50.7653 487.717 50.5342 487.882Z" fill="black"/>
<path fill-rule="evenodd" clip-rule="evenodd" d="M360.857 480.065C360.811 479.941 360.781 479.893 360.942 479.932L360.857 480.065Z" fill="black"/>
<path fill-rule="evenodd" clip-rule="evenodd" d="M7.58008 576.522C7.58008 576.522 7.60412 576.541 7.60461 576.54L7.58008 576.522Z" fill="black"/>
<path fill-rule="evenodd" clip-rule="evenodd" d="M294.292 33.2769L294.191 33.375C294.198 33.3583 294.361 33.3024 294.292 33.2769Z" fill="black"/>
<path fill-rule="evenodd" clip-rule="evenodd" d="M232.193 647.933C232.038 648.128 231.945 648.126 231.807 647.918C231.959 647.723 232.056 647.725 232.193 647.933Z" fill="black"/>
<path fill-rule="evenodd" clip-rule="evenodd" d="M460.12 201.759C459.841 201.977 459.561 202.195 459.281 202.413C459.56 202.195 459.841 201.977 460.12 201.759Z" fill="black"/>
<path fill-rule="evenodd" clip-rule="evenodd" d="M62.1285 426.136L62.1191 426.127C62.1196 426.127 62.1285 426.136 62.1285 426.136Z" fill="black"/>
<path fill-rule="evenodd" clip-rule="evenodd" d="M495.489 525.229C495.232 523.001 493.425 520.581 494.795 518.506C495.435 520.377 496.94 523.799 495.489 525.229Z" fill="black"/>
<path fill-rule="evenodd" clip-rule="evenodd" d="M409.725 393.897C408.045 396.262 407.956 389.442 408.801 387.914C409.088 389.77 409.375 391.627 409.725 393.897Z" fill="black"/>
<path fill-rule="evenodd" clip-rule="evenodd" d="M410.867 142.036C412.243 142.048 413.889 144.707 414.092 145.751C413.626 149.244 411.038 143.174 410.867 142.036Z" fill="black"/>
<path fill-rule="evenodd" clip-rule="evenodd" d="M475.891 126C474.804 129.238 474.157 125.575 475.08 124.01C475.336 124.638 475.592 125.266 475.891 126Z" fill="black"/>
<path fill-rule="evenodd" clip-rule="evenodd" d="M396.135 112.762C395.002 112.636 392.874 112.283 394.087 110.773C394.849 111.355 396.58 110.937 396.135 112.762Z" fill="black"/>
<path fill-rule="evenodd" clip-rule="evenodd" d="M397.958 114.77C397.394 114.115 396.83 113.46 396.266 112.807C398.134 112.335 398.004 113.589 397.958 114.77Z" fill="black"/>
<path fill-rule="evenodd" clip-rule="evenodd" d="M408.6 396.741C409.015 396.358 409.599 396.386 409.734 396.879C409.339 397.654 409.174 397.553 408.6 396.741Z" fill="black"/>
<path fill-rule="evenodd" clip-rule="evenodd" d="M475.103 122.221C474.407 122.467 474.144 122.259 474.225 121.634C474.733 121.169 474.98 121.596 475.103 122.221Z" fill="black"/>
<path fill-rule="evenodd" clip-rule="evenodd" d="M493.306 560.449C492.317 560.325 492.336 560.103 492.957 559.388C493.093 559.728 493.14 560.226 493.306 560.449Z" fill="black"/>
<path fill-rule="evenodd" clip-rule="evenodd" d="M490.088 535.838L490.155 535.773C490.143 535.779 490.108 535.869 490.088 535.838Z" fill="black"/>
<path fill-rule="evenodd" clip-rule="evenodd" d="M314.177 399.775C311.103 399.61 308.086 399.098 306.311 396.409C309.036 395.313 311.117 398.55 314.177 399.775Z" fill="black"/>
<path fill-rule="evenodd" clip-rule="evenodd" d="M42.377 357.55C41.9859 358.299 41.4904 361.662 40.8399 359.103C40.6554 356.383 42.1562 352.477 42.377 357.55Z" fill="black"/>
<path fill-rule="evenodd" clip-rule="evenodd" d="M60.024 500.238C58.1229 504.533 57.4734 499.645 58.5964 497.381C59.0531 498.296 59.5108 499.21 60.024 500.238Z" fill="black"/>
<path fill-rule="evenodd" clip-rule="evenodd" d="M55.8519 498.961C53.6619 500.159 52.5653 499.53 53.5206 497.628C53.9489 497.873 54.3776 498.118 55.8519 498.961Z" fill="black"/>
<path fill-rule="evenodd" clip-rule="evenodd" d="M53.0383 505.334C51.6116 505.367 50.8998 503.721 52.3122 503C52.5595 503.765 52.7778 504.616 53.0383 505.334Z" fill="black"/>
<path fill-rule="evenodd" clip-rule="evenodd" d="M121.34 249.066C121.44 248.687 121.54 248.308 121.641 247.929C121.54 248.308 121.44 248.687 121.34 249.066Z" fill="black"/>
<path fill-rule="evenodd" clip-rule="evenodd" d="M51.9392 501.623C51.4217 501.334 50.8692 501.225 51.5669 500.745C51.6566 501.033 51.9932 501.364 51.9392 501.623Z" fill="black"/>
<path fill-rule="evenodd" clip-rule="evenodd" d="M53.0273 505.345C53.359 505.602 54.0581 505.774 53.4802 506.111C53.3212 505.861 53.1946 505.552 53.0273 505.345Z" fill="black"/>
<path fill-rule="evenodd" clip-rule="evenodd" d="M200.735 74.5515C200.587 74.7713 200.535 75.3708 200.277 75.0367C200.413 74.8984 200.554 74.3509 200.735 74.5515Z" fill="black"/>
<path fill-rule="evenodd" clip-rule="evenodd" d="M51.9865 501.575C52.0508 501.623 52.115 501.671 52.1798 501.719C52.1145 501.671 51.8795 501.659 51.9865 501.575Z" fill="black"/>
<path fill-rule="evenodd" clip-rule="evenodd" d="M94.485 649.276C94.2338 655.848 93.7721 663.226 91.2656 669.311C92.2223 662.614 91.8548 655.682 94.485 649.276Z" fill="black"/>
<path fill-rule="evenodd" clip-rule="evenodd" d="M96.7631 625.696C96.1459 628.457 98.595 634.335 94.2404 633.167C93.3185 630.857 93.5972 624.387 96.7631 625.696Z" fill="black"/>
<path fill-rule="evenodd" clip-rule="evenodd" d="M97.3745 621.705C97.5973 628.727 93.7558 620.928 96.986 618.515C98.6815 619.178 97.4687 620.437 97.3745 621.705Z" fill="black"/>
<path fill-rule="evenodd" clip-rule="evenodd" d="M93.7207 634.285C93.3307 633.888 93.7693 633.938 94.1436 633.894C94.0018 634.025 93.8615 634.155 93.7207 634.285Z" fill="black"/>
<path fill-rule="evenodd" clip-rule="evenodd" d="M96.4052 623.732C96.518 624.388 96.9993 625.063 96.7628 625.698C94.7984 625.451 95.2876 624.964 96.4052 623.732Z" fill="black"/>
<path fill-rule="evenodd" clip-rule="evenodd" d="M44.1987 62.1374C41.2295 30.3648 72.7853 74.5242 77.183 83.6195C82.4252 95.0693 83.8067 68.3691 91.1785 65.0403C113.043 59.7619 96.1307 109.744 80.0339 104.175C62.904 96.729 54.2369 76.9664 44.1987 62.1374Z" fill="black"/>
<path fill-rule="evenodd" clip-rule="evenodd" d="M96.7337 92.8978C100.334 83.5782 106.911 59.4949 104.935 87.0429C102.087 88.6481 101.763 89.8835 105.444 90.5316C106.074 92.5681 106.143 94.4167 103.792 95.4509C102.416 95.9464 101.283 90.5306 100.131 94.9416C98.8163 100.336 94.9553 104.158 92.3752 108.633C91.6932 112.186 93.7391 108.5 94.1938 109.243C93.9932 112.458 91.2232 111.951 89.3148 112.408C87.7267 112.786 87.8508 111.323 87.8582 110.251C89.1136 109.524 85.8717 107.344 88.4371 107.552C93.8426 105.551 95.0372 97.9981 96.7337 92.8978Z" fill="black"/>
<path fill-rule="evenodd" clip-rule="evenodd" d="M97.4314 105.412C103.777 97.3594 102.693 100.688 101.724 108.739C99.8245 109.177 99.8113 113.005 97.9146 112.01C95.1324 110.18 102.977 105.597 97.4314 105.412Z" fill="black"/>
<path fill-rule="evenodd" clip-rule="evenodd" d="M39.1181 35.3266C36.9197 36.6959 31.6752 39.2696 35.2257 34.9424C31.1635 35.6366 40.1165 28.2162 39.1181 35.3266Z" fill="black"/>
<path fill-rule="evenodd" clip-rule="evenodd" d="M30.1201 37.6306C27.8481 39.3928 30.8633 42.1711 28.898 43.9922C25.5908 43.0365 26.4533 36.5915 30.1201 37.6306Z" fill="black"/>
<path fill-rule="evenodd" clip-rule="evenodd" d="M23.0957 41.9913C23.392 39.3317 24.5288 37.1976 25.223 34.6626C23.6216 38.2636 26.3028 49.9572 23.0957 41.9913Z" fill="black"/>
<path fill-rule="evenodd" clip-rule="evenodd" d="M28.9706 45.0674C28.9942 47.3511 29.9597 49.2606 31.3324 51.0062C27.9649 51.9442 25.7503 46.7345 28.9706 45.0674Z" fill="black"/>
<path fill-rule="evenodd" clip-rule="evenodd" d="M30.2834 33.9586C29.4808 32.5314 31.9299 29.4122 33.9075 29.0908C35.4225 30.6313 31.2901 32.3661 30.2834 33.9586Z" fill="black"/>
<path fill-rule="evenodd" clip-rule="evenodd" d="M45.586 33.3203C44.3404 34.9835 42.6748 35.3951 40.7227 34.9545C41.9781 33.3208 43.7826 33.3218 45.586 33.3203Z" fill="black"/>
<path fill-rule="evenodd" clip-rule="evenodd" d="M52.4863 32.6792C51.0086 34.0019 49.5977 32.6302 48.1543 32.5718C49.6418 30.8508 51.0621 31.8472 52.4863 32.6792Z" fill="black"/>
<path fill-rule="evenodd" clip-rule="evenodd" d="M32.4338 52.3623C33.2443 53.1355 34.0552 53.9082 34.8662 54.6814C33.4057 54.5901 32.2076 54.2242 32.4338 52.3623Z" fill="black"/>
<path fill-rule="evenodd" clip-rule="evenodd" d="M31.5534 51.3003C31.8134 51.6427 32.0735 51.9852 32.3345 52.3271C31.3066 52.57 31.0741 52.2064 31.5534 51.3003Z" fill="black"/>
<path fill-rule="evenodd" clip-rule="evenodd" d="M95.9609 107.735C96.0237 106.882 96.0473 106.459 96.9122 107.027C96.5948 107.262 96.2779 107.499 95.9609 107.735Z" fill="black"/>
<path fill-rule="evenodd" clip-rule="evenodd" d="M68.4916 15.251L68.6923 15.3633C68.5201 15.4281 68.4411 15.4889 68.4916 15.251Z" fill="black"/>
<path fill-rule="evenodd" clip-rule="evenodd" d="M29.2155 34.6113C28.9883 34.7659 28.9319 34.8046 28.7715 34.6113H29.2155Z" fill="black"/>
<path fill-rule="evenodd" clip-rule="evenodd" d="M101.703 108.757C101.866 108.944 102.168 109.114 101.809 109.214C101.76 109.062 101.784 108.83 101.703 108.757Z" fill="black"/>
<path fill-rule="evenodd" clip-rule="evenodd" d="M328.745 48.0758C328.471 47.9065 328.3 47.7186 328.071 47.8408C328.014 48.3539 328.242 48.1552 328.745 48.0758ZM327.968 52.5609C326.556 45.9617 321.344 43.9772 315.753 42.3141C307.68 39.3685 321.591 37.3477 309.164 36.5775C314.635 34.4222 324.387 38.0856 326.74 44.88C326.775 45.1277 328.408 45.0664 329.052 45.0522C335.265 48.505 326.232 49.7551 327.968 52.5609Z" fill="black"/>
<path fill-rule="evenodd" clip-rule="evenodd" d="M290.843 84.7676C289.443 85.8283 287.642 90.6961 286.275 89.3852C287.243 87.2957 287.942 84.9417 290.843 84.7676Z" fill="black"/>
<path fill-rule="evenodd" clip-rule="evenodd" d="M329.076 45.0748C328.967 43.8581 326.982 42.8823 328.608 41.4414C329.766 42.5566 332.009 45.2338 329.076 45.0748Z" fill="black"/>
<path fill-rule="evenodd" clip-rule="evenodd" d="M280.459 92.0556C281.647 91.2005 282.834 90.3458 284.021 89.4902C283.472 91.2338 281.849 91.4836 280.459 92.0556Z" fill="black"/>
<path fill-rule="evenodd" clip-rule="evenodd" d="M277.305 93.7015C277.78 93.3331 278.255 92.9646 278.73 92.5967C278.254 92.9651 277.78 93.3331 277.305 93.7015Z" fill="black"/>
<path fill-rule="evenodd" clip-rule="evenodd" d="M328.758 30.48C329.116 30.9809 328.978 31.2085 328.787 31.68C328.465 31.2762 328.629 30.9986 328.758 30.48Z" fill="black"/>
<path fill-rule="evenodd" clip-rule="evenodd" d="M326.757 31.1612C326.672 31.3103 326.573 31.3182 326.553 31.1352C326.614 30.9586 326.708 30.9993 326.757 31.1612Z" fill="black"/>
<path fill-rule="evenodd" clip-rule="evenodd" d="M275.672 94.0517C275.672 94.0517 275.548 93.9673 275.551 93.9668C275.568 93.9805 275.699 94.0154 275.672 94.0517Z" fill="black"/>
<path fill-rule="evenodd" clip-rule="evenodd" d="M257.272 306.975C257.193 307.165 257.062 307.382 256.947 307.124C257.026 306.91 257.091 306.718 257.272 306.975Z" fill="black"/>
<path fill-rule="evenodd" clip-rule="evenodd" d="M221.549 78.7207C221.878 79.0862 222.208 79.4512 222.537 79.8167C222.208 79.4512 221.878 79.0862 221.549 78.7207Z" fill="black"/>
<path fill-rule="evenodd" clip-rule="evenodd" d="M463.14 189.718C463.182 189.598 463.161 189.658 463.14 189.718C462.918 189.668 463.082 189.602 463.14 189.718Z" fill="black"/>
<path fill-rule="evenodd" clip-rule="evenodd" d="M354.878 153.381C354.847 153.585 354.766 153.556 354.615 153.487C354.646 153.287 354.728 153.314 354.878 153.381Z" fill="black"/>
<path fill-rule="evenodd" clip-rule="evenodd" d="M97.373 621.705C97.4275 621.333 97.482 620.961 97.5364 620.59C97.4825 620.962 97.4275 621.334 97.373 621.705Z" fill="black"/>
<path fill-rule="evenodd" clip-rule="evenodd" d="M75.9697 36.9736C76.1566 37.6359 75.5296 37.5354 76.0089 37.004C76.008 37.0036 75.9697 36.9736 75.9697 36.9736Z" fill="black"/>
<path fill-rule="evenodd" clip-rule="evenodd" d="M328.746 48.0757C328.243 48.1551 328.016 48.3538 328.073 47.8407C328.302 47.719 328.472 47.9064 328.746 48.0757Z" fill="black"/>
</svg>
