<svg width="470" height="627" viewBox="0 0 470 627" fill="none" xmlns="http://www.w3.org/2000/svg">
<path fill-rule="evenodd" clip-rule="evenodd" d="M463.562 351.842C411.267 349.893 -196.282 378.581 192.845 335.829C283.854 324.76 375.434 318.005 467.108 316.546C356.628 326.351 197.539 330.595 72.4767 354.842C202.824 357.031 333.184 348.41 463.562 351.842Z" fill="black"/>
<path fill-rule="evenodd" clip-rule="evenodd" d="M0.128906 223.368C142.735 130.851 315.259 90.8072 463.467 17.1157C351.7 17.8615 238.9 67.6865 135.663 111.124C91.2251 128.222 39.3855 164.996 0.128906 175.218C19.6622 165.474 39.2438 155.833 58.7204 145.984C185.426 87.1311 326.919 16.1231 466.632 17.1338C321.81 92.3245 138.327 135.873 0.128906 223.368Z" fill="black"/>
<path fill-rule="evenodd" clip-rule="evenodd" d="M469.999 545.787C416.454 551.161 293.915 507.489 258.607 534.62C299.521 553.495 347.563 546.342 391.387 552.755C417.021 555.342 442.596 558.395 467.94 563.137C470.495 563.011 469.837 566.563 467.536 565.156C398.689 548.447 322.556 564.912 256.758 539.478C237.305 500.731 371.913 532.555 392.416 532.711C410.461 540.313 464.837 533.365 469.999 545.787Z" fill="black"/>
<path fill-rule="evenodd" clip-rule="evenodd" d="M469.998 474.699C344.625 474.145 200.641 424.119 83.9307 476.22C155.811 498.867 241.727 479.212 318.099 480.82C355.723 479.712 393.393 478.624 431.017 478.187C372.548 480.59 311.263 482.318 251.898 485.651C200.469 483.634 121.011 502.934 78.5078 475.536C193.931 423.735 350.318 466.044 469.998 474.699Z" fill="black"/>
<path fill-rule="evenodd" clip-rule="evenodd" d="M469.999 58.2598C334.741 89.5268 -155.339 306.259 328.46 180.541C375.398 171.094 422.416 161.428 469.999 155.948C452.454 159.903 379.634 175.734 307.629 193.017C218.172 214.488 127.426 236.222 115.592 216.975C94.2343 182.239 360.966 93.3623 469.999 58.2598Z" fill="black"/>
<path fill-rule="evenodd" clip-rule="evenodd" d="M470 380.679C312.643 365.347 157.385 408.523 0.775391 408.476C144.999 402.382 319.261 364.037 470 380.679Z" fill="black"/>
<path fill-rule="evenodd" clip-rule="evenodd" d="M0.128906 332.523C149.579 276.391 313.066 283.686 469.999 274.272C319.824 288.074 142.615 280.038 0.128906 332.523Z" fill="black"/>
<path fill-rule="evenodd" clip-rule="evenodd" d="M206.872 0.47168C162.764 27.2933 106.927 49.1615 73.8289 87.6652C171.054 66.6735 268.037 14.3201 369.608 0.47168C271.664 20.9513 178.861 57.9789 84.9157 91.0432C80.1335 91.5624 72.5379 93.2197 69.4512 88.7927C103.383 49.8674 160.547 23.2762 206.872 0.47168Z" fill="black"/>
<path fill-rule="evenodd" clip-rule="evenodd" d="M20.7558 535.195C14.8137 533.74 1.7157 538.341 0.126953 532.948C157.684 534.71 311.505 575.114 468.031 589.787C334.298 585.262 167.222 536.43 20.7558 535.195Z" fill="black"/>
<path fill-rule="evenodd" clip-rule="evenodd" d="M0.128906 460.94C150.554 415.826 320.073 412.945 470 435.713C313.855 416.839 148.104 419.477 0.128906 460.94Z" fill="black"/>
<path fill-rule="evenodd" clip-rule="evenodd" d="M398.029 626.965C271.551 577.35 134.065 575.779 0.128906 573.765C118.52 565.54 297.817 581.887 398.029 626.965Z" fill="black"/>
<path fill-rule="evenodd" clip-rule="evenodd" d="M469.999 511.39C313.623 492.707 156.499 516.327 0.128906 522.856C147.578 511.045 318.446 491.869 469.999 511.39Z" fill="black"/>
<path fill-rule="evenodd" clip-rule="evenodd" d="M469.999 207.774C309.725 201.418 149.37 272.583 0.130859 294.928C155.613 264.67 310.608 200.98 469.999 207.774Z" fill="black"/>
<path fill-rule="evenodd" clip-rule="evenodd" d="M0.128906 609.079C61.4001 597.285 122.261 582.552 185.222 586.236C205.552 585.43 310.926 597.876 266.929 626.97C288.563 605.009 247.416 596.567 231.616 593.911C155.384 574.956 69.4645 603.656 0.128906 609.079Z" fill="black"/>
<path fill-rule="evenodd" clip-rule="evenodd" d="M469.998 93.5742C246.632 144.336 207.834 183.302 469.998 131.171C457.935 135.689 440.614 135.444 426.869 138.801C139.916 199.9 351.563 106.013 469.998 93.5742Z" fill="black"/>
<path fill-rule="evenodd" clip-rule="evenodd" d="M0.129058 33.9519C22.1066 25.5839 41.4697 11.7292 62.0149 0.472606C85.2516 -5.45818 -3.84049 50.4334 0.129058 33.9519Z" fill="black"/>
<path fill-rule="evenodd" clip-rule="evenodd" d="M0.128906 99.9954C37.3692 62.3343 79.4686 27.4996 124.358 0.471191C80.4545 26.9459 33.0991 71.6498 0.128906 99.9954Z" fill="black"/>
<path fill-rule="evenodd" clip-rule="evenodd" d="M425.551 353.112C425.996 353.108 426.44 353.104 426.885 353.1C426.44 353.104 425.996 353.108 425.551 353.112Z" fill="black"/>
<path fill-rule="evenodd" clip-rule="evenodd" d="M431.027 478.68C442.385 477.514 456.858 478.176 469.089 478.51C456.492 479.142 443.691 478.493 431.027 478.68Z" fill="black"/>
</svg>
