<svg width="529" height="690" viewBox="0 0 529 690" fill="none" xmlns="http://www.w3.org/2000/svg">
<path fill-rule="evenodd" clip-rule="evenodd" d="M451.371 523.527C450.637 525.323 454.042 527.24 455.23 528.564C458.828 524.306 457.01 524.972 451.371 523.527ZM410.867 630.561C413.669 623.684 410.877 624.79 408.787 618.907C403.85 621.994 404.575 618.936 405.083 615.652C402.932 611.083 404.501 608.139 406.92 603.97C403.645 596.758 406.862 588.638 406.878 580.785C403.852 567.819 392.592 552.176 391.561 544.181C384.334 541.143 391.394 529.834 396.221 529.593C405.145 518.902 405.745 498.701 419.079 500.86C420.379 497.507 409.232 498.663 415.655 496.622C442.574 500.463 464.191 522.263 476.073 545.659C477.33 549.073 481.422 552.879 480.437 556.549C477.757 557.726 485.283 574.01 486.947 577.514C491.974 594.803 479.997 600.214 487.598 623.965C485.282 632.758 482.313 635.347 475.414 628.3C475.668 635.399 470.18 630.005 464.939 630.695C447.966 631.398 430.153 629.118 414.693 631.781C412.544 634.223 412.772 633.959 410.867 630.561Z" fill="black"/>
<path fill-rule="evenodd" clip-rule="evenodd" d="M317.126 61.5106C319.872 69.7483 327.496 75.843 329.735 84.4241C332.692 85.1619 336.021 85.6004 331.971 89.4375C339.695 91.467 333.047 99.7242 338.263 103.061C343.436 106.538 342.509 125.574 336.182 114.728C333.038 117.216 341.027 119.07 334.612 121.761C333.931 122.187 330.595 116.561 331.481 119.437C332.635 123.474 333.776 126.388 327.48 122.861C306.985 118.369 287.921 142.11 265.632 137.442C258.76 136.616 257.713 141.314 256.62 147.004C252.966 146.476 252.353 139.162 250.685 136.076C248.071 134.185 245.334 133.125 248.107 128.5C246.789 118.903 241.28 106.969 241.092 96.3493C229.751 83.6426 231.715 64.3382 231.5 47.9202C235.177 43.0171 233.858 52.9755 236.149 48.5473C237.593 46.2228 237.725 42.4351 240.111 41.0593C242.753 47.0176 243.603 41.493 245.425 40.3728C252.897 35.6672 260.939 31.8083 268.553 27.3877C267.884 21.8983 275.483 15.1689 280.65 22.2152C289.768 25.363 274.171 15.1685 283.448 17.5177C293.838 27.1459 299.996 40.1681 310.427 49.5255C312.862 52.8733 311.096 64.1881 317.126 61.5106Z" fill="black"/>
<path fill-rule="evenodd" clip-rule="evenodd" d="M324.946 422.565C320.103 431.221 337.55 433.917 332.924 435.658C326.656 435.206 336.113 446.116 328.515 447.966C307.609 444.43 294.824 471.643 272.31 470.507C270.779 470.624 269.408 474.537 268.209 476.817C258.321 491.608 251.172 441.79 241.439 439.505C237.542 422.581 231.081 404.722 226.846 387.199C225.756 380.252 220.566 373.314 221.86 366.385C223.134 368.312 225.256 374.22 225.104 369.093C223.44 360.027 232.494 363.799 238.99 359.615C243.79 358.214 246.174 351.723 252.444 353.409C253.168 353.604 254.249 352.359 255.198 351.844C258.426 349.438 260.065 350.511 263.107 352.5C266.784 351.297 267.395 351.647 272.255 355.881C291.823 361.227 305.702 382.762 309.378 396.519C316.722 404.378 329.835 411.986 329.914 423.357C327.709 423.02 323.812 418.708 324.946 422.565Z" fill="black"/>
<path fill-rule="evenodd" clip-rule="evenodd" d="M38.2368 479.688C41.3576 476.821 43.169 478.207 46.695 479.164C70.1117 486.843 43.9752 472.148 61.6488 473.984C73.4771 468.611 81.3399 478.106 90.9159 483.377C98.2011 485.956 106.037 486.354 111.497 492.761C122.094 502.671 136.947 498.571 147.994 508.646C156.056 537.028 144.283 508.469 142.384 535.383C142.255 540.017 142.584 544.946 141.175 549.29C145.213 553.062 144.71 552.855 143.545 558.387C145.132 563.216 133.142 560.202 138.152 563.437C123.026 579.732 100.602 565.11 82.1319 564.753C69.6893 563.318 58.091 561.213 47.7734 555.184C44.123 554.714 30.2158 552.434 33.4643 548.804C37.1907 548.727 39.5922 541.984 33.9911 541.767C32.8595 538.736 37.0601 535.731 37.5542 532.717C40.2155 522.676 37.0515 512.023 37.6881 501.788C37.376 495.846 43.5054 488.511 37.0387 484.033C40.9115 480.962 35.3251 481.776 35.5779 480.409C36.2035 479.224 37.367 477.709 38.2368 479.688Z" fill="black"/>
<path fill-rule="evenodd" clip-rule="evenodd" d="M311.839 628.579C308.734 621.493 305.465 633.412 310.289 633.866C310.776 632.209 311.261 630.553 311.839 628.579ZM292.301 534.613C288.759 536.118 289.476 537.954 292.374 538.939C295.736 537.787 296.087 536.084 292.301 534.613ZM228.215 595.272C238.357 575.008 253.488 559.787 270.516 543.925C282.421 529.143 314.691 528.106 326.691 544.73C323.56 547.669 315.266 533.911 311.874 538.044C328.748 543.044 315.191 551.105 315.98 563.178C314.604 569.398 317.676 572.552 323.911 572.623C323.711 579.255 331.796 575.334 333.083 580.276C312.486 601.671 320 638.987 301.304 658.064C298.187 661.579 298.388 656.456 296.038 654.381C287.203 663.582 294.5 654.145 286.672 652.911C280.194 646.549 259.497 632.118 244.287 626.735C232.369 617.245 235.847 630.057 228.625 611.832C212.166 622.646 222.861 595.623 228.215 595.272Z" fill="black"/>
<path fill-rule="evenodd" clip-rule="evenodd" d="M399.327 70.8587C410.26 66.2729 422.9 57.591 429.681 47.8497C436.821 41.7707 468.023 37.7773 443.733 44.4895C446.257 56.1786 452.953 39.1844 460.95 48.292C455.691 51.9467 456.475 53.5828 462.34 55.161C468.116 54.5045 471.933 75.2451 478.317 80.6248C483.291 85.642 489.672 79.7601 488.752 89.0858C499.078 96.4123 488.692 99.2404 484.709 107.802C475.104 134.755 473.18 123.113 459.522 139.95C451.645 145.882 449.396 157.139 439.542 160.179C440.473 166.693 433.573 164.045 431.402 167.048C425.032 170.899 429.588 164.288 429.528 160.434C419.05 153.003 400.474 121.337 383.303 111.651C389.324 107.069 379.972 108.394 376.892 109.473C378.881 107.28 378.853 103.803 380.793 101.781C384.167 101.658 382.677 100.476 380.906 98.7007C377.924 93.3295 367.112 99.4869 371.079 93.6711C372.868 86.7185 381.354 86.4425 384.339 82.7706C383.98 79.9179 385.268 80.4594 387.342 80.5069C392.053 79.686 396.255 73.9714 399.327 70.8587Z" fill="black"/>
<path fill-rule="evenodd" clip-rule="evenodd" d="M89.9722 410.696C86.0966 399.263 84.9764 385.676 81.0423 380.312C84.4386 381.745 83.8034 380.76 83.8599 377.093C83.1925 373.141 82.1782 369.18 81.3544 365.279C75.4104 361.372 81.4243 355.508 79.0233 351.082C73.9258 342.363 66.0434 329.204 73.349 320.553C73.4806 314.613 83.7554 312.946 86.8125 309.189C86.5807 315.554 103.61 300.051 109.013 298.294C114.349 293.208 113.957 300.925 117.623 300.891C110.053 288.787 125.485 303.274 129.04 307.323C143.712 327.624 152.362 355.813 168.617 374.221C171.835 381.786 167.321 387.907 170.477 395.871C174.203 400.432 172.944 405.365 171.193 410.441C167.314 410.696 165.374 404.042 162.677 404.085C153.484 406.889 144.099 408.491 134.353 408.429C125.89 412.63 111.726 409.249 107.363 418.295C106.688 423.995 103.742 415.527 101.402 415.701C99.0498 416.505 97.0023 419.624 96.151 422.105C94.473 419.407 86.3526 412.655 89.9722 410.696Z" fill="black"/>
<path fill-rule="evenodd" clip-rule="evenodd" d="M20.7291 46.3443C21.7658 45.6313 22.628 45.0379 23.4903 44.4441C21.8294 42.7709 17.6284 45.15 20.7291 46.3443ZM118.977 31.0509C111.211 38.995 120.612 42.4112 120.629 31.4694C124.74 34.7042 118.419 43.2801 118.868 48.4883C109.77 61.4981 102.237 76.0642 91.2248 86.8559C87.5007 88.6108 90.9131 96.1944 84.2379 94.5345C83.6132 98.1155 87.2508 100.059 82.8117 103.344C78.0739 107.187 77.5052 116.673 71.1692 117.926C72.9968 124.507 64.7339 121.781 63.7215 125.902C63.588 126.446 61.8882 126.605 60.9139 126.942C62.8099 112.982 25.7872 76.6348 7.19679 64.6668C16.6055 56.5303 -7.97029 74.1326 2.77674 53.6585C15.6478 46.6484 20.4503 43.4369 22.7719 32.0053C39.5614 21.444 57.6188 9.03758 76.2852 0.503906C86.9287 1.53148 88.0385 12.9317 96.1018 17.6463C100.63 20.7737 107.549 20.7157 109.467 26.5572C114.794 33.9398 115.878 19.0844 118.977 31.0509Z" fill="black"/>
<path fill-rule="evenodd" clip-rule="evenodd" d="M407.935 249.359C406.636 254.504 405.308 255.435 405.805 258.991C407.975 257.9 408.274 251.338 410.26 254.426C403.602 272.722 388.018 289.574 372.644 298.624C368.169 307.305 359.489 310.133 353.525 317.011C349.701 320.841 344.732 334.012 340.932 323.591C333.297 313.594 313.175 299.299 301.397 286.241C297.424 283.014 288.869 287.85 291.452 280.103C292.344 277.531 292.148 272.864 295.964 273.679C291.401 266.742 285.141 277.355 295.202 260.815C304.049 253.76 313.594 247.864 324.572 242.565C323.971 239.349 317.07 248.016 320.5 239.752C333.536 225.358 356.499 224.657 372.818 214.769C389.109 206.112 392.06 248.318 407.935 249.359Z" fill="black"/>
<path fill-rule="evenodd" clip-rule="evenodd" d="M142.247 237.447C131.449 238.116 142.479 227.072 135.31 222.01C135.238 202.55 118.562 179.381 125.389 162.362C129.5 155.679 142.593 162.367 141.987 157.806C144.252 150.738 154.746 150.993 158.037 145.544C156.346 138.654 166.166 145.815 164.128 141.69C175.772 133.942 215.056 190.085 216.008 205.295C220.246 212.047 223.883 220.342 220.803 228.183C213.066 224.427 225.226 233.374 210.19 232.844C206.46 229.155 203.271 231.597 199.716 232.229C186.457 235.646 171.345 234.313 159.385 241.307C153.647 246.907 161.619 235.814 150.573 241.178C149.465 240.75 150.246 235.642 148.167 236.965C144.436 242.616 134.596 245.558 142.247 237.447Z" fill="black"/>
<path fill-rule="evenodd" clip-rule="evenodd" d="M503.579 340.388C502.005 338.688 501.569 339.729 500.268 340.739C501.469 342.942 501.936 341.515 503.579 340.388ZM511.012 433.262C504.438 426.1 505.59 434.238 499.566 432.972C495.39 432.199 498.658 442.132 495.822 444.921C489.684 426.178 464.596 427.995 450.846 415.905C443.196 412.387 433.607 421.265 435.397 409.398C425.565 409.04 437.189 394.13 439.898 388.734C452.382 375.12 453.579 355.637 464.701 341.35C467.134 338.914 468.355 330.893 470.932 336.725C478.253 329.514 475.792 343.654 482.81 340.003C487.102 338.223 495.922 337.611 497.99 342.726C499.488 336.023 507.407 336.367 513.453 336.409C522.886 349.376 525.436 367.966 522.575 383.542C512.343 378.852 515.75 384.181 515.205 394.542C524.165 399.581 513.17 450.819 511.012 433.262Z" fill="black"/>
<path fill-rule="evenodd" clip-rule="evenodd" d="M497.451 194.945C501.141 202.164 509.673 200.061 514.571 205.214C520.438 212.617 534.985 239.503 526.302 242.041C524.05 237.895 525.934 241.172 523.108 242.148C523.066 240.584 523.433 238.964 522.547 237.563C517.336 243.129 524.438 260.206 521.114 271.796C520.147 274.094 515.321 281.2 513.545 277.208C508.621 283.279 511.278 275.339 509.684 275.017C507.192 270.65 508.427 275.857 507.302 278.438C495.573 265.183 472.03 269.295 456.073 263.419C454.305 259.983 453.638 262.784 452.547 263.898C443.69 257.57 444.274 270.437 446.649 250.801C441.177 237.853 444.065 218.973 447.27 206.077C451.529 213.603 449.291 198.04 456.925 200.664C458.378 201.143 459.448 193.895 462.458 194.253C461.571 202.602 468.4 196.722 471.164 198.718C475.252 200.56 486.911 199.861 485.432 192.747C488.517 191.353 493.878 195.023 497.451 194.945Z" fill="black"/>
<path fill-rule="evenodd" clip-rule="evenodd" d="M64.9205 687.207C70.1862 685.133 71.4907 684.429 65.3405 683.693C63.7912 684.235 63.1361 685.72 64.9205 687.207ZM23.5505 636.267C30.5083 636.359 28.9268 632.209 28.7544 628.832C36.6567 627.638 45.0483 619.124 52.5397 612.787C61.6876 610.012 52.0204 589.119 64.7286 601.98C60.7052 592.12 71.408 604.726 73.5611 606.736C76.0039 607.626 79.7165 612.412 81.8805 609.534C78.0034 598.332 84.7076 599.976 90.0954 607.308C92.2323 616.823 95.0912 625.097 100.427 633.083C93.524 635.847 101.031 638.137 101.089 641.279C88.7215 635.363 90.646 655.413 87.1628 662.933C84.5428 667.648 88.693 674.186 83.9347 676.826C86.0041 683.332 78.8077 680.99 74.5649 681.513C74.6437 694.839 57.1146 686.305 48.1824 689.496C32.0723 682.418 46.2042 684.292 43.9628 681.438C37.8026 673.873 26.4636 675.913 20.6107 667.485C18.204 664.498 11.5721 666.853 12.2272 660.535C6.57099 662.836 7.24132 654.018 4.73438 650.94C11.65 652.719 12.7065 650.875 11.0804 643.754C16.7845 647.897 18.8354 643.455 16.3308 637.812C22.0801 642.25 23.1619 640.217 23.5505 636.267Z" fill="black"/>
<path fill-rule="evenodd" clip-rule="evenodd" d="M18.6137 250.402C13.3386 245.636 18.9463 239.846 19.4679 234.341C18.2204 234.267 15.5405 234.986 17.5615 233.357C18.3833 232.95 20.076 232.629 20.0527 232.433C19.7226 223.701 32.3433 223.19 25.1231 214.079C19.3192 196.778 41.1729 182.549 54.0183 174.84C53.6824 179.896 63.0784 173.633 61.0408 180.871C61.4465 184.683 67.0405 185.134 69.5502 187.308C71.299 192.133 76.816 191.911 80.1571 194.865C82.0964 199.48 84.7406 198.606 87.6865 195.905C89.44 195.167 90.3954 200.289 90.0647 200.668C87.7103 204.05 88.7084 205.552 92.0947 206.952C93.9437 207.851 93.7037 213.086 96.3295 209.706C91.8562 216.387 93.5912 218.458 93.9199 225.467C94.3232 232.452 96.7333 240.435 95.348 247.84C100.7 250.649 93.9023 254.454 96.1047 257.601C95.2881 262.776 92.9688 256.78 91.7626 255.14C87.6908 252.937 90.7545 258.001 89.0533 259.655C80.0004 249.438 63.2133 258.213 50.5536 255.06C39.9667 249.585 19.39 262.703 21.9231 254.502C24.5018 244.848 16.0094 258.426 18.6137 250.402Z" fill="black"/>
<path fill-rule="evenodd" clip-rule="evenodd" d="M497.506 194.894C495.562 193.681 493.301 192.883 491.939 190.944C494.94 188.117 496.163 193.234 497.506 194.894Z" fill="black"/>
<path fill-rule="evenodd" clip-rule="evenodd" d="M94.7396 201.47C93.7348 202.929 92.7481 203.336 92.1523 201.687C92.6749 199.936 93.5842 199.992 94.7396 201.47Z" fill="black"/>
</svg>
