<svg width="35" height="29" viewBox="0 0 35 29" fill="none" xmlns="http://www.w3.org/2000/svg">
<path d="M34 1.01513C32.5636 2.03153 30.9732 2.80891 29.29 3.31733C28.3866 2.27534 27.186 1.5368 25.8506 1.2016C24.5151 0.866406 23.1092 0.950723 21.8231 1.44315C20.537 1.93558 19.4327 2.81236 18.6595 3.9549C17.8863 5.09745 17.4815 6.45064 17.5 7.83146V9.33617C14.864 9.40473 12.2519 8.81826 9.89651 7.62899C7.54112 6.43972 5.51548 4.68457 4 2.51984C4 2.51984 -2 16.0622 11.5 22.081C8.41079 24.1846 4.73074 25.2393 1 25.0905C14.5 32.614 31 25.0905 31 7.78632C30.9986 7.36719 30.9584 6.94909 30.88 6.53741C32.4109 5.02291 33.4912 3.11076 34 1.01513Z" stroke="white" stroke-width="2" stroke-linecap="round" stroke-linejoin="round"/>
</svg>
