<svg width="198" height="223" viewBox="0 0 198 223" fill="none" xmlns="http://www.w3.org/2000/svg">
<path fill-rule="evenodd" clip-rule="evenodd" d="M116.085 44.7426C115.528 43.47 113.802 44.4377 113.533 45.5977C113.877 47.1745 116.169 45.8634 116.085 44.7426ZM29.3935 81.7169C29.4094 80.3868 28.2546 78.1853 26.6633 78.8079C25.8124 79.8494 28.5398 83.9945 29.3935 81.7169ZM15.2971 100.844C13.9615 102.262 16.5988 104.413 17.817 104.251C19.6387 103.173 17.1171 101.046 15.2971 100.844ZM45.0621 55.0424C46.6025 53.4313 44.5923 50.1662 42.5952 50.3076C41.6151 52.113 43.0429 54.5008 45.0621 55.0424ZM56.3659 102.276C56.3302 102.277 56.2945 102.279 56.2589 102.28C55.5001 107.085 58.0962 113.776 54.3803 117.427C52.367 119.987 52.6168 120.809 49.9078 118.146C38.7211 112.349 26.2122 115.424 27.1376 129.972C26.8206 143.546 59.4848 137.487 51.6779 143.081C48.8843 143.898 45.1418 142.661 43.4337 145.578C38.8021 152.599 34.4287 159.803 29.609 166.719C23.2648 175.969 17.9005 185.817 13.8077 196.271C12.4145 200.379 18.3374 202.987 20.5101 205.835C29.2033 213.542 47.3993 215.458 55.8421 206.635C58.7936 204.563 53.678 201.317 55.4381 198.342C53.4088 190.143 56.0669 181.402 56.4837 173.028C57.4074 157.796 62.3823 161.107 74.6362 160.626C86.9988 159.482 99.3327 158.187 111.655 156.516C118.159 156.089 120.35 150.7 119.519 144.864C119.51 143.599 119.117 143.254 117.902 143.471C112.792 144.432 108.016 142.158 103.302 140.544C100.943 140.59 92.9445 130.123 97.7885 130.627C100.308 132.099 101.795 134.852 104.449 136.03C108.616 137.799 113.198 138.876 117.669 137.702C120.861 135.704 117.408 128.659 117.833 125.221C117.253 122.106 115.779 121.643 117.754 118.247C118.592 115.799 121.512 116.69 123.51 115.522C141.645 110.235 135.058 113.598 125.43 98.8289C119.432 91.006 114.011 82.3415 111.233 72.8289C110.634 70.6483 110.12 68.443 109.474 66.2766C108.18 61.9419 108.77 62.2589 104.356 63.2055C92.4681 66.4446 64.0672 71.9333 56.666 80.8781C55.8819 87.9224 57.7774 95.139 56.3659 102.276ZM45.8066 110.971C47.4693 110.132 50.503 114.227 50.8619 111.443C49.3981 101.923 51.8927 92.3977 51.1613 82.8294C51.6086 78.5235 53.4587 75.2781 57.6603 73.4699C70.332 68.2237 83.461 64.221 96.8208 61.1849C109.493 58.0816 111.229 56.9251 115.607 70.4335C115.926 71.292 116.548 71.5678 117.394 71.1766C122.212 68.0266 129.62 69.4533 132.685 64.0346C134.892 60.2799 137.815 55.3175 133.854 51.6983C130.824 48.904 126.873 44.7994 122.635 44.7298C120.074 49.36 110.92 56.7373 108.668 47.9367C107.891 43.4174 111.729 40.6072 115.57 39.3796C120.583 36.5587 112.882 32.4267 109.691 32.4534C105.211 31.563 82.4767 29.866 83.5542 36.9166C83.7423 39.4625 83.4513 41.931 80.7312 42.7854C76.6263 44.3012 76.2074 37.9422 77.8143 35.5245C78.6333 34.0326 78.3208 33.2839 76.7984 32.5054C64.8419 27.6341 48.92 31.3714 43.9499 44.3317C43.3689 45.719 43.3779 46.0308 44.7343 46.7417C56.0052 54.4489 42.5467 63.4504 39.0544 53.9441C38.5049 52.7453 38.8932 50.2781 36.9995 50.4479C25.8962 51.347 23.4782 64.1694 25.0845 73.2107C27.3157 76.9703 33.3868 74.7161 32.7171 82.3557C32.599 86.1 26.7617 88.2502 24.5582 85.0211C22.2971 83.2656 22.6776 78.1015 19.3012 78.4597C10.1954 79.5909 10.844 89.3537 12.5434 96.1219C13.2003 98.5202 16.797 97.9519 18.5834 99.2308C27.4952 105.372 13.5416 111.143 10.7639 102.339C8.63456 100.124 7.13886 105.129 5.78695 106.352C0.566735 116.711 12.0823 126.459 18.3654 133.539C19.2468 134.416 23.0788 137.953 22.6821 134.874C16.8964 119.591 30.2295 103.417 45.8174 110.935C45.3379 110.945 44.7998 110.701 44.427 111.108C44.8788 111.002 45.3462 111.012 45.8066 110.971ZM66.4561 27.1528C71.3319 27.3656 76.0237 28.0886 80.2406 30.6896C81.2169 31.2921 82.0644 31.2858 83.0622 30.7918C86.863 28.9108 90.9873 28.4417 95.1397 28.0627C102.115 27.7792 109.376 27.5745 116.081 29.6945C123.637 31.8277 120.316 37.5143 124.751 39.9614C131.85 43.0924 141.509 48.3847 140.796 57.3717C132.202 92.2048 95.9498 50.5497 138.441 107.774C148.272 118.007 129.844 116.361 124.266 120.724C122.394 121.64 122.253 122.037 122.508 123.982C123.265 135.312 129.4 154.363 115.804 159.868C99.8361 163.775 83.2358 165.077 66.9176 166.915C65.7888 167.113 63.9819 166.86 63.8929 168.426C65.2822 180.662 59.0244 193.241 62.4838 205.029C64.0478 208.845 59.199 211.625 56.6812 213.618C39.9815 223.82 17.07 216.245 6.78651 200.238C4.76349 197.236 5.32442 197.8 7.25251 194.692C7.40946 194.44 7.90317 194.195 8.1793 194.251C11.8311 194.842 17.5273 175.612 19.7579 171.958C21.4971 167.904 23.3656 163.93 26.6505 160.827C29.3117 154.993 33.0833 149.862 37.1152 144.823C38.0184 142.141 31.2547 142.525 29.4621 141.375C25.6239 140.47 22.7441 143.575 18.944 140.86C6.7037 132.93 -8.66695 112.322 5.97404 99.8617C9.90436 98.1948 8.23613 94.6207 7.63535 91.3978C6.1355 83.9162 10.6385 76.1668 18.4496 75.2251C24.2789 73.7914 13.7332 52.3385 35.4906 46.6108C46.2494 43.8342 39.5637 27.9369 66.4561 27.1528Z" fill="black"/>
<path fill-rule="evenodd" clip-rule="evenodd" d="M151.757 170.298C142.787 162.44 130.565 173.942 121.9 177.793C119.795 179.529 115.39 180.564 114.893 183.309C125.598 179.992 146.334 181.46 151.757 170.298ZM145.652 163.443C158.158 163.76 158.711 173.504 149.121 179.514C142.381 183.933 134.046 184.09 126.388 185.815C119.338 187.099 112.832 190.376 105.633 191.027C101.31 190.982 99.5037 195.609 95.739 196.778C94.0053 198.818 92.3932 201.094 90.0452 202.611C85.5844 206.649 81.1369 210.694 77.6438 215.646C75.7472 217.898 74.783 221.555 72.1211 222.858C80.6379 197.701 119.599 167.945 145.652 163.443Z" fill="black"/>
<path fill-rule="evenodd" clip-rule="evenodd" d="M140.246 146.901C147.205 145.467 151.638 138.549 156.887 134.151C162.329 131.509 169.111 104.882 158.721 117.913C154.023 128.664 148.691 138.559 140.246 146.901ZM168.965 118.136C168.742 130.149 160.551 138.767 151.504 145.692C147.286 148.819 138.451 154.992 133.566 152.618C137.804 148.693 139.259 142.364 143.599 138.269C146.652 134.673 148.876 130.658 150.466 126.235C151.921 121.79 154.196 117.759 156.885 113.954C161.319 107.699 170.082 109.883 168.965 118.136Z" fill="black"/>
<path fill-rule="evenodd" clip-rule="evenodd" d="M146.199 27.8251C145.627 22.6769 144.936 17.4809 143.847 12.3349C141.325 2.5943 133.426 5.12247 138.47 13.8503C141.415 15.3987 144.807 30.6585 146.199 27.8251ZM151.236 30.5798C150.86 36.1118 152.56 45.4543 147.87 49.0302C146.784 47.6475 147.263 45.0531 147.072 43.2872C147.475 36.1184 142.105 30.5996 139.895 24.0967C135.992 16.7825 129.494 9.68717 136.085 1.58782C137.504 -0.0738365 138.894 -0.501377 140.693 0.639539C151.912 6.00458 150.242 20.0531 151.236 30.5798Z" fill="black"/>
<path fill-rule="evenodd" clip-rule="evenodd" d="M161.378 61.2029C168.002 59.4484 175.056 60.0221 181.435 57.2695C186.015 55.8302 185.944 47.3449 180.249 48.8933C174.317 49.9119 169.01 52.2831 164.492 56.2969C163.644 57.6118 159.049 59.956 161.378 61.2029ZM182.812 45.7183C190.682 46.1683 189.586 58.2205 184.507 60.0426C180.68 62.0559 176.254 62.0777 172.103 62.9688C158.948 64.6461 153.331 68.8006 148.206 80.9654C147.923 81.9982 146.003 83.1997 145.908 81.4352C149.184 63.1053 163.088 46.2574 182.812 45.7183Z" fill="black"/>
<path fill-rule="evenodd" clip-rule="evenodd" d="M184.582 24.2983C186.443 24.6333 194.196 23.3445 193.264 21.2231C189.673 18.3387 182.115 20.8264 178.848 23.4231C180.438 24.6185 181.976 23.9092 184.582 24.2983ZM164.789 35.7445C166.131 24.3711 179.714 14.7216 191.083 15.5386C205.195 18.5161 194.948 30.9837 184.853 28.7958C177.244 27.5347 168.858 28.1112 164.789 35.7445Z" fill="black"/>
<path fill-rule="evenodd" clip-rule="evenodd" d="M105.651 95.9139C103.934 94.7258 98.4549 86.9788 97.3815 91.2996C98.6 99.1994 97.8953 105.331 105.651 95.9139ZM89.6342 101.728C88.891 99.5144 90.7654 90.9085 87.6732 91.4015C84.5591 92.4901 78.6633 97.3614 79.9404 100.591C82.0015 101.217 89.8195 105.901 89.6342 101.728ZM95.9007 84.2154C103.222 83.8478 103.38 87.827 108.071 90.8402C122.417 95.2996 92.9464 113.27 81.6883 105.259C65.9043 101.311 84.0412 82.5607 95.9007 84.2154Z" fill="black"/>
<path fill-rule="evenodd" clip-rule="evenodd" d="M94.5336 70.9969C92.2175 75.4784 85.1343 74.8894 80.9888 77.2582C79.4453 77.7409 72.1823 82.9469 74.4839 78.1206C79.4069 73.5749 88.011 67.4906 94.5336 70.9969Z" fill="black"/>
<path fill-rule="evenodd" clip-rule="evenodd" d="M48.7523 127.986C47.099 127.779 31.5454 127.302 37.1945 124.362C41.6581 124.026 47.7791 122.81 51.1814 126.321C52.1962 128.003 49.852 128.14 48.7523 127.986Z" fill="black"/>
</svg>
