<svg width="294" height="284" viewBox="0 0 294 284" fill="none" xmlns="http://www.w3.org/2000/svg">
<path fill-rule="evenodd" clip-rule="evenodd" d="M14.725 195.406C15.6807 199.285 13.2848 221.683 17.1519 220.904C20.0677 219.663 25.1533 220.55 26.1216 216.823C29.412 206.13 34.2756 195.696 41.6768 187.436C50.612 177.146 63.4036 170.954 74.4625 182.219C105.886 211.172 85.0686 196.798 109.167 186.098C116.603 184.207 127.008 198.303 132.817 202.775C139.235 207.584 135.483 210.582 129.772 206.227C126.717 203.671 123.597 201.191 120.558 198.616C116.863 196.469 112.562 188.079 108.103 192.738C102.719 196.952 99.0682 209.535 90.5934 204.903C79.8799 198.477 73.1482 184.603 60.7232 181.537C43.9903 184.655 36.5812 203.074 29.6849 216.747C29.078 218.001 29.4752 218.591 30.8476 218.529C67.2431 216.138 103.612 213.888 140.098 213.55C161.252 213.37 152.32 210.648 151.297 189.192C149.75 178.058 149.083 166.848 147.945 155.681C148.513 151.081 145.005 153.417 142.174 153.346C124.31 153.758 106.455 153.54 88.6056 154.736C64.3144 156.872 39.8918 156.42 15.6132 158.646C14.3561 158.86 13.9908 159.27 14.0247 160.61C14.3604 172.22 15.2752 183.784 14.725 195.406ZM46.3191 221.672C44.9808 223.577 42.2339 221.732 40.5875 222.605C33.1731 224.198 25.264 224.003 17.6508 224.938C13.6002 225.5 16.1331 231.972 15.2027 234.874C14.2115 248.865 15.2908 262.893 15.9679 276.877C58.2421 276.865 104.275 276.015 147.76 278.246C169.559 278.675 160.712 278.875 159.47 251.703C158.029 241.075 157.29 230.313 155.554 219.727C154.527 214.308 155.163 214.857 149.973 215.103C146.721 215.258 143.469 215.411 140.217 215.543C114.674 216.35 88.7393 218.79 63.7028 220.907C62.3971 221.535 60.5191 221.03 59.0957 220.873C55.2113 221.716 50.0944 223.94 46.2825 221.656C46.6681 221.905 47.0463 222.015 47.4971 221.886C47.1191 221.731 46.7242 221.687 46.3191 221.672ZM146.73 149.139C147.868 146.38 145.675 134.447 145.321 130.675C135.482 130.954 125.589 131.634 115.749 132.131C81.374 133.757 47.0251 135.947 12.6127 136.641C8.70334 136.041 3.00372 137.843 0.13447 134.869C-0.538635 133.44 1.48566 133.172 2.43565 132.919C39.1965 128.46 76.3867 127.789 113.35 125.651C122.033 125.223 130.715 124.785 139.397 124.352C144.813 124.078 152.454 122.48 154.046 129.518C161.648 177.833 162.287 226.29 167.544 274.815C167.975 278.477 167.218 283.902 162.421 283.633C154.616 282.789 146.783 282.364 138.924 282.439C121.778 282.079 104.62 282.423 87.4675 282.423C62.9057 282.156 38.0703 283.691 13.7465 279.886C9.38608 281.058 11.5786 271.398 10.5591 268.836C10.0652 261.368 9.28802 253.904 9.18864 246.418C9.65466 222.135 7.84575 197.888 7.76066 173.603C6.97188 163.933 8.00896 153.85 5.61005 144.438C4.48821 138.392 12.379 140.42 12.3324 145.347C14.2318 164.638 14.9178 151.996 42.9356 152.46C61.5249 152.081 80.314 149.333 98.6477 149.978C113.951 147.988 130.802 149.919 146.73 149.139Z" fill="black"/>
<path fill-rule="evenodd" clip-rule="evenodd" d="M27.5323 80.1515C33.1313 80.6474 40.4894 81.1873 45.7766 84.4018C49.0766 85.9638 53.2106 90.8737 46.5341 89.4912C38.1245 87.2777 29.4456 87.0817 20.9347 85.6562C11.0345 81.0757 22.2236 79.8539 27.5323 80.1515Z" fill="black"/>
<path fill-rule="evenodd" clip-rule="evenodd" d="M212.389 246.573C217.834 245.598 237.465 282.992 224.852 271.551C222.676 268.521 204.239 247.15 212.389 246.573Z" fill="black"/>
<path fill-rule="evenodd" clip-rule="evenodd" d="M195.035 260.259C189.271 261.986 185.518 249.726 182.196 245.883C180.93 242.8 176.487 238.974 178.622 235.63C179.625 235.027 181.358 233.986 182.251 235.299C187.752 242.87 191.248 251.691 195.035 260.259Z" fill="black"/>
<path fill-rule="evenodd" clip-rule="evenodd" d="M43.1245 110.681C39.395 109.786 10.9703 109.895 14.7897 103.944C17.4979 100.816 60.5768 110.479 43.1245 110.681Z" fill="black"/>
<path fill-rule="evenodd" clip-rule="evenodd" d="M66.5375 102.755C69.7883 103.097 87.3684 104.861 83.1344 110.441C79.4358 112.094 51.1578 104.733 66.5375 102.755Z" fill="black"/>
<path fill-rule="evenodd" clip-rule="evenodd" d="M127.025 136.977C129.54 135.042 131.532 138.836 133.832 136.714C134.731 135.886 135.889 135.483 137.11 135.617C140.051 136.84 133.769 139.436 136.197 141.086C137.183 142.187 139.567 142.918 139.239 144.665C137.842 146.442 135.501 143.404 134.038 142.782C132.373 141.33 131.141 143.601 129.706 144.214C128.77 144.699 126.302 144.893 126.909 143.2C129.251 140.366 130.817 139.617 127.025 136.977Z" fill="black"/>
<path fill-rule="evenodd" clip-rule="evenodd" d="M31.4396 145.595C31.0471 141.283 37.2875 140.633 39.1819 143.806C41.9084 148.818 31.3213 151.35 31.4396 145.595Z" fill="black"/>
<path fill-rule="evenodd" clip-rule="evenodd" d="M24.4915 141.895C29.0866 142.032 25.3203 151.529 21.5198 148.181C18.4289 145.844 20.8142 141.167 24.4915 141.895Z" fill="black"/>
<path fill-rule="evenodd" clip-rule="evenodd" d="M49.5365 144.524C49.4703 146.749 46.0901 148.295 44.6457 146.221C42.3698 141.802 48.7585 139.171 49.5365 144.524Z" fill="black"/>
<path fill-rule="evenodd" clip-rule="evenodd" d="M125.575 178.537C135.305 178.167 126.429 169.174 121.945 167.647C115.19 166.663 119.053 179.498 125.575 178.537ZM126.645 184.218C118.518 184.826 112.051 178.898 113.082 171.066C111.184 157.854 129.525 161.442 134.93 168.697C140.522 175.671 135.538 185.128 126.645 184.218Z" fill="black"/>
<path fill-rule="evenodd" clip-rule="evenodd" d="M134.462 255.741C134.467 255.804 134.471 255.866 134.475 255.928C140.981 255.503 145.464 258.295 142.096 249.383C137.03 224.475 135.429 230.376 112.969 232.736C109.713 234.541 111.723 249.009 111.107 253.27C111.471 255.966 111.89 258.088 115.013 257.612C121.503 257.12 127.979 256.34 134.462 255.741ZM103.911 239.332C103.709 232.855 104.625 227.869 111.956 227.486C119.275 227.115 127.507 225.087 134.447 228.012C135.595 229.148 136.868 229.327 138.408 229.246C144.752 227.485 148.56 254.47 146.742 258.494C146.19 260.107 144.318 259.77 142.961 259.803C136.168 259.531 129.493 260.718 122.779 261.416C102.688 265.784 104.534 255.217 103.911 239.332Z" fill="black"/>
<path fill-rule="evenodd" clip-rule="evenodd" d="M38.4961 243.668C39.526 238.3 42.5862 232.555 47.8841 230.451C53.4131 227.637 54.829 240.535 59.681 237.382C72.3422 219.775 69.4964 237.56 75.304 235.273C78.0035 232.99 83.2851 225.784 86.4696 230.667C86.6819 233.27 88.9398 236.575 87.6239 238.917C85.7473 239.397 84.4327 237.321 83.6668 235.9C80.5683 234.102 76.076 245.312 71.0866 240.011C69.6207 239.14 68.5328 234.893 66.5239 236.597C55.297 254.237 51.7056 232.047 47.3645 237.357C45.0343 239.361 41.4872 249.419 38.4961 243.668Z" fill="black"/>
<path fill-rule="evenodd" clip-rule="evenodd" d="M74.7064 251.563C77.54 252.07 84.0904 250.067 84.6375 253.731C84.545 254.467 84.0172 254.873 82.7485 254.933C70.2289 254.9 57.7487 256.471 45.2298 256.13C40.4058 251.91 71.642 251.952 74.7044 251.367L74.7064 251.563Z" fill="black"/>
<path fill-rule="evenodd" clip-rule="evenodd" d="M65.6291 261.84C88.0956 262.304 54.6801 267.087 49.397 264.992C47.596 262.094 63.3482 261.929 65.6291 261.862C65.6291 261.854 65.6291 261.847 65.6291 261.84Z" fill="black"/>
<path fill-rule="evenodd" clip-rule="evenodd" d="M133.884 247.874C134.269 255.224 116.517 249.166 122.318 246.09C125.916 248.031 129.286 248.313 132.53 245.478C134.015 245.084 133.708 246.872 133.884 247.874Z" fill="black"/>
<path fill-rule="evenodd" clip-rule="evenodd" d="M127.668 238.18C127.961 231.576 137.272 239.08 133.606 241.049C130.753 242.342 127.583 242.06 127.668 238.18Z" fill="black"/>
<path fill-rule="evenodd" clip-rule="evenodd" d="M117.218 239.027C116.799 235.999 121.477 236.552 121.975 238.774C122.453 242.079 116.85 242.528 117.218 239.027Z" fill="black"/>
<path fill-rule="evenodd" clip-rule="evenodd" d="M177.874 21.5721C162 16.2057 172.909 1.75978 184.377 1.1124C204.961 -1.18641 227.324 -0.427216 246.402 8.24152C254.797 12.8839 267.372 16.0081 271.086 25.4686C266.152 23.548 261.666 19.6546 256.431 17.8922C244.228 12.1847 231.885 7.23493 218.301 6.40383C205.448 5.14219 189.405 2.93736 177.81 9.48647C167.747 18.4782 188.699 17.4223 193.729 17.1197C198.032 16.9287 199.33 16.9021 199.792 21.5787C198.513 22.7058 196.986 23.0928 195.295 22.9898C188.725 22.7327 182.594 25.5487 176.785 28.2651C168.385 33.0764 148.969 50.3023 172.36 42.2951C175.173 41.8057 186.324 36.6193 187.654 39.257C187.324 40.6477 189.397 42.42 187.728 43.2915C181.181 46.2007 175.905 50.5993 171.62 56.2714C164.979 62.7741 162.309 84.2552 176.837 76.6791C184.791 69.7773 191.34 61.4089 198.93 54.0559C200.076 53.2667 200.666 54.7777 200.729 55.7197C201.539 58.2195 205.42 57.1733 205.476 60.6367C207.979 71.0403 209.481 81.6017 210.897 92.1939C215.485 113.796 209.734 114.038 228.367 102.588C230.123 101.271 233.666 102.309 233 104.962C232.887 105.737 232.965 106.384 233.359 107.013C236.228 111.269 239.724 115.078 242.822 119.171C245.967 122.537 259.102 116.163 259.203 111.403C260.003 108.133 259.682 104.926 259.266 101.614C259.255 100.044 261.47 100.514 262.529 100.129C264.478 99.9276 264.229 102.714 264.508 104.006C266.293 130.262 228.025 116.878 260.152 131.209C269.794 135.468 269.754 130.45 274.343 123.485C277.751 117.35 288.864 106.315 292.516 118.037C291.465 118.185 291.15 117.395 290.698 116.97C286.873 113.266 283.076 118.907 280.789 121.658C278.559 124.983 276.656 128.526 274.569 131.949C273.443 133.477 274.86 133.897 275.192 135.185C268.209 137.616 267.304 151.876 265.854 158.44C262.184 183.092 254.389 178.139 281.113 182.626C282.968 183.366 286.974 182.155 287.276 184.623C286.958 185.953 287.617 188.46 285.46 188.101C256.75 185.901 263.25 176.008 255.822 194.142C249.06 207.506 235.283 217.671 220.157 218.781C202.692 221.114 185.169 221.005 167.626 221.426C145.628 221.403 122.46 212.549 101.164 220.408C99.5585 225.301 138.999 226.443 133.126 232.738C124.558 235.229 115.018 233.027 106.832 237.952C102.509 240.07 102.958 240.852 107.777 241.079C114.034 241.517 120.297 241.726 126.429 243.169C135.869 247.992 121.658 248.988 117.929 249.308C115.316 249.435 105.294 252.7 110.293 255.332C114.243 257.318 118.722 255.607 122.607 257.549C136.269 259.289 149.961 262.002 163.823 262.756C182.222 263.773 200.508 263.155 218.923 262.528C236.489 261.601 265.095 263.091 278.366 250.483C281.73 246.258 284.492 241.687 285.378 236.272C285.966 233.893 286.274 231.256 288.484 229.793C289.218 229.164 290.359 230.103 290.965 229.087C290.976 229.069 291.344 229.194 291.468 229.326C297.945 234.881 290.3 243.133 287.351 248.684C271.957 271.601 220.188 267.882 194.96 268.839C179.156 268.261 163.258 268.662 147.526 267.045C136.457 267.096 125.889 263.29 114.981 262.06C109.089 262.013 99.9217 257.145 105.549 250.64C106.586 248.461 111.229 248.344 111.323 246.236C87.2359 244.746 99.3844 235.71 113.787 230.45C108.787 227.96 103.897 228.042 99.0264 225.48C87.8366 216.981 108.845 212.791 115.016 212.682C136.127 211.533 156.901 217.028 178.005 216.136C206.827 216.35 243.168 219.823 254.501 186.114C259.824 170.734 259.471 153.894 265.759 138.817C266.102 138.091 266.227 136.985 265.117 136.977C258.867 137.005 253.306 134.503 247.747 132.115C239.164 127.55 233.746 118.409 228.257 110.658C226.511 106.022 215.299 118.909 212.707 115.451C203.899 107.62 202.639 76.9574 199.923 64.4383C199.911 63.811 199.616 62.6654 198.822 63.0977C189.101 69.2678 182.413 85.0795 169.055 82.2355C163.847 81.1723 159.075 71.127 163.025 67.2648C160.206 61.5252 168.74 52.8981 171.834 48.2269C140.415 52.4709 164.332 28.1937 177.874 21.5721Z" fill="black"/>
<path fill-rule="evenodd" clip-rule="evenodd" d="M103.51 129.859C98.3659 128.15 95.7356 122.962 93.5022 118.327C91.299 123.851 88.6704 130.289 81.6908 130.04C73.4438 130.237 71.0289 120.056 68.84 113.672C66.6 117.054 67.351 121.86 64.0699 124.238C57.278 127.078 52.8403 119.262 49.953 114.328C46.6161 104.483 45.5322 93.729 46.457 83.3595C45.6432 57.1639 55.3021 40.1302 79.6215 29.5567C101.271 19.7905 124.558 13.5961 148.43 16.8998C153.527 17.6349 159.918 17.1551 163.257 21.8119C133.131 19.739 112.237 19.5281 83.9047 32.0171C55.303 44.7745 51.4844 60.4006 50.9185 89.6253C49.8731 95.6691 52.2608 101.369 52.7944 107.314C53.2547 112.78 56.0155 118.277 60.5222 121.43C64.6245 122.81 65.4465 101.105 66.4169 97.5408C66.9581 94.7922 66.003 91.5261 67.6049 89.1016C69.114 87.4442 71.6859 87.1252 72.3325 89.7334C73.6417 96.768 73.6284 104.062 74.5178 111.179C74.9574 116.15 76.5893 121.269 80.3703 124.73C89.3829 129.876 90.3049 105.528 90.3776 100.25C89.5661 88.5771 97.0318 89.4662 96.7337 100.462C97.539 107.807 96.3074 115.934 100.827 122.28C110.625 134.062 108.495 118.055 108.539 111.426C108.536 105.975 108.614 100.524 108.586 95.0738C108.366 88.2819 106.348 79.6626 112.747 74.994C123.867 66.7931 137.687 62.3747 151.508 61.9634C158.665 64.2005 148.577 67.526 145.604 66.9944C139.354 66.8234 133.084 68.9094 127.827 72.2029C126.503 73.6239 124.536 72.4879 122.998 73.6907C119.476 76.37 113.494 78.0741 113.515 83.3041C114.102 94.2781 114.199 105.277 114.119 116.281C114.495 122.824 112.421 133.96 103.455 129.788C103.793 130.044 104.083 130.106 104.446 129.852C104.123 129.547 103.848 129.648 103.51 129.859Z" fill="black"/>
<path fill-rule="evenodd" clip-rule="evenodd" d="M242.222 77.7017C230.792 80.1636 220.657 52.7981 235.671 72.0528C238.871 75.5821 247.44 75.1416 247.531 69.4754C247.501 63.8525 242.703 62.9433 242.962 59.2068C247.551 53.2934 259.51 77.4314 242.222 77.7017Z" fill="black"/>
</svg>
