<svg width="291" height="291" viewBox="0 0 291 291" fill="none" xmlns="http://www.w3.org/2000/svg">
<path fill-rule="evenodd" clip-rule="evenodd" d="M33.4855 192.889C28.9749 193.625 32.5629 195.386 34.6495 196.562C38.0427 198.588 41.2762 200.882 44.8703 202.573C50.2556 205.023 55.1845 208.376 59.0702 212.872C60.0202 213.937 60.3255 213.874 61.1555 212.799C62.1248 210.621 71.2106 201.946 69.2378 200.808C57.0115 199.141 46.0089 193.416 33.4855 192.889ZM43.2828 189.92C43.7028 190.843 44.4931 190.832 45.1574 190.855C49.6674 191.234 54.6251 192.025 58.7926 193.519C59.8464 194.678 61.0402 194.608 62.3403 194.621C65.5659 194.922 68.6361 196.066 71.9194 196.171C78.9358 196.926 85.9567 198.432 92.8735 199.915C96.6392 201.201 96.4749 201.92 98.9187 197.513C101.543 192.78 104.65 188.412 108.565 184.634C131.068 162.69 104.351 172.623 91.1103 175.659C74.9233 179.572 59.1424 184.952 43.2828 189.92ZM77.6752 258.879C77.7264 258.88 77.7776 258.88 77.8291 258.881C77.9578 251.673 78.0577 244.463 78.3107 237.258C78.5088 234.349 74.6802 233.786 73.5544 231.374C70.0915 226.496 63.4031 225.938 59.3954 221.627C53.0066 214.135 44.3078 210.089 35.9104 205.454C33.451 204.234 31.4816 201.526 28.8291 201.096C28.0654 206.859 29.5043 212.773 29.2917 218.619C29.0815 226.423 28.4217 234.221 28.3201 242.034C28.7267 246.533 26.7721 253.701 31.2675 256.379C41.3215 261.147 51.0612 266.79 60.2441 273.081C65.1856 276.834 71.0166 279.12 76.3678 282.215C77.7728 282.591 77.2182 280.403 77.3578 279.592C77.4661 272.687 77.57 265.783 77.6752 258.879ZM83.8225 260.959C83.7175 260.96 83.6129 260.96 83.5082 260.96C84.3175 263.8 80.9287 288.958 85.3282 284.71C100.858 273.798 119.845 269.532 136.519 261.305C143.212 258.929 148.848 253.639 156.062 252.521C157.453 252.526 157.461 252.435 157.682 250.915C158.788 239.492 166.927 205.312 152.765 201.345C139.083 198.345 125.549 194.619 111.826 191.821C109.364 187.289 125.717 189.674 127.981 190.556C134.001 191.998 139.963 193.714 146.001 195.063C146.347 195.108 146.339 194.643 146.232 194.469C142.796 191.815 138.94 189.672 135.386 187.157C119.768 178.204 123.737 172.594 116.391 183.263C112.183 187.95 107.841 192.548 104.585 197.991C101.992 201.543 99.6359 207.587 94.2573 205.17C88.441 202.589 81.9627 202.694 75.7659 201.677C72.1567 202.564 70.9425 207.913 68.2545 210.418C65.8871 212.442 66.5215 214.97 64.1096 216.851C62.9735 219.463 75.6165 223.123 77.0596 227.741C78.708 230.026 81.8206 232.911 84.8385 231.854C101.155 225.493 118.354 221.291 134.976 215.665C140.92 213.92 146.965 212.472 152.476 209.498C153.676 208.593 157.315 209.131 156.141 211.129C151.723 214.76 145.792 215.715 140.549 217.715C121.984 224.288 102.931 229.571 84.5159 236.473C82.9583 237 83.466 238.653 83.4853 239.925C83.6008 246.937 83.7108 253.948 83.8225 260.959ZM157.555 256.032C155.382 259.396 152.353 260.06 149.817 261.465C140.897 266.33 131.58 270.482 121.918 273.645C108.853 278.317 96.1472 284.178 83.7606 290.382C82.151 290.991 78.7066 291.885 79.5215 288.916C69.8201 285.969 59.2157 279.526 49.9425 273.76C42.1837 270.212 35.5223 264.383 27.2579 262.009C26.1668 261.749 24.5684 261.14 24.679 259.829C21.8756 240.102 24.5248 220.129 23.4544 200.237C23.7902 196.043 21.7939 194.007 27.0656 192.347C54.1379 181.793 81.6143 172.188 110.137 166.388C111.028 166.18 111.9 166.008 112.498 165.162C115.338 163.237 118.663 167.563 121.002 169.001C122.085 170.245 124.589 169.658 124.662 171.587C125.664 174.144 128.935 175.334 130.911 177.169C134.973 180.046 139.239 182.618 143.037 185.887C148.419 189.871 154.55 192.905 158.157 198.839C158.853 199.617 159.625 200.273 160.803 199.759C162.578 200.551 164.604 202.247 165.469 204.441C170.912 220.774 166.085 237.419 165.171 253.945C165.766 262.085 157.901 262.535 157.555 256.032Z" fill="black"/>
<path fill-rule="evenodd" clip-rule="evenodd" d="M23.9573 182.726C20.0609 177.533 16.293 171.988 11.6028 167.651C7.5179 166.424 7.39169 168.852 9.99746 171.307C24.2934 184.904 11.5382 177.738 4.90317 186.784C4.67847 187.599 5.5216 187.554 6.08321 187.35C12.1829 185.897 17.9197 184.729 23.9573 182.726ZM10.5364 179.313C7.09451 174.77 -0.555446 168.926 6.31715 163.291C13.7018 161.339 18.4035 168.701 22.9046 173.391C24.7165 175.362 36.0308 188.646 28.2622 187.254C26.7253 186.478 25.3897 186.586 23.9041 187.105C17.1664 189.17 10.1665 191.155 3.10919 191.391C-5.2437 188.753 5.30529 179.053 10.5364 179.313Z" fill="black"/>
<path fill-rule="evenodd" clip-rule="evenodd" d="M55.4259 143.651C52.1113 143.472 52.7476 145.785 54.806 147.056C57.1824 147.948 64.3345 154.998 65.9463 153.043C69.363 144.542 71.2992 139.387 60.2672 145.482C58.4889 146.605 57.1384 143.04 55.4259 143.651ZM73.3721 143.383C72.9406 148.8 69.8645 154.018 69.133 159.404C69.1271 160.696 67.9096 161.548 66.5681 161.405C64.065 160.488 64.6191 157.202 60.622 155.861C56.3476 153.027 49.2011 150.442 48.752 144.653C48.8409 142.002 51.0155 140.136 53.652 140.455C55.9889 140.16 58.0739 143.396 60.1242 141.625C64.1112 137.525 74.2911 134.345 73.3721 143.383Z" fill="black"/>
<path fill-rule="evenodd" clip-rule="evenodd" d="M94.6343 103.033C94.2806 106.466 88.0746 127.411 83.5061 122.903C83.6177 117.822 79.1827 116.354 75.442 114.158C71.4035 112.306 64.8241 104.299 72.2553 102.598C74.1466 102.428 77.6064 102.322 78.4484 104.357C77.1677 105.511 71.6206 104.184 73.5509 107.38C74.9705 108.878 84.6828 116.861 85.8821 114.565C89.4096 106.145 94.2451 99.1596 81.1706 106.453C79.8487 107.161 79.7376 104.867 80.3661 104.194C83.1521 100.017 94.7073 94.3916 94.6343 103.033Z" fill="black"/>
<path fill-rule="evenodd" clip-rule="evenodd" d="M136.961 143.861C135.731 147.434 138.774 151.664 139.39 155.354C139.951 158.122 147.343 147.852 147.379 146.742C146.193 146.431 145.018 146.359 144.01 147.247C141.37 148.967 139.767 143.946 136.961 143.861ZM133.52 148.605C129.875 143.33 133.976 136.251 139.721 141.815C141.764 145.119 144.897 143.197 147.865 142.516C151.324 141.409 154.532 145.112 152.804 148.339C150.817 151.335 148.651 154.292 146.543 157.236C135.199 172.959 135.982 157.569 133.381 147.521C132.956 147.889 133.349 148.223 133.52 148.605Z" fill="black"/>
<path fill-rule="evenodd" clip-rule="evenodd" d="M135.151 236.239C134.659 227.37 125.389 241.826 122.88 239.678C120.952 236.927 113.858 238.277 117.25 241.912C120.699 243.848 124.678 244.647 128.048 246.72C129.098 247.319 130.771 248.53 131.347 246.826C132.65 243.399 134.769 239.888 135.151 236.239ZM140.294 236.08C140.789 241.531 137.487 246.378 135.869 251.406C134.997 253.953 132.268 255.148 130.11 253.219C125.554 248.86 118.719 248.919 114.095 244.792C107.362 239.048 115.466 230.571 122.22 234.928C124.376 236.294 125.673 232.344 127.531 231.533C132.084 227.331 141.766 228.35 140.294 236.08Z" fill="black"/>
<path fill-rule="evenodd" clip-rule="evenodd" d="M54.2642 242.585C54.9521 240.188 54.511 235.596 57.4176 234.045C63.5078 230.82 60.1871 253.058 56.6699 248.478C54.3795 246.892 54.2265 245.601 54.2642 242.585Z" fill="black"/>
<path fill-rule="evenodd" clip-rule="evenodd" d="M43.8132 232.7C43.6092 235.188 43.1393 243.651 39.2257 240.828C37.357 237.826 38.3876 234.07 39.1392 230.848C40.798 226.926 44.4008 228.965 43.8132 232.7Z" fill="black"/>
<path fill-rule="evenodd" clip-rule="evenodd" d="M45.5226 253.528C48.0764 253.87 50.3891 254.433 52.0729 256.424C51.6688 261.697 35.4871 255.32 45.5226 253.528Z" fill="black"/>
<path fill-rule="evenodd" clip-rule="evenodd" d="M266.143 149.088C267.524 144.474 270.694 141.675 275.374 140.764C277.484 140.067 273.873 135.129 272.344 136.957C269.632 139.2 260.155 146.279 266.143 149.088ZM242.77 111.918C243.895 110.464 249.946 107.842 248.916 106.317C246.958 104.629 243.674 100.037 241.11 102.987C240.78 103.832 242.549 104.267 240.95 104.697C237.48 105.683 237.444 105.71 239.446 108.578C240.433 109.732 241.343 111.306 242.77 111.918ZM254.855 131.109C257.157 128.501 259.197 125.663 262.479 124.122C263.203 123.737 263.609 123.098 263 122.447C261.726 121.36 260.627 118.256 258.672 119.919C254.713 122.482 248.528 127.384 254.855 131.109ZM282.079 151.359C281.173 148.915 280.106 144.204 276.555 146.126C273.492 147.902 269.261 151.054 269.734 154.938C270.27 156.17 271.502 155.325 272.293 154.877C275.211 152.769 279.175 152.858 282.079 151.359ZM257.699 116.342C256.514 114.713 253.399 109.164 251.155 111.051C249.406 113.117 243.951 114.797 245.847 118.023C246.825 119.374 248.028 123.735 250.072 121.691C252.088 119.211 256.102 118.86 257.699 116.342ZM261.349 141.805C269.295 130.571 275.015 135.592 267.271 127.382C265.026 124.954 261.615 131.43 259.574 132.606C258.571 133.803 256.456 135.057 257.49 136.847C258.651 138.545 259.121 141.235 261.349 141.805ZM243.467 61.4949C244.419 50.7248 236.775 41.0232 229.154 34.1702C218.946 26.2407 203.745 25.6413 192.012 30.5013C171.148 37.9467 156.614 60.9369 168.38 81.9199C172.611 92.5494 182.147 97.8567 192.731 100.603C220.859 106.932 243.268 90.8582 243.467 61.4949ZM234.013 103.403C232.516 102.08 231.782 98.5571 229.575 99.3115C217.716 105.927 202.951 107.408 190.046 103.15C164.981 97.1898 153.724 65.2751 167.609 44.0895C182.664 18.1875 226.246 13.436 242.135 40.9051C254.207 56.6309 247.998 79.8684 235.995 93.8714C234.492 95.0612 234.731 96.3979 235.855 97.7848C238.625 103.863 240.665 90.6357 250.591 100.622C254.32 104.094 257.582 108.002 260.383 112.26C265.792 120.915 273.534 127.77 278.446 136.754C279.334 140.189 286.43 142.771 283.972 144.67C282.542 146.56 284.991 148.807 285.368 150.799C286.063 152.628 288.418 152.583 289.756 153.772C294.384 159.325 283.035 164.175 278.34 163.457C275.699 162.882 272.247 164.291 270.152 162.226C263.658 153.279 257.611 143.896 251.425 134.635C247.287 128.476 242.197 123.038 238.63 116.489C237.098 112.546 229.422 107.222 234.013 103.403Z" fill="black"/>
<path fill-rule="evenodd" clip-rule="evenodd" d="M141.791 108.4C140.28 104.157 158.813 86.6183 158.353 95.5249C156.082 97.6099 143.648 114.584 141.791 108.4Z" fill="black"/>
<path fill-rule="evenodd" clip-rule="evenodd" d="M143.76 63.5936C153.149 65.354 126.864 75.2286 124.177 74.6935C119.09 71.2455 140.666 63.4388 143.76 63.5936Z" fill="black"/>
<path fill-rule="evenodd" clip-rule="evenodd" d="M263.233 12.3937C261.283 18.3226 251.829 27.6537 245.549 28.1689C240.749 24.5571 259.651 12.3471 263.233 12.3937Z" fill="black"/>
<path fill-rule="evenodd" clip-rule="evenodd" d="M220.613 119.09C220.413 123.22 219.816 134.815 214.647 126.387C210.568 114.579 220.152 105.82 220.613 119.09Z" fill="black"/>
<path fill-rule="evenodd" clip-rule="evenodd" d="M132.139 29.3447C136.672 30.1243 140.832 32.948 144.405 35.774C146.75 36.9759 148.504 42.2744 144.334 41.2234C141.318 39.3757 138.361 37.4317 135.366 35.5482C133.645 34.4787 131.886 33.499 129.88 33.0255C126.694 31.0754 129.262 29.1076 132.139 29.3447Z" fill="black"/>
<path fill-rule="evenodd" clip-rule="evenodd" d="M182.321 115.456C181.009 119.676 177.93 126.519 173.389 127.665C168.868 126.452 180.385 105.862 182.321 115.456Z" fill="black"/>
<path fill-rule="evenodd" clip-rule="evenodd" d="M169.744 26.2064C162.508 27.1382 158.285 8.41177 166.728 14.4689C168.938 17.4522 168.447 21.7392 170.942 24.4096C172.139 25.314 170.678 26.2839 169.744 26.2064Z" fill="black"/>
<path fill-rule="evenodd" clip-rule="evenodd" d="M199.114 12.3294C197.811 21.6972 189.046 2.65683 192.377 0.102557C196.626 -1.12645 198.742 9.03161 199.114 12.3294Z" fill="black"/>
<path fill-rule="evenodd" clip-rule="evenodd" d="M278.235 82.8079C277.837 83.2086 277.54 83.9569 276.891 83.8354C273.829 82.879 270.679 83.515 267.577 83.3494C254.802 80.6244 269.886 73.7067 278.235 82.8079Z" fill="black"/>
<path fill-rule="evenodd" clip-rule="evenodd" d="M268.759 55.2347C266.843 55.7247 262.387 53.3244 265.647 51.9269C269.939 51.4447 275.378 51.5136 279.126 53.2703C275.923 54.4764 272.156 54.4705 268.759 55.2347Z" fill="black"/>
<path fill-rule="evenodd" clip-rule="evenodd" d="M224.911 10.2892C224.734 7.65962 226.729 0.045475 229.698 4.70658C229.924 8.08524 225.387 20.26 224.911 10.2892Z" fill="black"/>
<path fill-rule="evenodd" clip-rule="evenodd" d="M203.226 69.96C192.699 58.3426 196.26 48.9625 190.568 55.2785C186.558 60.3017 185.63 66.7733 184.199 72.8546C183.507 76.9535 201.336 71.6608 203.226 69.96ZM214.174 63.4862C220.659 59.7882 225.548 52.1055 224.489 44.5101C219.059 41.289 210.315 43.2364 204.41 45.5981C203.5 45.9678 203.461 46.4804 204.285 47.1749C209.354 51.4594 212.175 57.2496 214.174 63.4862ZM186.287 77.7253C179.526 78.7131 182.096 75.211 182.064 70.4016C182.594 67.1978 177.978 69.1163 176.356 67.5868C174.412 65.2379 178.929 64.5095 180.55 64.615C182.831 64.7121 183.286 64.4961 183.774 61.9958C184.185 60.5085 185.134 58.8505 185.039 57.3386C184.477 55.9288 181.228 54.9922 179.849 53.8774C178.656 53.3082 179.368 51.5319 180.51 51.4611C183.089 51.1281 184.405 53.7084 186.661 54.2938C190.45 48.6166 195.347 49.9791 189.953 43.2053C188.993 42.0233 190.093 41.0459 191.207 40.3485C193.217 40.2324 193.853 43.177 195.165 44.3932C197.034 46.3092 199.991 42.6649 202.074 42.0863C204.69 40.8684 199.178 35.2181 202.37 34.5127C207.239 34.7175 204.754 39.8862 208.012 40.0908C210.066 39.2572 216.637 40.2246 216.79 37.8138C216.3 35.674 215.31 33.2501 217.174 31.5001C217.718 30.8511 218.829 31.0322 219.176 31.8333C219.303 33.303 220.797 34.1411 220.56 35.6986C217.548 41.9072 226.019 37.8631 228.924 40.2511C231.609 42.023 226.807 42.9991 228.289 45.2553C230.467 65.0154 203.343 78.4212 186.287 77.7253Z" fill="black"/>
</svg>
