<svg width="190" height="72" viewBox="0 0 190 72" fill="none" xmlns="http://www.w3.org/2000/svg">
<path d="M102.322 57.9668C100.85 57.6113 99.707 57.0273 98.8945 56.2148C98.1328 55.3516 97.5488 54.3613 97.1426 53.2441C96.7871 52.0762 96.5332 50.8066 96.3809 49.4355C96.2793 48.0645 96.1523 46.6426 96 45.1699C96.2031 44.5098 96.457 43.9512 96.7617 43.4941C97.1172 43.0371 97.2695 42.4023 97.2188 41.5898C97.7773 39.9648 98.2852 38.3906 98.7422 36.8672C99.1992 35.3438 99.5039 33.7695 99.6562 32.1445C99.9609 31.6875 100.266 31.3828 100.57 31.2305C100.977 28.3359 101.027 25.3652 100.723 22.3184C100.418 19.2715 99.9102 16.4531 99.1992 13.8633C99.25 13.3047 99.3262 12.8984 99.4277 12.6445C99.5293 12.3398 99.5293 12.0859 99.4277 11.8828C99.3262 11.4258 99.4785 11.1973 99.8848 11.1973C100.291 11.1973 100.697 11.1973 101.104 11.1973C101.104 10.2832 100.926 9.39453 100.57 8.53125C100.266 7.61719 99.9609 6.57617 99.6562 5.4082C100.062 4.49414 100.342 3.60547 100.494 2.74219C100.646 1.87891 100.926 1.0918 101.332 0.380859C102.957 0.888672 104.557 1.47266 106.131 2.13281C107.705 2.79297 109.254 3.45312 110.777 4.11328C112.301 4.72266 113.799 5.33203 115.271 5.94141C116.744 6.5 118.191 6.95703 119.613 7.3125C121.797 8.88672 124.031 10.4609 126.316 12.0352C128.652 13.5586 130.76 15.2598 132.639 17.1387C134.568 18.9668 136.168 21.0742 137.438 23.4609C138.707 25.8477 139.443 28.666 139.646 31.916C139.545 32.2207 139.469 32.4746 139.418 32.6777C139.367 32.8809 139.316 33.084 139.266 33.2871C139.215 33.4902 139.189 33.7188 139.189 33.9727C139.189 34.2266 139.189 34.582 139.189 35.0391C137.361 38.2383 135.051 40.9297 132.258 43.1133C129.465 45.2969 126.418 47.2266 123.117 48.9023C119.816 50.5781 116.363 52.127 112.758 53.5488C109.203 54.9199 105.725 56.3926 102.322 57.9668ZM109.787 14.7773C109.33 14.7773 109 14.8789 108.797 15.082C109.406 17.3672 109.863 19.5254 110.168 21.5566C110.473 23.5879 110.625 25.6191 110.625 27.6504C110.676 29.6816 110.574 31.7637 110.32 33.8965C110.066 36.0293 109.711 38.3398 109.254 40.8281C109.914 40.7773 110.498 40.6504 111.006 40.4473C111.514 40.2441 112.021 40.0156 112.529 39.7617C113.088 39.5078 113.646 39.2793 114.205 39.0762C114.814 38.873 115.5 38.7461 116.262 38.6953C116.465 38.2891 116.719 37.9844 117.023 37.7812C117.379 37.5273 117.684 37.2734 117.938 37.0195C119.207 36.5117 120.477 35.9785 121.746 35.4199C123.016 34.8613 124.184 34.2266 125.25 33.5156C126.316 32.8047 127.281 31.9922 128.145 31.0781C129.008 30.1641 129.719 29.0723 130.277 27.8027C129.871 27.041 129.363 26.4062 128.754 25.8984C128.195 25.3398 127.586 24.8066 126.926 24.2988C126.316 23.7402 125.707 23.1816 125.098 22.623C124.539 22.0137 124.082 21.3281 123.727 20.5664C122.914 20.4648 122.203 20.2617 121.594 19.957C120.984 19.6016 120.4 19.2715 119.842 18.9668C119.283 18.6113 118.674 18.2812 118.014 17.9766C117.404 17.6719 116.668 17.4941 115.805 17.4434C114.484 16.7324 113.291 16.25 112.225 15.9961C111.158 15.6914 110.346 15.2852 109.787 14.7773Z" fill="black"/>
<path d="M141.217 35.6484C141.268 35.4453 141.369 35.3691 141.521 35.4199C141.725 35.4199 141.902 35.3945 142.055 35.3438C141.648 34.9375 141.395 34.4043 141.293 33.7441C141.191 33.0332 140.938 32.4492 140.531 31.9922C140.633 31.7383 140.709 31.4844 140.76 31.2305C140.861 30.9766 141.09 30.875 141.445 30.9258C141.293 29.8086 141.318 28.7676 141.521 27.8027C141.725 26.8379 142.029 25.9238 142.436 25.0605C142.893 24.1973 143.4 23.3594 143.959 22.5469C144.568 21.6836 145.152 20.8203 145.711 19.957C146.168 19.8555 146.447 19.9062 146.549 20.1094C146.65 20.2617 146.828 20.2109 147.082 19.957C147.895 19.3984 148.453 18.7891 148.758 18.1289C149.062 17.418 149.215 16.6562 149.215 15.8438C149.672 14.5234 150.18 13.2285 150.738 11.959C151.348 10.6387 152.033 9.41992 152.795 8.30273C153.557 7.18555 154.369 6.2207 155.232 5.4082C156.096 4.54492 157.035 3.88477 158.051 3.42773C158.762 2.81836 159.65 2.25977 160.717 1.75195C161.834 1.24414 163.002 0.863281 164.221 0.609375C165.49 0.304688 166.785 0.152344 168.105 0.152344C169.426 0.101562 170.645 0.228516 171.762 0.533203C172.016 0.634766 172.168 0.583984 172.219 0.380859C172.27 0.126953 172.396 0 172.6 0C175.139 0.304688 177.398 0.8125 179.379 1.52344C181.41 2.23438 183.137 3.22461 184.559 4.49414C185.523 6.01758 186.438 7.66797 187.301 9.44531C188.164 11.1719 188.824 13 189.281 14.9297C189.789 16.8086 190.018 18.7637 189.967 20.7949C189.916 22.8262 189.484 24.8574 188.672 26.8887C186.895 29.123 184.736 30.9258 182.197 32.2969C179.658 33.6172 176.916 34.7344 173.971 35.6484C171.076 36.5117 168.055 37.2227 164.906 37.7812C161.809 38.3398 158.787 38.9492 155.842 39.6094C155.893 40.9805 155.893 42.4531 155.842 44.0273C155.791 45.5508 155.613 47.0996 155.309 48.6738C155.055 50.1973 154.648 51.6953 154.09 53.168C153.582 54.6406 152.871 56.0117 151.957 57.2812C150.941 57.2305 149.875 57.332 148.758 57.5859C147.691 57.8398 146.727 58.0938 145.863 58.3477C145.457 58.0938 145.051 57.8398 144.645 57.5859C144.289 57.3828 143.832 57.2559 143.273 57.2051C143.426 56.5957 143.273 55.9609 142.816 55.3008C142.41 54.6406 141.979 54.0059 141.521 53.3965C141.115 52.7363 140.836 52.1016 140.684 51.4922C140.582 50.832 140.887 50.248 141.598 49.7402C141.191 49.3848 140.988 48.8262 140.988 48.0645C141.191 48.2676 141.445 48.3691 141.75 48.3691C141.648 47.4551 141.75 46.3633 142.055 45.0938C142.41 43.8242 142.689 42.5801 142.893 41.3613C143.146 40.0918 143.197 38.9492 143.045 37.9336C142.893 36.8672 142.283 36.1055 141.217 35.6484ZM161.021 17.8242C160.818 18.3828 160.641 18.8906 160.488 19.3477C160.387 19.7539 160.26 20.1348 160.107 20.4902C159.955 20.8457 159.777 21.2012 159.574 21.5566C159.422 21.9121 159.244 22.3184 159.041 22.7754C159.143 23.0801 159.346 23.3086 159.65 23.4609C159.955 23.6133 160.158 23.8418 160.26 24.1465C160.971 23.791 161.682 23.5371 162.393 23.3848C163.104 23.1816 163.814 23.0293 164.525 22.9277C165.236 22.8262 165.947 22.6992 166.658 22.5469C167.369 22.3945 168.105 22.1406 168.867 21.7852C169.629 21.4297 170.416 21.1504 171.229 20.9473C172.092 20.6934 172.93 20.4395 173.742 20.1855C174.555 19.9316 175.342 19.6523 176.104 19.3477C176.865 18.9922 177.525 18.5352 178.084 17.9766C177.373 17.3164 176.307 16.7324 174.885 16.2246C173.463 15.7168 171.914 15.4121 170.238 15.3105C168.613 15.1582 166.963 15.2598 165.287 15.6152C163.662 15.9707 162.24 16.707 161.021 17.8242Z" fill="black"/>
<path fill-rule="evenodd" clip-rule="evenodd" d="M56.953 8.24278C51.2763 10.0223 46.1903 26.2025 40.7461 23.398C33.3646 18.6539 25.8245 14.1141 17.8925 10.344C9.85566 5.91419 2.45797 8.85282 13.0864 15.6517C19.4226 20.2199 25.8807 24.6217 32.2179 29.1911C37.0513 32.6764 37.6831 32.2674 33.217 37.444C29.215 43.7749 16.3115 55.2272 20.5102 62.6406C28.2141 63.7556 35.9407 47.4941 41.7274 42.5816C45.4636 35.6109 50.0479 42.6365 54.3461 44.9833C59.2867 46.8271 82.751 71.1505 81.1 55.9908C73.6656 47.1998 63.5389 41.1316 54.8304 33.6787C44.5019 29.6362 67.5946 13.2777 56.953 8.24278Z" fill="black"/>
<path fill-rule="evenodd" clip-rule="evenodd" d="M61.4199 58.6513C61.4286 58.7758 61.4372 58.9003 61.4459 59.0255C74.5148 58.1745 83.5195 63.7651 76.7538 45.917C66.5779 -3.96804 63.3626 7.85057 18.2444 12.5755C11.7036 16.1923 15.7404 45.1684 14.5038 53.7019C15.2346 59.1015 16.0768 63.3502 22.3506 62.3972C35.3875 61.4123 48.3957 59.85 61.4199 58.6513ZM0.0488105 25.7866C-0.356277 12.8139 1.4823 2.82799 16.2096 2.06149C30.9122 1.31962 47.448 -2.74204 61.3892 3.115C63.6949 5.39055 66.2516 5.74949 69.3461 5.58766C82.09 2.05946 89.7386 56.104 86.0868 64.1633C84.9777 67.3939 81.2184 66.7199 78.4923 66.7852C64.8468 66.2418 51.4382 68.6179 37.9502 70.0157C-2.40775 78.765 1.30011 57.6017 0.0488105 25.7866Z" fill="black"/>
</svg>
