<svg width="490" height="422" viewBox="0 0 490 422" fill="none" xmlns="http://www.w3.org/2000/svg">
<path fill-rule="evenodd" clip-rule="evenodd" d="M387.305 156.015C408.505 221.921 380.463 303.016 327.082 339.387C273.785 375.673 195.149 367.319 147.765 329.598C100.296 291.962 84.079 225.128 102.239 163.525C120.314 101.839 172.851 45.4683 234.256 42.5992C295.746 39.6456 366.189 90.1932 387.305 156.015Z" fill="black" fill-opacity="0.04"/>
<path fill-rule="evenodd" clip-rule="evenodd" d="M238.623 79.403C237.79 79.1589 236.888 79.0759 235.954 79.1897C233.144 79.5307 230.805 81.7273 230.317 84.5158C229.921 86.7785 230.685 88.8789 232.113 90.3206C232.705 90.9176 232.861 91.8177 232.477 92.5651C230.489 96.4425 227.456 101.418 224.3 108.587C215.086 129.521 208.856 151.97 183.416 157.811C161.365 162.874 146.763 141.808 157.077 122.301C165.864 105.685 184.652 101.832 196.48 88.6379C207.257 76.6163 208.803 58.0803 224.253 49.6794C228.713 47.2551 233.929 46.4047 238.823 47.7521C250.313 50.9143 251.961 63.1504 246.573 72.0784C244.579 75.3828 242.389 77.6291 240.7 78.967C240.115 79.43 239.34 79.6131 238.623 79.403Z" fill="black"/>
<path d="M246.824 61.2856C247.24 60.9714 247.832 61.0537 248.146 61.4694L249.037 62.6355L250.824 64.9488C253.145 67.9715 254.324 69.6521 255.544 71.765C257.531 75.2043 259.062 79.0198 260.138 83.1111C260.333 83.8517 260.513 84.6053 260.68 85.3742C261.82 90.6371 261.701 94.1154 259.176 96.525C257.075 98.5307 253.138 100.048 247.843 101.215C245.123 101.814 242.214 102.28 239.307 102.63L238.453 102.729C237.897 102.791 237.366 102.846 236.866 102.894L235.848 102.985L235.421 103.019C234.901 103.055 234.45 102.663 234.413 102.144C234.377 101.624 234.769 101.173 235.289 101.136L235.838 101.092C235.988 101.08 236.15 101.065 236.324 101.049L237.06 100.979C237.691 100.916 238.368 100.842 239.081 100.756C241.933 100.413 244.783 99.9563 247.437 99.3716L248.108 99.2201C252.743 98.146 256.178 96.7785 257.873 95.1599C259.739 93.3796 259.841 90.4113 258.836 85.7741C258.675 85.0318 258.501 84.3047 258.313 83.591C257.278 79.6573 255.81 75.9977 253.91 72.7087L253.709 72.365C252.572 70.4355 251.395 68.7834 249.119 65.8269L247.429 63.6399C247.209 63.3549 247.017 63.1032 246.828 62.8552L246.641 62.6073C246.326 62.1916 246.409 61.5999 246.824 61.2856Z" fill="black"/>
<path d="M244.329 100.603C244.423 100.09 244.916 99.7517 245.428 99.8465C245.91 99.9357 246.239 100.377 246.197 100.856L246.184 100.946L243.01 118.109C242.915 118.621 242.423 118.96 241.911 118.865C241.429 118.776 241.1 118.334 241.142 117.856L241.155 117.766L244.329 100.603Z" fill="black"/>
<path d="M308.386 51.9877C308.699 51.5929 309.263 51.5179 309.666 51.8016L309.74 51.859L319.306 60.0837C319.648 60.3783 319.731 60.8702 319.516 61.2574L319.465 61.3387L290.147 103.406C290.107 103.463 290.061 103.515 290.01 103.562L289.93 103.628L248.424 133.96C248.003 134.268 247.413 134.176 247.106 133.755C246.816 133.359 246.881 132.813 247.24 132.494L247.311 132.436L288.688 102.198L317.429 60.9583L309.253 53.9287L281.917 88.3568C281.834 88.4611 281.73 88.5463 281.613 88.6074L281.522 88.6485L253.347 99.6901C252.861 99.8803 252.314 99.6411 252.124 99.1559C251.945 98.6992 252.146 98.1874 252.575 97.9703L252.658 97.9331L280.597 86.9837L308.386 51.9877Z" fill="black"/>
<path d="M317.806 31.6133C318.036 30.9987 318.799 30.8073 319.291 31.2153L319.356 31.2747L320.99 32.9015C322.348 34.2532 322.897 36.2129 322.45 38.0656L322.401 38.2505L321.202 42.5547L321.981 43.2545C324.866 45.8483 325.37 50.1706 323.189 53.3542L323.071 53.5207L318.188 60.2634C317.882 60.6855 317.292 60.7798 316.87 60.4742C316.473 60.1865 316.366 59.647 316.61 59.2327L316.66 59.1565L321.543 52.4139C323.257 50.0471 322.951 46.7881 320.852 44.7814L320.719 44.6576L319.506 43.5662C319.262 43.3466 319.151 43.0175 319.208 42.6984L319.228 42.6117L320.584 37.744C320.917 36.547 320.606 35.2657 319.771 34.3554L319.659 34.2389L319.062 33.645L311.417 54.1158C311.245 54.5752 310.753 54.8219 310.289 54.6973L310.203 54.6696C309.743 54.498 309.496 54.0064 309.621 53.5422L309.649 53.4555L317.806 31.6133Z" fill="black"/>
<path d="M225.064 114.699C228.417 113.777 230.917 113.488 234.15 114.082L234.475 114.148C234.865 114.231 235.295 114.339 235.814 114.493C236.822 114.793 237.863 115.187 238.906 115.69C241.691 117.035 244.073 118.949 245.784 121.538L245.965 121.818C246.048 121.951 246.185 122.185 246.357 122.509C246.639 123.04 246.92 123.637 247.183 124.287C247.626 125.383 247.97 126.52 248.178 127.673L248.234 128.003C249.053 133.204 248.15 144.312 246.038 159.39C245.369 164.161 244.615 169.063 243.821 173.907L243.478 175.979C243.311 176.976 243.148 177.94 242.99 178.867L242.433 182.066L242.248 183.112L296.296 188.387C296.713 188.428 297.054 188.74 297.131 189.153C297.76 192.508 297.697 196.142 296.35 200.083C294.91 204.272 292.546 207.302 289.797 209.603C289.655 209.722 289.481 209.796 289.296 209.817L283.456 210.475C274.894 211.448 266.299 212.457 256.92 213.605L235.215 216.307C230.848 216.841 228.029 217.156 225.78 217.351L224.781 217.433C219.884 217.807 217.557 217.552 215.212 216.447L215.014 216.352C209.031 213.402 206.016 206.807 205.122 196.453L205.053 195.601C204.512 188.471 204.79 181.994 206.067 166.396L206.843 157.009C206.954 155.627 207.048 154.406 207.138 153.179L207.195 152.388C207.511 147.987 207.723 144.148 207.836 140.533C207.853 140.012 208.288 139.603 208.809 139.619C209.33 139.636 209.739 140.071 209.723 140.592L209.681 141.815C209.568 144.895 209.385 148.155 209.129 151.791L208.981 153.844C208.844 155.692 208.693 157.58 208.487 160.073L207.915 166.957C206.676 182.147 206.408 188.522 206.935 195.458L206.971 195.921C207.776 205.901 210.529 212.036 215.846 214.658L216.017 214.74C218.015 215.682 220.052 215.904 224.661 215.549L225.619 215.471C227.24 215.33 229.17 215.125 231.784 214.818L254.112 212.048L259.232 211.422C268.059 210.349 276.235 209.394 284.41 208.468L288.8 207.973L288.82 207.957C291.15 205.95 293.16 203.345 294.44 199.826L294.565 199.471C295.67 196.238 295.827 193.228 295.429 190.426L295.394 190.195L241.046 184.891C240.496 184.837 240.11 184.326 240.209 183.783L240.549 181.884L240.942 179.638C241.158 178.388 241.384 177.061 241.616 175.668C242.534 170.171 243.408 164.563 244.169 159.128L244.431 157.234C246.365 143.03 247.147 132.575 246.321 128.008C246.138 126.991 245.83 125.977 245.433 124.994C245.236 124.505 245.027 124.05 244.816 123.636L244.69 123.393C244.541 123.112 244.427 122.918 244.368 122.824C242.853 120.419 240.673 118.639 238.085 117.39C237.139 116.933 236.192 116.574 235.276 116.302C234.675 116.124 234.215 116.016 233.801 115.937C230.912 115.406 228.667 115.666 225.561 116.52C223.985 116.947 222.449 117.535 220.965 118.264C220.497 118.494 219.931 118.301 219.702 117.834C219.472 117.366 219.665 116.8 220.132 116.571C221.722 115.789 223.372 115.158 225.064 114.699Z" fill="black"/>
<path d="M314.036 182.043C314.52 181.585 315.303 181.763 315.553 182.361L315.583 182.442L316.546 185.457C317.43 188.23 316.706 191.259 314.677 193.33L314.53 193.476L311.9 196.025C311.049 196.849 310.375 197.835 309.916 198.924L309.814 199.177C308.474 202.654 305.302 205.081 301.609 205.476L301.455 205.49L291.673 207.56C291.193 207.662 290.722 207.379 290.578 206.921L290.555 206.833C290.453 206.353 290.736 205.881 291.195 205.737L291.283 205.714L301.116 203.633L301.232 203.616C304.23 203.363 306.829 201.457 307.977 198.688L308.053 198.498C308.575 197.144 309.367 195.912 310.381 194.874L310.587 194.67L313.217 192.121C314.795 190.593 315.4 188.325 314.806 186.222L314.748 186.031L314.241 184.445L308.39 189.978C308.276 190.087 308.136 190.164 307.985 190.205L307.893 190.224L296.706 192.035C296.192 192.118 295.707 191.769 295.624 191.255C295.546 190.77 295.851 190.313 296.316 190.191L296.405 190.172L307.303 188.408L314.036 182.043Z" fill="black"/>
<path d="M164.239 155.228C164.421 154.739 164.965 154.491 165.453 154.673C165.913 154.844 166.16 155.336 166.035 155.8L166.008 155.887L140.331 224.808C137.955 231.186 141.363 238.272 147.818 240.343C160.807 244.509 174.544 246.705 188.075 245.772C205.622 244.561 221.179 238.14 233.903 225.413L234.411 224.898L234.411 215.34C234.411 214.85 234.786 214.447 235.264 214.401L235.355 214.396C235.845 214.396 236.248 214.771 236.294 215.249L236.299 215.34V225.283C236.299 225.529 236.203 225.765 236.032 225.941C222.825 239.544 206.552 246.388 188.204 247.654C174.407 248.606 160.441 246.373 147.242 242.14C139.834 239.763 135.891 231.697 138.482 224.371L138.563 224.149L164.239 155.228Z" fill="black"/>
<path d="M142.533 238.808C142.667 238.305 143.184 238.006 143.688 238.14C144.191 238.275 144.49 238.792 144.356 239.295C142.095 247.757 142.137 256.413 145.551 264.637C149.623 274.457 157.509 281.166 167.868 285.323C171.614 286.827 175.459 287.898 179.227 288.606C180.615 288.867 181.919 289.064 183.116 289.206L183.813 289.284C184.322 289.337 184.754 289.373 185.104 289.395C190.898 289.766 195.629 289.057 203.943 286.778C221.406 281.99 239.603 274.773 259.133 263.874C259.768 263.52 260.548 263.986 260.537 264.713L260.37 274.916C260.211 283.856 260.013 292.991 259.714 305.431L258.65 348.36C258.317 362.148 258.107 371.888 257.939 381.626L257.81 389.588L273.51 398.021L273.655 397.111C275.42 386.04 277.195 375.637 279.196 364.489L280.889 355.193C282.662 345.545 285.231 331.691 285.359 330.995L286.136 326.738C288.097 315.933 289.621 307.061 291.102 297.683C291.183 297.168 291.666 296.817 292.181 296.898C292.695 296.979 293.047 297.462 292.966 297.977L292.622 300.137C291.131 309.467 289.565 318.476 287.532 329.606L281.496 362.362L281.456 362.584C279.155 375.325 277.164 386.988 275.166 399.629C275.064 400.271 274.359 400.621 273.787 400.313L256.412 390.979C256.127 390.826 255.942 390.539 255.917 390.221L255.915 390.133L256.081 379.925C256.276 368.958 256.53 357.698 256.957 340.395L257.935 300.89C258.219 288.849 258.403 279.919 258.555 270.678L258.625 266.314L258.241 266.525C239.557 276.779 222.068 283.698 205.255 288.374L204.442 288.598L203.512 288.85C195.577 290.98 190.799 291.651 184.983 291.279L184.562 291.249C183.11 291.137 181.174 290.893 178.878 290.461C174.996 289.731 171.033 288.627 167.165 287.075C156.372 282.743 148.097 275.703 143.808 265.36C140.217 256.71 140.173 247.64 142.533 238.808Z" fill="black"/>
<path d="M280.665 208.938C281.113 208.739 281.634 208.918 281.87 209.336L281.91 209.418L336.131 331.521C336.323 331.954 336.164 332.457 335.771 332.703L335.694 332.747L319.115 341.113C318.707 341.319 318.216 341.202 317.943 340.847L317.891 340.773L247.826 229.221L235.056 224.948C234.59 224.792 234.327 224.309 234.435 223.841L234.46 223.754C234.616 223.288 235.099 223.025 235.567 223.133L235.654 223.158L248.744 227.538C248.922 227.598 249.077 227.708 249.19 227.855L249.244 227.931L319.032 339.042L334.042 331.466L280.186 210.184C279.987 209.735 280.165 209.215 280.584 208.979L280.665 208.938Z" fill="black"/>
<path d="M306.964 161.324C307.184 161.001 307.577 160.85 307.952 160.935L308.038 160.959L324.039 166.215C324.597 166.398 324.848 167.036 324.583 167.545L324.54 167.62L313.1 185.486C312.819 185.925 312.236 186.053 311.797 185.772C311.384 185.508 311.246 184.975 311.466 184.548L311.511 184.469L322.293 167.627L308.124 162.973L290.321 189.119C290.045 189.525 289.509 189.647 289.088 189.416L289.01 189.368C288.605 189.092 288.482 188.556 288.714 188.135L288.761 188.057L306.964 161.324Z" fill="black"/>
<path d="M319.972 17.1123C328.871 17.1123 336.085 24.3263 336.085 33.2252C336.085 38.527 333.504 43.3971 329.254 46.3982C328.828 46.6988 328.239 46.5974 327.939 46.1717C327.638 45.746 327.74 45.1572 328.165 44.8566C331.92 42.2055 334.198 37.9072 334.198 33.2252C334.198 25.3685 327.829 18.9994 319.972 18.9994C312.116 18.9994 305.747 25.3688 305.747 33.2252C305.747 35.6468 306.352 37.9784 307.49 40.0546C307.741 40.5115 307.574 41.085 307.117 41.3356C306.66 41.5862 306.086 41.4189 305.836 40.962C304.545 38.6095 303.859 35.9661 303.859 33.2252C303.859 24.3265 311.074 17.1123 319.972 17.1123Z" fill="black"/>
<path fill-rule="evenodd" clip-rule="evenodd" d="M256.858 389.029L256.13 404.696L290.469 421.056L290.761 418.636C291.414 413.242 288.943 407.945 284.39 404.98L274.234 398.364L256.858 389.029Z" fill="black"/>
<path d="M255.916 388.985L255.188 404.652C255.17 405.032 255.381 405.385 255.724 405.548L290.063 421.907C290.645 422.185 291.328 421.809 291.406 421.169L291.698 418.749C292.394 412.998 289.759 407.351 284.905 404.189L274.749 397.574L274.681 397.533L257.305 388.198C256.693 387.869 255.948 388.292 255.916 388.985ZM257.731 390.569L273.752 399.176L283.875 405.77L284.086 405.911C288.203 408.705 290.424 413.57 289.825 418.522L289.689 419.639L257.101 404.113L257.731 390.569Z" fill="black"/>
<path fill-rule="evenodd" clip-rule="evenodd" d="M318.329 340.566L324.633 350.271L359.551 333.535C356.412 328.565 350.217 326.478 344.711 328.536L334.908 332.199L318.329 340.566Z" fill="black"/>
<path d="M334.577 331.315L334.482 331.357L317.903 339.723C317.402 339.977 317.231 340.609 317.537 341.08L323.842 350.785C324.1 351.182 324.613 351.327 325.041 351.122L359.958 334.386C360.467 334.142 360.65 333.508 360.348 333.031C356.971 327.683 350.305 325.438 344.38 327.652L334.577 331.315ZM358.141 333.164L324.972 349.061L319.693 340.934L335.286 333.064L345.04 329.419C349.76 327.656 355.026 329.187 358.079 333.083L358.141 333.164Z" fill="black"/>
<path d="M286.931 224.872C287.052 224.396 287.514 224.098 287.989 224.172L288.079 224.191L295.107 225.985C304.032 228.262 309.585 237.131 307.774 246.129L307.717 246.401L304.564 260.879C304.453 261.389 303.951 261.711 303.442 261.601C302.962 261.496 302.648 261.045 302.705 260.567L302.72 260.478L305.873 246C307.619 237.983 302.769 230.023 294.88 227.876L294.64 227.813L287.612 226.019C287.107 225.89 286.802 225.376 286.931 224.872Z" fill="black"/>
<path d="M163.943 202.888C164.461 202.828 164.928 203.2 164.988 203.718C165.455 207.799 166.838 211.895 169.793 215.739C172.424 219.162 175.775 221.588 179.563 223.191C182.078 224.255 184.297 224.788 186.341 225.057C186.857 225.125 187.221 225.599 187.153 226.116C187.085 226.632 186.611 226.996 186.094 226.928C183.896 226.639 181.52 226.068 178.828 224.929C174.755 223.206 171.14 220.588 168.297 216.889C165.106 212.737 163.616 208.326 163.113 203.932C163.053 203.415 163.425 202.947 163.943 202.888Z" fill="black"/>
<path d="M173.468 181.742C173.625 181.245 174.155 180.969 174.652 181.126C175.149 181.283 175.425 181.813 175.268 182.31C174.033 186.227 173.629 190.532 174.763 195.246C175.772 199.443 177.844 203.024 180.651 206.03C182.515 208.026 184.324 209.416 186.082 210.495C186.526 210.767 186.665 211.348 186.393 211.792C186.12 212.237 185.539 212.376 185.095 212.103C183.204 210.943 181.267 209.455 179.272 207.318C176.254 204.086 174.019 200.223 172.928 195.687C171.703 190.596 172.139 185.959 173.468 181.742Z" fill="black"/>
<path fill-rule="evenodd" clip-rule="evenodd" d="M122.221 309.705H241.547V289.846H122.221V309.705Z" fill="black"/>
<path d="M319.972 6.60303C334.674 6.60303 346.594 18.5221 346.594 33.2247C346.594 42.7857 341.51 51.4645 333.412 56.2101C332.962 56.4735 332.384 56.3226 332.121 55.873C331.857 55.4234 332.008 54.8453 332.458 54.5819C339.984 50.1716 344.707 42.1089 344.707 33.2247C344.707 19.5643 333.632 8.49016 319.972 8.49016C306.311 8.49016 295.237 19.5642 295.237 33.2247C295.237 38.5566 296.927 43.6314 300.013 47.8385C300.322 48.2587 300.231 48.8492 299.811 49.1574C299.39 49.4657 298.8 49.3749 298.492 48.9547C295.17 44.4266 293.35 38.9615 293.35 33.2247C293.35 18.522 305.269 6.60303 319.972 6.60303Z" fill="black"/>
<path d="M49.3056 77.8994H34.8012C15.581 77.8994 0 93.48 0 112.7C0 131.92 15.5811 147.501 34.8012 147.501H83.1632C83.6843 147.501 84.1068 147.079 84.1068 146.558V112.7C84.1068 93.48 68.5258 77.8994 49.3056 77.8994ZM49.8499 79.791C67.7768 80.0816 82.2197 94.704 82.2197 112.7V145.614H34.8012C16.6234 145.614 1.88713 130.878 1.88713 112.7C1.88713 94.5223 16.6232 79.7865 34.8012 79.7865H49.3056L49.8499 79.791Z" fill="black"/>
<path d="M55.195 102.473C55.7161 102.473 56.1385 102.895 56.1385 103.416C56.1385 103.907 55.7643 104.31 55.2859 104.355L55.195 104.36H28.9123C28.3912 104.36 27.9688 103.937 27.9688 103.416C27.9688 102.926 28.343 102.523 28.8214 102.477L28.9123 102.473H55.195Z" fill="black"/>
<path d="M55.195 118.783C55.7161 118.783 56.1385 119.205 56.1385 119.726C56.1385 120.217 55.7643 120.62 55.2859 120.666L55.195 120.67H28.9123C28.3912 120.67 27.9688 120.247 27.9688 119.726C27.9688 119.236 28.343 118.833 28.8214 118.787L28.9123 118.783H55.195Z" fill="black"/>
<path fill-rule="evenodd" clip-rule="evenodd" d="M49.2109 196.605H97.573C116.272 196.605 131.431 181.446 131.431 162.747C131.431 144.048 116.272 128.89 97.573 128.89H83.0685C64.3696 128.89 49.2109 144.048 49.2109 162.747V196.605Z" fill="black"/>
<path fill-rule="evenodd" clip-rule="evenodd" d="M80.749 162.747C80.749 165.195 78.765 167.179 76.3173 167.179C73.8697 167.179 71.8857 165.195 71.8857 162.747C71.8857 160.299 73.8697 158.315 76.3173 158.315C78.765 158.315 80.749 160.299 80.749 162.747Z" fill="white"/>
<path fill-rule="evenodd" clip-rule="evenodd" d="M94.7503 162.747C94.7503 165.195 92.7669 167.179 90.3187 167.179C87.8711 167.179 85.8877 165.195 85.8877 162.747C85.8877 160.299 87.8711 158.315 90.3187 158.315C92.7669 158.315 94.7503 160.299 94.7503 162.747Z" fill="white"/>
<path fill-rule="evenodd" clip-rule="evenodd" d="M108.753 162.747C108.753 165.195 106.769 167.179 104.321 167.179C101.874 167.179 99.8896 165.195 99.8896 162.747C99.8896 160.299 101.874 158.315 104.321 158.315C106.769 158.315 108.753 160.299 108.753 162.747Z" fill="white"/>
<path d="M413.801 78.7485H371.824C366.588 78.7485 362.345 82.9919 362.345 88.2269C362.345 93.4616 366.589 97.7054 371.824 97.7054H413.801C419.036 97.7054 423.279 93.4615 423.279 88.2269C423.279 82.992 419.036 78.7485 413.801 78.7485ZM371.824 80.6357H413.801C417.994 80.6357 421.392 84.0342 421.392 88.2269C421.392 92.4192 417.993 95.8182 413.801 95.8182H371.824C367.631 95.8182 364.232 92.4193 364.232 88.2269C364.232 84.0342 367.631 80.6357 371.824 80.6357Z" fill="black"/>
<path d="M413.801 180.884H371.824C366.589 180.884 362.345 185.128 362.345 190.363C362.345 195.597 366.589 199.841 371.824 199.841H413.801C419.036 199.841 423.279 195.597 423.279 190.363C423.279 185.128 419.036 180.884 413.801 180.884ZM371.824 182.771H413.801C417.993 182.771 421.392 186.17 421.392 190.363C421.392 194.555 417.993 197.954 413.801 197.954H371.824C367.631 197.954 364.232 194.555 364.232 190.363C364.232 186.17 367.631 182.771 371.824 182.771Z" fill="black"/>
<path fill-rule="evenodd" clip-rule="evenodd" d="M456.127 96.7626H442.507C437.793 96.7626 433.972 92.9411 433.972 88.2277C433.972 83.5137 437.793 79.6929 442.507 79.6929H456.127C460.841 79.6929 464.662 83.5137 464.662 88.2277C464.662 92.9411 460.841 96.7626 456.127 96.7626Z" fill="black"/>
<path d="M456.127 78.7485H442.507C437.272 78.7485 433.028 82.992 433.028 88.2269C433.028 93.4615 437.272 97.7054 442.507 97.7054H456.127C461.362 97.7054 465.606 93.4617 465.606 88.2269C465.606 82.9918 461.363 78.7485 456.127 78.7485ZM442.507 80.6357H456.127C460.32 80.6357 463.719 84.034 463.719 88.2269C463.719 92.4195 460.32 95.8182 456.127 95.8182H442.507C438.314 95.8182 434.915 92.4192 434.915 88.2269C434.915 84.0342 438.314 80.6357 442.507 80.6357Z" fill="black"/>
<path fill-rule="evenodd" clip-rule="evenodd" d="M431.607 164.852H371.824C367.111 164.852 363.289 161.032 363.289 156.318C363.289 151.604 367.111 147.783 371.824 147.783H431.607C436.32 147.783 440.142 151.604 440.142 156.318C440.142 161.032 436.32 164.852 431.607 164.852Z" fill="black"/>
<path d="M431.606 146.839H371.823C366.588 146.839 362.345 151.082 362.345 156.318C362.345 161.552 366.589 165.796 371.823 165.796H431.606C436.841 165.796 441.085 161.552 441.085 156.318C441.085 151.082 436.841 146.839 431.606 146.839ZM371.823 148.726H431.606C435.799 148.726 439.197 152.125 439.197 156.318C439.197 160.51 435.799 163.909 431.606 163.909H371.823C367.631 163.909 364.232 160.51 364.232 156.318C364.232 152.125 367.631 148.726 371.823 148.726Z" fill="black"/>
<path d="M479.739 112.793H426.222C420.986 112.793 416.743 117.037 416.743 122.272C416.743 127.507 420.986 131.75 426.222 131.75H479.739C484.974 131.75 489.218 127.507 489.218 122.272C489.218 117.037 484.974 112.793 479.739 112.793ZM426.222 114.681H479.739C483.932 114.681 487.331 118.079 487.331 122.272C487.331 126.465 483.932 129.863 479.739 129.863H426.222C422.029 129.863 418.63 126.465 418.63 122.272C418.63 118.079 422.029 114.681 426.222 114.681Z" fill="black"/>
<path fill-rule="evenodd" clip-rule="evenodd" d="M395.602 130.807H370.44C365.727 130.807 361.905 126.986 361.905 122.272C361.905 117.558 365.727 113.737 370.44 113.737H395.602C400.315 113.737 404.136 117.558 404.136 122.272C404.136 126.986 400.315 130.807 395.602 130.807Z" fill="black"/>
<path d="M395.602 112.793H370.44C365.206 112.793 360.962 117.037 360.962 122.272C360.962 127.507 365.206 131.75 370.44 131.75H395.602C400.837 131.75 405.08 127.507 405.08 122.272C405.08 117.037 400.837 112.793 395.602 112.793ZM370.44 114.681H395.602C399.794 114.681 403.193 118.079 403.193 122.272C403.193 126.465 399.794 129.863 395.602 129.863H370.44C366.248 129.863 362.849 126.465 362.849 122.272C362.849 118.079 366.248 114.681 370.44 114.681Z" fill="black"/>
<path d="M258.201 19.7923C258.531 18.8545 259.877 19.0072 260.023 19.9498L260.033 20.0405L261.083 35.3281L264.512 27.6757C264.755 27.1341 265.425 26.9541 265.903 27.2806L265.973 27.3334L269.062 29.8806H274.587L278.323 20.9958C278.678 20.1512 279.887 20.2656 280.105 21.1191L280.124 21.21L282.4 35.213L285.643 29.1852C285.875 28.7532 286.396 28.5755 286.839 28.7619L286.921 28.8011C287.353 29.0334 287.53 29.5539 287.344 29.997L287.305 30.0791L282.746 38.5548C282.333 39.3222 281.207 39.1612 281.002 38.3459L280.984 38.2592L278.788 24.7576L276.084 31.1904C275.948 31.5136 275.646 31.7326 275.301 31.7643L275.214 31.7683H268.724C268.536 31.7683 268.353 31.7123 268.199 31.6086L268.124 31.5527L265.728 29.5767L261.263 39.5453C260.874 40.4138 259.61 40.2181 259.47 39.314L259.46 39.2243L258.464 24.7337L256.213 31.1377C256.09 31.4865 255.777 31.7287 255.414 31.7639L255.323 31.7683H247.878C247.357 31.7683 246.935 31.3459 246.935 30.8248C246.935 30.3343 247.309 29.9312 247.787 29.8855L247.878 29.8812L254.654 29.8806L258.201 19.7923Z" fill="black"/>
<path d="M378.628 19.4821C378.898 18.535 380.234 18.5921 380.452 19.5107L380.469 19.6023L382.347 32.3229L382.912 30.5396C383.027 30.1754 383.349 29.9196 383.724 29.8849L383.812 29.8809H388.761C389.283 29.8809 389.705 30.3034 389.705 30.8245C389.705 31.3149 389.331 31.718 388.852 31.7637L388.761 31.768L384.502 31.7674L382.911 36.7934C382.618 37.7169 381.312 37.6426 381.096 36.7394L381.078 36.6463L379.243 24.2189L377.293 31.0825C377.186 31.4592 376.858 31.7274 376.475 31.7638L376.385 31.768L374.025 31.7674L372.329 36.8094C372.044 37.6578 370.866 37.6591 370.557 36.8554L370.527 36.7662L367.771 27.0584L366.816 31.0445C366.722 31.4405 366.385 31.7276 365.985 31.7641L365.899 31.768H361.706C361.319 31.768 360.974 31.5314 360.831 31.177L360.802 31.0932L358.737 24.1434L356.951 36.6419C356.832 37.4801 355.767 37.7367 355.271 37.0867L355.22 37.0136L351.618 31.3295C351.339 30.8894 351.47 30.3064 351.91 30.0275C352.325 29.7649 352.865 29.8653 353.16 30.245L353.212 30.3194L355.445 33.8426L357.479 19.6067C357.617 18.6356 358.942 18.508 359.287 19.3835L359.317 19.4714L362.41 29.8803H365.155L366.777 23.1138C366.996 22.2009 368.25 22.1447 368.572 22.9859L368.603 23.0761L371.511 33.3218L372.453 30.5236C372.573 30.167 372.892 29.9185 373.261 29.8848L373.347 29.8809L375.672 29.8803L378.628 19.4821Z" fill="black"/>
<path fill-rule="evenodd" clip-rule="evenodd" d="M327.185 142.018C327.185 148.21 322.166 153.229 315.974 153.229C309.782 153.229 304.763 148.21 304.763 142.018C304.763 135.826 309.782 130.807 315.974 130.807C322.166 130.807 327.185 135.826 327.185 142.018Z" fill="black"/>
<path fill-rule="evenodd" clip-rule="evenodd" d="M322.596 139.625C322.596 141.961 320.702 143.855 318.367 143.855C316.031 143.855 314.138 141.961 314.138 139.625C314.138 137.29 316.031 135.396 318.367 135.396C320.702 135.396 322.596 137.29 322.596 139.625Z" fill="white"/>
<path fill-rule="evenodd" clip-rule="evenodd" d="M401.716 254.09L383.053 272.754L364.39 254.09L383.053 235.427L401.716 254.09Z" fill="black"/>
<path d="M382.385 234.759L363.722 253.423C363.353 253.791 363.353 254.389 363.722 254.757L382.385 273.42C382.753 273.789 383.351 273.789 383.719 273.42L402.382 254.757C402.751 254.389 402.751 253.791 402.382 253.423L383.719 234.759C383.351 234.391 382.753 234.391 382.385 234.759ZM383.052 236.761L400.381 254.09L383.052 271.419L365.722 254.09L383.052 236.761Z" fill="black"/>
<path fill-rule="evenodd" clip-rule="evenodd" d="M420.379 254.09L401.715 272.754L383.052 254.09L401.715 235.427L420.379 254.09Z" fill="white"/>
<path d="M401.048 234.759L382.385 253.423C382.016 253.791 382.016 254.389 382.385 254.757L401.048 273.42C401.416 273.789 402.014 273.789 402.382 273.42L421.046 254.757C421.414 254.389 421.414 253.791 421.046 253.423L402.382 234.759C402.014 234.391 401.416 234.391 401.048 234.759ZM401.715 236.761L419.044 254.09L401.715 271.419L384.385 254.09L401.715 236.761Z" fill="black"/>
<path fill-rule="evenodd" clip-rule="evenodd" d="M439.043 254.09L420.38 272.754L401.716 254.09L420.38 235.427L439.043 254.09Z" fill="white"/>
<path d="M419.712 234.759L401.048 253.423C400.679 253.791 400.679 254.389 401.048 254.757L419.712 273.42C420.08 273.789 420.677 273.789 421.046 273.42L439.709 254.757C440.077 254.389 440.077 253.791 439.709 253.423L421.046 234.759C420.677 234.391 420.08 234.391 419.712 234.759ZM420.378 236.761L437.708 254.09L420.378 271.419L403.049 254.09L420.378 236.761Z" fill="black"/>
<path fill-rule="evenodd" clip-rule="evenodd" d="M331.369 167.342C331.369 171.195 328.245 174.319 324.391 174.319C320.538 174.319 317.414 171.195 317.414 167.342C317.414 163.488 320.538 160.364 324.391 160.364C328.245 160.364 331.369 163.488 331.369 167.342Z" fill="black"/>
<path fill-rule="evenodd" clip-rule="evenodd" d="M329.071 166.017C329.071 167.059 328.227 167.904 327.185 167.904C326.143 167.904 325.298 167.059 325.298 166.017C325.298 164.975 326.143 164.13 327.185 164.13C328.227 164.13 329.071 164.975 329.071 166.017Z" fill="white"/>
<path fill-rule="evenodd" clip-rule="evenodd" d="M298.463 154.112C298.463 156.576 296.466 158.574 294.001 158.574C291.537 158.574 289.54 156.576 289.54 154.112C289.54 151.648 291.537 149.65 294.001 149.65C296.466 149.65 298.463 151.648 298.463 154.112Z" fill="black"/>
<path fill-rule="evenodd" clip-rule="evenodd" d="M293.367 152.996C293.367 153.613 292.867 154.112 292.25 154.112C291.634 154.112 291.134 153.613 291.134 152.996C291.134 152.38 291.634 151.88 292.25 151.88C292.867 151.88 293.367 152.38 293.367 152.996Z" fill="white"/>
<path d="M32.4382 201.922C32.8016 201.548 33.3989 201.54 33.7724 201.904C34.1459 202.267 34.1541 202.864 33.7907 203.238C18.6275 218.822 10.665 240.915 13.6886 261.063C15.2858 271.706 20.4471 281.527 27.8057 288.924L27.8641 288.981L27.8826 288.849C28.6999 283.242 30.3603 277.791 32.9282 272.638L33.284 271.937C39.7648 259.404 50.7988 249.795 63.4593 246.194C70.5668 244.173 78.6306 244.551 85.0994 247.322C92.3365 250.422 97.0178 256.19 97.898 264.024C99.2017 275.619 94.1274 286.595 84.6295 294.401C75.5443 301.867 63.4821 305.481 52.4427 303.81C44.0137 302.534 36.2046 298.739 29.704 293.241L29.3336 292.924L29.283 293.667C28.1902 311.214 35.2133 329.979 48.3788 345.509L48.9467 346.173C68.4378 368.726 99.7598 379.394 131.247 375.322C155.743 372.154 178.988 359.607 195.831 340.727C196.178 340.338 196.775 340.304 197.163 340.651C197.552 340.998 197.586 341.594 197.239 341.983C180.098 361.197 156.442 373.966 131.489 377.194C99.3972 381.344 67.4423 370.46 47.5189 347.407C33.2694 330.918 25.8181 310.701 27.52 291.922L27.5766 291.335L27.3854 291.155C19.4081 283.525 13.7577 273.214 11.9222 261.98L11.8223 261.343C8.70748 240.586 16.8794 217.913 32.4382 201.922ZM84.3563 249.056C78.2965 246.461 70.6768 246.104 63.9755 248.009C51.8379 251.461 41.2108 260.716 34.9603 272.804C32.1639 278.211 30.4177 283.979 29.6421 289.928L29.5588 290.601L29.9881 290.988C36.2627 296.573 43.885 300.476 52.1348 301.85L52.7252 301.944C63.2197 303.533 74.7483 300.078 83.4313 292.943C92.4591 285.523 97.2509 275.158 96.0227 264.235C95.2219 257.108 90.9954 251.9 84.3563 249.056Z" fill="black"/>
<path d="M407.283 320.117C416.878 320.117 425.521 325.492 429.853 333.868C431.698 337.436 432.673 341.4 432.673 345.506C432.673 347.704 432.393 349.866 431.847 351.956C431.715 352.46 431.199 352.762 430.695 352.63C430.191 352.498 429.889 351.983 430.021 351.478C430.527 349.544 430.786 347.542 430.786 345.506C430.786 341.704 429.884 338.037 428.177 334.735C424.166 326.979 416.166 322.004 407.283 322.004C394.43 322.004 383.987 332.317 383.779 345.117L383.776 345.653L383.78 345.777C383.805 346.297 383.403 346.74 382.883 346.765C382.362 346.79 381.92 346.389 381.895 345.868L381.891 345.775L381.889 345.64V345.506C381.889 331.485 393.258 320.117 407.283 320.117Z" fill="black"/>
<path d="M431.843 333.135C442.272 333.135 450.726 341.591 450.726 352.018C450.726 362.446 442.272 370.902 431.843 370.902C431.322 370.902 430.899 370.479 430.899 369.958C430.899 369.437 431.322 369.015 431.843 369.015C441.23 369.015 448.839 361.404 448.839 352.018C448.839 342.633 441.23 335.022 431.843 335.022C430.946 335.022 430.053 335.094 429.16 335.234C428.645 335.314 428.163 334.963 428.082 334.448C428.001 333.933 428.353 333.45 428.868 333.369C429.856 333.214 430.847 333.135 431.843 333.135Z" fill="black"/>
<path d="M382.774 344.881C383.294 344.846 383.744 345.239 383.779 345.759C383.814 346.279 383.421 346.729 382.901 346.764C377.078 347.157 372.53 352.005 372.53 357.872C372.53 364.028 377.515 369.014 383.667 369.014C384.188 369.014 384.61 369.436 384.61 369.958C384.61 370.479 384.188 370.901 383.667 370.901C376.472 370.901 370.643 365.07 370.643 357.872C370.643 351.01 375.962 345.341 382.774 344.881Z" fill="black"/>
<path d="M395.955 363.36C396.446 363.36 396.849 363.735 396.895 364.213L396.899 364.304V378.471C396.899 378.992 396.476 379.415 395.955 379.415C395.465 379.415 395.062 379.041 395.016 378.562L395.012 378.471V364.304C395.012 363.783 395.434 363.36 395.955 363.36Z" fill="black"/>
<path d="M407.793 363.36C408.284 363.36 408.687 363.735 408.732 364.213L408.737 364.304V387.399C408.737 387.92 408.314 388.343 407.793 388.343C407.303 388.343 406.9 387.969 406.854 387.49L406.85 387.399V364.304C406.85 363.783 407.272 363.36 407.793 363.36Z" fill="black"/>
<path d="M419.633 363.36C420.123 363.36 420.527 363.735 420.572 364.213L420.577 364.304V378.471C420.577 378.992 420.154 379.415 419.633 379.415C419.143 379.415 418.74 379.041 418.694 378.562L418.689 378.471V364.304C418.689 363.783 419.112 363.36 419.633 363.36Z" fill="black"/>
<path d="M124.301 16.3501C125.852 16.3501 127.363 16.5787 128.798 17.0271C129.296 17.1825 129.573 17.7117 129.418 18.2091C129.262 18.7065 128.733 18.9838 128.236 18.8284C126.983 18.4371 125.662 18.2372 124.301 18.2372C116.935 18.2372 110.964 24.2095 110.964 31.5805C110.964 38.947 116.937 44.9237 124.301 44.9237C124.822 44.9237 125.245 45.3462 125.245 45.8673C125.245 46.3884 124.822 46.8109 124.301 46.8109C115.895 46.8109 109.077 39.989 109.077 31.5805C109.077 23.1674 115.893 16.3501 124.301 16.3501Z" fill="black"/>
<path d="M163.318 22.0324C163.479 21.5366 164.011 21.265 164.507 21.4256C169.827 23.1497 173.501 28.1234 173.501 33.8039C173.501 40.9878 167.678 46.8112 160.494 46.8112C157.195 46.8112 154.086 45.578 151.704 43.3947C151.32 43.0425 151.294 42.4457 151.646 42.0615C151.999 41.6774 152.596 41.6515 152.98 42.0036C155.016 43.8709 157.671 44.9241 160.494 44.9241C166.635 44.9241 171.614 39.9456 171.614 33.8039C171.614 28.9473 168.473 24.6945 163.925 23.2208C163.429 23.0602 163.158 22.5281 163.318 22.0324Z" fill="black"/>
<path d="M146.507 0C156.977 0 165.472 8.49506 165.472 18.9656C165.472 20.1584 165.36 21.3446 165.141 22.4984C165.044 23.0105 164.551 23.3469 164.039 23.2499C163.527 23.1529 163.19 22.6592 163.287 22.1472C163.484 21.1089 163.585 20.0403 163.585 18.9656C163.585 9.53728 155.935 1.88713 146.507 1.88713C137.443 1.88713 129.971 8.97202 129.459 17.9812C129.429 18.5015 128.984 18.8993 128.463 18.8698C127.943 18.8402 127.545 18.3945 127.575 17.8742C128.143 7.86743 136.44 0 146.507 0Z" fill="black"/>
<path d="M126.76 44.9214C127.281 44.9214 127.704 45.3438 127.704 45.865C127.704 46.3554 127.329 46.7585 126.851 46.8042L126.76 46.8085H124.303C123.782 46.8085 123.359 46.3861 123.359 45.865C123.359 45.3745 123.734 44.9714 124.212 44.9257L124.303 44.9214H126.76Z" fill="black"/>
<path d="M134.324 34.8037C134.815 34.8037 135.218 35.1779 135.264 35.6564L135.268 35.7473V59.4364C135.268 59.9575 134.846 60.38 134.324 60.38C133.834 60.38 133.431 60.0057 133.385 59.5273L133.381 59.4364V35.7473C133.381 35.2262 133.803 34.8037 134.324 34.8037Z" fill="black"/>
<path d="M144.614 26.4751C145.105 26.4751 145.508 26.8493 145.554 27.3278L145.558 27.4187V51.1078C145.558 51.6289 145.136 52.0513 144.614 52.0513C144.124 52.0513 143.721 51.6771 143.675 51.1987L143.671 51.1078V27.4187C143.671 26.8975 144.093 26.4751 144.614 26.4751Z" fill="black"/>
<path d="M306.447 169.27C306.606 168.807 307.091 168.547 307.559 168.659L307.646 168.685L314.873 171.17C315.366 171.339 315.628 171.876 315.459 172.369C315.299 172.832 314.814 173.092 314.347 172.98L314.26 172.954L307.033 170.469C306.54 170.3 306.278 169.763 306.447 169.27Z" fill="black"/>
<path d="M302.834 174.282C302.993 173.818 303.478 173.558 303.946 173.671L304.033 173.696L311.26 176.181C311.753 176.351 312.015 176.888 311.845 177.381C311.686 177.844 311.201 178.104 310.734 177.991L310.646 177.966L303.419 175.481C302.926 175.311 302.664 174.774 302.834 174.282Z" fill="black"/>
</svg>
