<svg width="93" height="91" viewBox="0 0 93 91" fill="none" xmlns="http://www.w3.org/2000/svg">
<path fill-rule="evenodd" clip-rule="evenodd" d="M61.4766 1.47752C49.5338 2.71805 37.5466 1.40858 25.5823 2.68769C22.0361 3.53194 -0.508879 4.97692 2.40463 10.2217C5.82776 12.7554 12.1893 7.51157 14.3446 9.12648C15.1692 10.7923 9.51578 12.8536 8.37362 14.0836C6.01134 15.6811 2.35313 20.1515 8.06141 18.9727C11.387 18.311 13.6867 15.9436 16.392 14.1783C19.3435 14.3903 16.1994 17.2935 15.0053 17.9351C13.7765 18.7428 13.0461 19.8937 12.5366 21.2217C11.398 23.6265 11.6903 27.8101 15.2239 25.4365C17.7222 23.2477 18.9195 20.0628 20.5974 17.2696C21.815 14.766 31.843 13.9314 34.8329 13.2958C35.9469 13.1991 37.0155 13.4836 38.1217 13.0332C38.9437 12.5222 39.9841 12.8872 40.8846 12.7913C44.0129 11.6928 47.4919 12.0894 50.7645 11.6514C53.9837 11.4793 52.0997 13.2361 51.9353 15.0526C51.7024 18.768 50.639 23.2875 53.3955 26.3135C56.6658 31.6117 63.002 34.4753 69.1418 34.3596C71.1172 34.3152 73.1315 34.3371 75.0036 33.605C75.8245 33.4077 77.2028 32.6643 77.6701 33.7059C77.6953 35.1846 73.7113 35.2899 72.5564 35.5799C63.2261 37.0173 50.2599 32.3013 49.273 21.7411C49.4936 11.1129 55.2893 13.4586 37.6846 15.1855C32.601 15.4929 27.7121 17.0671 22.8002 18.3095C20.7101 19.4918 20.219 22.5172 18.5521 24.2362C16.6816 26.7155 11.4278 29.8559 10.3064 25.1774C9.78722 23.9712 11.4613 20.4418 10.6275 20.3471C7.91621 21.7227 1.12442 21.8495 3.45773 17.1929C4.13688 15.8464 5.12418 14.7478 6.17097 13.6866C6.4312 13.4229 6.92104 13.292 6.81542 12.7644C1.36356 13.3252 -3.04365 10.1421 2.69097 5.82879C5.95686 3.62339 9.94458 3.32058 13.7001 2.50324C24.7962 0.624699 35.9927 -0.218358 47.2593 0.0481336C51.9726 0.909528 56.8847 0.0412272 61.4766 1.47752Z" fill="black"/>
<path fill-rule="evenodd" clip-rule="evenodd" d="M53.361 84.5682C51.6739 83.9268 48.2127 85.0379 47.9477 82.5706C47.7526 80.5315 49.7105 79.7217 50.9161 78.5794C49.1548 77.936 46.505 78.4783 45.1646 76.6306C43.6885 74.1626 46.6434 71.3027 49.1684 71.5139C54.5464 71.9028 59.978 72.0834 65.3633 71.723C73.5423 71.563 76.8516 70.3272 76.7118 61.4173C77.1001 54.3048 76.6885 47.2516 75.9094 40.1817C75.9041 38.7545 75.6902 36.6016 76.7885 35.6396C77.9348 38.0171 77.375 41.2571 78.0889 43.9099C79.208 50.196 78.5158 56.6429 78.5016 62.9893C78.8785 74.6118 68.5467 74.0331 59.8738 74.0222C56.2668 74.0017 52.6713 73.6434 49.0847 73.3985C47.8915 73.3033 45.4615 75.248 47.12 76.1126C50.1463 76.9236 53.3604 76.0778 56.3739 76.891C57.8994 76.8385 59.8097 78.4707 57.24 78.6347C55.0914 78.6671 50.3008 79.9174 50.031 82.2763C52.6345 83.1032 55.9347 83.2533 58.6157 82.3986C59.2007 82.232 59.6652 82.4154 60.0664 82.8575C60.977 83.9307 59.0599 84.226 58.3606 84.482C48.6473 88.5911 54.8782 89.9927 61.4248 88.1617C62.4778 87.979 62.8518 89.4549 64.0311 89.178C70.2805 89.6507 76.3952 88.2689 82.5587 87.7536C87.7678 86.943 87.586 85.0392 89.0517 80.6052C90.4087 77.2023 89.6538 73.4908 90.3556 69.947C90.9223 68.3757 89.4112 62.5453 92.4562 63.7686C93.4887 67.1394 92.1565 71.1178 92.4663 74.7069C92.6539 78.6304 91.1635 85.3817 88.4091 88.2349C85.1291 90.559 80.5224 89.4453 76.7598 90.4322C71.3568 91.5542 65.8954 90.5854 60.4481 90.7051C57.4888 90.9254 50.391 91.7118 51.4264 86.9546C51.7577 85.8462 53.0435 85.5867 53.361 84.5682Z" fill="black"/>
<path fill-rule="evenodd" clip-rule="evenodd" d="M70.7939 27.464C78.3033 28.033 81.7567 23.6035 81.2431 16.6626C79.5543 11.1253 73.0139 10.1277 67.9684 9.7049C61.1892 9.39844 58.7641 16.2991 59.9991 22.0146C60.7674 26.4349 67.4431 27.4055 70.7939 27.464ZM70.885 29.0067C66.2651 28.7926 60.6295 28.2483 58.2664 23.6425C55.5685 15.4377 60.3348 6.49186 69.608 7.2939C75.2049 8.53464 78.9434 8.18561 82.511 13.6051C84.5736 17.1846 83.2102 22.2754 81.0079 25.5463C78.6988 28.4532 74.3924 28.9847 70.885 29.0067Z" fill="black"/>
<path fill-rule="evenodd" clip-rule="evenodd" d="M72.4399 52.4573C72.0811 53.9494 67.7369 60.5737 66.9473 56.7458C67.4923 55.7151 72.0784 48.7806 72.4399 52.4573Z" fill="black"/>
<path fill-rule="evenodd" clip-rule="evenodd" d="M34.336 24.9652C32.3749 24.7509 30.7109 24.0398 29.3515 22.685C29.0214 22.1555 27.3041 21.0177 28.2758 20.5402C29.6003 19.5449 37.3561 24.3614 34.336 24.9652Z" fill="black"/>
<path fill-rule="evenodd" clip-rule="evenodd" d="M65.6905 46.9357C66.1003 46.9277 66.7825 47.26 66.2084 47.7027C64.8779 48.5423 63.8719 49.7748 62.6059 50.6925C61.5712 52.0392 58.5673 52.2701 59.7614 49.9464C61.4502 48.448 63.35 47.0941 65.6905 46.9357Z" fill="black"/>
<path fill-rule="evenodd" clip-rule="evenodd" d="M46.2565 47.9674C44.7337 48.0302 42.8047 47.3998 45.109 46.4765C47.7571 46.1297 50.4686 45.2455 53.1283 45.3985C53.6876 45.6498 53.1273 46.0667 52.964 46.3325C51.9685 47.9584 47.9909 47.6212 46.2565 47.9674Z" fill="black"/>
<path fill-rule="evenodd" clip-rule="evenodd" d="M70.6786 43.6766C69.6973 43.7466 62.0782 42.7288 64.2137 41.2358C66.5494 41.268 68.8985 41.6892 71.1344 42.3561C72.8806 42.9925 72.4062 43.9446 70.6786 43.6766Z" fill="black"/>
<path fill-rule="evenodd" clip-rule="evenodd" d="M38.6843 25.0688C36.4229 24.8652 40.6771 20.2994 41.8394 20.225C42.6415 19.7924 44.1882 19.91 43.2116 20.993C41.7052 22.2668 40.6699 24.6291 38.6843 25.0688Z" fill="black"/>
<path fill-rule="evenodd" clip-rule="evenodd" d="M39.484 38.2596C39.1652 41.4052 34.515 36.2919 35.7559 34.9955C38.2736 34.155 39.1316 36.334 39.484 38.2596Z" fill="black"/>
<path fill-rule="evenodd" clip-rule="evenodd" d="M59.8146 59.1646C61.2179 59.3014 66.1448 60.7661 65.7889 62.4368C65.7471 63.6704 57.0706 60.0056 59.8146 59.1646Z" fill="black"/>
<path fill-rule="evenodd" clip-rule="evenodd" d="M52.6631 55.9315C46.6685 55.9809 54.6722 53.6896 56.4282 54.2904C59.2278 55.104 53.6431 56.4746 52.6631 55.9315Z" fill="black"/>
<path fill-rule="evenodd" clip-rule="evenodd" d="M56.1711 38.9556C54.7135 38.7008 53.1825 37.8424 52.3706 36.5851C52.0906 35.6982 53.5371 35.9753 54.0109 36.0512C55.0031 36.078 58.3519 38.4919 56.1711 38.9556Z" fill="black"/>
<path fill-rule="evenodd" clip-rule="evenodd" d="M48.6045 33.6152C47.6806 35.3958 45.816 32.5487 45.3228 31.5919C44.9103 30.8576 45.4705 29.8054 46.3488 30.2551C47.4915 30.9518 48.2269 32.3701 48.6045 33.6152Z" fill="black"/>
<path fill-rule="evenodd" clip-rule="evenodd" d="M60.1079 64.1907C59.5618 64.97 57.002 69.9498 56.2734 67.5165C56.6007 66.5902 59.2576 62.0427 60.1079 64.1907Z" fill="black"/>
<path fill-rule="evenodd" clip-rule="evenodd" d="M35.3401 30.8723C31.9452 30.47 35.368 28.4837 36.8593 28.0993C37.5185 27.9013 38.2205 28.9256 37.8045 29.4281C37.1856 30.1732 36.4247 30.7204 35.3401 30.8723Z" fill="black"/>
<path fill-rule="evenodd" clip-rule="evenodd" d="M47.6714 38.5044C47.6391 39.3606 46.6829 43.3726 45.5579 41.8108C45.1106 40.6087 47.1817 34.8284 47.6714 38.5044Z" fill="black"/>
<path fill-rule="evenodd" clip-rule="evenodd" d="M25.0787 24.2918C24.8921 25.7315 23.219 25.8383 22.2236 26.5193C21.0539 26.5561 24.2591 22.7637 25.0787 24.2918Z" fill="black"/>
<path fill-rule="evenodd" clip-rule="evenodd" d="M50.4626 66.0521C49.7703 66.3852 49.1041 65.1279 48.5188 64.777C47.1194 62.3007 50.6437 64.8052 50.4626 66.0521Z" fill="black"/>
<path fill-rule="evenodd" clip-rule="evenodd" d="M67.1204 17.9955C66.9405 22.1822 74.3712 20.0401 71.359 16.9855C69.9581 16.1812 66.9327 15.4921 67.1204 17.9955ZM65.5088 18.4967C65.0806 11.6771 75.6434 12.8645 73.9041 19.0674C72.4031 22.3193 65.7845 22.611 65.5088 18.4967Z" fill="black"/>
</svg>
