<svg width="86" height="92" viewBox="0 0 86 92" fill="none" xmlns="http://www.w3.org/2000/svg">
<path fill-rule="evenodd" clip-rule="evenodd" d="M62.0236 25.9585C62.0072 27.1846 62.3451 27.9068 63.4397 26.8437C64.7396 25.1431 65.0898 23.173 64.9746 21.089C63.8549 19.7936 61.6882 24.8668 62.0236 25.9585ZM47.906 16.2884C47.7368 13.4774 47.0939 10.4137 44.539 8.73501C44.3049 8.55006 44.024 8.48831 43.8107 8.70939C40.5935 11.6304 40.3669 17.1418 43.0835 20.4592C43.9143 21.4171 44.9581 21.3879 46.047 21.106C48.2242 20.5309 47.651 18.0832 47.906 16.2884ZM19.752 20.9239C19.541 26.0129 23.8356 30.5847 29.0258 28.8615C32.8018 26.8698 28.944 19.6565 25.785 18.4082C21.6644 16.9792 19.8917 15.2557 19.752 20.9239ZM42.1112 7.15135C36.716 3.62127 28.7192 3.5644 24.1146 8.06838C23.4106 9.29162 20.1884 13.9921 21.7925 14.8533C24.5803 15.6008 27.5512 16.2416 29.5341 18.5237C35.6075 25.6468 31.9391 34.2904 22.3097 30.1344C18.8135 28.4301 17.3026 24.7412 17.3719 21.013C17.0239 19.9122 18.3474 17.6406 17.0562 17.1758C10.9321 17.0427 6.30941 21.6623 3.63785 26.7721C2.12498 29.7524 2.84921 33.2546 2.7965 36.4709C3.02542 38.2203 3.15913 42.039 5.51825 41.952C14.7501 41.5864 24.0189 41.5787 33.2599 41.2442C42.3339 40.6454 51.4437 41.0899 60.5143 40.4483C62.4412 40.6094 72.1392 39.0593 72.4473 40.4245C72.5142 41.7746 73.8699 41.6143 74.848 41.5972C76.9448 41.2861 79.637 42.0348 81.4422 41.0777C81.6432 39.2149 83.3802 37.9266 83.2231 35.9783C82.9527 30.1533 80.0672 24.4717 75.7769 20.5692C74.5238 19.0687 67.8908 17.2094 67.5176 20.0224C67.2166 22.1815 67.4916 24.5259 66.3088 26.4614C64.0565 30.2622 59.3411 31.3929 60.1851 25.4862C61.5676 16.9195 68.176 21.4769 64.3648 8.86279C61.6706 4.57471 55.3449 0.629575 50.4059 3.53938C49.0198 4.38118 47.7878 5.41933 46.473 6.34983C45.6871 6.94982 47.0037 7.5824 47.3474 8.05401C51.2607 11.8644 52.2604 23.3021 44.8339 23.3884C37.6854 22.3082 37.8914 11.4131 42.1112 7.15135ZM40.7041 44.6067C33.6618 44.6606 26.6213 44.5473 19.5806 44.4259C15.5993 44.3822 11.6171 44.3994 7.64237 44.0982C5.98824 43.966 4.17196 44.77 2.97093 43.2351C-0.701902 38.8346 -1.1248 28.4315 2.5769 23.9624C5.30014 20.0314 8.89197 16.0121 13.8701 15.255C15.3455 14.7193 17.9312 15.3282 18.6986 13.7504C19.4307 11.557 20.2875 9.3963 21.6293 7.49414C25.7398 1.66224 34.4947 0.858202 40.6716 3.59594C41.9663 3.89831 43.1389 5.2406 44.4346 5.07387C47.9533 2.5501 51.4803 -0.960149 56.1913 0.244286C64.2459 2.85557 68.3507 7.87603 67.8218 16.5037C69.0305 17.8852 73.4742 15.489 76.6865 18.5091C81.5749 22.3261 84.4612 28.1298 85.7275 34.0942C86.7907 37.2362 84.3969 39.5016 84.4418 42.1644C84.8096 43.3617 83.7625 44.0371 82.6403 43.8306C79.9505 43.7123 77.263 43.6727 74.5817 43.987C63.292 44.2915 51.9934 44.2429 40.7036 44.5621C40.7038 44.5769 40.7039 44.5919 40.7041 44.6067Z" fill="black"/>
<path fill-rule="evenodd" clip-rule="evenodd" d="M43.625 54.4426C43.7672 53.754 43.9171 52.9103 44.1182 52.0791C44.4741 50.0653 48.1615 46.8403 48.2516 50.6376C48.016 53.3387 43.7306 62.0305 43.625 54.4426Z" fill="black"/>
<path fill-rule="evenodd" clip-rule="evenodd" d="M9.28809 53.7192C9.50472 51.8979 9.70551 47.5853 11.3545 47.0879C12.124 47.5441 13.4533 47.5337 13.3084 48.7946C13.0344 50.9433 10.3258 60.8997 9.28809 53.7192Z" fill="black"/>
<path fill-rule="evenodd" clip-rule="evenodd" d="M61.7022 56.0124C61.9113 54.0996 63.015 47.7781 65.6624 50.0813C67.9796 51.6816 64.0001 55.6783 63.3867 57.6566C62.4462 59.4298 61.4045 56.9424 61.7022 56.0124Z" fill="black"/>
<path fill-rule="evenodd" clip-rule="evenodd" d="M55.6053 62.5872C54.206 64.9687 53.5013 67.2132 52.7851 69.7789C50.5841 71.5468 50.864 64.5306 51.9743 63.5947C52.774 62.417 54.4262 61.2482 55.6053 62.5872Z" fill="black"/>
<path fill-rule="evenodd" clip-rule="evenodd" d="M33.6278 64.9489C33.5851 63.8438 34.2897 61.3123 36.0817 61.5723C39.4791 62.755 35.8116 67.0727 34.6269 68.8592C33.2652 69.919 33.8974 66.0668 33.6278 64.9489Z" fill="black"/>
<path fill-rule="evenodd" clip-rule="evenodd" d="M26.4324 55.8769C25.9895 54.1676 28.9375 47.1462 30.8694 50.6296C30.578 51.9287 26.4038 61.3611 26.4324 55.8769Z" fill="black"/>
<path fill-rule="evenodd" clip-rule="evenodd" d="M60.8229 76.2719C60.8565 77.5016 58.4346 82.9858 57.1123 81.8042C57.6888 79.8862 57.2931 74.9741 59.6804 74.6084C60.5528 74.7371 60.9045 75.3899 60.8229 76.2719Z" fill="black"/>
<path fill-rule="evenodd" clip-rule="evenodd" d="M15.5821 66.4212C15.4007 64.8207 18.8678 59.9231 19.2186 63.4482C20.1319 65.1981 17.9102 66.9092 16.7652 68.0117C15.808 68.7095 15.7842 66.9357 15.5821 66.4212Z" fill="black"/>
<path fill-rule="evenodd" clip-rule="evenodd" d="M39.1901 79.8311C38.7486 76.9851 42.6432 73.9151 42.7931 77.877C41.8746 79.5167 39.741 84.4575 39.1901 79.8311Z" fill="black"/>
<path fill-rule="evenodd" clip-rule="evenodd" d="M43.317 90.5468C42.6082 88.1208 45.745 85.0404 46.3929 87.1632C46.0772 88.258 47.1783 88.5894 46.8494 89.4936C46.3358 90.261 43.1571 92.665 43.2016 90.552L43.317 90.5468Z" fill="black"/>
<path fill-rule="evenodd" clip-rule="evenodd" d="M68.5064 68.0029C68.1297 66.2964 70.7487 62.3546 72.1484 64.5928C72.9363 65.8774 68.2874 71.5389 68.5733 68.0057C68.5511 68.0048 68.5287 68.0038 68.5064 68.0029Z" fill="black"/>
<path fill-rule="evenodd" clip-rule="evenodd" d="M25.0928 76.5995C25.1921 75.734 25.1838 74.0606 26.5636 74.2106C27.2136 74.2279 27.7415 74.6399 27.7707 75.2621C27.8188 78.1577 25.1298 82.396 25.0928 76.5995Z" fill="black"/>
<path fill-rule="evenodd" clip-rule="evenodd" d="M35.0259 87.7709C37.7768 88.0412 34.601 91.6699 33.5211 91.9522C31.6974 91.3357 33.3362 87.5015 35.0259 87.7709Z" fill="black"/>
</svg>
