<svg width="78" height="94" viewBox="0 0 78 94" fill="none" xmlns="http://www.w3.org/2000/svg">
<path fill-rule="evenodd" clip-rule="evenodd" d="M56.3278 74.5237C50.0644 82.1433 54.5477 83.3254 46.6191 82.6976C46.2457 82.7015 45.7991 82.7293 45.5575 83.1331C45.6416 84.4425 48.405 84.9604 49.5603 85.2987C51.19 85.3946 46.1347 92.5297 47.2027 93.8536C49.2428 95.0627 50.7419 88.4248 51.8127 87.0973C52.1918 84.4104 62.7256 89.7187 63.2928 87.5993C63.9877 83.9032 52.9901 85.0191 53.9807 82.6655C53.9459 81.2852 59.5626 73.3975 56.3278 74.5237ZM36.4113 65.7811C35.814 67.1903 38.1426 70.8982 36.684 71.4935C34.5215 72.1427 32.3727 72.8573 30.3096 73.7776C28.0995 74.6078 27.4427 76.5481 30.5502 75.6079C32.5038 75.1337 34.4452 74.6078 36.3992 74.1336C37.8896 73.772 37.9147 73.5798 38.1862 75.3216C38.7618 77.1661 38.8584 81.6113 41.0142 82.0323C42.5179 80.7116 40.6137 76.4734 40.6143 74.5174C39.8687 72.6176 42.0127 72.8982 43.1903 72.4505C44.3763 71.7927 53.0652 71.2783 49.8134 69.06C46.8475 69.0412 43.9671 70.0058 41.0515 70.4606C38.5352 71.8042 39.1746 64.5426 36.4113 65.7811ZM65.5447 73.8504C65.1789 74.1741 65.2031 74.6394 64.7139 74.3856C62.7725 75.2603 64.2049 75.415 64.3792 76.9036C64.3538 77.8175 66.0706 78.3419 66.4129 77.4909C66.5577 77.0248 66.9438 76.8793 67.3095 76.7993C68.3423 76.5343 68.2685 74.9744 67.7211 74.3062C67.3247 73.765 66.1195 73.6484 65.5447 73.8504ZM60.4547 66.3353C59.9912 67.6917 57.7606 65.3292 57.7007 66.9757C57.7344 67.9059 59.3928 67.9492 58.9543 68.9121C58.3329 69.5861 58.2226 71.8597 59.5302 70.7706C61.1688 67.6166 63.7031 72.2893 63.9394 70.1143C64.1084 68.675 61.2705 68.6576 61.9409 67.2119C62.2221 66.5589 63.0047 65.6971 62.366 65.0513C61.5152 64.641 60.9029 65.7662 60.4547 66.3353ZM44.1875 25.931C40.9887 25.9655 39.2039 29.7373 37.942 32.3153C37.7818 32.7405 37.5833 33.2421 37.0521 33.1845C33.4112 32.8864 29.6669 32.7864 26.0933 33.6203C24.2531 34.0347 25.7056 31.5325 25.6396 30.6238C25.2778 26.2447 13.4141 30.1673 10.436 30.4314C0.500853 34.4533 18.1843 31.4063 20.118 31.085C20.9258 31.1708 23.1366 30.1592 23.1327 31.3906C22.6902 32.1422 22.4984 36.3428 21.4751 35.7732C16.8844 29.9554 16.1969 39.25 14.2584 38.078C13.8081 36.7085 12.4965 34.9512 10.9132 35.6663C9.29582 36.0762 9.96715 40.9705 8.19453 38.6581C3.74355 34.3883 4.79701 43.2874 2.38832 39.6021C1.89082 38.9538 1.19304 38.9107 0.489228 38.8892C-1.16494 39.973 1.82896 42.0298 2.74229 42.7785C5.12289 44.3047 5.516 39.6891 6.74553 39.8813C10.5755 43.8339 10.3471 41.282 11.8273 37.8496C13.3778 39.375 13.6137 42.2346 16.3168 39.3592C18.2528 37.1902 18.3423 34.3405 21.1288 37.7182C21.663 39.3212 21.0192 41.3226 21.2463 43.0644C21.2225 43.4288 20.8848 43.5068 20.6527 43.2467C14.4531 36.0937 15.5155 47.1831 13.6311 45.3395C12.2213 43.5426 8.40641 41.9392 8.14945 45.3777C8.01826 45.823 8.41117 47.1474 7.63712 46.9635C6.43229 46.1493 4.38936 43.6856 3.28447 45.896C3.09804 46.2972 3.15426 46.7917 2.77618 47.1298C1.73206 48.7731 4.26888 49.7058 4.6804 47.5819C5.61787 45.764 9.27656 52.3712 10.0283 45.6135C12.4532 44.138 13.5625 51.8575 17.307 43.7262C18.2477 42.9734 19.3943 45.3927 20.3407 45.6753C21.6219 45.7358 21.192 49.4314 20.3415 48.9818C19.1326 47.494 17.1158 46.3413 16.1031 48.7175C15.4109 49.6256 15.8586 53.2316 14.0494 51.7608C12.8078 51.0353 10.2889 48.3543 9.32268 50.5768C8.97136 52.2814 9.03705 52.5507 7.39954 51.5582C6.97456 51.4082 6.57649 51.7344 6.55899 52.17C6.36463 53.7386 7.97827 54.4843 9.0343 55.3049C12.8119 56.1961 7.54652 49.1487 14.4656 53.8907C16.5337 54.772 16.9486 51.7945 17.5525 50.4761C18.2647 49.4351 19.8255 51.7634 20.5296 52.2306C21.2472 53.0033 21.2228 53.8578 20.9331 54.762C20.1961 55.4639 19.1317 53.7448 18.2507 53.654C14.5129 52.1958 17.2011 61.0562 13.7106 57.3266C10.0279 54.0052 9.68903 59.2194 11.3134 60.0518C13.1827 59.5304 11.3833 58.275 14.2507 60.0082C18.5604 61.8675 15.9576 53.3112 21.0964 57.9948C21.549 58.2944 21.816 58.6921 21.7107 59.2685C21.6111 60.4874 21.6937 61.1433 20.2355 61.2199C18.6889 61.4417 17.1387 61.6385 15.5907 61.8491C14.726 61.8427 14.9056 62.7107 14.7241 63.3311C14.4001 66.0379 19.5987 63.4182 21.0172 63.402C22.8727 63.1339 23.0027 61.6491 22.9596 60.0861C23.5489 58.9673 22.2034 56.1756 23.4272 55.8981C26.7906 56.0649 30.1869 56.1216 33.5419 56.2513C37.3672 64.134 39.9838 64.4139 48.1859 61.2196C48.5025 61.0721 48.7866 61.0673 49.0247 61.2591C51.4414 63.086 54.6397 62.997 57.4207 62.2289C62.8198 60.9152 59.0417 56.9209 60.843 55.9635C65.8839 55.1651 67.0478 51.479 62.6609 48.4535C62.0408 47.0494 65.9231 46.4125 64.7112 44.0724C64.6867 42.9038 62.1783 41.5065 62.8313 40.9547C66.8214 39.9885 71.0153 39.9413 75.017 38.914C82.4334 36.5198 73.1351 30.9921 69.5646 30.2794C64.1797 29.1135 58.4642 29.2631 53.0977 30.4703C51.524 31.06 51.0139 28.8043 49.9353 27.9895C48.562 26.6009 46.1444 25.0302 44.1875 25.931ZM49.3182 30.2475C50.8318 32.3331 53.8343 35.2044 52.5607 38.2035C52.3616 38.6726 51.9385 38.7671 51.6141 38.3791C49.7218 36.4797 48.5253 33.7575 46.4996 32.0822C45.1761 31.6916 44.2472 32.6145 44.4741 33.9595C44.7523 35.3478 42.8563 42.8662 45.9299 40.5971C47.6387 34.6841 46.6602 37.5628 50.5338 40.021C53.0762 41.4974 55.2347 38.5693 54.8067 36.1429C55.1288 35.0122 52.6858 31.9683 53.8238 31.8349C58.2496 32.0452 62.6825 31.9559 67.0689 32.6491C69.925 33.0688 72.9068 33.8056 75.0888 35.8044C75.1621 37.6067 68.3437 37.2908 66.7874 37.7336C60.6902 39.0076 54.1094 39.2303 49.0381 43.2859C46.0741 45.8375 49.2908 47.1511 49.0142 48.4826C45.1279 53.0182 49.5443 52.707 48.9473 54.2884C47.7999 55.2934 46.8106 56.752 47.0146 58.3339C48.029 60.1266 46.0303 59.7504 44.8693 60.1066C41.8247 60.8216 39.8357 61.1405 38.3678 57.8368C37.4579 55.8969 36.3822 52.7329 33.8685 53.3644L33.5399 53.397C30.2522 53.7202 26.915 53.9614 23.6363 53.4183C21.1251 51.6425 24.3346 45.3479 23.8374 42.484C23.7894 40.0065 23.7753 37.5266 24.5578 35.1554C24.6852 34.6376 24.871 34.5369 25.4555 34.616C29.5134 35.0178 33.6068 34.9914 37.6705 35.218C41.9455 34.8203 42.2766 22.0597 49.3182 30.2475ZM51.6567 55.2924C53.3684 56.5001 57.3487 55.5642 58.1799 57.2324C58.5198 58.3311 58.1222 59.2386 57.0464 59.6897C55.1599 60.4224 52.3837 61.0691 50.8738 59.3147C50.2709 58.7058 50.064 58.0677 50.4759 57.2589C50.9019 56.7471 50.7454 55.0398 51.6567 55.2924ZM60.7416 50.8751L60.7222 50.8932C64.6067 53.8586 56.8999 53.8642 55.0948 53.5129C51.9216 53.0415 48.0541 49.6518 53.7762 49.6772C56.1435 50.8222 59.1566 48.3112 60.7416 50.8751ZM34.1226 45.4999C33.2616 45.7019 31.6177 45.9003 32.3603 47.1764C35.1594 47.6991 34.2803 47.8466 34.859 50.3194C36.4078 52.6002 36.6163 50.0011 36.3794 48.6045C36.9021 47.2092 39.5997 48.9674 40.8142 48.3569C41.074 48.2814 41.2164 48.0803 41.2108 47.7912C41.7236 44.5309 36.903 46.9404 36.5156 44.6086C36.347 43.4834 36.2701 42.2925 36.0304 41.1952C33.6528 39.3283 35.5039 45.287 34.1226 45.4999ZM61.0575 43.0153C64.1816 45.5088 57.4523 47.4515 55.5238 47.5484C54.2324 47.4635 49.029 47.259 50.2391 45.166C52.2492 43.3937 54.9127 42.6199 57.3731 41.7004C58.9558 41.0212 60.0451 41.9663 61.0575 43.0153ZM36.7429 25.4727C36.4067 26.2122 35.4561 26.9152 35.4872 27.7146C36.4636 27.7417 38.1148 26.9543 38.4432 25.9461C38.3254 24.4205 37.4803 24.9773 36.7429 25.4727ZM39.1078 5.21322C36.8186 8.95787 36.9581 13.7319 35.6188 17.8855C35.3256 19.4407 34.4276 20.9614 34.674 22.5715C35.1772 23.7826 36.1622 21.8824 36.2564 21.2684C38.6619 16.3395 39.1998 11.0306 39.6811 5.66377C39.7676 5.26111 39.4451 5.00502 39.1078 5.21322ZM26.5514 19.1012C25.7533 20.0169 26.3392 22.1031 27.3324 22.7298C28.212 21.9797 28.6661 17.8186 26.5514 19.1012ZM32.1898 12.9095C31.2048 15.3014 30.7819 18.1971 30.8495 20.8051C32.8395 24.4248 34.7359 10.857 32.1898 12.9095ZM67.0015 17.6818C65.9964 18.2093 64.9913 18.8664 64.3401 19.8076C64.2255 21.6632 66.9347 19.5758 67.3604 19.2864C68.5531 18.4514 68.6326 17.3896 67.0015 17.6818ZM62.2357 13.3381C60.8143 13.8133 55.1753 17.4398 55.4421 18.9043C56.0264 19.1053 56.3639 18.6246 56.7548 18.3654C58.6437 16.7122 60.9883 15.6255 62.2357 13.3381ZM42.9323 15.5332C42.4354 17.1119 45.6197 16.8403 46.2019 16.0079C46.4565 15.4613 45.6521 15.3567 45.7514 14.8546C44.7033 14.3097 43.6451 14.6743 42.9323 15.5332ZM66.7628 13.562C66.1084 15.9758 68.9861 13.7057 69.6978 13.1071C74.0153 8.63479 67.9072 11.0534 66.7628 13.562ZM45.2735 10.6382C45.871 11.6431 47.3054 10.3225 47.9911 11.1062C50.0039 10.8459 52.6247 10.757 54.345 9.5254C56.916 6.91121 44.2064 8.51113 45.2735 10.6382ZM45.7561 5.34614C52.9181 4.00719 60.4638 2.6253 67.8105 1.44407C72.9619 -2.23895 42.7618 1.8819 45.7561 5.34614Z" fill="black"/>
</svg>
