<svg width="96" height="88" viewBox="0 0 96 88" fill="none" xmlns="http://www.w3.org/2000/svg">
<path fill-rule="evenodd" clip-rule="evenodd" d="M17.7241 40.004C18.1367 41.6787 17.1022 51.3498 18.7719 51.0132C20.0309 50.4776 22.2268 50.8604 22.6448 49.2513C24.0655 44.6343 26.1655 40.1292 29.3612 36.5628C33.2191 32.1196 38.7422 29.4463 43.5171 34.31C57.0851 46.8113 48.0966 40.6049 58.5018 35.9852C61.7125 35.1684 66.2048 41.2546 68.7133 43.1857C71.4844 45.2622 69.8643 46.5565 67.3985 44.6762C66.0793 43.5726 64.7323 42.5018 63.4198 41.39C61.8247 40.4628 59.9677 36.8403 58.0423 38.852C55.7174 40.6715 54.1412 46.1047 50.482 44.1045C45.8562 41.3297 42.9497 35.3393 37.5849 34.0157C30.3601 35.3617 27.161 43.3148 24.1834 49.2184C23.9213 49.7597 24.0928 50.0146 24.6854 49.9878C40.4 48.9553 56.103 47.9842 71.857 47.838C80.9904 47.7603 77.1341 46.5851 76.6924 37.3211C76.0245 32.5135 75.7365 27.6735 75.2452 22.8517C75.4902 20.8657 73.9756 21.8741 72.7531 21.8435C65.0399 22.0216 57.3307 21.9271 49.6238 22.4437C39.1355 23.366 28.5905 23.1707 18.1076 24.1318C17.5648 24.2241 17.4071 24.4012 17.4217 24.98C17.5667 29.9929 17.9616 34.986 17.7241 40.004ZM31.3656 51.3449C30.7878 52.1674 29.6017 51.3709 28.8908 51.7478C25.6895 52.4357 22.2746 52.3514 18.9874 52.7551C17.2384 52.9977 18.332 55.792 17.9303 57.0451C17.5024 63.0863 17.9684 69.1432 18.2607 75.1808C36.5136 75.1756 56.3893 74.8087 75.1652 75.7721C84.5773 75.9575 80.7572 76.0435 80.2213 64.3115C79.5989 59.7227 79.2798 55.0759 78.5304 50.5049C78.087 48.1653 78.3613 48.4022 76.1205 48.5087C74.7166 48.5753 73.3125 48.6415 71.9082 48.6985C60.8792 49.0469 49.6815 50.1004 38.8714 51.0145C38.3076 51.2858 37.4968 51.0678 36.8822 51C35.205 51.3637 32.9957 52.3243 31.3498 51.3382C31.5163 51.4453 31.6796 51.4929 31.8742 51.4374C31.711 51.3704 31.5405 51.3515 31.3656 51.3449ZM74.7205 20.0272C75.2117 18.8358 74.2647 13.6835 74.1118 12.0549C69.8639 12.1753 65.5921 12.4688 61.3435 12.6834C46.5014 13.3857 31.6704 14.3311 16.812 14.6308C15.1241 14.3716 12.6631 15.1496 11.4243 13.8656C11.1336 13.2487 12.0077 13.1331 12.4179 13.0238C28.2902 11.0983 44.348 10.8088 60.3079 9.88575C64.0568 9.70092 67.8054 9.51149 71.5543 9.32464C73.8925 9.20659 77.1919 8.51651 77.8792 11.5551C81.1615 32.4164 81.4375 53.3389 83.7074 74.2905C83.8933 75.8719 83.5665 78.214 81.4954 78.0982C78.1252 77.7334 74.7431 77.5502 71.3498 77.5824C63.9465 77.427 56.5383 77.5758 49.1324 77.5755C38.5272 77.4601 27.804 78.1232 17.3016 76.48C15.4189 76.9862 16.3655 72.8153 15.9254 71.709C15.7121 68.4847 15.3765 65.2619 15.3336 62.0297C15.5348 51.5447 14.7538 41.0756 14.7171 30.5898C14.3765 26.4147 14.8243 22.061 13.7885 17.9973C13.3041 15.3867 16.7111 16.2626 16.691 18.3897C17.5111 26.7192 17.8073 21.2605 29.9047 21.4608C37.931 21.2972 46.0437 20.1108 53.9597 20.3893C60.5674 19.5299 67.8433 20.3639 74.7205 20.0272Z" fill="black"/>
<path fill-rule="evenodd" clip-rule="evenodd" d="M4.55432 83.8624C6.97183 84.0765 10.1488 84.3097 12.4317 85.6976C13.8566 86.372 15.6416 88.492 12.7588 87.8951C9.12773 86.9393 5.38043 86.8547 1.70566 86.2392C-2.56901 84.2615 2.26217 83.7339 4.55432 83.8624Z" fill="black"/>
<path fill-rule="evenodd" clip-rule="evenodd" d="M95.5775 68.0063C93.0885 68.7519 91.4681 63.4584 90.0337 61.7989C89.4872 60.468 87.569 58.8157 88.491 57.3722C88.9238 57.1116 89.6723 56.662 90.0578 57.2291C92.4327 60.4982 93.9422 64.3069 95.5775 68.0063Z" fill="black"/>
<path fill-rule="evenodd" clip-rule="evenodd" d="M29.9859 3.42192C28.3756 3.03529 16.1025 3.08257 17.7517 0.513107C18.921 -0.837729 37.5213 3.33455 29.9859 3.42192Z" fill="black"/>
<path fill-rule="evenodd" clip-rule="evenodd" d="M40.0973 0C41.5009 0.147797 49.0916 0.909547 47.2634 3.31871C45.6664 4.03221 33.4568 0.853922 40.0973 0Z" fill="black"/>
<path fill-rule="evenodd" clip-rule="evenodd" d="M66.2128 14.7761C67.2988 13.9407 68.1588 15.5789 69.1519 14.6627C69.5402 14.305 70.0402 14.1309 70.5675 14.1886C71.8371 14.7171 69.1248 15.8378 70.1732 16.5503C70.5991 17.0258 71.6284 17.3413 71.4865 18.0955C70.8836 18.8627 69.8728 17.5512 69.2409 17.2827C68.5219 16.6557 67.9903 17.636 67.3704 17.9008C66.9665 18.1101 65.9008 18.1942 66.1631 17.4631C67.1739 16.2391 67.8501 15.9158 66.2128 14.7761Z" fill="black"/>
<path fill-rule="evenodd" clip-rule="evenodd" d="M24.9403 18.4973C24.7708 16.6352 27.4652 16.3545 28.2832 17.7245C29.4604 19.889 24.8892 20.9821 24.9403 18.4973Z" fill="black"/>
<path fill-rule="evenodd" clip-rule="evenodd" d="M21.9421 16.8996C23.9261 16.9587 22.2999 21.0593 20.6589 19.6138C19.3244 18.6047 20.3543 16.5851 21.9421 16.8996Z" fill="black"/>
<path fill-rule="evenodd" clip-rule="evenodd" d="M32.7548 18.0349C32.7262 18.9955 31.2668 19.663 30.6431 18.7676C29.6604 16.8595 32.4189 15.7235 32.7548 18.0349Z" fill="black"/>
<path fill-rule="evenodd" clip-rule="evenodd" d="M65.5872 32.7204C69.7879 32.5607 65.9556 28.6778 64.0196 28.0186C61.1029 27.5935 62.7708 33.1355 65.5872 32.7204ZM66.049 35.1735C62.5398 35.4361 59.7476 32.8764 60.193 29.4946C59.3734 23.7902 67.2926 25.3395 69.6262 28.4717C72.0407 31.4832 69.8886 35.5662 66.049 35.1735Z" fill="black"/>
<path fill-rule="evenodd" clip-rule="evenodd" d="M69.4244 66.0556C69.4263 66.0824 69.4281 66.1092 69.43 66.1362C72.2391 65.9528 74.1746 67.158 72.7203 63.3102C70.5331 52.5557 69.842 55.1036 60.1441 56.1222C58.7383 56.902 59.6059 63.1488 59.3401 64.9885C59.4972 66.1526 59.6782 67.0686 61.0268 66.8631C63.8289 66.6508 66.6249 66.314 69.4244 66.0556ZM56.2331 58.9704C56.1461 56.1736 56.5413 54.0208 59.7068 53.8556C62.867 53.6956 66.4213 52.82 69.4178 54.0827C69.9134 54.5733 70.4629 54.6506 71.1281 54.6158C73.8673 53.8551 75.5113 65.5064 74.7264 67.2439C74.488 67.9403 73.68 67.795 73.094 67.8091C70.161 67.692 67.2789 68.2042 64.3798 68.5056C55.7051 70.3918 56.5021 65.8293 56.2331 58.9704Z" fill="black"/>
<path fill-rule="evenodd" clip-rule="evenodd" d="M27.9893 60.8426C28.434 58.5249 29.7552 56.0441 32.0428 55.1357C34.43 53.921 35.0414 59.4899 37.1364 58.1286C42.6031 50.5262 41.3744 58.2051 43.8819 57.2179C45.0475 56.2319 47.328 53.1207 48.703 55.2289C48.7946 56.353 49.7695 57.78 49.2013 58.7913C48.3911 58.9983 47.8235 58.1023 47.4928 57.4884C46.1549 56.7123 44.2153 61.5525 42.061 59.2636C41.428 58.8876 40.9583 57.0537 40.0909 57.7896C35.2434 65.4059 33.6928 55.825 31.8184 58.1178C30.8123 58.9829 29.2808 63.3257 27.9893 60.8426Z" fill="black"/>
<path fill-rule="evenodd" clip-rule="evenodd" d="M43.6231 64.2513C44.8465 64.47 47.6749 63.6052 47.9111 65.1875C47.8711 65.5052 47.6433 65.6805 47.0954 65.7062C41.6898 65.6923 36.3012 66.3705 30.8959 66.2234C28.813 64.4011 42.3 64.4194 43.6222 64.1665L43.6231 64.2513Z" fill="black"/>
<path fill-rule="evenodd" clip-rule="evenodd" d="M39.7041 68.689C49.4046 68.889 34.9767 70.9546 32.6956 70.0498C31.9179 68.7985 38.7193 68.727 39.7041 68.6983C39.7041 68.6951 39.7041 68.692 39.7041 68.689Z" fill="black"/>
<path fill-rule="evenodd" clip-rule="evenodd" d="M69.1751 62.6581C69.3411 65.8318 61.6763 63.216 64.1812 61.8879C65.7348 62.7259 67.1897 62.8476 68.5901 61.6237C69.2316 61.4535 69.0989 62.2254 69.1751 62.6581Z" fill="black"/>
<path fill-rule="evenodd" clip-rule="evenodd" d="M66.49 58.4731C66.6168 55.6219 70.6367 58.8617 69.0541 59.7117C67.8223 60.2703 66.4534 60.1483 66.49 58.4731Z" fill="black"/>
<path fill-rule="evenodd" clip-rule="evenodd" d="M61.9792 58.8385C61.7982 57.5311 63.818 57.7698 64.033 58.7291C64.2395 60.1561 61.8202 60.35 61.9792 58.8385Z" fill="black"/>
</svg>
