<svg width="103" height="94" viewBox="0 0 103 94" fill="none" xmlns="http://www.w3.org/2000/svg">
<path fill-rule="evenodd" clip-rule="evenodd" d="M47.6455 29.6953C50.5901 29.5263 46.8519 26.8471 46.5016 28.9186C46.4772 29.4308 47.1715 29.7177 47.6455 29.6953ZM39.2063 55.9873C38.3158 53.2546 37.6848 49.0735 34.6803 47.7524C34.024 48.0255 31.816 47.8558 32.226 48.8112C35.3543 51.5557 37.1377 56.2681 34.5776 59.8119C34.364 60.1276 33.9022 60.5289 34.269 60.8546C37.2895 61.8335 38.9783 58.2394 39.2063 55.9873ZM28.2102 60.3013C34.1824 60.5372 33.8151 55.9203 31.1986 52.4145C30.4179 50.7242 28.2571 51.0099 26.681 50.4543C23.7871 49.6502 21.9693 52.945 22.1004 55.1877C22.7754 57.6873 25.11 60.4772 28.2102 60.3013ZM53.1254 29.3521C53.1058 29.3521 53.0861 29.352 53.0665 29.352C54.6016 10.6649 41.2148 15.5775 40.7529 30.2775C40.8339 34.2927 40.0155 33.2097 44.2542 34.6979C44.8459 34.8883 45.3209 34.8416 45.1941 34.1913C44.9921 30.3556 42.3951 26.666 45.0349 23.0823C45.3534 22.3649 46.8944 22.3049 46.967 23.2198C46.9082 24.2952 44.7852 27.1437 47.1992 26.7841C49.0489 26.5194 51.9151 28.7291 50.2567 30.1884C49.207 31.1337 46.4805 30.1734 46.4329 31.876C46.5468 32.9754 46.4379 34.9516 47.8585 35.2819C54.6121 35.2751 52.9628 34.6619 53.1254 29.3521ZM56.6125 33.2856C57.4216 40.9737 43.6301 38.1167 39.2412 35.8452C35.1876 31.2775 41.0463 30.0123 30.4306 33.6199C29.2959 34.2699 22.279 35.3816 23.0607 36.4804C30.2645 38.751 37.9557 40.4061 44.6563 43.7565C45.3647 44.2263 46.0803 44.756 46.9955 44.3118C49.8948 43.1236 52.8793 42.1447 56.0165 41.6472C57.2553 41.3068 71.022 39.0933 68.0675 37.7372C64.2596 36.1991 60.9041 33.8773 57.278 32.0181C56.4999 31.7128 56.6715 33.1835 56.6125 33.2856ZM21.1298 50.8327C25.4184 48.0263 31.4971 45.0444 36.7352 45.921C40.1861 48.1531 41.5203 52.4898 41.5567 56.2113C40.407 63.5991 34.2725 62.4246 28.2552 62.5293C24.9174 63.5194 22.1891 59.4433 21.7637 60.5468C21.6894 61.683 21.3868 63.0391 22.9046 63.4294C26.5055 65.3491 30.1202 67.2472 33.7005 69.1992C36.7773 71.0029 39.893 72.7445 43.1332 74.2908C43.9714 72.6246 43.1393 70.433 43.6291 68.598C44.5247 62.8128 44.2162 56.9604 44.4696 51.1374C44.0886 49.6277 45.6449 47.5101 44.3981 46.4017C37.1618 42.6888 28.8301 41.0097 21.0124 38.548C20.4166 38.3833 20.2067 38.9662 20.2809 39.4231C21.1562 43.1845 19.8817 47.1882 21.1298 50.8327ZM72.2767 52.0905C72.2545 52.0908 72.2322 52.0911 72.21 52.0913C71.9851 48.4918 72.1873 44.8915 72.2648 41.2904C72.4007 39.7809 70.4258 40.6468 69.5287 40.7956C65.3119 42.2017 60.8957 42.8887 56.5366 43.8053C53.8143 44.3736 51.103 44.9868 48.3801 45.5527C46.7729 45.8486 47.1858 47.638 47.0342 48.7577C49.2562 81.995 34.0601 74.6891 66.6795 69.3295C68.4318 68.5819 71.8797 68.8517 72.5194 66.9892C72.4061 62.0219 72.1698 57.0621 72.2767 52.0905ZM75.8152 53.744C75.5559 57.4102 75.7006 62.2395 75.3217 66.0758C75.1243 66.8922 76.5762 66.4673 76.3173 67.1772C75.6965 68.0236 75.6176 70.2217 74.3293 70.1654C66.138 71.8194 57.6256 74.0538 49.2741 75.7583C47.7484 75.8896 46.1838 77.3022 44.7012 76.6566C43.8164 76.4235 42.7011 76.7724 41.863 76.1757C37.0729 73.8815 32.2835 71.576 27.5846 69.1278C25.3772 67.4827 19.7389 65.8458 19.2366 63.3283C19.2812 57.0512 14.2433 37.4443 21.0388 34.4297C26.0458 32.1279 31.424 30.6499 36.6636 28.8801C38.3735 28.1835 37.715 25.6951 38.6659 24.3231C40.0458 20.6271 42.2769 16.9098 46.1971 15.0945C50.341 12.7669 54.5504 16.6522 55.4954 20.2781C56.0964 22.4497 56.3555 24.6664 56.4896 26.898C56.5385 27.5483 56.3274 28.4131 57.1493 28.7159C74.3721 37.89 74.9176 34.4209 75.8152 53.744Z" fill="black"/>
<path fill-rule="evenodd" clip-rule="evenodd" d="M74.3485 28.0896C77.863 29.1566 86.2949 27.308 87.284 31.3855C87.3562 31.9694 86.7093 32.4571 86.2091 32.1138C82.4457 30.3667 77.8939 31.1303 73.9748 29.6774C72.694 29.2943 72.9334 27.8629 74.3485 28.0896Z" fill="black"/>
<path fill-rule="evenodd" clip-rule="evenodd" d="M83.0087 47.6542C82.9524 49.7704 80.8538 57.3917 78.1541 53.9391C77.9313 51.802 79.5173 49.7926 80.0255 47.7257C80.9826 43.6241 82.3854 43.824 83.0087 47.6542Z" fill="black"/>
<path fill-rule="evenodd" clip-rule="evenodd" d="M93.6031 47.5693C95.1467 47.779 105.914 49.1774 102.028 51.5961C100.107 51.8931 84.1181 48.1103 93.6031 47.5693Z" fill="black"/>
<path fill-rule="evenodd" clip-rule="evenodd" d="M6.43222 49.353C7.97585 49.5627 18.7429 50.9611 14.8572 53.3798C12.9361 53.6768 -3.05284 49.894 6.43222 49.353Z" fill="black"/>
<path fill-rule="evenodd" clip-rule="evenodd" d="M29.4225 24.2155C27.2389 23.5647 19.3688 23.0274 18.79 21.116C20.1075 19.0919 27.9291 21.5732 30.1726 22.1843C31.3445 22.9755 31.1709 24.5433 29.4225 24.2155Z" fill="black"/>
<path fill-rule="evenodd" clip-rule="evenodd" d="M95.0202 69.8603C95.0291 70.787 93.7443 71.8385 92.9376 71.1104C90.5357 68.5983 85.7035 68.4356 84.2045 65.0704C84.117 64.4809 84.971 64.2893 85.4141 64.6111C88.2011 66.6371 93.8844 66.4921 95.0202 69.8603Z" fill="black"/>
<path fill-rule="evenodd" clip-rule="evenodd" d="M73.7321 19.5648C72.8708 21.3213 67.1025 28.58 65.0209 27.4761C63.9661 27.0251 64.6157 25.8952 65.1416 25.2981C66.8135 24.0282 71.6843 17.8457 73.7321 19.5648Z" fill="black"/>
<path fill-rule="evenodd" clip-rule="evenodd" d="M30.9595 6.89712C29.4708 6.35858 17.218 6.50611 19.5616 4.1942C21.3116 3.50172 40.3143 5.32345 30.9595 6.89712Z" fill="black"/>
<path fill-rule="evenodd" clip-rule="evenodd" d="M21.8064 89.5382C19.8788 88.948 14.0109 87.5348 14.3363 85.1962C16.3738 83.9642 20.4768 86.2983 22.6953 86.9374C24.5632 87.6167 24.0501 90.0116 21.8064 89.5382Z" fill="black"/>
<path fill-rule="evenodd" clip-rule="evenodd" d="M42.5243 0C46.0527 0.597845 37.9621 7.10494 36.5528 5.08198C36.0435 2.81757 40.1785 0.0309905 42.5243 0Z" fill="black"/>
<path fill-rule="evenodd" clip-rule="evenodd" d="M28.8987 75.3307C27.7986 76.6164 24.2526 82.0053 22.3218 80.4792C20.8248 79.205 28.1265 71.6446 28.8987 75.3307Z" fill="black"/>
<path fill-rule="evenodd" clip-rule="evenodd" d="M31.6343 13.2084C30.8709 15.5262 30.5253 18.9493 28.2533 20.3115C24.6357 20.9544 30.7176 8.82001 31.6343 13.2084Z" fill="black"/>
<path fill-rule="evenodd" clip-rule="evenodd" d="M96.0323 33.7769C97.4502 34.2536 96.2531 35.6076 95.3084 35.9137C92.6269 36.8249 90.0468 39.2625 87.1879 39.1194C86.7561 37.9877 94.6699 33.6442 96.0323 33.7769Z" fill="black"/>
<path fill-rule="evenodd" clip-rule="evenodd" d="M8.86137 35.5606C10.2793 36.0372 9.08222 37.3913 8.13754 37.6974C5.45601 38.6086 2.87586 41.0462 0.0170257 40.9031C-0.414807 39.7714 7.499 35.4279 8.86137 35.5606Z" fill="black"/>
<path fill-rule="evenodd" clip-rule="evenodd" d="M71.1654 79.7976C69.3981 79.6062 68.0546 79.5814 66.7126 78.7095C65.1538 79.067 63.4503 77.1577 63.7872 75.8032C63.9548 75.5194 64.232 75.6576 64.4215 75.7666C65.9107 76.6248 67.6199 76.8537 69.2672 77.2571C70.381 77.322 73.0746 79.3703 71.1654 79.7976Z" fill="black"/>
<path fill-rule="evenodd" clip-rule="evenodd" d="M39.112 93.986C36.1625 93.4632 35.2927 84.6731 39.1066 88.3594C38.7546 89.845 41.841 94.2783 39.112 93.986Z" fill="black"/>
<path fill-rule="evenodd" clip-rule="evenodd" d="M80.6242 2.23633C79.3925 4.46975 76.1777 5.40799 74.1417 7.00311C73.7531 7.33178 73.0386 7.00035 73.1492 6.53038C74.6508 4.45685 76.9834 2.86941 78.9708 1.17569C79.5978 0.772375 80.7193 1.6134 80.6242 2.23633Z" fill="black"/>
<path fill-rule="evenodd" clip-rule="evenodd" d="M4.65687 21.5259C6.79813 21.7381 9.80796 23.1104 10.1079 25.0931C8.72498 26.3244 0.378837 22.4279 4.65687 21.5259Z" fill="black"/>
<path fill-rule="evenodd" clip-rule="evenodd" d="M94.4412 60.5063C94.7392 59.0922 94.4491 56.3583 95.9289 55.6558C98.2078 55.7286 96.6611 60.9101 96.4587 62.289C95.1705 64.0334 94.2872 61.6694 94.4412 60.5063Z" fill="black"/>
<path fill-rule="evenodd" clip-rule="evenodd" d="M78.1328 79.7186C78.5841 78.1301 80.1558 74.1473 82.2961 74.4636C84.0652 75.2345 78.6897 83.2968 78.1328 79.7186Z" fill="black"/>
<path fill-rule="evenodd" clip-rule="evenodd" d="M64.2926 90.3818C66.3121 91.0366 70.2119 90.6575 70.8782 92.939C70.3623 94.3967 59.3756 91.6533 64.2926 90.3818Z" fill="black"/>
<path fill-rule="evenodd" clip-rule="evenodd" d="M20.1744 71.1041C18.7929 71.2073 14.1088 70.6302 17.2207 69.1422C21.3559 67.65 27.1498 70.7357 20.1744 71.1041Z" fill="black"/>
<path fill-rule="evenodd" clip-rule="evenodd" d="M51.7631 80.7407C51.0134 79.2089 54.9682 75.9128 55.6372 78.2519C55.6808 80.1501 51.6364 85.4772 51.7631 80.7407Z" fill="black"/>
<path fill-rule="evenodd" clip-rule="evenodd" d="M83.8407 21.5363C81.9646 24.5304 80.0826 17.0663 80.0352 15.8049C81.4741 13.8929 83.5797 20.518 83.8407 21.5363Z" fill="black"/>
<path fill-rule="evenodd" clip-rule="evenodd" d="M68.0998 12.5756C67.9059 18.3281 64.9415 13.7632 65.1851 10.9383C65.4676 9.0517 68.5464 9.70667 68.0998 12.5756Z" fill="black"/>
<path fill-rule="evenodd" clip-rule="evenodd" d="M33.298 77.2135C33.2899 76.7089 33.7352 75.7383 34.4088 76.2609C35.3938 77.4687 38.5169 79.3488 37.6742 80.9027C35.6263 81.4837 33.5624 78.9201 33.298 77.2135Z" fill="black"/>
<path fill-rule="evenodd" clip-rule="evenodd" d="M23.318 15.103C21.9385 15.0838 15.7467 13.8375 18.7882 12.1602C20.1051 11.8153 26.9786 14.5129 23.318 15.103Z" fill="black"/>
<path fill-rule="evenodd" clip-rule="evenodd" d="M23.1901 31.0771C21.32 33.7096 18.8086 26.1523 21.5412 25.9248C23.0615 26.9963 22.5577 29.4138 23.1901 31.0771Z" fill="black"/>
<path fill-rule="evenodd" clip-rule="evenodd" d="M52.9404 10.1089C53.6863 10.2646 57.6933 10.4487 56.132 11.8204C54.2587 12.0072 52.3325 12.4113 50.4739 11.8246C48.7609 10.3232 51.6838 10.1798 52.9404 10.1089Z" fill="black"/>
<path fill-rule="evenodd" clip-rule="evenodd" d="M8.08658 66.7651C7.88025 70.3942 3.90349 61.9402 5.69481 61.4839C7.80003 61.7363 7.73783 65.1929 8.08658 66.7651Z" fill="black"/>
<path fill-rule="evenodd" clip-rule="evenodd" d="M9.38687 78.4893C7.04949 77.9035 5.01813 77.7485 8.61554 76.6205C9.71847 75.7312 10.859 76.2588 11.9952 76.34C14.1333 77.3703 10.5219 78.5353 9.38687 78.4893Z" fill="black"/>
<path fill-rule="evenodd" clip-rule="evenodd" d="M36.6348 17.9575C42.1686 18.5069 35.2538 20.2031 34.7282 18.9084C34.6615 18.2039 35.873 18.0022 36.6348 17.9575Z" fill="black"/>
<path fill-rule="evenodd" clip-rule="evenodd" d="M57.099 65.6126C55.8491 65.4187 52.9641 66.5892 52.6954 65.1685C52.5023 64.6991 52.4446 64.0687 53.0658 63.8524C57.9565 62.9078 63.0311 63.0072 67.894 61.7207C72.8857 65.091 59.08 65.7083 57.099 65.6126Z" fill="black"/>
<path fill-rule="evenodd" clip-rule="evenodd" d="M67.6663 51.1548C67.3923 53.1163 67.5263 59.6823 64.0986 56.4327C64.279 55.0497 63.7411 46.739 65.9506 47.637C68.0644 48.4066 67.4219 49.4941 67.6663 51.1548Z" fill="black"/>
<path fill-rule="evenodd" clip-rule="evenodd" d="M56.8445 54.3768C57.6607 57.6872 54.0763 59.1452 52.9965 55.7077C52.7963 54.3237 52.8588 49.0398 54.9118 49.3676C56.4822 50.6098 56.8467 52.6549 56.8445 54.3768Z" fill="black"/>
</svg>
