<svg width="76" height="89" viewBox="0 0 76 89" fill="none" xmlns="http://www.w3.org/2000/svg">
<path fill-rule="evenodd" clip-rule="evenodd" d="M18.5218 30.239C16.3818 30.1517 12.7678 29.9646 10.2794 29.9709C9.10187 29.8357 10.7979 33.0758 10.4636 33.8808C10.6237 46.3653 11.6556 58.8162 12.0289 71.2787C12.1192 72.4053 11.9528 77.2607 13.4518 76.9498C16.9212 76.5757 20.3589 77.0879 23.8079 77.3442C25.0427 77.1499 23.6583 70.1291 24.0186 68.6352C25.6994 64.4082 28.4727 71.374 29.5934 72.8074C30.7532 74.0925 32.5878 74.8473 34.1867 75.5787C39.1518 77.9957 43.3886 77.7388 48.726 77.252C53.0104 77.0852 57.2554 76.5154 61.5155 76.1011C61.9205 76.0616 62.0557 75.8637 61.9898 75.457C61.1121 71.0511 61.2326 64.4577 55.9479 62.9285C51.9864 61.8004 47.8798 62.6589 43.8562 62.1289C42.1725 62.1404 41.4694 64.3745 40.1907 65.2635C39.3578 66.3058 36.8446 66.838 38.0371 64.7914C40.1447 60.4826 40.736 61.8421 36.8243 58.8894C34.4148 55.6668 34.4273 58.0538 32.0404 59.762C28.7656 61.9524 27.5718 59.5983 30.2084 57.0734C31.103 55.8755 33.8703 54.663 33.1104 52.9764C31.5761 47.1905 31.4987 50.8588 27.2835 52.0381C26.2784 52.2698 26.2287 50.7586 26.8539 50.2869C27.902 48.8064 31.6259 48.128 31.0722 46.0974C25.831 28.3416 35.7501 30.6174 18.5218 30.239ZM45.3632 56.5844C46.1283 57.6104 45.3885 58.4591 45.0608 59.4633C50.3455 60.1556 56.6833 58.8183 60.8936 63.0295C63.1753 65.2627 64.2901 68.5166 64.8115 71.6044C64.7877 73.9555 67.088 77.5328 64.709 79.1789C64.33 79.3915 63.9252 79.4427 63.504 78.9952C61.9602 78.1526 59.7511 79.0947 58.0211 79.0795C54.308 79.5715 50.5778 79.6377 46.84 79.6056C42.6478 79.667 38.4007 80.0838 34.4694 78.3238C27.4006 77.0604 26.2806 71.2254 26.7412 77.1366C26.7776 77.9324 27.201 79.3138 25.9425 79.2713C21.9068 79.5276 17.8098 78.4525 13.8213 79.1052C8.11324 81.0651 9.56547 69.573 8.85465 66.269C7.79594 54.1552 6.33179 41.6122 7.96681 29.5799C7.80935 28.9879 7.90337 28.8156 8.42703 28.7499C14.3527 27.984 20.3444 28.2015 26.3039 28.0915C28.3875 27.9658 30.6427 27.896 32.1444 29.5489C33.1374 30.8903 32.6211 32.9306 32.8692 34.5253C32.9073 37.6794 33.5965 40.7513 34.2418 43.8249C34.3781 45.5191 35.735 43.7945 36.5264 44.6443C37.2737 45.3306 35.9884 46.0168 35.6026 46.5445C34.5829 47.7165 35.9148 49.5147 35.9896 50.8912C36.6532 51.8871 37.971 49.1701 39.2021 49.9115C41.8127 51.4444 36.7436 53.4229 37.5746 55.1669C38.4479 56.6723 39.5401 57.9716 41.165 58.7449C42.7716 59.0588 42.5238 56.3469 45.3632 56.5844Z" fill="black"/>
<path fill-rule="evenodd" clip-rule="evenodd" d="M73.6579 69.0563C72.195 69.0005 71.4945 69.029 71.1307 67.5108C70.9902 67.0695 71.362 66.4055 71.8108 66.4297C73.7098 65.8008 77.1738 69.2774 73.6579 69.0563Z" fill="black"/>
<path fill-rule="evenodd" clip-rule="evenodd" d="M30.2319 11.6574C31.9297 11.4619 31.6325 13.245 31.2111 14.2646C29.4972 16.1209 27.1069 11.3477 30.2319 11.6574Z" fill="black"/>
<path fill-rule="evenodd" clip-rule="evenodd" d="M10.5176 20.2342C10.0195 20.1414 9.50435 20.0714 9.61197 19.4805C8.23461 16.6804 11.3841 17.0205 12.4876 18.713C12.8953 19.7135 11.114 19.8024 10.5176 20.2342Z" fill="black"/>
<path fill-rule="evenodd" clip-rule="evenodd" d="M2.45315 52.355C3.79604 52.2219 2.9983 55.1085 2.02527 54.6636C1.58725 54.3899 0.936091 53.9221 1.18485 53.3289C1.38005 52.7435 1.66258 52.2313 2.45315 52.355Z" fill="black"/>
<path fill-rule="evenodd" clip-rule="evenodd" d="M39.545 34.4392C39.6109 35.7032 38.238 35.0023 37.7108 34.5368C36.764 32.9207 39.8232 32.7165 39.545 34.4392Z" fill="black"/>
<path fill-rule="evenodd" clip-rule="evenodd" d="M1.92165 73.8412C1.49199 74.6056 0.520562 74.5219 0.100489 73.7997C-0.490463 71.9294 1.7089 71.7757 1.92165 73.8412Z" fill="black"/>
<path fill-rule="evenodd" clip-rule="evenodd" d="M45.1469 42.6401C45.7832 42.6036 46.598 43.4385 45.7679 43.8034C45.0824 43.9242 44.3991 45.4197 43.9665 44.1267C43.9017 43.9197 43.8027 43.5668 43.9004 43.3802C44.4999 43.4651 44.461 42.4449 45.1469 42.6401Z" fill="black"/>
<path fill-rule="evenodd" clip-rule="evenodd" d="M11.3038 1.29138C11.0914 2.87515 8.29871 1.07621 9.42138 0.231791C10.2799 -0.400534 11.3182 0.363361 11.3038 1.29138Z" fill="black"/>
<path fill-rule="evenodd" clip-rule="evenodd" d="M40.6946 87.2343C40.5461 87.597 39.9754 87.7796 39.684 88.0361C39.4841 88.2065 39.353 88.509 39.0288 88.3519C38.6817 88.1826 38.4648 87.6848 38.5764 87.3273C38.9835 86.611 40.6775 85.877 40.6946 87.2343Z" fill="black"/>
<path fill-rule="evenodd" clip-rule="evenodd" d="M52.6905 50.8611C51.5036 50.9437 51.2906 49.4317 52.3111 48.9743C53.2761 48.6604 54.1505 50.9991 52.6905 50.8611Z" fill="black"/>
<path fill-rule="evenodd" clip-rule="evenodd" d="M12.2085 84.9575C12.1472 87.0823 8.96369 84.5677 10.6824 83.9873C11.1573 84.2861 12.0877 84.3609 12.2085 84.9575Z" fill="black"/>
</svg>
