<svg width="28" height="29" viewBox="0 0 28 29" fill="none" xmlns="http://www.w3.org/2000/svg">
<path fill-rule="evenodd" clip-rule="evenodd" d="M21.5778 4.80611C19.0263 5.09499 15.5448 11.5351 13.4675 9.90043C10.7281 7.28495 7.90479 4.74308 4.85232 2.49529C1.80945 -0.0406963 -1.56644 0.598359 2.38051 4.35072C4.69133 6.80598 7.06743 9.2007 9.37854 11.6565C11.1413 13.5297 11.4425 13.4081 9.12556 15.2359C6.9107 17.5908 0.50376 21.3866 1.67554 24.8724C4.84898 25.9763 9.45616 19.7182 12.3111 18.1106C14.4657 15.4627 15.8327 18.8158 17.4619 20.1626C19.4046 21.3489 27.3549 33.5799 27.8977 27.0202C25.4676 22.6853 21.6734 19.2837 18.5936 15.4116C14.5479 12.8519 25.6749 7.81203 21.5778 4.80611Z" fill="black"/>
</svg>
