<svg width="26" height="25" viewBox="0 0 26 25" fill="none" xmlns="http://www.w3.org/2000/svg">
<path fill-rule="evenodd" clip-rule="evenodd" d="M25.9597 3.62328C26.7576 -2.05109 15.516 0.543391 9.68375 0.901838C6.7437 1.21326 3.78715 1.20315 0.85655 1.41137C-0.848146 3.11422 0.307458 6.76096 1.58926 6.85942C10.2053 7.52128 25.2771 5.74637 25.9597 3.62328Z" fill="black"/>
<path fill-rule="evenodd" clip-rule="evenodd" d="M21.9659 12.6233C22.641 6.94891 13.1289 9.54339 8.19394 9.90184C5.70621 10.2133 3.20451 10.2031 0.724773 10.4114C-0.717662 12.1142 0.260157 15.761 1.34476 15.8594C8.63522 16.5213 21.3883 14.7464 21.9659 12.6233Z" fill="black"/>
<path fill-rule="evenodd" clip-rule="evenodd" d="M18.9705 21.6233C19.5536 15.9489 11.3386 18.5434 7.07658 18.9018C4.92809 19.2133 2.76753 19.2031 0.62594 19.4114C-0.6198 21.1142 0.224681 24.761 1.16138 24.8594C7.45769 25.5213 18.4717 23.7464 18.9705 21.6233Z" fill="black"/>
</svg>
