<svg width="131" height="152" viewBox="0 0 131 152" fill="none" xmlns="http://www.w3.org/2000/svg">
<path fill-rule="evenodd" clip-rule="evenodd" d="M109.104 82.7562C98.8166 76.4146 86.7766 72.9171 76.8658 65.9265C73.8682 63.5493 73.5314 61.9418 75.5739 58.7522C78.5031 54.1771 80.5698 49.2027 82.5738 44.1918C85.3343 37.362 75.3453 47.7731 73.3876 48.511C64.7129 54.8831 55.238 60.2275 47.2176 67.4476C46.7192 67.9419 45.7411 68.6523 46.3468 69.3979C53.061 71.5959 60.0266 73.4417 66.6981 75.9572C68.9711 77.3323 72.1207 76.1933 74.0323 77.9212C74.6331 78.8804 73.3001 79.5429 73.4927 80.5425C73.5622 80.9035 73.1645 81.5424 72.8019 81.7706C67.9194 84.4989 64.0027 88.7584 59.6592 92.0179C57.7193 91.7685 58.2652 94.1873 57.0656 94.9345C54.4363 97.547 51.3822 99.3958 49.4522 102.599C42.0801 111.181 32.8099 119.316 28.0514 129.56C55.0489 114.525 83.392 99.8992 109.104 82.7562ZM64.211 81.3021C59.1141 76.8267 38.846 77.6193 39.5447 69.198C43.426 56.0613 81.6506 37.9676 94.01 27.6865C95.0027 27.0704 96.3654 25.3428 97.3869 26.7823C98.1595 27.9521 98.9587 28.5704 97.9778 29.7396C94.8104 34.1058 91.4483 38.2907 88.9148 43.0789C86.1708 47.2708 84.6232 51.9805 82.9197 56.6398C82.5305 58.3949 79.2414 60.7517 81.1036 62.327C89.916 67.8691 99.7796 71.7072 108.966 76.6579C110.773 77.9949 114.874 78.5241 114.46 81.3464C113.814 84.8645 108.982 87.7737 106.006 89.6844C102.121 93.4359 97.1383 95.6143 92.6213 98.5505C75.0124 109.667 56.3621 118.947 38.3407 129.366C32.6598 132.528 26.832 135.466 21.1637 138.618C16.8235 139.006 19.0836 133.983 20.8275 132.066C32.2423 112.724 48.4524 96.9337 64.211 81.3021Z" fill="black"/>
<path fill-rule="evenodd" clip-rule="evenodd" d="M21.781 0.03017C25.9164 0.385304 31.3511 0.772024 35.2563 3.07421C37.6937 4.1929 40.7471 7.70936 35.8158 6.71921C29.6044 5.13388 23.1942 4.99353 16.908 3.97262C9.59562 0.692098 17.86 -0.182965 21.781 0.03017Z" fill="black"/>
<path fill-rule="evenodd" clip-rule="evenodd" d="M62.4277 139.949C62.6889 137.121 66.7519 121.34 70.4834 123.957C73.9425 127.166 66.7299 138.498 65.2296 142.561C63.5057 144.101 62.4439 141.349 62.4277 139.949Z" fill="black"/>
<path fill-rule="evenodd" clip-rule="evenodd" d="M123.934 133.449C119.556 134.731 116.706 125.631 114.182 122.778C113.221 120.49 109.847 117.65 111.468 115.168C112.23 114.72 113.546 113.947 114.225 114.922C118.402 120.542 121.058 127.09 123.934 133.449Z" fill="black"/>
<path fill-rule="evenodd" clip-rule="evenodd" d="M9.58399 87.9603C1.62685 85.1156 23.22 75.9138 25.8387 76.4662C30.1904 78.0621 11.4502 87.3012 9.58399 87.9603Z" fill="black"/>
<path fill-rule="evenodd" clip-rule="evenodd" d="M14.9146 114.221C10.2589 112.792 21.8679 102.273 23.6678 100.337C25.2757 99.0127 27.4733 97.3065 29.3678 99.1025C29.8287 99.458 29.8563 100.058 29.3048 100.352C24.0065 104.388 21.1083 111.158 14.9146 114.221Z" fill="black"/>
<path fill-rule="evenodd" clip-rule="evenodd" d="M41.9817 36.5898C62.7598 38.9818 34.637 42.1242 29.0489 41.5998C24.189 37.2599 39.547 36.8609 41.9817 36.5898Z" fill="black"/>
<path fill-rule="evenodd" clip-rule="evenodd" d="M93.9775 128.71C92.8069 132.392 93.3926 139.207 91.0794 141.864C87.0799 140.454 88.4724 128.612 89.9363 125.193C92.7704 122.289 94.1113 125.94 93.9775 128.71Z" fill="black"/>
<path fill-rule="evenodd" clip-rule="evenodd" d="M33.1099 22.538C30.3627 21.8934 9.42448 21.9722 12.2379 17.6882C14.2329 15.436 45.9655 22.3923 33.1099 22.538Z" fill="black"/>
<path fill-rule="evenodd" clip-rule="evenodd" d="M50.5863 16.7788C52.9912 17.0275 65.9972 18.3094 62.8648 22.3636C60.1285 23.5643 39.2083 18.2158 50.5863 16.7788Z" fill="black"/>
<path fill-rule="evenodd" clip-rule="evenodd" d="M111.038 46.0844C113.285 40.4848 121.566 56.1358 122.091 58.626C119.676 59.7195 110.816 49.0586 111.038 46.0844Z" fill="black"/>
<path fill-rule="evenodd" clip-rule="evenodd" d="M108.013 146.472C108.493 160.823 101.962 143.243 103.412 138.51C106.883 130.749 107.985 144.042 108.013 146.472Z" fill="black"/>
<path fill-rule="evenodd" clip-rule="evenodd" d="M86.3851 12.8604C83.699 17.5029 73.3738 14.3765 72.7939 10.1709C74.762 5.88506 82.7294 12.3921 86.3851 12.8604Z" fill="black"/>
<path fill-rule="evenodd" clip-rule="evenodd" d="M17.1241 56.4371C18.5958 56.7644 21.6881 55.9237 23.266 57.2929C20.7286 59.1495 16.7595 59.05 13.6825 59.9985C12.0312 60.3927 6.11806 59.4705 7.94966 57.1111C11.2189 56.4084 13.4807 56.3371 17.1241 56.4371Z" fill="black"/>
<path fill-rule="evenodd" clip-rule="evenodd" d="M97.722 101.53C99.2562 100.926 100.403 101.668 100.473 103.28C100.387 105.638 101.889 108.655 100.607 110.699C98.1647 111.761 92.0181 99.8673 97.722 101.53Z" fill="black"/>
<path fill-rule="evenodd" clip-rule="evenodd" d="M122.325 83.7092C122.353 80.9139 124.305 80.4297 125.857 82.7855C127.03 84.8395 131.332 87.6095 130.511 89.941C129.787 90.2654 129.392 89.6543 128.892 89.3607C126.824 87.5949 122.165 86.9292 122.325 83.7092Z" fill="black"/>
<path fill-rule="evenodd" clip-rule="evenodd" d="M38.6847 142.095C42.9543 142.43 40.2957 147.35 38.8581 149.333C34.6588 151.604 35.3326 142.509 38.6847 142.095Z" fill="black"/>
<path fill-rule="evenodd" clip-rule="evenodd" d="M0 144.365C0.585222 142.18 1.57604 139.103 4.06776 138.696C5.24533 138.625 5.85578 139.579 5.38081 140.659C4.55316 141.481 0.401209 147.155 0 144.365Z" fill="black"/>
</svg>
