<svg width="332" height="395" viewBox="0 0 332 395" fill="none" xmlns="http://www.w3.org/2000/svg">
<path fill-rule="evenodd" clip-rule="evenodd" d="M78.8038 260.934C79.794 260.263 80.9341 259.587 79.4275 259.091C78.4203 259.594 77.4821 259.972 78.8038 260.934ZM64.7156 284.846C66.1194 283.872 68.3076 283.234 66.2304 282.773C65.3466 283.229 63.942 283.573 64.7156 284.846ZM40.7348 310.087C39.3446 309.045 38.7846 308.522 38.0261 310.11C38.5783 311.379 39.2721 310.774 40.7348 310.087ZM72.1372 341.221C71.4153 342.069 69.2301 343.101 70.9711 343.524C72.1602 342.807 73.8747 342.579 72.1372 341.221ZM125.002 238.957C123.791 237.979 123.286 236.986 122.183 238.63C123.412 239.434 123.763 240.955 125.002 238.957ZM81.4097 268.874C81.506 267.741 81.4159 266.843 80.0419 266.979C77.7284 267.354 81.0483 271.102 81.4097 268.874ZM96.2463 272.564C94.2365 270.39 93.9558 271.287 92.8649 273.346C93.73 274.837 94.8558 273.195 96.2463 272.564ZM61.0281 283.34C59.0026 284.765 59.4095 285.122 61.2366 286.086C62.6555 285.495 61.795 284.414 61.0281 283.34ZM70.9779 283.238C70.1942 285.159 71.0266 286.089 72.4122 286.83C77.4737 288.415 74.1086 277.628 70.7375 278.339C68.4378 278.779 70.8839 282.123 70.9779 283.238ZM123.164 342.105C129.5 341.094 114.74 331.25 113.504 332.89C112.419 337.339 119.972 339.999 123.164 342.105ZM28.1487 326.611C24.8163 330.664 34.1646 332.869 36.4199 335.131C43.4766 332.352 31.7138 327.023 28.1487 326.611ZM186.433 326.386C184.878 317.93 180.323 331.319 180.627 334.506C183.929 344.307 185.893 329.571 186.433 326.386ZM77.2986 343.982C74.4716 346.603 72.5075 350.644 71.0799 354.334C70.8014 360.607 76.2838 355.347 76.6914 351.942C77.1732 349.721 81.4765 344.433 77.2986 343.982ZM132.215 287.969C128.124 284.556 122.275 285.116 117.329 285.445C111.445 288.227 134.733 293.904 132.215 287.969ZM87.4085 325.472C103.6 322.667 110.232 297.091 89.8276 295.803C66.7401 294.046 60.8671 326.685 87.4085 325.472ZM154.541 309.911C138.005 307.851 129.02 331.071 141.683 341.37C150.03 344.015 160.046 345.162 166.37 337.898C169.5 331.309 165.239 334.493 162.043 337.101C150.618 343.996 135.239 336.214 139.762 322.009C144.972 305.979 173.345 312.892 161.514 329.016C153.199 341.324 143.87 320.75 154.314 318.411C156.085 318.779 157.404 320.909 157.336 322.854C157.283 324.633 153.599 323.898 154.907 326.256C160.205 328.893 160.701 320.4 157.631 317.746C147.395 310.21 142.45 331.723 151.434 335.467C168.854 342.591 174.777 308.368 154.541 309.911ZM11.0906 360.723C6.50359 378.629 35.5128 398.302 46.8501 375.124C53.9863 352.372 22.2757 339.626 11.0906 360.723ZM99.6585 251.03C108.533 252.468 108.804 241.175 99.8315 242.354C94.5207 244.723 95.5994 255.1 99.263 258.483C105.361 261.201 110.43 255.295 112.709 250.402C115.509 236.672 94.6287 231.407 89.7507 244.003C78.7979 273.561 126.487 277.613 119.699 250.203C117.715 248.384 118.403 252.984 117.887 254.079C116.715 265.483 97.3168 268.305 93.5051 257.479C92.4094 250.347 90.7349 240.202 100.684 239.855C118.823 239.952 102.458 265.012 99.6585 251.03ZM87.3133 361.842C89.2226 358.986 83.3518 357.679 83.3553 360.79C83.0053 362.834 87.1289 364.451 87.3133 361.842ZM111.067 304.767C112.48 308.401 111.529 302.727 109.509 303.965C106.745 305.216 109.45 306.868 111.067 304.767ZM12.9255 382.011C11.8972 380.719 11.3369 379.087 10.4875 377.632C9.94423 376.854 9.4053 376.071 8.85987 375.295C7.43852 368.418 0.222682 351.142 6.58208 346.653C8.22837 345.485 12.6099 343.394 11.4292 340.892C9.04069 337.878 7.08366 343.089 4.60178 342.485C3.54666 340.203 4.30132 336.974 2.43984 334.778C1.42803 328.182 0.82495 321.564 0.585938 314.897C3.15877 318.152 17.8024 308.284 10.9352 307.177C-0.618055 313.102 1.61318 314.942 1.23178 301.987C0.656856 297.607 6.30572 288.454 10.9149 291.487C15.2959 299.494 23.9249 305.383 33.0464 305.863C59.1166 306.73 54.603 273.997 47.8576 259.665C70.1193 247.199 58.4764 245.796 71.1013 260.394C73.7564 255.57 65.0023 248.83 68.5117 245.548C78.9697 238.721 89.5201 232.689 99.524 225.56C102.479 228.967 107.288 225.012 110.452 229.079C113.074 228.489 128.779 233.684 126.918 236.92C126.258 237.832 126.692 238.121 127.605 237.959C131.742 237.118 134.126 241.776 137.373 243.644C137.611 243.844 137.905 244.392 137.818 244.505C136.467 246.262 138.056 245.427 138.642 245.461C161.937 263.707 143.416 254.286 139.737 270.515C133.082 290.785 160.499 298.265 173.539 286.689C178.58 288.21 178.753 294.332 181.56 298.041C183.766 301.981 187.92 304.846 189.361 309.162C203.36 333.953 212.108 340.279 183.44 359.774C173.755 366.37 162.863 369.999 151.98 373.636C150.231 374.459 150.215 363.643 148.835 361.534C148.136 359.387 146.284 359.977 145.75 361.706C144.911 365.667 147.194 369.49 148.218 373.18C152.385 375.532 141.026 375.832 139.763 377.646C137.005 376.209 135.548 379.073 133.226 379.8C129.449 377.56 127.304 382.535 123.561 381.855C122.807 381.65 122.144 381.43 122.289 380.38C123.209 372.14 117.066 363.684 108.48 363.222C93.1556 362.974 87.1657 374.275 86.7765 386.711C73.3019 386.01 70.0635 394.212 66.7587 376.919C64.2438 372.618 62.1775 377.583 63.4876 380.442C63.4256 382.97 67.1144 387.232 64.2636 388.728C56.3526 390.307 48.7462 389.141 40.8247 390.136C30.7164 390.466 18.7325 392.355 12.9255 382.011Z" fill="#0C4569"/>
<path fill-rule="evenodd" clip-rule="evenodd" d="M305.72 373.349C305.743 373.272 305.767 373.195 305.791 373.118C305.616 373.217 305.453 373.284 305.72 373.349ZM316.9 386.837C315.235 381.466 311.775 376.357 306.66 374.076C308.318 379.328 312.989 383.144 316.9 386.837ZM267.73 331.587C285.367 339.886 267.301 315.84 259.647 321.182C250.141 334.01 255.145 333.474 267.73 331.587ZM262.768 334.228C255.9 334.319 252.479 337.658 251.737 344.387C251.583 352.256 294.866 333.947 262.768 334.228ZM263.586 355.849C251.677 357.637 247.261 355.381 246.598 369.699C246.327 370.802 246.801 371.118 247.545 371.215C256.133 368.592 264.099 363.123 271.875 358.525C274.313 355.655 265.837 356.687 263.586 355.849ZM280.47 345.796C277.59 331.798 274.149 345.921 265.737 346.74C261.433 349.515 248.83 347.133 250.037 353.539C249.642 355.826 249.763 356.008 251.884 355.613C259.121 354.266 266.357 353.963 273.635 355.388C277.808 355.485 280.19 349.774 280.47 345.796ZM246.694 378.167C246.468 382.029 251.723 392.321 255.911 386.539C258.75 381.582 263.278 378.467 267.812 375.408C271.137 371.042 286.54 370.955 285.725 367.196C283.759 363.981 278.28 355.942 274.24 360.201C269.662 363.954 264.015 366.505 258.907 369.538C254.588 372.54 245.827 371.497 246.694 378.167ZM267.791 317.88C263.637 318.663 278.138 323.584 279.714 337.606C288.145 346.898 277.022 354.657 279.706 357.908C282.908 359.444 284.716 362.488 286.859 365.19C288.341 367.151 289.35 369.928 292.71 368.046C294.728 367.659 301.575 370.44 300.911 367.117C296.079 350.634 302.977 357.087 290.355 343.959C278.032 321.676 304.602 314.997 267.791 317.88ZM150.631 372.083C151.326 376.151 158.195 371.493 160.478 370.479C176.715 364.711 197.45 355.863 202.567 337.514C204.406 331.169 197.644 326.401 196.067 320.643C190.92 313.019 187.544 305.189 181.552 298.125C178.743 294.414 178.578 288.301 173.54 286.779C172.63 283.137 170.476 279.104 167.359 276.47C166.534 273.4 169.675 272.441 171.536 270.643C176.073 266.495 182.229 266.091 186.379 261.419C196.133 253.856 199.68 250.675 212.577 254.302C217.092 251.428 222.501 256.742 227.894 255.319C235.505 258.603 244.521 256.21 252.05 260.365C274.173 266.487 304.706 269.953 311.043 295.788C311.522 306.059 309.465 315.917 306.865 325.808C303.264 324.389 300.305 321.552 296.319 320.673C288.141 316.305 289.557 328.421 289.443 333.321C288.337 336.903 297.206 353.776 299.122 346.272C300.689 340.296 305.01 330.276 311.708 330.925C304.636 336.514 293.574 351.234 308.496 353.485C313.203 354.675 317.951 354.476 322.631 353.014C333.962 354.555 307.812 358.805 304.559 354.479C297.393 350.252 301.731 363.198 302.688 366.868C303.674 371.537 306.835 366.343 309.227 365.534C312.263 362.354 329.602 355.6 326.559 360.614C320.408 362.099 307.632 364.819 306.882 371.18C316.151 375.17 317.097 386.462 324.556 391.63C315.151 394.279 309.78 381.104 304.491 374.853C297.062 368.585 294.499 407.665 293.984 388.781C293.901 374.342 311.158 369.96 292.242 370.261C286.752 369.819 290.824 378.263 289.422 381.684C288.524 385.548 285.762 396.425 281.106 394.691C284.555 389.922 292.819 373.24 284.691 370.984C276.46 373.596 267.936 375.618 261.909 382.227C251.841 394.345 258.791 389.552 242.327 389.183C220.601 386.688 199.121 385.227 177.607 380.863C165.271 378.873 153.221 373.217 141.195 377.272C142.927 374.965 145.986 376.253 148.233 375.084C149.105 374.642 150.118 373.921 148.244 373.23C147.05 371.177 149.098 371.979 150.631 372.083Z" fill="#296F63"/>
<path fill-rule="evenodd" clip-rule="evenodd" d="M220.456 241.373C219.382 240.669 218.852 239.7 217.816 240.873C218.914 242.007 219.138 243.285 220.456 241.373ZM118.313 60.7508C113.613 59.1649 133.039 95.8621 133.894 86.4017C136.624 76.8896 139.28 67.3573 141.994 57.8417C142.56 53.3846 136.196 51.1394 133.603 48.147C130.841 46.8141 132.445 46.0295 131.544 44.0649C129.358 44.9547 130.3 46.1004 127.439 44.6073C119.473 40.8463 113.852 50.1279 116.168 57.0587C116.976 58.459 119.374 57.6085 120.801 58.0173C122.17 58.1274 121.33 56.8791 121.778 56.4679C123.043 55.9836 124.02 53.765 124.918 55.5554C126.018 61.0454 118.776 58.0262 124.495 65.1905C122.202 65.0764 121.133 63.4034 120.463 61.3703C119.496 62.8994 118.506 62.3542 118.313 60.7508ZM215.968 253.394C214.764 253.542 213.371 252.857 212.415 254.245C212.334 254.363 211.548 253.995 211.09 253.853C214.332 245.703 217.689 237.592 220.685 229.348C232.076 193.578 244.809 154.219 236.839 116.551C232.324 105.6 222.158 119.3 217.986 123.884C211.867 131.237 211.201 141.212 208.353 150.015C208.51 156.392 194.55 180.906 206.684 174.885C217.36 177.57 181.605 181.814 180.252 191.725C178.735 192.338 178.777 188.708 177.029 191.094C173.354 193.866 169.559 196.212 166.334 199.771C164.189 199.425 163.981 200.825 163.965 202.398C157.497 210.532 151.641 218.166 149.483 228.68C147.886 233.678 145.667 228.96 146.969 226.149C146.876 223.774 150.777 219.306 147.723 218.168C137.249 214.769 126.203 212.946 116.257 208.106C109.236 205.101 108.61 196.509 107.892 189.84C97.3559 189.591 100.979 201.244 100.609 208.569C99.8548 214.648 104.35 222.61 102.181 227.525C94.2918 218.877 97.9703 202.321 97.2639 190.8C90.1145 182.444 82.7103 172.188 87.8161 160.648C88.8327 157.29 93.3939 152.775 97.3132 155.12C98.0899 155.936 96.9672 156.177 96.619 156.72C96.1786 157.868 96.7707 159.676 96.2935 160.992C92.8742 160.628 95.3304 156.482 92.4289 159.457C90.4005 160.5 88.0982 165.915 90.7384 166.984C91.0425 167.022 91.5673 167.588 91.5137 167.771C91.0933 169.129 90.1248 167.223 89.5242 168.596C89.8118 175.151 92.6638 181.508 98.1929 185.087C104.26 189.492 110.19 184.074 111.456 177.517C114.908 172.556 114.962 181.211 113.661 183.441C106.863 200.042 119.511 208.253 134.34 210.846C139.794 211.263 147.623 217.171 152.053 213.42C161.649 196.802 177.833 185.328 195.33 178.141C200.881 170.807 200.536 159.498 204.25 150.871C209.903 130.497 214.99 109.95 221.264 89.7634C223.029 78.8873 230.882 66.402 225.799 55.8319C211.567 43.6564 190.169 42.6475 172.644 37.1738C151.046 32.6377 152.25 38.8478 146.569 57.1772C143.539 61.7201 128.673 132.251 124.697 118.613C124.862 113.943 131.996 101.62 128.289 99.2955C117.761 99.101 110.797 106.916 109.707 116.934C106.922 120.795 115.313 121.554 111.292 125.242C109.721 149.165 159.1 159.839 135.692 124.509C133.65 121.025 136.076 119.468 137.77 122.669C158.176 147.166 134.496 161.492 114.798 141.833C111.123 138.751 112.012 134.54 107.206 137.923C113.71 118.806 85.4124 136.241 108.106 162.766C108.889 163.663 111.85 167.641 111.521 163.899C114.122 171.915 124.47 167.11 124.335 160.115C123.443 154.725 128.82 153.914 129.135 159.122C122.595 195.695 82.496 148.726 99.0135 130.568C100.777 127.633 103.897 128.116 106.417 126.447C106.053 125.339 104.061 125.461 105.254 124.438C104.971 113.054 108.357 100.318 120.24 95.7298C122.695 93.1887 132.364 96.5328 130.791 92.426C121.459 79.6938 109.349 62.351 113.884 45.9221C124.779 28.4974 143.567 55.7301 144.331 49.9815C148.839 13.9357 196.866 42.4546 218.325 45.7203C242.588 52.7399 227.642 78.9722 223.853 95.455C222.591 102.519 211.94 126.01 223.88 112.178C249.752 94.4093 244.553 147.477 242.361 160.972C237.118 192.65 228.643 223.86 215.968 253.394Z" fill="#161515"/>
<path fill-rule="evenodd" clip-rule="evenodd" d="M176.845 168.622C176.805 168.351 176.644 167.9 176.742 167.835C179.975 166.474 177.106 163.907 179.139 162.533C182.734 161.854 180.541 168.931 183.258 166.982C185.402 162.56 186.467 157.414 187.393 152.682C185.122 151.656 189.333 150.566 189.038 147.406C190.649 144.297 186.066 140.459 189.571 139.512C190.143 140.099 190.059 142.091 190.884 141.016C191.42 138.63 193.417 134.971 189.768 137.313C188.54 136.194 190.052 131.406 191.997 132.753C195.286 132.959 195.695 120.922 197.544 117.673C197.797 116.759 198.122 116.157 196.508 116.365C195.177 116.537 193.73 114.966 192.333 116.536C192.208 116.676 191.359 116.48 191.341 116.363C190.246 113.682 186.644 114.47 184.314 113.697C178.715 113.052 173.247 108.929 168.191 110.719C167.279 107.705 157.891 107.535 154.751 106.784C154.142 109.931 153.909 106.706 153.54 106.658C144.443 100.274 147.818 113.083 144.533 117.622C137.521 120.269 144.792 106.579 144.975 102.978C145.627 98.8576 174.397 105.266 174.565 109.261C176.283 109.97 176.098 107.938 176.997 107.048C183.507 107.9 190.304 109.686 197.048 111.339C199.395 111.64 203.746 114.575 201.501 116.698C200.055 125.64 196.428 134.135 194.371 142.991C191.463 152.739 188.536 162.483 185.78 172.276C183.601 180.428 172.976 173.823 167.237 173.787C150.661 172.239 145.123 162.816 166.138 168.891C169.907 168.684 181.5 175.648 182.243 171.032C183.774 170.06 184.015 169.46 182.197 169.046C180.103 169.022 178.839 172.46 177.126 171.052C177.25 169.613 179.969 167.929 176.845 168.622Z" fill="#161515"/>
<path fill-rule="evenodd" clip-rule="evenodd" d="M70.7436 101.804C67.8789 91.9307 65.2664 104.169 65.9357 107.059C67.6747 107.133 70.6622 104.294 70.7436 101.804ZM65.6165 79.2351C56.4995 78.608 59.9589 90.171 65.1988 88.9054C65.4833 86.2042 70.9063 79.0705 65.6165 79.2351ZM66.1144 75.6675C71.0069 76.7536 69.8584 71.9684 72.0388 69.1029C75.5376 66.722 74.3085 72.6543 73.8358 74.4561C72.6664 79.8552 83.6249 80.4867 81.8206 87.0713C77.8385 92.0205 73.182 68.2626 69.604 91.4822C69.722 96.0208 77.8971 96.5907 74.1561 105.709C71.3109 113.414 62.649 108.905 62.192 117.429C59.781 122.237 56.269 116.196 58.393 113.248C59.0146 108.484 50.853 106.901 50.9 101.281C50.8617 99.5307 49.8339 95.8197 52.548 95.6956C54.4652 95.7053 55.2839 97.3274 54.9824 98.9988C54.5433 101.644 58.7179 107.192 60.7473 104.85C61.0023 100.489 65.8351 95.3329 61.3844 92.1892C52.2543 86.1084 55.6026 73.8946 66.1144 75.6675Z" fill="#161515"/>
<path fill-rule="evenodd" clip-rule="evenodd" d="M277.345 230.236C277.312 227.365 274.389 224.55 271.863 225.518C272.31 228.988 276.038 237.384 277.345 230.236ZM261.865 222.171C263.35 222.276 264.815 222.233 263.83 220.417C260.781 204.839 248.958 221.9 261.865 222.171ZM263.221 225.895C253.832 227.946 246.874 215.906 256.666 210.487C261.288 208.151 253.999 203.973 257.141 200.958C259.111 200.827 260.011 203.773 261.013 205.14C263.04 209.805 275.23 202.597 274.39 210.652C262.018 208.844 262.946 209.899 268.798 220.147C272.272 223.109 278.369 218.88 281.061 227.386C283.849 232.874 277.852 235.965 278.331 240.113C279.444 242.066 281.072 244.728 278.948 246.555C276.854 247.211 275.092 244.378 274.468 242.613C272.907 239.52 258.039 243.241 259.216 234.058C262.216 231.092 264.256 238.088 267.861 236.904C273.974 238.257 267.707 224.163 263.221 225.895Z" fill="#161515"/>
<path fill-rule="evenodd" clip-rule="evenodd" d="M256.611 390.014C257.295 381.594 282.264 366.728 287.548 372.41C288.979 396.479 276.885 398.37 257.687 391.22C257.328 390.817 256.97 390.416 256.611 390.014Z" fill="#A5D255"/>
<path fill-rule="evenodd" clip-rule="evenodd" d="M61.8776 186.763C59.616 169.924 43.8344 176.935 40.2567 189.072C36.9917 191.377 34.3617 187.442 30.8931 189.622C28.0668 190.789 23.8341 190.802 22.6355 194.028C13.3954 207.767 45.0994 219.031 54.693 212.819C59.1995 205.132 64.7645 194.465 61.8776 186.763ZM65.2854 190.51C64.4474 200.944 62.4464 215.644 50.9109 217.922C38.4269 218.324 22.2245 213.206 17.7091 200.441C15.976 185.226 31.5135 188.486 38.5225 183.77C46.5678 167.574 66.3058 171.737 65.2854 190.51Z" fill="#161515"/>
<path fill-rule="evenodd" clip-rule="evenodd" d="M12.5957 287.266C16.3831 283.974 18.4009 292.288 21.6701 293.899C35.1894 296.658 50.8811 280.609 40.0414 268.359C39.1683 267.398 39.1475 266.58 40.2505 265.767C51.1249 251.678 54.2942 296.924 43.0368 300.11C32.3617 306.282 15.4367 298.649 12.5957 287.266Z" fill="#0C4569"/>
<path fill-rule="evenodd" clip-rule="evenodd" d="M324.473 391.613C316.96 386.445 316.039 375.17 306.703 371.176C307.542 364.84 320.19 362.066 326.482 360.614C331.922 354.824 335.336 393.068 324.473 391.613Z" fill="#A5D255"/>
<path fill-rule="evenodd" clip-rule="evenodd" d="M90.4587 380.186C90.9008 385.088 89.0222 386.827 95.875 386.137C98.1606 385.987 98.554 385.647 98.0254 383.404C97.5318 372.727 116.417 371.122 117.114 382.468C126.828 362.259 90.8651 360.626 90.4587 380.186ZM13.7676 383.507C21.7386 394.085 36.8871 390.469 48.3021 389.337C69.3418 390.13 65.0625 391.11 63.0405 376.957C68.3582 370.135 66.9941 389.267 72.0234 388.533C76.8385 385.98 83.6124 388.632 87.7457 385.868C82.3961 369.082 109.153 354.376 119.136 369.639C122.941 372.904 120.74 380.148 123.325 381.967C120.698 383.818 116.228 383.022 112.964 383.869C114.656 380.451 113.489 378.076 109.778 377.407C103.023 374.685 95.6013 387.611 106.324 385.696C86.9321 388.589 67.0808 389.892 47.3923 391.095C36.3786 390.228 18.8766 396.739 13.7676 383.507Z" fill="#8DD8ED"/>
<path fill-rule="evenodd" clip-rule="evenodd" d="M287.612 125.747C287.399 120.584 298.833 119.119 303.371 117.759C307.537 118.025 305.747 125.737 306.524 128.769C310.521 140.333 297.898 139.243 290.67 143.786C281.692 148.499 278.471 125.093 270.077 129.7C255.04 134.867 265.782 127.129 272.614 125.034C277.708 124.163 280.692 132.313 284.63 135.048C284.639 135.359 285.227 135.628 285.417 136.048C285.35 136.28 285.733 136.362 285.863 136.642C289.451 143.489 296.835 136.251 302.443 134.995C303.715 134.069 303.198 132.805 302.556 132.065C301.226 129.961 302.829 127.365 302.063 124.913C300.772 123.788 302.006 121.134 299.727 123.347C297.547 127.435 295.672 123.437 292.39 125.156C290.824 125.632 289.249 125.827 287.612 125.747Z" fill="#161515"/>
<path fill-rule="evenodd" clip-rule="evenodd" d="M325.45 352.837C311.913 356.329 291.494 353.567 306.289 336.397C311.066 329.358 314.993 331.858 318.464 338.666C320.377 343.702 324.652 347.339 325.45 352.837Z" fill="#A5D255"/>
<path fill-rule="evenodd" clip-rule="evenodd" d="M310.511 330.019C299.729 333.502 299.869 352.452 295.982 347.041C289.364 341.476 288.299 332.669 289.625 324.557C289.686 313.272 308.011 325.384 310.511 330.019Z" fill="#A5D255"/>
<path fill-rule="evenodd" clip-rule="evenodd" d="M12.7479 289.474C35.0266 317.91 59.3836 295.814 47.2035 265.741C41.5088 250.788 55.5969 270.959 53.2236 281.954C56.8511 301.912 33.9381 313.019 18.9715 300.592C16.5454 298.669 5.34284 288.094 12.7479 289.474Z" fill="#8DD8ED"/>
<path fill-rule="evenodd" clip-rule="evenodd" d="M155.015 71.5045C144.959 81.6144 162.981 96.2524 169.864 83.2726C174.944 74.8862 162.476 64.4958 155.015 71.5045ZM160.403 92.5407C146.849 91.7524 143.392 69.8476 157.947 66.5132C177.893 61.1287 180.615 93.6345 160.403 92.5407Z" fill="#161515"/>
<path fill-rule="evenodd" clip-rule="evenodd" d="M295.596 393.755C295.139 384.935 301.202 364.246 308.604 381.042C328.588 400.225 312.335 391.861 295.596 393.755Z" fill="#A5D255"/>
<path fill-rule="evenodd" clip-rule="evenodd" d="M18.1621 283.294C21.8884 279.397 25.4851 275.136 30.3115 272.575C32.3285 276.054 29.8783 279.977 26.0681 279.282C25.7639 287.686 40.1887 274.465 31.9765 270.926C38.0899 263.526 42.9468 278.594 38.9947 283.05C34.2069 290.504 20.174 295.308 18.1621 283.294Z" fill="#0C4569"/>
<path fill-rule="evenodd" clip-rule="evenodd" d="M212.431 16.3988C210.452 19.6516 227.641 13.3657 224.079 12.0157C212.886 2.96126 213.326 0.924568 212.431 16.3988ZM208.085 18.2573C209.805 14.3124 207.119 -4.26112 215.249 0.898488C218.079 4.73257 234.663 10.7418 229.121 15.4823C223.746 16.1894 206.51 29.7232 208.085 18.2573Z" fill="#161515"/>
<path fill-rule="evenodd" clip-rule="evenodd" d="M327.501 358.534C309.131 357.994 301.249 382.668 300.551 354.131C300.578 352.12 303.351 354.281 304.403 354.436C311.777 360.424 327.033 350.113 327.501 358.534Z" fill="#A5D255"/>
<path fill-rule="evenodd" clip-rule="evenodd" d="M283.562 394.556C296.564 378.76 279.609 366.958 300.417 370.66C303.988 369.945 293.086 380.99 293.821 388.636C294.559 397.544 291.801 392.211 286.466 394.689C286.059 395.146 284.56 394.628 283.562 394.556Z" fill="#A5D255"/>
<path fill-rule="evenodd" clip-rule="evenodd" d="M18.1705 283.297C20.4356 297.628 41.5472 288.225 40.5134 277.195C40.3061 271.435 33.5337 268.266 41.0157 264.813C40.276 266.15 38.4887 266.971 40.0673 268.46C50.166 279.271 37.0131 296.098 24.0305 293.913C20.6378 294.976 19.0262 291.06 17.1248 288.943C15.5904 286.591 15.7714 286.473 12.8896 286.732C13.8025 284.279 16.0137 283.83 18.1705 283.297Z" fill="#8DD8ED"/>
<path fill-rule="evenodd" clip-rule="evenodd" d="M180.597 89.0518C185.798 91.2959 205.921 90.6717 205.335 97.6676C204.259 100.442 166.708 89.9379 180.597 89.0518Z" fill="#161515"/>
<path fill-rule="evenodd" clip-rule="evenodd" d="M148.968 188.969C154.008 188.402 158.875 197.484 151.445 192.999C144.42 189.029 139.646 201.906 147.611 203.29C148.857 203.577 150.878 203.668 150.597 205.506C139.762 213.439 133.564 189.293 148.968 188.969Z" fill="#161515"/>
<path fill-rule="evenodd" clip-rule="evenodd" d="M206.952 85.2441C203.892 83.6167 176.201 80.6138 183.394 76.1631C186.494 77.3843 217.578 80.3019 206.952 85.2441Z" fill="#161515"/>
<path fill-rule="evenodd" clip-rule="evenodd" d="M179.645 46.2842C182.815 47.6093 206.049 48.9658 198.155 54.4864C195.768 54.0669 169.209 49.1509 179.645 46.2842Z" fill="#161515"/>
<path fill-rule="evenodd" clip-rule="evenodd" d="M106.405 385.553C96.995 387.546 101.636 376.567 107.923 377.037C115.133 376.421 115.893 385.723 108.207 383.892C106.746 383.734 107.031 385.049 106.405 385.553Z" fill="#0C4569"/>
<path fill-rule="evenodd" clip-rule="evenodd" d="M303.989 141.196C309.413 141.103 311.668 149.897 306.167 151.134C301.18 151.65 298.938 142.112 303.989 141.196Z" fill="#161515"/>
<path fill-rule="evenodd" clip-rule="evenodd" d="M289.42 149.301C290.306 145.028 295.451 141.398 297.644 146.944C300.682 154.322 290.515 157.359 289.42 149.301Z" fill="#161515"/>
<path fill-rule="evenodd" clip-rule="evenodd" d="M67.2938 246.651C68.0931 249.677 74.857 260.033 70.0693 259.83C67.0703 258.052 66.2419 248.198 62.404 250.413C58.8668 253.351 54.8278 255.535 50.6777 257.621C55.2963 253.255 61.3785 249.52 67.2938 246.651Z" fill="#8DD8ED"/>
<path fill-rule="evenodd" clip-rule="evenodd" d="M90.6059 175.314C90.7229 173.14 88.5559 169.537 90.3548 168.089C90.8652 168.586 91.3343 168.677 91.5578 167.922C88.2754 166.072 90.1459 164.013 90.8018 160.912C91.9364 159.459 92.1808 162.564 91.8469 163.061C90.5938 164.681 91.2279 165.07 92.8319 165.251C93.3372 165.672 94.8539 166.922 93.4078 167.538C92.8033 169.136 93.4113 169.506 94.918 169.697C94.4311 167.928 96.3967 167.243 97.3502 168.197C98.3673 169.318 96.1908 169.905 96.8371 170.707C97.6138 171.577 101.339 172.857 98.6165 173.962C96.4261 177.228 95.0792 176.429 93.5097 173.228C92.3972 173.718 90.1839 173.616 90.6059 175.314Z" fill="#296F63"/>
<path fill-rule="evenodd" clip-rule="evenodd" d="M0.979777 308.628C2.56483 309.64 0.767305 311.121 1.47797 312.262C4.61226 310.491 7.73417 308.671 10.9291 306.996C18.975 308.389 -5.03999 324.318 0.979777 308.628Z" fill="#8DD8ED"/>
<path fill-rule="evenodd" clip-rule="evenodd" d="M2.34375 334.825C4.75328 336.601 2.34594 343.995 6.24897 342.14C8.13357 339.041 14.1516 339.897 10.6361 343.457C5.25604 347.861 3.30822 347.596 3.92127 355.037C1.51038 348.374 4.47384 341.495 2.34375 334.825Z" fill="#8DD8ED"/>
<path fill-rule="evenodd" clip-rule="evenodd" d="M192.926 119.347C192.072 116.428 195.243 118.027 195.388 119.617C194.247 121.132 193.888 124.707 191.655 124.488C190.855 123.739 191.339 122.188 190.745 121.24C187.393 124.84 185.068 116.086 190.107 117.288C192.277 117.468 188.161 121.181 192.926 119.347Z" fill="#161515"/>
<path fill-rule="evenodd" clip-rule="evenodd" d="M32.0215 270.965C40.2786 274.518 25.774 287.762 26.0759 279.343C33.2501 280.263 29.0107 273.464 32.0215 270.965Z" fill="#8DD8ED"/>
<path fill-rule="evenodd" clip-rule="evenodd" d="M302.309 135.105C298.305 137.477 293.358 138.064 294.592 132.154C296.134 131.798 296.493 133.904 297.861 133.915C300.335 131.599 300.121 134.69 302.309 135.105Z" fill="#8DD8ED"/>
<path fill-rule="evenodd" clip-rule="evenodd" d="M161.387 120.51C158.268 121.567 163.454 123.168 161.567 124.967C156.023 129.315 155.811 117.844 161.387 120.51Z" fill="#296F63"/>
<path fill-rule="evenodd" clip-rule="evenodd" d="M161.387 120.653C155.21 119.581 167.544 114.126 166.953 119.514C167.03 122.742 163.645 117.406 163.188 120.618C163.156 120.757 162.012 120.648 161.387 120.653Z" fill="#161515"/>
<path fill-rule="evenodd" clip-rule="evenodd" d="M154.582 116.192C157.738 109.596 159.411 116.346 156.037 118.337C154.751 125.633 151.301 119.923 154.582 116.192Z" fill="#161515"/>
<path fill-rule="evenodd" clip-rule="evenodd" d="M167.332 146.89C167.167 146.577 166.953 146.812 166.721 146.894C166.888 147.202 167.101 146.973 167.332 146.89ZM169.799 147.253C171.636 151.11 166.444 146.379 167.303 149.822C163.944 158.783 164.544 136.932 169.799 147.253Z" fill="#8DD8ED"/>
<path fill-rule="evenodd" clip-rule="evenodd" d="M118.054 167.891C114.899 168.894 112.514 166.79 111.552 163.868C111.901 167.119 109.565 164.621 108.68 163.326C110.993 162.284 113.873 163.031 115.166 165.591C115.886 167.015 116.853 167.432 118.054 167.891Z" fill="#296F63"/>
<path fill-rule="evenodd" clip-rule="evenodd" d="M0.744319 317.834C0.832156 323.542 1.60926 329.177 2.34348 334.824C-0.337632 329.756 -0.491089 323.414 0.744319 317.834Z" fill="#8DD8ED"/>
<path fill-rule="evenodd" clip-rule="evenodd" d="M110.923 127.37C109.686 124.672 114.92 123.895 111.335 121.182C112.904 120.089 114.366 122.388 115.046 120.132C115.165 119.79 116.046 119.715 116.577 119.517C116.849 122.849 111.86 124.078 112.157 126.955C113.338 128.235 111.608 130.362 110.923 127.37Z" fill="#A5D255"/>
<path fill-rule="evenodd" clip-rule="evenodd" d="M169.741 147.346C168.566 143.138 165.499 146.207 166.061 144.165C164.786 143.215 165.818 139.03 168.087 141.249C167.132 142.911 169.144 143.117 169.517 144.128C171.505 141.038 171.598 147.127 169.741 147.346Z" fill="#296F63"/>
<path fill-rule="evenodd" clip-rule="evenodd" d="M148.811 116.295C148.93 114.372 152.636 113.542 150.689 113.286C149.64 113.582 150.737 111.397 151.067 111.181C151.678 110.897 154.117 110.88 153.242 112.104C150.498 113.699 159.235 114.251 148.811 116.295Z" fill="#161515"/>
<path fill-rule="evenodd" clip-rule="evenodd" d="M5.35787 360.017C6.22295 364.742 7.3135 369.419 8.49474 374.077C5.6266 371.21 5.01659 364.381 5.35787 360.017Z" fill="#8DD8ED"/>
<path fill-rule="evenodd" clip-rule="evenodd" d="M176.934 171.076C179.067 172.667 181.089 166.884 183.671 169.92C181.116 170.885 181.608 175.866 176.934 171.076Z" fill="#8DD8ED"/>
<path fill-rule="evenodd" clip-rule="evenodd" d="M294.488 131.953C292.946 132.875 291.574 132.985 290.006 132.046C291.403 128.933 295.342 130.022 294.622 126.255C295.587 127.587 294.307 130.294 294.488 131.953Z" fill="#8DD8ED"/>
<path fill-rule="evenodd" clip-rule="evenodd" d="M159.76 107.507C163.824 109.144 161.568 117.585 159.062 111.459C161.049 110.411 160.121 108.912 159.76 107.507Z" fill="#296F63"/>
<path fill-rule="evenodd" clip-rule="evenodd" d="M185.153 136.463C181.854 136.149 184.863 132.197 186.441 131.235C185.64 133.264 188.661 136.957 185.153 136.463Z" fill="#296F63"/>
<path fill-rule="evenodd" clip-rule="evenodd" d="M173.096 170.78C170.933 170.302 170.618 170.136 171.62 168.231C171.728 166.877 172.039 166.554 173.169 167.562C175.442 168.427 175.489 170.251 173.096 170.78Z" fill="#8DD8ED"/>
<path fill-rule="evenodd" clip-rule="evenodd" d="M186.749 137.387C188.143 144.176 178.797 142.231 186.379 137.402C186.484 137.467 186.648 137.459 186.749 137.387Z" fill="#161515"/>
<path fill-rule="evenodd" clip-rule="evenodd" d="M295.165 126.706C294.32 125.675 293.772 124.817 292.35 125.116C295.704 122.249 302.633 130.49 295.165 126.706Z" fill="#296F63"/>
<path fill-rule="evenodd" clip-rule="evenodd" d="M117.466 103.331C119.727 96.4229 123.26 107.804 118.937 104.572C119.521 102.8 118.118 103.539 117.466 103.331Z" fill="#296F63"/>
<path fill-rule="evenodd" clip-rule="evenodd" d="M170.777 142.66C169.84 144.584 167.223 143.045 167.991 140.924C169.561 140.269 172.663 140.536 170.777 142.66Z" fill="#161515"/>
<path fill-rule="evenodd" clip-rule="evenodd" d="M176.933 106.944C176.032 107.838 176.214 109.801 174.491 109.126C171.164 105.797 173.286 105.986 176.933 106.944Z" fill="#296F63"/>
<path fill-rule="evenodd" clip-rule="evenodd" d="M99.6146 141.488C98.2204 141.048 99.6912 138.856 99.6169 137.687C99.8483 140.036 100.854 137.733 101.893 137.387C102.255 139.191 100.496 140.163 99.6146 141.488Z" fill="#296F63"/>
<path fill-rule="evenodd" clip-rule="evenodd" d="M170.48 121.861C168.466 117.207 172.381 122.361 172.205 118.639C173.515 119.725 172.691 121.33 170.48 121.861Z" fill="#296F63"/>
<path fill-rule="evenodd" clip-rule="evenodd" d="M187.186 122.625C185.357 125.2 184.844 123.374 183.378 121.786C184.428 119.924 185.663 121.762 187.186 122.625Z" fill="#296F63"/>
<path fill-rule="evenodd" clip-rule="evenodd" d="M126.255 381.616C128.544 380.259 130.503 378.414 133.285 379.902C130.904 380.33 128.871 382.08 126.255 381.616Z" fill="#8DD8ED"/>
<path fill-rule="evenodd" clip-rule="evenodd" d="M118.828 104.578C120.844 105.266 121.032 107.592 118.706 107.8C117.416 106.344 117.432 105.916 118.828 104.578Z" fill="#8DD8ED"/>
<path fill-rule="evenodd" clip-rule="evenodd" d="M97.8404 227.03C96.5701 227.907 95.3001 228.785 94.0322 229.661C94.7297 227.942 95.9121 226.939 97.8404 227.03Z" fill="#161515"/>
<path fill-rule="evenodd" clip-rule="evenodd" d="M109.851 116.905L109.853 116.935C111.034 116.267 111.068 114.393 112.453 115.429C113.519 117.907 111.802 117.755 109.851 116.905Z" fill="#296F63"/>
<path fill-rule="evenodd" clip-rule="evenodd" d="M134.805 378.973C136.518 376.73 141.912 376.715 137.36 379.095C136.77 378.992 134.359 379.803 134.805 378.973Z" fill="#296F63"/>
<path fill-rule="evenodd" clip-rule="evenodd" d="M186.6 126.841C187.755 127.368 189.943 127.091 189.011 129.416C188.18 131.613 187.132 127.569 186.6 126.841Z" fill="#296F63"/>
<path fill-rule="evenodd" clip-rule="evenodd" d="M148.822 116.417C150.368 115.839 151.889 117.459 152.033 118.305C150.597 119.29 148.643 117.923 148.822 116.417Z" fill="#296F63"/>
<path fill-rule="evenodd" clip-rule="evenodd" d="M174.471 137.387C175.751 138.8 176.598 139.801 174.433 140.316C172.681 139.783 173.536 138.585 174.471 137.387Z" fill="#296F63"/>
<path fill-rule="evenodd" clip-rule="evenodd" d="M95.2791 175.8C96.3937 176.83 96.9214 175.563 97.6768 175.175C99.6525 178.384 94.5324 179.466 95.2791 175.8Z" fill="#A5D255"/>
<path fill-rule="evenodd" clip-rule="evenodd" d="M287.969 139.437C286.18 137.201 289.039 138.469 288.264 135.043C290.492 135.843 288.991 138.214 287.969 139.437Z" fill="#A5D255"/>
<path fill-rule="evenodd" clip-rule="evenodd" d="M118.783 107.847C122.039 105.779 121.661 113.96 117.759 110.925C119.821 110.529 119.961 110.109 118.783 107.847Z" fill="#A5D255"/>
<path fill-rule="evenodd" clip-rule="evenodd" d="M188.31 122.481C191.013 121.985 189.815 127.094 186.893 125.276C187.519 124.138 189.329 123.717 188.31 122.481Z" fill="#8DD8ED"/>
<path fill-rule="evenodd" clip-rule="evenodd" d="M198.61 127.134C199.195 125.668 199.781 124.203 200.367 122.74C202.648 124.265 199.923 126.134 198.61 127.134Z" fill="#A5D255"/>
<path fill-rule="evenodd" clip-rule="evenodd" d="M106.116 155.548C104.726 154.417 104.218 152.373 106.075 151.74C107.664 151.758 105.731 153.423 106.92 153.71C106.702 154.209 106.484 154.707 106.116 155.548Z" fill="#296F63"/>
<path fill-rule="evenodd" clip-rule="evenodd" d="M97.219 167.476C95.365 168.21 97.0041 163.85 97.9972 163.165C98.4285 164.726 97.7454 166.062 97.219 167.476Z" fill="#8DD8ED"/>
<path fill-rule="evenodd" clip-rule="evenodd" d="M96.3255 166.681C96.723 168.614 94.6635 167.608 93.4482 167.447C94.8429 166.847 93.522 166.25 93.4463 165.651C94.5717 165.552 95.8394 165.075 96.3255 166.681Z" fill="#161515"/>
<path fill-rule="evenodd" clip-rule="evenodd" d="M164.044 157.283C164.721 156.703 165.351 155.549 166.094 156.493C165.291 157.874 165.097 159.734 164.044 157.283Z" fill="#8DD8ED"/>
<path fill-rule="evenodd" clip-rule="evenodd" d="M170.195 152.783C167.952 153.38 167.016 151.785 168.749 150.275C169.196 151.051 169.643 151.827 170.195 152.783Z" fill="#296F63"/>
<path fill-rule="evenodd" clip-rule="evenodd" d="M170.195 160.321C168.817 162.185 168.43 160.333 167.559 159.142C168.37 157.456 169.248 159.403 170.195 160.321Z" fill="#A5D255"/>
<path fill-rule="evenodd" clip-rule="evenodd" d="M1.32263 302.015C2.36218 303.913 1.23414 305.729 1.06592 307.581C0.0650282 305.684 0.869304 303.856 1.32263 302.015Z" fill="#8DD8ED"/>
<path fill-rule="evenodd" clip-rule="evenodd" d="M111.762 129.184C111.762 129.184 111.937 129.224 111.936 129.223C112.903 130.307 113.864 131.394 113.071 132.992C112.641 131.636 109.667 129.982 111.762 129.184Z" fill="#296F63"/>
<path fill-rule="evenodd" clip-rule="evenodd" d="M100.886 144.461C100.113 143.256 103.405 142.952 104.285 143.526C103.746 145.326 102.291 144.568 100.886 144.461Z" fill="#296F63"/>
<path fill-rule="evenodd" clip-rule="evenodd" d="M111.022 152.855C110.02 153.444 108.983 155.334 108.395 153.772C108.243 152.199 109.952 151.935 111.022 152.855Z" fill="#296F63"/>
<path fill-rule="evenodd" clip-rule="evenodd" d="M181.619 146.825C180.143 148.416 179.895 147.391 178.982 146.16C179.581 144.765 180.571 146.296 181.619 146.825Z" fill="#296F63"/>
<path fill-rule="evenodd" clip-rule="evenodd" d="M152.682 119.81C153.862 121.31 152.872 121.709 151.448 122.446C151.882 121.606 151.718 120.23 152.682 119.81Z" fill="#296F63"/>
<path fill-rule="evenodd" clip-rule="evenodd" d="M169.943 134.75C169.21 133.734 169.822 133.145 170.496 132.699C172.152 133.161 171.153 133.85 169.943 134.75Z" fill="#8DD8ED"/>
<path fill-rule="evenodd" clip-rule="evenodd" d="M117.702 110.729C123.066 112.092 116.395 113.565 117.25 111.353C117.586 111.329 117.392 110.884 117.702 110.729Z" fill="#296F63"/>
<path fill-rule="evenodd" clip-rule="evenodd" d="M10.5459 377.593C11.0341 378.57 11.5223 379.546 12.0106 380.522C11.5221 379.545 11.0341 378.569 10.5459 377.593Z" fill="#8DD8ED"/>
<path fill-rule="evenodd" clip-rule="evenodd" d="M8.81167 375.25L10.5457 377.593C9.03147 377.423 8.68637 376.49 8.81167 375.25Z" fill="#8DD8ED"/>
<path fill-rule="evenodd" clip-rule="evenodd" d="M115.124 104.848C115.808 104.465 116.491 104.082 117.175 103.699C117.01 104.946 116.072 104.906 115.124 104.848Z" fill="#8DD8ED"/>
<path fill-rule="evenodd" clip-rule="evenodd" d="M186.712 137.611C186.61 137.694 186.445 137.704 186.338 137.628C183.144 136.057 189.602 136.219 186.712 137.611Z" fill="#8DD8ED"/>
<path fill-rule="evenodd" clip-rule="evenodd" d="M43.9403 262.177C43.5495 262.568 43.1586 262.959 42.7686 263.348C43.1597 262.957 43.55 262.566 43.9403 262.177Z" fill="#8DD8ED"/>
<path fill-rule="evenodd" clip-rule="evenodd" d="M287.661 125.828C288.442 125.82 289.223 125.811 290.005 125.803C289.223 125.811 288.443 125.82 287.661 125.828Z" fill="#296F63"/>
<path fill-rule="evenodd" clip-rule="evenodd" d="M134.75 379.345C135.629 379.249 136.508 379.153 137.386 379.057C136.615 380.307 135.704 380.054 134.75 379.345Z" fill="#8DD8ED"/>
<path fill-rule="evenodd" clip-rule="evenodd" d="M176.64 168.583C177.314 168.483 177.96 168.21 178.397 168.835C177.759 169.268 177.249 168.854 176.64 168.583Z" fill="#8DD8ED"/>
<path fill-rule="evenodd" clip-rule="evenodd" d="M12.8896 381.987C13.1825 382.476 13.4756 382.964 13.7685 383.452C13.4756 382.964 13.1825 382.476 12.8896 381.987Z" fill="#8DD8ED"/>
<path fill-rule="evenodd" clip-rule="evenodd" d="M49.2138 258.661C48.9202 258.954 48.6269 259.248 48.335 259.54C48.6291 259.246 48.9213 258.954 49.2138 258.661Z" fill="#8DD8ED"/>
<path fill-rule="evenodd" clip-rule="evenodd" d="M4.68652 357.966C4.78423 358.357 4.88193 358.747 4.97946 359.138C4.88175 358.747 4.78405 358.356 4.68652 357.966Z" fill="#8DD8ED"/>
<path fill-rule="evenodd" clip-rule="evenodd" d="M290.006 125.669C290.787 125.474 291.568 125.279 292.349 125.083C291.568 125.279 290.787 125.474 290.006 125.669Z" fill="#296F63"/>
<path fill-rule="evenodd" clip-rule="evenodd" d="M99.8501 145.882C99.4452 144.84 99.4431 144.579 100.476 144.766C100.268 145.137 100.059 145.509 99.8501 145.882Z" fill="#296F63"/>
<path fill-rule="evenodd" clip-rule="evenodd" d="M170.194 109.931C170.931 109.312 171.523 109.45 171.952 110.436C171.366 110.268 170.78 110.099 170.194 109.931Z" fill="#296F63"/>
<path fill-rule="evenodd" clip-rule="evenodd" d="M12.5966 287.369C12.5626 287.76 12.5283 288.15 12.494 288.541C11.8383 288.071 11.8284 287.676 12.5966 287.369Z" fill="#8DD8ED"/>
<path fill-rule="evenodd" clip-rule="evenodd" d="M27.535 273.894C27.1439 274.09 26.7531 274.286 26.3633 274.48C26.7541 274.283 27.1447 274.089 27.535 273.894Z" fill="#8DD8ED"/>
<path fill-rule="evenodd" clip-rule="evenodd" d="M150.569 116.295C150.552 115.321 151.023 115.249 151.74 115.634C151.35 115.854 150.959 116.074 150.569 116.295Z" fill="#296F63"/>
<path fill-rule="evenodd" clip-rule="evenodd" d="M172.538 110.436C173.124 110.631 173.71 110.827 174.296 111.022C173.71 110.827 173.124 110.631 172.538 110.436Z" fill="#296F63"/>
<path fill-rule="evenodd" clip-rule="evenodd" d="M153.791 121.724C154.182 121.718 154.573 121.711 154.963 121.706C154.572 121.712 154.181 121.718 153.791 121.724Z" fill="#0C4569"/>
<path fill-rule="evenodd" clip-rule="evenodd" d="M286.979 123.619C287.012 124.107 287.045 124.595 287.077 125.083C286.491 124.64 286.164 124.176 286.979 123.619Z" fill="#296F63"/>
<path fill-rule="evenodd" clip-rule="evenodd" d="M100.183 143.781C99.259 143.958 99.0853 143.66 99.562 142.952C99.7694 143.229 99.9763 143.505 100.183 143.781Z" fill="#296F63"/>
<path fill-rule="evenodd" clip-rule="evenodd" d="M150.016 113.394C150.523 113.286 150.975 113.515 151.447 113.664C150.968 113.854 149.768 114.322 150.016 113.394Z" fill="#296F63"/>
<path fill-rule="evenodd" clip-rule="evenodd" d="M157.893 107.213C158.478 107.409 159.064 107.604 159.65 107.799C159.064 107.604 158.479 107.409 157.893 107.213Z" fill="#296F63"/>
<path fill-rule="evenodd" clip-rule="evenodd" d="M178.69 107.506C178.298 107.409 177.907 107.31 177.519 107.213C177.911 107.311 178.301 107.409 178.69 107.506Z" fill="#296F63"/>
<path fill-rule="evenodd" clip-rule="evenodd" d="M189.529 137.378C189.822 137.285 190.116 137.193 190.408 137.101C190.115 137.194 189.822 137.286 189.529 137.378Z" fill="#8DD8ED"/>
<path fill-rule="evenodd" clip-rule="evenodd" d="M257.471 391.25C257.471 391.25 257.375 391.155 257.376 391.155C257.323 391.194 257.27 391.234 257.218 391.274C257.302 391.266 257.386 391.258 257.471 391.25Z" fill="#296F63"/>
<path fill-rule="evenodd" clip-rule="evenodd" d="M107.228 137.972L107.491 138.558C107.425 138.358 107.315 138.156 107.228 137.972Z" fill="#161515"/>
<path fill-rule="evenodd" clip-rule="evenodd" d="M125.083 381.694C125.474 381.596 125.864 381.498 126.255 381.401C125.864 381.498 125.474 381.596 125.083 381.694Z" fill="#8DD8ED"/>
<path fill-rule="evenodd" clip-rule="evenodd" d="M109.632 116.002C109.68 115.709 109.729 115.416 109.778 115.123C109.729 115.416 109.68 115.709 109.632 116.002Z" fill="#296F63"/>
<path fill-rule="evenodd" clip-rule="evenodd" d="M68.5458 245.772C68.2524 245.87 67.9585 245.968 67.667 246.065C67.9616 245.967 68.2537 245.869 68.5458 245.772Z" fill="#8DD8ED"/>
<path fill-rule="evenodd" clip-rule="evenodd" d="M110.729 120.97C110.533 120.88 110.337 120.79 110.144 120.701C110.341 120.791 110.535 120.881 110.729 120.97Z" fill="#296F63"/>
<path fill-rule="evenodd" clip-rule="evenodd" d="M108.093 162.578C107.799 162.382 107.505 162.187 107.214 161.992C107.509 162.188 107.801 162.383 108.093 162.578Z" fill="#296F63"/>
<path fill-rule="evenodd" clip-rule="evenodd" d="M156.033 118.345C155.579 117.835 156.025 117.885 156.428 117.759C156.296 117.956 156.164 118.151 156.033 118.345Z" fill="#0C4569"/>
<path fill-rule="evenodd" clip-rule="evenodd" d="M41.8895 264.227C41.5961 264.325 41.3024 264.423 41.0107 264.52C41.3047 264.422 41.5971 264.324 41.8895 264.227Z" fill="#8DD8ED"/>
<path fill-rule="evenodd" clip-rule="evenodd" d="M165.336 141.781C165.42 142 165.67 142.208 165.352 142.367C165.293 142.155 165.087 141.949 165.336 141.781Z" fill="#8DD8ED"/>
<path fill-rule="evenodd" clip-rule="evenodd" d="M4.39355 356.208C4.54366 356.405 4.83761 356.539 4.59216 356.794C4.52595 356.598 4.45975 356.404 4.39355 356.208Z" fill="#8DD8ED"/>
<path fill-rule="evenodd" clip-rule="evenodd" d="M285.555 136.177C285.36 136.192 285.319 136.145 285.379 135.96C285.577 135.943 285.607 135.99 285.555 136.177Z" fill="#A5D255"/>
<path fill-rule="evenodd" clip-rule="evenodd" d="M120.688 100.396L121.274 100.265C121.079 100.309 120.884 100.353 120.688 100.396Z" fill="#296F63"/>
<path fill-rule="evenodd" clip-rule="evenodd" d="M220.628 242.55C220.694 242.355 220.76 242.159 220.826 241.964C220.76 242.16 220.694 242.355 220.628 242.55Z" fill="#296F63"/>
<path fill-rule="evenodd" clip-rule="evenodd" d="M119.772 167.725C119.7 167.737 119.628 167.748 119.558 167.76C119.624 167.624 119.667 167.615 119.772 167.725Z" fill="#296F63"/>
<path fill-rule="evenodd" clip-rule="evenodd" d="M285.871 136.782C285.656 136.799 285.598 136.731 285.645 136.524C285.858 136.513 285.916 136.57 285.871 136.782Z" fill="#A5D255"/>
<path fill-rule="evenodd" clip-rule="evenodd" d="M117.437 111.022C117.489 111.204 117.397 111.292 117.201 111.315C117.16 111.133 117.237 111.036 117.437 111.022Z" fill="#A5D255"/>
<path fill-rule="evenodd" clip-rule="evenodd" d="M108.295 163.125C108.13 163.11 108.094 163.063 108.166 162.911C108.361 162.921 108.394 162.946 108.295 163.125Z" fill="#296F63"/>
<path fill-rule="evenodd" clip-rule="evenodd" d="M157.306 117.174C157.501 117.076 157.696 116.979 157.892 116.881C157.696 116.979 157.501 117.076 157.306 117.174Z" fill="#0C4569"/>
<path fill-rule="evenodd" clip-rule="evenodd" d="M177.411 169.996C177.504 170.149 177.467 170.136 177.317 170.109C177.268 169.969 177.252 169.945 177.411 169.996Z" fill="#8DD8ED"/>
<path fill-rule="evenodd" clip-rule="evenodd" d="M1.014 300.258C1.10671 300.461 1.27669 300.641 1.07982 300.844C0.97537 300.626 0.721839 300.448 1.014 300.258Z" fill="#8DD8ED"/>
<path fill-rule="evenodd" clip-rule="evenodd" d="M165.839 144.241C165.911 144.226 165.983 144.211 166.056 144.197C165.952 144.262 165.846 144.464 165.839 144.241Z" fill="#8DD8ED"/>
<path fill-rule="evenodd" clip-rule="evenodd" d="M8.49609 374.663C8.59389 374.859 8.69146 375.054 8.78903 375.249C8.69123 375.053 8.59366 374.858 8.49609 374.663Z" fill="#8DD8ED"/>
<path fill-rule="evenodd" clip-rule="evenodd" d="M109.504 120.086C109.18 119.985 109.191 119.958 109.501 119.827C109.575 119.914 109.577 119.997 109.504 120.086Z" fill="#296F63"/>
<path fill-rule="evenodd" clip-rule="evenodd" d="M284.685 135.317C284.466 135.334 284.423 135.264 284.477 135.059C284.695 135.058 284.758 135.098 284.685 135.317Z" fill="#A5D255"/>
<path fill-rule="evenodd" clip-rule="evenodd" d="M109.659 117.76C109.611 117.536 109.416 117.308 109.75 117.174C109.797 117.398 109.993 117.625 109.659 117.76Z" fill="#296F63"/>
<path fill-rule="evenodd" clip-rule="evenodd" d="M12.3037 381.108C12.4994 381.303 12.6949 381.498 12.8896 381.694C12.6942 381.498 12.4991 381.303 12.3037 381.108Z" fill="#8DD8ED"/>
<path fill-rule="evenodd" clip-rule="evenodd" d="M154.669 116.295C154.767 116.393 154.865 116.491 154.962 116.588C154.864 116.49 154.767 116.393 154.669 116.295Z" fill="#0C4569"/>
<path fill-rule="evenodd" clip-rule="evenodd" d="M216.569 253.794C216.569 253.794 216.683 253.86 216.682 253.861C216.681 253.862 216.569 253.794 216.569 253.794Z" fill="#161515"/>
<path fill-rule="evenodd" clip-rule="evenodd" d="M47.9974 259.621C47.9755 259.798 47.9471 259.832 47.793 259.724C47.8182 259.58 47.8677 259.558 47.9974 259.621Z" fill="#8DD8ED"/>
<path fill-rule="evenodd" clip-rule="evenodd" d="M11.7986 367.437C14.3791 345.614 55.0312 359.101 33.5139 375.576C24.7193 379.839 19.9201 364.96 28.4295 361.97C32.477 360.429 36.7553 366.834 32.8861 369.021C27.3698 368.498 33.7421 366.848 31.7729 365.111C29.1035 362.925 26.1958 365.528 26.5255 368.823C27.7887 376.941 38.862 370.833 36.0754 364.658C32.2719 354.592 11.6665 359.153 15.5465 370.316C23.7475 390.704 51.7836 381.499 41.6343 360.563C35.2867 348.613 20.1561 352.633 12.4601 360.893C9.32291 360.162 16.9905 353.821 19.4602 352.532C34.2818 343.108 52.6993 359.513 46.9705 375.24C39.6586 393.495 11.8068 385.217 11.7986 367.437Z" fill="#8DD8ED"/>
<path fill-rule="evenodd" clip-rule="evenodd" d="M154.388 309.761C174.553 308.223 168.647 342.503 151.291 335.369C142.341 331.615 147.27 310.061 157.468 317.61C160.523 320.276 160.034 328.777 154.752 326.139C153.453 323.772 157.115 324.519 157.173 322.73C157.24 320.781 155.926 318.647 154.163 318.28C143.749 320.629 153.062 341.233 161.336 328.901C173.125 312.75 144.849 305.818 139.662 321.886C135.162 336.115 150.479 343.917 161.863 337.003C165.041 334.373 169.299 331.241 166.174 337.805C159.874 345.079 149.892 343.936 141.577 341.281C128.964 330.963 137.911 307.694 154.388 309.761Z" fill="#8DD8ED"/>
<path fill-rule="evenodd" clip-rule="evenodd" d="M104.111 247.793C103.819 246.937 103.461 247.627 102.95 247.875C103.186 248.433 103.685 247.871 104.111 247.793ZM99.6018 251.098C99.9792 260.543 111.29 251.217 109.187 245.546C106.061 236.17 90.1183 239.47 92.5735 250.102C89.9262 268.952 119.225 268.476 118.327 250.529C118.459 249.653 119.221 249.598 119.687 250.274C122.781 255.615 119.993 262.554 114.888 265.438C100.176 276.063 82.9451 260.437 89.6734 244.098C94.565 231.561 115.489 236.794 112.683 250.473C110.4 255.343 105.316 261.229 99.2062 258.52C95.5296 255.153 94.4548 244.816 99.7752 242.457C111.203 241.455 105.915 255.011 100.628 249.366C100.291 247.34 101.986 246.826 103.539 246.178C98.7306 243.894 99.1148 247.85 99.6018 251.098Z" fill="#8DD8ED"/>
<path fill-rule="evenodd" clip-rule="evenodd" d="M86.8476 321.578C88.3264 322.953 88.9587 320.246 90.2944 320.593C69.6406 322.286 81.1463 287.474 94.0209 305.76C95.5191 309.523 92.2094 317.345 87.7021 314.763C85.4787 312.742 85.7449 306.173 88.9517 305.745C88.2717 307.872 87.4642 309.774 88.1243 312.077C92.7652 318.95 96.1304 296.191 83.0015 303.92C71.8295 324.529 110.447 319.02 96.7964 301.825C79.1801 287.415 59.7654 322.981 86.8476 321.578ZM87.4591 325.417C61.0335 326.632 66.8988 293.869 89.8687 295.64C110.175 296.936 103.576 322.603 87.4591 325.417Z" fill="#8DD8ED"/>
<path fill-rule="evenodd" clip-rule="evenodd" d="M172.114 283.612C179.246 294.061 130.642 298.828 139.685 270.413C139.636 258.477 164.403 254.353 148.446 262.898C128.864 279.169 154.642 297.408 172.114 283.612Z" fill="#8DD8ED"/>
<path fill-rule="evenodd" clip-rule="evenodd" d="M103.405 226.952C106.991 224.474 125.836 231.53 129.121 236.058C131.128 236.272 132.819 235.473 133.286 237.636C134.037 240.019 136.593 241.614 138.924 242.526C140.129 242.715 138.671 243.316 138.963 243.668C140.145 244.981 141.399 246.027 138.729 245.603C138.144 245.57 136.556 246.401 137.906 244.653C137.993 244.54 137.699 243.994 137.46 243.796C134.217 241.928 131.828 237.313 127.695 238.138C126.783 238.299 126.348 238.012 127.007 237.105C128.898 233.832 113.927 229.311 111.282 229.215C108.63 227.653 106.506 227.326 103.405 226.952Z" fill="#296F63"/>
<path fill-rule="evenodd" clip-rule="evenodd" d="M132.113 288.047C132.128 294.14 120.689 288.605 117.104 288.059C113.449 282.897 130.348 285.31 132.113 288.047Z" fill="#8DD8ED"/>
<path fill-rule="evenodd" clip-rule="evenodd" d="M77.3121 343.905C81.4248 344.352 77.1859 349.603 76.7164 351.808C76.3145 355.184 70.9179 360.415 71.1928 354.182C72.597 350.521 74.5315 346.506 77.3121 343.905Z" fill="#8DD8ED"/>
<path fill-rule="evenodd" clip-rule="evenodd" d="M186.307 326.425C185.765 329.575 183.785 344.179 180.463 334.469C180.155 331.32 184.744 318.046 186.307 326.425Z" fill="#8DD8ED"/>
<path fill-rule="evenodd" clip-rule="evenodd" d="M28.2436 326.622C31.7818 327.028 43.4855 332.349 36.4674 335.117C34.2311 332.869 24.9258 330.655 28.2436 326.622Z" fill="#8DD8ED"/>
<path fill-rule="evenodd" clip-rule="evenodd" d="M123.201 342.147C119.99 340.053 112.378 337.393 113.472 332.963C114.65 331.294 129.607 341.144 123.201 342.147Z" fill="#8DD8ED"/>
<path fill-rule="evenodd" clip-rule="evenodd" d="M150.445 372.017C145.869 372.334 145.365 365.281 145.655 361.67C148.838 356.014 151.137 369.673 150.445 372.017Z" fill="#8DD8ED"/>
<path fill-rule="evenodd" clip-rule="evenodd" d="M70.949 283.279C70.8534 282.152 68.3945 278.767 70.7064 278.322C74.0976 277.599 77.4845 288.519 72.3922 286.914C70.9977 286.161 70.1607 285.227 70.949 283.279Z" fill="#8DD8ED"/>
<path fill-rule="evenodd" clip-rule="evenodd" d="M152.327 257.783C148.272 256.275 144.703 250.04 141.488 246.651C145.406 249.85 151.095 252.863 152.327 257.783Z" fill="#296F63"/>
<path fill-rule="evenodd" clip-rule="evenodd" d="M15.2328 359.696C13.2064 364.318 8.14963 369.782 11.2163 360.614C13.1522 361.63 13.9154 357.742 15.2328 359.696Z" fill="#296F63"/>
<path fill-rule="evenodd" clip-rule="evenodd" d="M99.5693 251.045C99.0988 247.814 98.7249 243.882 103.382 246.153C99.8857 246.788 99.5149 251.064 103.406 250.871C102.126 250.93 100.848 250.987 99.5693 251.045Z" fill="#296F63"/>
<path fill-rule="evenodd" clip-rule="evenodd" d="M87.2944 361.787C86.1573 366.085 80.2694 359.539 85.0187 358.898C87.391 358.399 85.0833 361.599 87.2944 361.787Z" fill="#296F63"/>
<path fill-rule="evenodd" clip-rule="evenodd" d="M61.1227 283.561C61.8974 284.591 62.7679 285.632 61.3328 286.197C59.4866 285.271 59.0762 284.929 61.1227 283.561Z" fill="#8DD8ED"/>
<path fill-rule="evenodd" clip-rule="evenodd" d="M96.3756 272.509C94.9313 273.138 93.7578 274.774 92.8604 273.288C93.9948 271.237 94.286 270.345 96.3756 272.509Z" fill="#296F63"/>
<path fill-rule="evenodd" clip-rule="evenodd" d="M81.407 268.79C81.0242 271.041 77.5008 267.255 79.9559 266.878C81.4136 266.74 81.5092 267.646 81.407 268.79Z" fill="#296F63"/>
<path fill-rule="evenodd" clip-rule="evenodd" d="M111.022 304.679C109.676 305.474 108.439 306.887 108.386 304.496C108.84 303.963 111.06 303.092 111.022 304.679Z" fill="#296F63"/>
<path fill-rule="evenodd" clip-rule="evenodd" d="M125.083 238.99C123.796 240.859 123.429 239.436 122.153 238.684C123.3 237.146 123.824 238.075 125.083 238.99Z" fill="#296F63"/>
<path fill-rule="evenodd" clip-rule="evenodd" d="M87.1989 361.775C85.6906 361.535 86.2867 360.004 86.123 358.846C87.2491 359.501 88.1246 360.261 87.1989 361.775Z" fill="#8DD8ED"/>
<path fill-rule="evenodd" clip-rule="evenodd" d="M72.1807 341.269C73.968 342.651 72.2039 342.883 70.981 343.613C69.1907 343.18 71.4379 342.133 72.1807 341.269Z" fill="#296F63"/>
<path fill-rule="evenodd" clip-rule="evenodd" d="M40.7175 310.036C39.2957 310.727 38.6166 311.335 38.0811 310.059C38.8202 308.461 39.364 308.987 40.7175 310.036Z" fill="#8DD8ED"/>
<path fill-rule="evenodd" clip-rule="evenodd" d="M64.6744 284.733C63.888 283.474 65.3159 283.133 66.2143 282.682C68.3255 283.139 66.1018 283.768 64.6744 284.733Z" fill="#296F63"/>
<path fill-rule="evenodd" clip-rule="evenodd" d="M78.8802 261.005C77.5279 260.088 78.4878 259.726 79.5188 259.247C81.0594 259.721 79.8935 260.365 78.8802 261.005Z" fill="#296F63"/>
<path fill-rule="evenodd" clip-rule="evenodd" d="M111.021 304.652C111.466 305.204 112.451 305.596 111.5 306.117C111.337 305.639 111.193 305.092 111.021 304.652Z" fill="#296F63"/>
<path fill-rule="evenodd" clip-rule="evenodd" d="M141.46 246.944C141.213 246.493 139.931 245.876 140.428 245.479C140.679 245.946 141.658 246.479 141.46 246.944Z" fill="#296F63"/>
<path fill-rule="evenodd" clip-rule="evenodd" d="M11.9417 367.34C11.8895 367.536 11.8377 367.731 11.7861 367.926C11.838 367.73 11.8898 367.536 11.9417 367.34Z" fill="#296F63"/>
<path fill-rule="evenodd" clip-rule="evenodd" d="M150.568 372.027C150.764 371.832 150.959 371.636 151.154 371.441C150.959 371.637 150.764 371.832 150.568 372.027Z" fill="#296F63"/>
<path fill-rule="evenodd" clip-rule="evenodd" d="M267.632 317.881C304.501 315.001 277.882 321.667 290.228 343.972C302.818 357.03 295.994 350.779 300.794 367.141C301.494 370.531 294.574 367.616 292.584 368.071C289.219 369.953 288.209 367.175 286.725 365.213C284.579 362.509 282.769 359.465 279.564 357.928C278.807 357.296 277.926 357.011 279.205 355.434C284.463 349.622 282.738 341.611 278.578 335.144C277.995 332.159 277.823 329.238 275.373 327.12C274.781 323.165 264.903 319.918 267.632 317.881Z" fill="#A5D255"/>
<path fill-rule="evenodd" clip-rule="evenodd" d="M246.713 378.038C245.842 371.367 254.631 372.409 258.962 369.405C264.085 366.372 269.749 363.822 274.341 360.068C278.421 355.791 283.856 363.862 285.859 367.061C286.87 370.735 271.096 370.982 267.895 375.28C263.346 378.338 258.804 381.454 255.956 386.412C251.738 392.204 246.509 381.892 246.713 378.038Z" fill="#A5D255"/>
<path fill-rule="evenodd" clip-rule="evenodd" d="M154.628 259.833C156.176 261.185 157.388 263.172 154.514 263.447C140.374 268.398 155.673 287.02 167.365 276.357C181.596 287.712 150.692 293.317 144.813 283.435C137.506 273.893 144.435 262.881 154.628 259.833Z" fill="#0C4569"/>
<path fill-rule="evenodd" clip-rule="evenodd" d="M280.63 345.659C280.366 349.631 277.941 355.328 273.763 355.235C266.45 353.811 259.178 354.113 251.907 355.459C249.776 355.853 249.654 355.67 250.051 353.39C248.8 347.013 261.53 349.357 265.827 346.6C274.276 345.787 277.737 331.687 280.63 345.659Z" fill="#A5D255"/>
<path fill-rule="evenodd" clip-rule="evenodd" d="M263.42 355.916C265.703 356.724 274.11 355.745 271.708 358.567C263.934 363.127 255.967 368.548 247.382 371.149C246.638 371.052 246.164 370.738 246.434 369.645C247.099 355.445 251.522 357.688 263.42 355.916Z" fill="#A5D255"/>
<path fill-rule="evenodd" clip-rule="evenodd" d="M262.649 334.241C294.668 333.962 251.543 352.089 251.631 344.305C252.383 337.637 255.783 334.332 262.649 334.241Z" fill="#A5D255"/>
<path fill-rule="evenodd" clip-rule="evenodd" d="M267.588 331.608C255.039 333.46 249.985 334.085 259.509 321.25C267.16 315.933 285.212 339.869 267.588 331.608Z" fill="#A5D255"/>
<path fill-rule="evenodd" clip-rule="evenodd" d="M167.191 276.378C159.831 282.857 147.538 278.696 148.917 267.877C149.209 263.309 154.91 264.88 156.252 261.884C158.795 262.498 159.834 264.297 160.068 266.731C157.876 265.741 155.396 265.095 153.116 266.35C149.646 268.429 152.082 274.366 154.993 275.602C160.331 278.323 164.328 273.278 169.316 271.992C168.126 273.762 166.524 273.517 167.191 276.378Z" fill="#8DD8ED"/>
<path fill-rule="evenodd" clip-rule="evenodd" d="M316.956 386.967C313.042 383.238 308.364 379.381 306.703 374.078C311.826 376.383 315.288 381.539 316.956 386.967Z" fill="#A5D255"/>
<path fill-rule="evenodd" clip-rule="evenodd" d="M305.716 373.177C305.427 373.107 305.604 373.034 305.793 372.927C305.767 373.011 305.742 373.094 305.716 373.177Z" fill="#A5D255"/>
<path fill-rule="evenodd" clip-rule="evenodd" d="M166.413 199.685C169.751 202.297 169.359 197.818 170.963 197.438C172.441 199.211 169.316 201.169 168.896 202.956C169.203 203.94 171.214 204.521 172.384 203.986C174.241 204.261 175.505 206.855 173.754 207.984C172.451 207.681 171.705 205.282 170.169 206.888C169.176 206.484 168.493 205.218 167.078 205.958C166.721 205.16 165.997 204.324 166.077 203.572C166.298 201.522 165.165 202.015 164.044 202.277C164.059 200.726 164.268 199.346 166.413 199.685Z" fill="#296F63"/>
<path fill-rule="evenodd" clip-rule="evenodd" d="M161.364 205.901C161.926 205.936 162.933 206.125 162.983 205.98C163.722 204.219 166.105 206.561 165.768 207.803C164.62 209.673 163.857 206.9 162.417 210.762C162.241 210.956 162.019 211.107 161.817 211.278C160.346 209.036 159.816 211.61 158.833 211.864C154.555 213.257 160.534 207.676 161.364 205.901Z" fill="#8DD8ED"/>
<path fill-rule="evenodd" clip-rule="evenodd" d="M182.022 188.357C182.097 189.696 181.842 191.745 183.659 190.284C186.902 187.874 185.199 193.977 182.434 192.09C178.987 191.45 181.972 191.657 181.356 189.289C181.277 189.108 181.785 188.674 182.022 188.357Z" fill="#8DD8ED"/>
<path fill-rule="evenodd" clip-rule="evenodd" d="M220.58 241.266C219.264 243.198 219.039 241.906 217.943 240.76C218.979 239.575 219.507 240.554 220.58 241.266Z" fill="#296F63"/>
<path fill-rule="evenodd" clip-rule="evenodd" d="M156.652 212.124C159.265 211.771 158.156 213.934 156.167 213.84C155.566 212.989 155.839 212.457 156.652 212.124Z" fill="#296F63"/>
<path fill-rule="evenodd" clip-rule="evenodd" d="M118.932 62.3953C118.736 61.8093 118.541 61.2237 118.346 60.6377C118.541 61.2239 118.736 61.8096 118.932 62.3953Z" fill="#8DD8ED"/>
<path fill-rule="evenodd" clip-rule="evenodd" d="M164.044 202.418C163.849 202.614 163.654 202.809 163.458 203.004C163.653 202.809 163.848 202.614 164.044 202.418Z" fill="#296F63"/>
<path fill-rule="evenodd" clip-rule="evenodd" d="M179.862 191.799C179.667 191.759 179.471 191.719 179.276 191.679C179.5 191.62 179.695 191.66 179.862 191.799Z" fill="#8DD8ED"/>
<path fill-rule="evenodd" clip-rule="evenodd" d="M25.1452 206.888C26.0748 206.749 28.0093 203.994 25.8134 205.297C25.7626 205.333 24.9675 204.332 24.5732 203.775C24.0111 202.98 24.4287 202.84 25.1821 202.518C25.6358 202.323 23.9469 201.318 25.3437 200.546C26.4935 198.832 27.9357 199.745 29.2934 199.634C26.9132 201.562 32.4322 209.46 25.1452 206.888Z" fill="#296F63"/>
<path fill-rule="evenodd" clip-rule="evenodd" d="M40.0608 188.943C41.2522 189.226 44.6344 189.14 42.2028 190.106C40.5349 191.712 39.2316 196.848 36.6836 193.266C34.3443 191.97 35.6724 190.432 37.7527 191.754C36.3357 189.665 38.4922 189.682 40.0608 188.943Z" fill="#A5D255"/>
<path fill-rule="evenodd" clip-rule="evenodd" d="M22.5557 194.048C23.8624 194.56 26.7709 192.767 25.9163 195.414C25.0184 199.329 23.9189 195.596 22.5557 194.048Z" fill="#296F63"/>
<path fill-rule="evenodd" clip-rule="evenodd" d="M37.2185 190.29C39.2544 193.941 35.1476 189.497 35.4382 192.458C31.7558 192.489 37.4957 188.458 30.7568 189.67C33.0297 188.662 35.2147 188.558 37.2185 190.29Z" fill="#296F63"/>
<path fill-rule="evenodd" clip-rule="evenodd" d="M62.5192 191.287C61.9648 186.848 61.6745 185.266 63.5672 190.348C63.2182 190.661 62.8688 190.974 62.5192 191.287Z" fill="#296F63"/>
<path fill-rule="evenodd" clip-rule="evenodd" d="M61.7704 186.892C61.6986 186.306 61.6268 185.72 61.5557 185.135C61.6274 185.721 61.6989 186.307 61.7704 186.892Z" fill="#296F63"/>
<path fill-rule="evenodd" clip-rule="evenodd" d="M24.3135 205.933C24.5094 206.129 24.7053 206.325 24.8993 206.519C24.7028 206.322 24.5081 206.128 24.3135 205.933Z" fill="#296F63"/>
<path fill-rule="evenodd" clip-rule="evenodd" d="M61.9267 195.68C61.7776 195.587 61.7709 195.489 61.9064 195.387C62.0293 195.52 62.2676 195.629 61.9267 195.68Z" fill="#296F63"/>
<path fill-rule="evenodd" clip-rule="evenodd" d="M90.8096 380.023C90.7736 369.306 106.175 361.88 114.641 368.205C118.119 369.214 121.715 383.066 116.878 381.609C116.721 370.473 97.2314 373.399 98.3587 383.224C98.8868 385.457 98.4943 385.795 96.2139 385.944C89.3818 386.63 91.2427 384.901 90.8096 380.023Z" fill="#0C4569"/>
<path fill-rule="evenodd" clip-rule="evenodd" d="M155.578 71.9488C154.727 67.1388 172.475 69.6098 159.288 71.191C160.711 71.6406 161.995 72.0464 163.279 72.4519C162.892 73.1975 162.633 74.0198 163.863 73.9801C166.257 74.1348 167.19 72.0665 164.551 71.8945C165.649 69.8369 166.503 71.116 167.851 72.2465C165.557 74.0116 167.288 76.186 164.597 75.8315C163.649 73.4349 163.05 76.514 161.848 75.4825C161.275 74.2641 161.868 72.1974 160.071 73.2094C158.348 73.3376 157.005 71.6552 155.578 71.9488Z" fill="#8DD8ED"/>
<path fill-rule="evenodd" clip-rule="evenodd" d="M154.897 71.4761C155.173 73.0481 154.588 73.7804 152.912 73.4479C153.574 72.7906 154.236 72.1331 154.897 71.4761Z" fill="#8DD8ED"/>
<path fill-rule="evenodd" clip-rule="evenodd" d="M93.6665 167.559C95.1886 167.632 95.3628 168.212 95.1063 169.609C93.6696 169.427 93.0906 169.075 93.6665 167.559Z" fill="#8DD8ED"/>
<path fill-rule="evenodd" clip-rule="evenodd" d="M182.143 171.074C181.65 170.699 182.031 170.789 182.498 170.794C182.386 170.891 182.268 170.985 182.143 171.074Z" fill="#161515"/>
<path fill-rule="evenodd" clip-rule="evenodd" d="M15.2324 359.786C18.0042 351.564 37.1308 349.684 41.4815 360.423C47.8422 370.285 39.3312 385.387 27.133 381.301C1.47879 370.045 23.6919 348.231 35.9549 364.507C38.7213 376.329 19.7145 373.494 28.7191 364.226C36.6971 364.496 26.7254 368.704 32.7807 368.862C36.6277 366.678 32.3753 360.288 28.3472 361.826C23.4328 363.633 22.3767 370.542 25.9994 374.214C45.8696 383.818 43.487 342.421 15.2324 359.786Z" fill="#0C4569"/>
<path fill-rule="evenodd" clip-rule="evenodd" d="M20.2129 357.087C20.6038 356.794 20.994 356.501 21.3846 356.208C20.9938 356.502 20.6035 356.794 20.2129 357.087Z" fill="#296F63"/>
<path fill-rule="evenodd" clip-rule="evenodd" d="M21.9697 356.066C22.2629 356.063 22.5564 356.06 22.8485 356.058C22.5548 356.06 22.2621 356.063 21.9697 356.066Z" fill="#296F63"/>
<path fill-rule="evenodd" clip-rule="evenodd" d="M23.7275 355.745C24.0206 355.762 24.3141 355.778 24.6063 355.793C24.3128 355.776 24.0203 355.761 23.7275 355.745Z" fill="#296F63"/>
<path fill-rule="evenodd" clip-rule="evenodd" d="M104.284 247.729C103.854 247.822 103.351 248.487 103.112 247.826C103.628 247.532 103.989 246.716 104.284 247.729Z" fill="#296F63"/>
<path fill-rule="evenodd" clip-rule="evenodd" d="M86.6742 321.602C59.5506 322.994 79.0125 287.577 96.636 301.932C110.295 319.071 71.6384 324.528 82.8242 304.015C95.9785 296.324 92.5902 318.986 87.9505 312.141C87.2905 309.846 88.1008 307.951 88.7813 305.834C85.5711 306.26 85.3032 312.801 87.5298 314.814C92.0449 317.383 95.3522 309.599 93.8539 305.85C81.9835 290.017 70.6658 314.794 86.6742 321.602Z" fill="#0C4569"/>
<path fill-rule="evenodd" clip-rule="evenodd" d="M86.7589 321.542C86.3005 319.715 89.0581 320.845 90.2232 320.553C88.8807 320.205 88.2452 322.921 86.7589 321.542Z" fill="#296F63"/>
<path fill-rule="evenodd" clip-rule="evenodd" d="M164.922 273.868C154.433 284.875 143.824 261.17 160.235 266.889C160.407 267.407 160.835 268.004 160.707 268.427C159.314 271.29 166.643 270.883 164.384 273.621C164.594 273.663 164.839 273.628 164.922 273.868Z" fill="#0C4569"/>
<path fill-rule="evenodd" clip-rule="evenodd" d="M157.018 235.53C159.891 232.852 159.424 228.976 155.104 231.904C155.847 232.616 157.304 232.83 156.662 234.011C151.508 235.618 151.984 229.738 156.16 229.889C155.556 229.025 154.659 229.243 153.755 229.271C154.157 228.226 153.542 225.642 155.11 225.801C158.897 226.957 154.569 227.711 159.032 229.67C159.69 228.526 160.289 223.386 161.081 224.561C160.381 226.909 163.114 225.705 160.874 229.096C160.776 230.198 161.384 229.997 161.993 229.508C161.809 231.324 161.107 233.17 160.941 234.905C160.772 235.11 160.594 235.31 160.429 235.518C159.362 236.976 158.307 236.365 157.018 235.53Z" fill="#161515"/>
<path fill-rule="evenodd" clip-rule="evenodd" d="M161.412 212.203C162.499 213.32 163.53 213.851 165.03 212.632C167.508 210.611 171.557 214.832 166.858 214.961C165.761 215.588 166.28 215.899 167.259 216.197C166.556 217.238 166.314 219.17 164.314 217.711C163.523 215.388 162.524 215.013 160.386 216.23C158.801 215.522 162.02 212.613 161.412 212.203Z" fill="#296F63"/>
<path fill-rule="evenodd" clip-rule="evenodd" d="M180.911 208.38C180.816 208.587 180.58 208.756 180.875 208.917C180.969 208.708 181.216 208.537 180.911 208.38ZM183.085 211.486C180.069 211.776 180.13 212.204 177.95 214.135C177.017 213.188 176.484 210.853 177.434 209.684C177.379 210.883 178.539 210.606 179.034 210.091C180.364 203.47 181.587 207.316 183.085 211.486Z" fill="#8DD8ED"/>
<path fill-rule="evenodd" clip-rule="evenodd" d="M193.19 200.201C193.408 205.869 197.507 201.947 196.353 206.48C193.938 207.177 191.835 198.144 190.579 202.96C189.837 205.954 189.525 203.212 188.967 201.896C188.476 200.719 195.128 197.604 193.19 200.201Z" fill="#296F63"/>
<path fill-rule="evenodd" clip-rule="evenodd" d="M172.339 204.197C167.127 205.889 169.653 199.124 172.475 198.902C172.967 199.849 173.574 201.693 174.895 201.112C176.031 199.738 176.317 201.277 176.932 201.651C176.371 204.374 172.429 200.758 172.339 204.197Z" fill="#8DD8ED"/>
<path fill-rule="evenodd" clip-rule="evenodd" d="M160.821 234.83C161.76 233.915 164.788 234.393 165.508 232.004C165.528 233.605 164.685 240.405 162.835 236.846C162.507 235.784 162.927 234.001 160.821 234.83Z" fill="#296F63"/>
<path fill-rule="evenodd" clip-rule="evenodd" d="M169.337 214.282C166.242 211.35 172.199 213.023 171.269 209.741C172.774 213.162 174.574 214.975 169.337 214.282Z" fill="#A5D255"/>
<path fill-rule="evenodd" clip-rule="evenodd" d="M177.226 201.54C176.59 201.168 176.295 199.639 175.119 201.004C168.981 199.298 177.131 194.976 177.226 201.54Z" fill="#296F63"/>
<path fill-rule="evenodd" clip-rule="evenodd" d="M189.114 189.822C193.201 190.272 190.086 193.089 192.75 195.631C191.153 196.267 187.328 190.607 189.114 189.822Z" fill="#8DD8ED"/>
<path fill-rule="evenodd" clip-rule="evenodd" d="M160.956 224.684C160.16 222.568 163.117 219.6 163.686 223.011C166.984 225.063 162.85 225.28 160.956 224.684Z" fill="#8DD8ED"/>
<path fill-rule="evenodd" clip-rule="evenodd" d="M160.297 216.277C163.472 213.699 166.143 219.403 161.69 218.128C160.003 219.143 160.2 218.128 160.297 216.277Z" fill="#8DD8ED"/>
<path fill-rule="evenodd" clip-rule="evenodd" d="M197.73 189.525C199.007 187.84 204.324 185.922 203.853 189.514C203.196 189.253 202.571 191.117 201.735 189.333C200.755 187.815 199.25 190.473 197.73 189.525Z" fill="#8DD8ED"/>
<path fill-rule="evenodd" clip-rule="evenodd" d="M164.044 218.479C165.611 217.697 166.232 219.316 167.271 216.402C169.324 216.778 168.501 214.572 169.265 214.729C169.804 216.069 165.994 223.451 165.857 219.356C165.488 218.942 164.066 219.335 164.044 218.479Z" fill="#A5D255"/>
<path fill-rule="evenodd" clip-rule="evenodd" d="M197.662 189.258C199.964 188.976 198.913 191.42 199.182 192.94C196.625 193.55 195.594 191.345 197.662 189.258Z" fill="#296F63"/>
<path fill-rule="evenodd" clip-rule="evenodd" d="M194.215 184.637C193.319 185.15 194.611 186.467 192.722 186.29C191.304 186.158 190.913 185.393 191.006 184.679C191.59 183.742 193.359 182.997 194.215 184.637Z" fill="#8DD8ED"/>
<path fill-rule="evenodd" clip-rule="evenodd" d="M157.431 219.994C158.829 220.669 161.592 220.142 159.447 221.717C159.723 224.905 156.658 222.373 157.431 219.994Z" fill="#A5D255"/>
<path fill-rule="evenodd" clip-rule="evenodd" d="M161.407 212.248C161.399 212.848 160.713 214.233 159.601 215.893C157.802 213.319 157.997 210.717 161.407 212.248Z" fill="#161515"/>
<path fill-rule="evenodd" clip-rule="evenodd" d="M160.797 224.681C162.412 224.871 166.632 224.803 164.167 227.024C163.241 225.585 159.506 227.16 160.797 224.681Z" fill="#296F63"/>
<path fill-rule="evenodd" clip-rule="evenodd" d="M157.266 220.169C157.325 221.363 157.562 225.43 155.592 223.088C154.835 221.207 155.341 219.419 157.266 220.169Z" fill="#296F63"/>
<path fill-rule="evenodd" clip-rule="evenodd" d="M168.615 228.489C168.068 227.102 166.805 226.149 168.175 224.974C170.288 226.067 170.494 226.744 168.615 228.489Z" fill="#8DD8ED"/>
<path fill-rule="evenodd" clip-rule="evenodd" d="M193.167 199.707C194.024 198.097 191.215 199.879 192.516 197.317C194.842 196.269 196.611 200.379 193.167 199.707Z" fill="#8DD8ED"/>
<path fill-rule="evenodd" clip-rule="evenodd" d="M198.86 186.306C196.831 185.848 196.779 185.761 197.791 184.495C199.222 183.623 200.842 185.346 198.86 186.306Z" fill="#8DD8ED"/>
<path fill-rule="evenodd" clip-rule="evenodd" d="M151.74 240.207C150.726 238.923 149.957 238.422 149.689 236.984C151.789 237.018 151.431 238.374 151.74 240.207Z" fill="#A5D255"/>
<path fill-rule="evenodd" clip-rule="evenodd" d="M193.337 199.803C194.249 199.846 195.214 199.977 195.272 198.609C198.823 201.169 193.967 201.731 193.337 199.803Z" fill="#A5D255"/>
<path fill-rule="evenodd" clip-rule="evenodd" d="M182.206 195.815C181.709 197.894 181.192 196.363 180.448 195.413C180.979 194.364 181.74 194.775 182.206 195.815Z" fill="#296F63"/>
<path fill-rule="evenodd" clip-rule="evenodd" d="M169.006 208.225C167.561 205.917 172.284 207.552 171.588 209.741C170.776 209.331 168.75 210.026 169.207 208.34C169.211 208.172 169.154 208.158 169.006 208.225Z" fill="#161515"/>
<path fill-rule="evenodd" clip-rule="evenodd" d="M156.784 235.52C157.216 235.934 158.846 236.265 157.889 236.685C156.948 239.165 156.556 237.217 156.784 235.52Z" fill="#296F63"/>
<path fill-rule="evenodd" clip-rule="evenodd" d="M197.146 193.091C198.751 192.919 199.909 193.247 201.54 193.722C199.708 193.854 198.424 194.333 197.146 193.091Z" fill="#A5D255"/>
<path fill-rule="evenodd" clip-rule="evenodd" d="M153.631 229.411C154.574 229.383 155.506 229.174 156.135 230.007C154.164 229.14 152.358 233.354 153.631 229.411Z" fill="#A5D255"/>
<path fill-rule="evenodd" clip-rule="evenodd" d="M172.539 218.822C172.011 219.235 171.453 220.724 171.074 219.555C171.55 219.306 172.104 219.081 172.539 218.822Z" fill="#8DD8ED"/>
<path fill-rule="evenodd" clip-rule="evenodd" d="M161.993 229.595C160.129 230.88 160.861 228.352 161.651 227.61C161.765 228.272 161.879 228.933 161.993 229.595Z" fill="#296F63"/>
<path fill-rule="evenodd" clip-rule="evenodd" d="M160.529 223.217C160.527 224.042 160.186 224.786 159.961 225.559C159.877 224.413 159.038 223.173 160.529 223.217Z" fill="#296F63"/>
<path fill-rule="evenodd" clip-rule="evenodd" d="M159.062 236.657C159.44 236.278 159.816 235.899 160.193 235.52C160.399 236.685 159.799 236.763 159.062 236.657Z" fill="#296F63"/>
<path fill-rule="evenodd" clip-rule="evenodd" d="M164.717 272.429C164.492 272.135 164.267 271.842 164.044 271.55C165.052 271.652 165.726 271.55 164.717 272.429Z" fill="#8DD8ED"/>
<path fill-rule="evenodd" clip-rule="evenodd" d="M164.047 218.823C165.143 218.808 164.47 219.124 163.844 219.408C163.182 219.219 163.452 218.965 164.047 218.823Z" fill="#8DD8ED"/>
<path fill-rule="evenodd" clip-rule="evenodd" d="M172.538 218.822C172.747 218.73 172.951 218.34 173.124 218.64C172.935 218.706 172.693 218.747 172.538 218.822Z" fill="#8DD8ED"/>
<path fill-rule="evenodd" clip-rule="evenodd" d="M168.758 217.65C169.26 217.723 168.928 218.244 168.729 217.694C168.73 217.694 168.758 217.65 168.758 217.65Z" fill="#A5D255"/>
<path fill-rule="evenodd" clip-rule="evenodd" d="M171.366 208.569C171.171 208.522 170.976 208.475 170.78 208.428C171.067 208.131 171.174 208.32 171.366 208.569Z" fill="#296F63"/>
<path fill-rule="evenodd" clip-rule="evenodd" d="M164.855 273.561C164.682 273.537 164.509 273.513 164.336 273.489C164.546 273.385 165.115 273.201 164.855 273.561Z" fill="#8DD8ED"/>
<path fill-rule="evenodd" clip-rule="evenodd" d="M198.459 194.075C198.459 194.075 198.469 194.063 198.468 194.063C198.468 194.064 198.459 194.075 198.459 194.075Z" fill="#A5D255"/>
<path fill-rule="evenodd" clip-rule="evenodd" d="M160.235 235.519C160.431 235.324 160.626 235.129 160.821 234.934C160.626 235.129 160.431 235.324 160.235 235.519Z" fill="#296F63"/>
<path fill-rule="evenodd" clip-rule="evenodd" d="M124.052 51.2633C122.738 49.6265 121.88 48.9786 124.133 48.041C125.415 48.7355 124.504 49.9303 124.052 51.2633Z" fill="#296F63"/>
<path fill-rule="evenodd" clip-rule="evenodd" d="M124.052 66.2031C124.273 67.3813 124.768 68.5318 124.307 69.7183C122.006 69.3275 122.517 67.016 124.052 66.2031Z" fill="#296F63"/>
<path fill-rule="evenodd" clip-rule="evenodd" d="M123.915 66.4538C124.011 66.3841 124.108 66.3143 124.204 66.2446C124.115 66.3255 123.877 66.3217 123.915 66.4538Z" fill="#296F63"/>
<path fill-rule="evenodd" clip-rule="evenodd" d="M169.903 207.085C168.469 207.635 167.665 207.542 166.974 206.134C168.258 205.565 169.086 206.308 169.903 207.085Z" fill="#A5D255"/>
<path fill-rule="evenodd" clip-rule="evenodd" d="M169.049 209.448C173.039 209.636 171.165 212.113 168.729 212.378C168.837 211.403 168.943 210.426 169.049 209.448Z" fill="#296F63"/>
<path fill-rule="evenodd" clip-rule="evenodd" d="M161.21 212.085C160.395 212.054 159.581 212.023 158.771 211.99C159.739 211.756 160.257 209.402 161.7 211.453C161.537 211.663 161.373 211.874 161.21 212.085Z" fill="#296F63"/>
<path fill-rule="evenodd" clip-rule="evenodd" d="M168.769 208.355C168.932 208.281 168.986 208.296 168.986 208.48C168.808 208.562 168.763 208.569 168.769 208.355Z" fill="#A5D255"/>
<path fill-rule="evenodd" clip-rule="evenodd" d="M57.7091 191.943C55.5343 196.485 56.1655 205.145 50.0928 206.226C50.9922 201.225 54.4409 196.788 54.3042 191.335C53.7777 188.169 57.4778 188.755 57.7091 191.943Z" fill="#161515"/>
<path fill-rule="evenodd" clip-rule="evenodd" d="M35.3728 198.609C37.5706 198.644 39.0718 203.931 36.2294 202.917C34.1839 201.041 34.2556 203.874 32.8871 204.761C30.1147 196.409 34.1273 202.028 35.3728 198.609Z" fill="#296F63"/>
<path fill-rule="evenodd" clip-rule="evenodd" d="M35.3533 198.61C33.6585 198.437 34.1328 196.773 35.5743 196.56C35.8902 197.294 35.7124 198.101 35.3533 198.61Z" fill="#A5D255"/>
<path fill-rule="evenodd" clip-rule="evenodd" d="M44.5139 196.449C44.0011 197.056 43.1683 197.281 42.53 197.731C42.066 197.008 44.7279 195.089 44.5139 196.449Z" fill="#8DD8ED"/>
<path fill-rule="evenodd" clip-rule="evenodd" d="M155.639 71.754C155.89 71.658 156.316 71.4211 156.366 71.4877C157.669 73.4243 160.751 71.8455 159.68 74.6745C161.595 78.9723 152.3 77.0718 156.239 75.7908C157.367 75.7137 157.221 74.8243 156.958 73.976C154.564 74.487 156.337 72.3296 155.639 71.754Z" fill="#296F63"/>
<path fill-rule="evenodd" clip-rule="evenodd" d="M155.776 77.416C159.571 76.9426 156.975 78.6301 158.77 79.9043C158.384 81.1073 154.592 79.0392 155.776 77.416Z" fill="#8DD8ED"/>
<path fill-rule="evenodd" clip-rule="evenodd" d="M163.507 72.248C164.314 71.6639 166.756 71.3166 166.34 73.0303C165.859 73.95 162.014 74.472 163.507 72.248Z" fill="#296F63"/>
<path fill-rule="evenodd" clip-rule="evenodd" d="M156.894 232.956C153.457 231.551 157.464 229.919 159.356 231.448C158.598 232.814 158.317 234.935 156.894 232.956Z" fill="#8DD8ED"/>
<path fill-rule="evenodd" clip-rule="evenodd" d="M168.576 214.428C169.353 216.449 167.005 216.476 165.801 215.759C166.448 214.828 167.551 214.728 168.576 214.428Z" fill="#161515"/>
</svg>
