<svg width="134" height="156" viewBox="0 0 134 156" fill="none" xmlns="http://www.w3.org/2000/svg">
<path fill-rule="evenodd" clip-rule="evenodd" d="M88.3593 75.7467C88.3688 75.7467 88.3784 75.747 88.3879 75.747C88.1614 78.2642 88.4958 80.0203 90.9652 77.6575C92.7909 75.8947 92.6179 75.7312 91.1057 74.2803C88.6101 71.1713 88.1655 72.6163 88.3593 75.7467ZM52.2753 55.5039C52.8726 58.0013 56.5264 53.5005 57.6722 52.7972C57.3106 51.8117 56.2909 51.753 55.5384 51.3809C52.1796 49.0468 52.9335 53.5306 52.2753 55.5039ZM82.4748 92.6603C83.0618 87.8105 78.0864 93.0653 76.5344 94.1158C75.9955 95.7192 79.6457 95.6133 80.7182 96.2865C82.4974 96.7766 82.0986 93.334 82.4748 92.6603ZM48.0181 71.1656C49.1458 63.8389 44.587 70.0604 42.234 72.2263C40.0554 74.2354 46.5225 77.4447 47.9021 78.8145C49.797 78.9192 47.8141 72.653 48.0181 71.1656ZM53.9559 90.7846C54.6484 92.367 55.5255 100.119 58.0419 98.8826C59.4977 97.83 64.9818 97.0721 64.5016 95.1477C63.0983 94.4878 53.2767 86.9755 53.9559 90.7846ZM67.1974 52.4266C71.1739 55.3194 75.7552 57.3875 79.962 59.9949C80.3118 60.3488 80.8841 60.0824 80.9913 59.7407C80.3918 57.3961 79.1973 46.4263 76.1709 47.4892C73.1679 49.1718 69.7332 50.0152 67.1974 52.4266ZM91.6943 98.4714C98.3833 99.148 104.468 96.1328 101.608 88.8977C102.494 87.0583 96.0781 77.5506 94.5197 79.6289C91.079 82.7148 87.3944 85.3737 87.8521 90.4758C87.5467 95.787 84.3334 98.5819 91.6943 98.4714ZM64.434 33.1441C57.9829 33.2178 55.91 41.1867 54.3454 46.3184C54.0592 48.8998 58.6672 48.5058 60.3039 49.7687C65.0985 50.3696 69.742 44.8398 74.471 43.5261C76.5761 41.9265 71.2407 36.2304 69.7446 34.8401C68.3451 33.7097 66.8748 33.0329 64.434 33.1441ZM69.0606 114.636C75.9924 114.764 78.4386 107.942 80.3658 102.636C80.6204 101.924 80.3254 101.515 79.5371 101.22C68.2972 96.3266 69.8764 98.3579 59.134 102.916C57.8894 106.318 65.4223 114.369 69.0606 114.636ZM28.5257 53.5869C28.0753 57.2565 35.3958 70.1499 39.0141 70.006C46.0824 62.4543 48.5861 62.5726 49.1828 51.5458C49.5756 49.5613 49.0446 49.3327 47.4978 48.9081C41.461 47.8901 29.9927 45.2916 28.5257 53.5869ZM42.3861 102.317C43.8839 101.514 54.7511 102.065 53.4366 98.8516C51.4767 94.1891 51.9691 88.0104 47.9246 84.5621C45.4891 83.5648 39.822 76.2572 38.0335 77.4661C30.0903 86.5631 24.8334 102.119 42.3861 102.317ZM107.194 51.5764C106.927 38.6089 90.8459 41.8587 82.8296 45.0959C81.8805 48.0476 85.4339 54.0458 85.8579 57.5715C87.0887 66.1425 88.382 66.5259 94.8087 71.9025C95.4624 72.4277 95.8025 72.4003 96.4061 71.7505C101.391 66.1861 106.621 59.12 107.194 51.5764ZM51.8192 73.3871C50.3553 85.0861 58.3261 85.8352 66.7337 90.6799C72.3739 95.0214 77.1363 87.6491 82.0223 85.1818C84.3919 82.2012 82.685 77.3652 83.1499 73.719C82.564 70.9062 83.3172 67.102 80.5555 65.3571C75.3819 61.9197 70.3737 58.3229 64.7698 55.6215C60.6518 53.9291 56.6749 60.3671 53.0941 62.0694C50.0364 64.845 51.913 69.7497 51.8192 73.3871ZM40.1145 44.9443C43.0097 45.0847 45.8611 45.4498 48.6832 46.09C49.9832 46.3848 50.2097 46.2771 50.6374 44.9348C52.9936 37.898 58.6505 24.7893 67.8731 28.9149C72.9374 30.9567 76.6222 35.3076 79.3966 39.895C80.0674 41.0256 80.2987 41.0743 81.613 40.6548C90.4315 38.1753 105.704 34.7243 109.507 45.9731C112.628 56.6823 105.006 66.8395 98.8337 74.9924C97.9805 76.1195 99.5566 77.0459 100.001 77.9957C102.019 80.6403 102.935 84.0113 105.256 86.3593C109.091 93.9819 105.797 103.329 96.1633 103.562C93.0341 104.579 86.5925 101.85 84.9117 103.581C82.7721 109.474 79.1894 116.287 72.6233 117.915C65.3142 119.264 60.2728 112.734 57.0959 107.105C56.3372 104.444 54.9248 104.003 52.432 104.934C45.99 106.292 38.6525 107.37 32.7492 103.678C23.038 96.6559 29.7886 83.1529 35.067 75.3635C36.8349 72.7711 32.2306 70.4232 31.1914 68.1201C22.6473 57.418 23.7833 44.0528 40.1145 44.9443Z" fill="black"/>
<path fill-rule="evenodd" clip-rule="evenodd" d="M36.8073 116.473C43.3755 118.397 34.1834 127.801 30.377 128.225C25.4321 127.936 35.043 117.313 36.8073 116.473Z" fill="black"/>
<path fill-rule="evenodd" clip-rule="evenodd" d="M68.4884 144.077C66.6393 155.093 58.8442 137.574 64.8434 134.777C68.8164 133.92 67.8949 141.35 68.4884 144.077Z" fill="black"/>
<path fill-rule="evenodd" clip-rule="evenodd" d="M16.7776 46.7697C14.7108 45.8926 3.41206 46.8409 5.27237 42.7041C7.37137 38.0339 26.3355 46.4757 16.7776 46.7697Z" fill="black"/>
<path fill-rule="evenodd" clip-rule="evenodd" d="M90.5749 151.189C90.3961 154.355 86.9891 151.144 86.4071 149.779C85.2974 147.23 83.5568 141.679 86.6278 140.18C91.4693 141.355 89.5874 147.456 90.5749 151.189Z" fill="black"/>
<path fill-rule="evenodd" clip-rule="evenodd" d="M39.7109 34.0455C39.8072 35.7913 38.4849 35.8002 37.3548 35.4328C34.5654 35.448 28.5558 26.285 32.989 26.1021C33.7194 26.4444 34.3653 26.9131 35.2566 26.5599C38.136 27.5344 39.2905 31.4746 39.7109 34.0455Z" fill="black"/>
<path fill-rule="evenodd" clip-rule="evenodd" d="M133.048 51.664C133.57 54.652 129.529 57.0619 126.822 56.379C123.661 55.0641 126.482 50.1763 129.213 49.8489C131.098 49.3674 134.292 48.6259 133.048 51.664Z" fill="black"/>
<path fill-rule="evenodd" clip-rule="evenodd" d="M127.018 94.9698C128.321 94.9734 128.071 96.1195 128.843 96.4283C130.116 95.6001 134.051 98.3253 132.3 99.3358C126.008 103.305 114.802 90.8387 127.018 94.9698Z" fill="black"/>
<path fill-rule="evenodd" clip-rule="evenodd" d="M2.09804 75.1035C0.10495 75.5046 -0.8821 72.1789 1.02126 71.4821C3.66051 70.9239 9.88429 69.2533 11.7523 71.1691C10.2691 74.1355 5.42097 74.6288 2.09804 75.1035Z" fill="black"/>
<path fill-rule="evenodd" clip-rule="evenodd" d="M98.7072 117.948C98.3252 115.86 102.183 115.143 102.878 116.718C103.516 119.345 105.607 122.38 105.081 124.983C101.937 124.916 99.4752 120.745 98.7072 117.948Z" fill="black"/>
<path fill-rule="evenodd" clip-rule="evenodd" d="M114.58 32.3074C109.496 36.6498 109.749 28.9854 112.547 26.4744C117.1 23.4983 117.234 29.7054 114.58 32.3074Z" fill="black"/>
<path fill-rule="evenodd" clip-rule="evenodd" d="M38.7565 152.926C38.2276 150.505 41.7401 143.603 44.2714 145.915C45.0049 149.727 41.7212 152.542 40.0584 155.639C38.725 156.437 39.0788 153.674 38.7565 152.926Z" fill="black"/>
<path fill-rule="evenodd" clip-rule="evenodd" d="M121.577 141.532C121.13 145.118 115 138.762 114.673 137.047C114.316 136.092 114.437 135.524 115.31 135.041C118.901 133.301 121.089 138.838 121.577 141.532Z" fill="black"/>
<path fill-rule="evenodd" clip-rule="evenodd" d="M59.8062 8.54847C59.461 5.64545 62.1684 0.0109337 64.7575 3.08123C65.5386 5.89613 60.668 15.696 59.8062 8.54847Z" fill="black"/>
<path fill-rule="evenodd" clip-rule="evenodd" d="M118.3 9.9021C115.234 10.7543 116.205 5.81968 116.754 4.11455C117.083 1.68352 122.322 -0.679956 121.867 3.12765C120.728 5.45397 119.498 7.57493 118.3 9.9021Z" fill="black"/>
<path fill-rule="evenodd" clip-rule="evenodd" d="M16.2168 112.346C16.0974 110.168 20.4156 106.663 21.5441 109.85C21.9391 111.298 23.0316 112.837 21.4871 113.776C19.5177 115.596 16.0347 115.765 16.2168 112.346Z" fill="black"/>
<path fill-rule="evenodd" clip-rule="evenodd" d="M37.1898 5.37346C39.0017 14.1029 37.873 13.9166 33.5524 6.38804C31.1326 2.0931 36.8351 0.310547 37.1898 5.37346Z" fill="black"/>
<path fill-rule="evenodd" clip-rule="evenodd" d="M101.952 24.9645C102.481 27.3801 101.883 28.7651 98.8794 29.3433C96.935 29.3371 97.9433 26.2447 97.4649 24.9529C97.3774 21.5425 102.99 20.6407 101.952 24.9645Z" fill="black"/>
<path fill-rule="evenodd" clip-rule="evenodd" d="M53.6784 119.186C53.2479 120.291 53.3065 123.734 51.6595 123.558C49.1622 123.081 49.1012 118.715 50.8432 117.339C52.2155 116.688 53.8927 117.25 53.6784 119.186Z" fill="black"/>
<path fill-rule="evenodd" clip-rule="evenodd" d="M17.5172 91.9553C15.2262 90.9294 16.9952 88.6347 18.3788 87.6273C19.4312 86.5069 23.5201 87.2041 22.2495 89.1787C20.8267 90.3432 19.1593 90.9778 17.5172 91.9553Z" fill="black"/>
<path fill-rule="evenodd" clip-rule="evenodd" d="M73.2254 25.0455C73.4666 29.674 69.0743 24.5083 70.3369 22.3212C71.502 19.3897 73.9266 23.1377 73.2254 25.0455Z" fill="black"/>
<path fill-rule="evenodd" clip-rule="evenodd" d="M1.82363 103.479C1.11162 103.395 0.427642 103.674 0 103.319C0.476863 103.055 1.18351 102.946 1.82363 103.479Z" fill="black"/>
<path fill-rule="evenodd" clip-rule="evenodd" d="M70.9206 71.6303C70.9433 75.4847 68.0946 77.5879 65.0175 78.3305C61.0261 78.9652 59.1882 73.2426 59.9423 69.9397C62.0451 62.1647 70.4524 64.8579 70.9206 71.6303Z" fill="black"/>
</svg>
