<svg width="133" height="154" viewBox="0 0 133 154" fill="none" xmlns="http://www.w3.org/2000/svg">
<path fill-rule="evenodd" clip-rule="evenodd" d="M35.5309 3.60336C30.8588 7.25225 25.9296 10.4838 20.9211 13.6652C17.549 16.0064 13.6954 17.734 10.6739 20.5374C9.00128 22.1691 12.0277 23.4012 12.8164 24.6509C21.1442 34.5281 29.3996 44.4502 37.7186 54.3159C38.2389 54.9987 38.8519 54.4516 39.2741 53.9132C45.6304 46.3669 53.3229 40.0327 59.4577 32.3298C61.9896 30.7771 51.7808 23.0001 50.4749 21.0385C44.395 16.1857 40.7498 9.17982 35.5309 3.60336ZM34.3725 59.6797C16.1689 58.2792 9.90699 78.342 20.0743 91.2547C21.4938 93.8495 33.4892 99.4994 36.1547 98.4106C38.3913 97.5257 39.5095 100.889 41.7626 100.505C70.2894 99.6774 64.7881 58.7179 34.3725 59.6797ZM37.1984 148.822C44.435 148.863 56.4852 148.914 64.9252 148.364C65.549 148.338 65.7791 147.903 65.4534 147.379C61.8728 142.004 59.0962 136.087 55.2035 130.922C49.1287 122.145 42.4015 113.877 36.7579 104.814C35.4809 103.195 31.4758 110.303 30.0664 111.204C20.4808 122.544 12.894 135.469 4.85781 147.924C4.1699 148.826 5.12145 149.321 5.98356 149.214C17.0128 149.423 24.7653 149.079 37.1984 148.822ZM62.5914 34.3703C56.1704 41.2123 49.4319 47.7438 42.9413 54.556C41.7221 55.6684 41.133 56.6628 43.2129 57.0546C68.9861 62.6702 70.3851 101.477 42.4443 103.761C46.3239 111.821 52.936 118.284 57.2136 126.182C62.6012 133.107 65.4616 141.95 70.9057 148.621C71.4932 148.775 71.4372 149.604 71.2786 150.104C72.1313 151.76 70.2974 152.711 68.8824 152.474C61.1831 152.516 53.4094 152.39 45.7156 152.927C33.3284 152.714 20.8579 153.48 8.44085 152.518C6.30237 151.901 -0.601851 153.082 0.0422284 149.784C7.54136 132.243 20.2585 117.635 31.8233 102.762C33.5435 100.004 18.8362 99.1329 15.5867 90.4633C6.74444 74.4873 13.3352 56.3823 33.1263 56.0786C35.87 55.6688 24.9306 45.8888 23.8451 44.6887C18.159 38.6157 13.5944 31.5831 7.75361 25.6284C2.21096 20.5265 10.5017 15.7884 14.5973 13.4058C21.3449 9.27616 28.3061 5.48443 34.8891 1.09801C35.6475 0.587421 37.8941 -0.898745 37.8823 0.77119C37.6627 1.39413 37.7097 1.85778 38.206 2.27782C40.9487 4.59918 42.8538 7.64182 45.1018 10.3825C50.0273 16.0589 55.8758 20.7915 60.7312 26.5221C63.1033 28.831 66.1179 31.8699 66.4336 35.1982C65.6518 37.7258 63.48 35.8196 62.5914 34.3703Z" fill="black"/>
<path fill-rule="evenodd" clip-rule="evenodd" d="M128.125 131.014C126.001 128.875 119.768 119.359 117.105 120.499C114.909 121.201 99.2751 126.24 101.121 128.302C106.35 132.438 111.229 137.138 116.943 140.598C117.656 140.908 118.266 140.227 118.738 139.759C121.756 136.771 125.563 134.351 128.125 131.014ZM133 130.58C130.028 134.455 125.314 137.045 121.748 140.481C119.829 141.472 119.35 145.574 116.566 143.769C110.063 140.134 104.507 135.126 99.276 129.876C97.8192 128.07 96.8356 129.836 95.4629 129.397C96.6122 124.825 107.693 119.502 112.032 117.459C114.241 116.678 117.379 114.927 119.545 116.427C124.628 120.552 128.799 125.598 133 130.58Z" fill="black"/>
<path fill-rule="evenodd" clip-rule="evenodd" d="M85.1242 48.4201C71.5673 48.114 72.2036 70.0476 88.7866 67.4824C101.158 67.0822 95.2412 47.2167 85.1242 48.4201ZM86.7222 70.5041C77.8753 71.4428 70.4572 63.5396 73.698 54.6484C73.7832 54.3654 73.8542 53.8175 73.765 53.779C70.1624 51.9344 80.3281 44.7487 82.5436 45.7713C98.8385 39.1516 108.543 71.4846 86.7222 70.5041Z" fill="black"/>
<path fill-rule="evenodd" clip-rule="evenodd" d="M101.264 89.9562C101.918 86.9369 88.1691 95.8399 86.3268 96.2381C85.4331 96.7062 85.4175 97.1027 86.2511 97.545C88.7632 98.8774 91.0245 100.566 93.1919 102.385C107.476 113.148 97.734 103.251 101.264 89.9562ZM104.945 87.6146C99.7899 102.387 112.78 119.474 89.0442 102.894C86.8607 101.171 84.3222 100.156 81.8207 99.01C77.7994 95.948 84.6379 92.6833 87.1807 91.6143C90.0736 91.2697 106.205 81.4897 104.945 87.6146Z" fill="black"/>
</svg>
