<svg width="133" height="153" viewBox="0 0 133 153" fill="none" xmlns="http://www.w3.org/2000/svg">
<path fill-rule="evenodd" clip-rule="evenodd" d="M96.0901 17.8229C91.2696 18.0217 86.595 18.2798 82.2846 20.1208C84.277 21.9525 90.4134 21.7222 93.2334 21.7545C98.4333 21.1727 108.508 17.8564 96.0901 17.8229ZM90.8619 35.2155C96.7823 34.1269 104.147 28.4538 106.164 21.6911C106.282 20.5181 104.719 21.3168 104.163 21.3445C97.7401 22.5033 94.1772 29.4775 90.8619 35.2155ZM72.7967 38.0353C77.5176 38.1444 83.1425 38.4408 87.2852 35.7556C99.8869 16.5298 92.8339 28.9472 79.2473 22.0079C75.1098 21.1169 71.3241 29.525 68.4349 32.4165C62.5157 40.0606 67.4206 37.102 72.7967 38.0353ZM103.77 16.739C100.137 7.76241 80.5337 3.13082 72.3727 3.20771C69.1919 2.90325 66.1381 3.66406 63.1138 4.66908C61.5529 5.18995 63.8673 6.91734 64.3245 7.57105C68.7916 11.1441 72.8466 15.5107 77.7235 18.3342C80.6759 19.2843 83.7839 16.7904 86.8586 16.7594C92.449 15.5428 98.1645 15.6849 103.77 16.739ZM107.211 25.7351C103.275 30.5462 98.5771 35.5342 92.7504 37.4418C91.2245 38.1968 88.7362 37.7705 88.3074 40.0877C86.8032 45.8108 86.8171 51.9288 87.1205 57.8622C87.4253 60.5714 87.1803 63.3615 87.8033 66.024C90.0994 68.522 95.8673 60.0873 97.8345 58.294C104.43 49.6323 109.635 37.4373 107.211 25.7351ZM84.6634 52.4095C84.6367 48.2386 84.7255 44.038 85.5509 39.9563C85.6064 39.5979 85.3886 39.3444 85.0759 39.3997C79.6513 40.8827 74.1554 40.4521 68.632 40.2425C67.0205 40.1076 65.4351 39.5785 63.7994 39.8864C63.1994 40.0086 62.7528 39.5931 62.6111 38.9255C62.3502 37.7499 63.7792 37.4466 63.9065 36.3191C65.707 32.1388 68.7533 29.0249 71.2963 25.4696C71.7135 24.1896 76.362 20.7455 75.4192 20.2571C72.2843 18.2082 55.0816 6.30001 59.3408 2.22723C60.1083 2.62419 60.5552 3.14318 61.3778 2.51401C72.3213 -2.96161 84.9665 1.59394 95.6934 5.8773C100.731 8.03477 104.521 12.3739 106.609 18.0098C112.056 17.657 116.842 21.5427 121.372 24.8904C132.314 34.7197 137.201 55.9566 128.626 69.4405C121.228 81.2334 109.738 88.1833 99.7948 96.6679C89.9554 106.106 80.7323 117.775 78.5874 132.813C77.5887 137.043 77.3949 141.402 77.5825 145.758C77.253 147.638 79.8023 155.448 76.9362 152.233C75.1104 148.622 76.1618 144.266 76.002 140.3C75.7979 135.123 77.113 130.05 78.1538 125.053C80.1411 113.916 87.2862 105.215 94.2802 97.6946C105.963 85.893 123.195 79.0883 129.06 61.136C131.657 49.3639 128.715 34.9802 120.279 27.2536C116.786 24.9551 113.511 21.1522 109.598 20.1726C109.678 23.2103 110.519 26.2918 110.708 29.3833C112.064 44.6175 100.479 63.8456 88.0233 68.6485C84.3378 70.6101 84.9546 55.0549 84.6634 52.4095Z" fill="black"/>
<path fill-rule="evenodd" clip-rule="evenodd" d="M42.3525 13.8228C31.7256 13.3006 20.7663 17.8661 13.1602 26.6389C12.3362 28.2525 7.09272 32.6356 8.34193 34.1088C10.9352 36.4767 13.0462 39.418 15.4083 42.0685C16.2916 43.1954 17.03 43.3629 17.7659 41.9674C21.4455 36.9387 26.9766 31.3266 32.8606 31.3292C37.363 32.8307 41.2446 39.9539 45.3689 40.177C47.9019 38.4428 41.575 31.6929 40.4601 29.8261C39.6658 28.8443 40.4995 26.5298 41.9393 27.79C44.8762 29.8057 47.435 32.4175 50.0777 34.8796C52.0024 36.2829 52.8745 33.574 52.0863 31.7929C50.3151 27.9695 47.1455 25.1554 44.1622 22.5996C43.1959 21.8685 43.0861 21.1743 43.6511 20.1073C44.6482 18.521 46.7789 20.6658 47.933 21.2761C65.4722 35.7394 54.1481 11.8936 42.3525 13.8228ZM52.5165 28.1224C55.749 36.1087 51.9737 40.1341 45.9298 33.8706C45.9063 35.5293 48.7138 40.8057 45.8812 41.5409C41.0277 42.7903 37.7569 36.4971 33.386 34.7134C28.9224 32.9886 19.8262 41.9956 18.0684 46.6996C17.4831 49.3024 16.6243 47.8915 15.5162 49.2986C12.4666 53.1534 9.94278 57.5871 7.93584 62.2599C6.22045 66.9006 4.62123 71.6133 2.53085 76.0517C2.40947 76.3699 2.04681 76.6683 1.77698 76.5552C1.29012 76.137 1.45791 75.4587 1.75615 74.9476C5.7916 65.1806 7.50565 53.8688 14.5982 46.1033C15.0208 44.7194 11.7543 42.5374 11.0373 41.1905C9.65271 40.0437 7.70423 36.0632 6.15336 36.1578C4.02475 38.7562 2.90094 42.1655 1.37119 45.213C-0.78227 46.495 0.101456 42.0728 0.681433 40.9284C1.56278 37.9568 3.64975 35.6649 4.51369 32.7635C13.2629 21.9366 20.4694 13.781 34.2974 11.8056C39.7053 11.3099 45.3242 10.4369 50.3761 13.3021C56.6462 15.3122 64.8888 31.1193 52.5165 28.1224Z" fill="black"/>
</svg>
