<svg width="585" height="395" viewBox="0 0 585 395" fill="none" xmlns="http://www.w3.org/2000/svg">
<path fill-rule="evenodd" clip-rule="evenodd" d="M281.515 21.9086L283.321 22.7974C312.863 37.4109 344.836 56.8053 363.35 88.5585C381.898 120.383 386.985 164.567 389.929 205.171L390.107 207.652C393.06 249.002 394.022 286.285 383.31 310.547C372.637 334.792 350.29 346.015 322.888 345.68C295.487 345.345 262.996 333.379 235.244 303.95C207.452 274.539 184.397 227.667 167.365 179.948C150.333 132.229 139.317 83.7565 145.269 51.5449C151.295 19.3882 174.283 3.58417 199.347 0.549067C224.372 -2.46769 251.512 7.26612 281.515 21.9086Z" fill="black" fill-opacity="0.04"/>
<path fill-rule="evenodd" clip-rule="evenodd" d="M353.912 57.8879C349.369 56.39 344.412 55.8912 339.311 56.4114C333.557 56.9979 329.482 59.2092 324.04 61.1149C319.388 62.7445 312.683 62.6235 308.547 65.5556C306.541 66.9779 303.31 70.0692 303.107 75.757C302.97 79.5818 304.787 83.8433 307.995 85.6869C315.128 89.7852 323.428 82.9473 326.799 77.0415C332.733 80.9205 336.103 86.8156 334.889 93.9377C334.317 97.2925 333.205 100.57 333.078 103.971C332.855 109.907 335.895 115.864 340.832 119.167C342.217 120.092 343.76 120.845 344.846 122.109C346.564 124.106 346.786 126.936 347.111 129.55C347.736 134.587 349.107 139.723 352.027 143.942C354.935 148.147 360.318 149.966 362.806 154.432C365.066 158.491 364.058 163.582 365.061 167.981C366.179 172.883 367.724 177.689 370.327 182.02C373.368 187.08 377.916 191.382 383.483 193.35C389.964 195.642 397.056 194.293 402.058 189.568C404.58 187.185 406.516 184.139 407.359 180.773C408.422 176.528 407.711 171.995 406.151 167.906C401.931 156.844 387.041 148.32 381.621 137.913C375.073 125.34 377.677 110.786 377.601 97.235C377.552 88.4686 375.154 78.8664 370.629 71.3317C366.611 64.6402 360.73 60.1373 353.912 57.8879Z" fill="black"/>
<path d="M312.293 86.2026C312.843 86.275 313.229 86.7789 313.157 87.3281C312.246 94.2356 312.235 100.467 312.845 106.269L312.921 106.953C313.579 112.652 314.666 115.557 316.916 117.801C318.49 119.369 320.414 120.415 322.558 121.039C323.995 121.456 325.169 121.613 326.509 121.682C330.905 121.932 335.009 120.32 338.723 117.396C339.158 117.053 339.789 117.128 340.131 117.563C340.474 117.998 340.399 118.629 339.964 118.972C335.896 122.175 331.336 123.966 326.4 123.685C324.925 123.609 323.611 123.434 321.998 122.965C319.55 122.253 317.331 121.047 315.499 119.221C312.771 116.5 311.544 113.048 310.85 106.48C310.224 100.526 310.235 94.1382 311.168 87.0659C311.236 86.549 311.686 86.1762 312.197 86.1945L312.293 86.2026Z" fill="black"/>
<path d="M327.589 121.713C328.132 121.606 328.659 121.961 328.766 122.504C329.302 125.244 329.747 128.049 330.095 130.922C331.127 139.453 331.186 147.703 330.472 155.738C330.453 155.958 330.361 156.166 330.212 156.328C325.017 161.978 319.959 167.926 315.065 174.181C312.202 177.842 309.213 182.087 305.97 187.031L305.307 188.045C303.866 190.259 302.389 192.587 300.745 195.224L295.428 203.827C295.137 204.299 294.519 204.444 294.048 204.153C293.577 203.861 293.431 203.243 293.723 202.772L298.659 194.778L299.421 193.556C301.046 190.956 302.516 188.648 303.96 186.438L304.292 185.93C307.564 180.943 310.583 176.656 313.485 172.945C318.084 167.067 322.826 161.459 327.691 156.112L328.503 155.224L328.546 154.714C329.147 147.363 329.088 139.829 328.209 132.06L328.104 131.163C327.761 128.339 327.324 125.582 326.797 122.89C326.691 122.346 327.045 121.819 327.589 121.713Z" fill="black"/>
<path d="M380.631 190.766C381.183 190.716 381.671 191.123 381.721 191.675C382.683 202.324 384.449 213.373 387.272 224.818C390.072 236.184 393.626 246.793 398.066 257.651L398.545 258.815C400.526 263.597 402.25 267.489 405.023 273.489L409.275 282.655C411.309 287.077 412.335 289.444 413.386 292.137L413.738 293.051C417.323 302.537 417.601 308.664 413.989 313.732C410.255 318.971 403.138 321.759 393.842 322.717C390.52 323.06 387.106 323.143 383.739 323.031C381.526 322.958 379.72 322.818 378.264 322.659C375.637 322.369 373.537 321.932 371.249 321.235L370.789 321.092C369.612 320.72 364.902 319.047 363.624 318.624C360.144 317.469 356.492 316.442 351.864 315.378L350.834 315.143C343.801 313.555 340.402 313.099 334.038 312.6L333.108 312.529C330.529 312.333 329.356 312.122 328.02 311.497C327.317 311.169 326.625 310.731 325.872 310.142C322.869 307.788 321.063 304.74 320.044 300.592L319.961 300.244C319.24 297.137 318.964 294.102 318.725 287.729L318.574 283.39C318.152 271.74 317.637 265.615 316.03 256.751L315.949 256.306C313.956 245.415 310.993 235.836 307.367 226.935C307.158 226.422 307.405 225.836 307.918 225.627C308.431 225.418 309.016 225.665 309.225 226.178C312.9 235.199 315.902 244.906 317.922 255.944L318.085 256.842C319.623 265.433 320.143 271.557 320.557 282.724L320.743 287.985C320.973 293.997 321.245 296.899 321.915 299.791C322.82 303.697 324.41 306.447 327.11 308.562C327.749 309.063 328.313 309.42 328.869 309.68L329.094 309.781C330.071 310.198 331.077 310.363 333.26 310.528L334.629 310.635C340.96 311.14 344.463 311.633 351.796 313.305L352.314 313.423C356.613 314.412 360.09 315.371 363.367 316.429L364.256 316.72C365.566 317.154 370.257 318.82 371.393 319.179C373.742 319.921 375.816 320.371 378.483 320.665L379.027 320.722C380.337 320.852 381.918 320.964 383.806 321.026C387.087 321.135 390.412 321.054 393.637 320.722C402.413 319.817 409.038 317.222 412.355 312.568C415.523 308.124 415.224 302.528 411.725 293.404L411.193 292.045C410.042 289.159 408.784 286.347 406.04 280.438L403.199 274.324C400.417 268.304 398.684 264.393 396.692 259.583C391.991 248.229 388.25 237.175 385.325 225.299C382.476 213.75 380.694 202.601 379.723 191.855C379.673 191.303 380.08 190.816 380.631 190.766Z" fill="black"/>
<path d="M326.43 308.065C326.701 308.547 326.53 309.159 326.047 309.431L303.326 322.222C275.702 337.809 269.81 341.469 260.333 349.104C259.791 349.54 259.229 349.972 258.634 350.413L258.123 350.787C257.605 351.163 257.059 351.548 256.44 351.976L253.689 353.858L253.035 354.311C248.344 357.592 245.966 359.944 244.185 363.58L244.064 363.83C243.802 364.375 243.564 364.91 243.291 365.603C242.366 367.94 241.697 370.526 241.472 373.272C241.171 376.963 241.724 380.552 243.331 383.92C244.975 387.37 247.361 389.955 250.126 391.938L250.453 392.168H368.678L368.678 355.458C368.678 354.936 369.076 354.508 369.584 354.459L369.681 354.455C370.202 354.455 370.631 354.852 370.679 355.361L370.684 355.458V393.171C370.684 393.692 370.286 394.121 369.777 394.17L369.681 394.174H250.142C249.942 394.174 249.746 394.114 249.58 394.002C246.299 391.786 243.451 388.836 241.52 384.783C239.752 381.076 239.145 377.135 239.473 373.109C239.715 370.147 240.433 367.374 241.425 364.866C241.681 364.216 241.91 363.693 242.151 363.183L242.255 362.965C244.271 358.716 246.933 356.099 252.212 352.44L254.988 350.541C255.937 349.888 256.704 349.345 257.44 348.801C258.015 348.375 258.555 347.959 259.075 347.542L260.233 346.615C269.188 339.493 275.746 335.481 302.335 320.478L325.064 307.682C325.546 307.411 326.158 307.582 326.43 308.065Z" fill="black"/>
<path d="M401.681 319.729C401.815 319.192 402.359 318.864 402.896 318.998C403.434 319.131 403.761 319.675 403.628 320.213C400.947 331.003 395.943 340.341 387.942 347.285L387.407 347.741C387.304 347.826 387.175 347.926 386.904 348.138C385.38 349.271 383.09 350.567 380.242 351.944L379.912 352.109C379.712 352.208 379.481 352.318 379.123 352.487L378.142 352.943C376.975 353.48 375.731 354.028 374.408 354.591L372.67 355.323C371.979 355.611 371.253 355.907 370.417 356.243L370.052 356.389C367.281 357.492 364.478 358.537 362.249 359.316L360.912 359.765C360.729 359.826 360.574 359.875 360.437 359.917L360.357 359.942C347.952 363.699 336.226 365.585 324.83 366.235C324.277 366.266 323.803 365.843 323.771 365.29C323.74 364.737 324.162 364.263 324.715 364.232C335.688 363.606 346.97 361.82 358.88 358.29L359.775 358.022C360.135 357.913 360.655 357.74 361.594 357.42L362.392 357.138C364.306 356.457 366.564 355.611 368.824 354.718L369.309 354.526C370.291 354.133 371.118 353.797 371.899 353.471L372.478 353.228C374.411 352.42 376.18 351.645 377.789 350.896L378.755 350.441C378.99 350.328 379.156 350.246 379.349 350.148L380.028 349.816C382.473 348.606 384.42 347.485 385.688 346.543L386.118 346.203C386.168 346.163 386.21 346.128 386.258 346.086C394.129 339.41 399.051 330.314 401.681 319.729Z" fill="black"/>
<path d="M258.259 288.506C258.266 287.699 259.176 287.231 259.837 287.695C268.179 293.542 276.944 299.089 286.174 304.286C294.13 308.771 302.143 312.83 310.216 316.51C310.72 316.74 310.943 317.335 310.713 317.839C310.483 318.343 309.888 318.565 309.384 318.336C301.26 314.632 293.196 310.547 285.189 306.033C276.83 301.327 268.849 296.334 261.217 291.093L260.242 290.42L260.237 290.887C260.15 297.182 259.959 303.459 259.659 309.738L259.541 312.092C258.84 325.564 257.661 338.82 256.038 351.844C255.969 352.393 255.468 352.783 254.918 352.715C254.368 352.646 253.978 352.145 254.047 351.595C255.665 338.619 256.839 325.411 257.538 311.988C257.946 304.167 258.183 296.353 258.259 288.506Z" fill="black"/>
<path d="M233.4 259.675C239.024 249.027 251.944 245.3 265.693 248.284C283.955 252.237 302.104 258.73 319.102 267.36C319.596 267.611 319.793 268.215 319.542 268.709C319.291 269.203 318.688 269.4 318.194 269.149C301.348 260.596 283.362 254.161 265.268 250.245C252.307 247.432 240.307 250.893 235.174 260.612C232.9 264.915 231.789 269.857 231.187 276.795C230.05 289.84 229.585 301.916 229.863 313.394L230.144 323.86C230.25 328.106 230.306 331.034 230.349 334.469L230.371 336.539C230.416 341.658 230.388 346.36 230.275 350.894L230.256 351.566L253.792 351.566C254.314 351.566 254.742 351.964 254.791 352.472L254.795 352.569C254.795 353.09 254.398 353.519 253.889 353.568L253.792 353.572H229.225C228.659 353.572 228.206 353.105 228.223 352.539C228.383 347.19 228.42 341.643 228.354 335.473L228.292 331.004C228.245 328.284 228.181 325.473 228.078 321.548L227.888 314.597C227.547 302.695 228.007 290.174 229.189 276.621L229.277 275.654C229.92 268.971 231.086 264.055 233.4 259.675Z" fill="black"/>
<path d="M229.628 352.129C229.852 351.669 230.393 351.447 230.881 351.63C231.369 351.813 231.631 352.335 231.498 352.829L231.469 352.919L223.863 373.211C223.78 373.441 223.617 373.631 223.405 373.748L223.311 373.794L195.902 385.415C193.183 386.569 191.377 389.164 191.222 392.086L191.219 392.168L255.043 392.168C255.565 392.168 255.993 392.566 256.042 393.075L256.046 393.171C256.046 393.693 255.648 394.121 255.14 394.17L255.043 394.174H190.208C189.687 394.174 189.258 393.777 189.21 393.268L189.205 393.171V392.496C189.205 388.678 191.444 385.225 194.914 383.658L195.119 383.569L222.13 372.116L225.03 364.399L229.591 352.215L229.628 352.129Z" fill="black"/>
<path d="M222.248 371.818C222.397 371.285 222.95 370.973 223.484 371.122C225.788 371.765 228.199 372.221 230.696 372.453C234.005 372.761 237.223 372.654 240.327 372.199C240.876 372.118 241.385 372.498 241.465 373.046C241.546 373.594 241.166 374.103 240.618 374.183C237.36 374.661 233.983 374.774 230.51 374.451C227.891 374.207 225.362 373.729 222.945 373.054C222.411 372.905 222.099 372.352 222.248 371.818Z" fill="black"/>
<path d="M372.056 353.56C372.384 353.114 373.011 353.017 373.458 353.345C376.372 355.482 379.221 357.679 382.186 360.059L383.079 360.779C385.145 362.45 387.216 364.167 389.688 366.249L395.65 371.287C410.186 383.567 412.523 385.396 421.788 392.049C422.579 392.618 422.177 393.867 421.203 393.867L417.369 393.876C414.947 393.889 413.203 393.918 411.333 393.97L408.072 394.069C405.773 394.134 403.785 394.164 400.553 394.172L398.529 394.175C395.636 394.175 393.655 392.671 391.257 389.49L390.974 389.11C390.677 388.705 390.074 387.874 389.938 387.69C386.585 383.158 381.817 380.084 375.031 377.593L374.258 377.315C374.066 377.248 373.869 377.18 373.644 377.105L371.197 376.297C370.45 376.045 369.896 375.848 369.319 375.624C368.802 375.424 368.546 374.843 368.746 374.326C368.946 373.81 369.527 373.553 370.043 373.753L370.341 373.867C370.889 374.073 371.46 374.271 372.263 374.537L374.291 375.206C374.66 375.33 374.958 375.434 375.282 375.55C382.492 378.139 387.649 381.372 391.332 386.205L391.712 386.717C391.974 387.076 392.435 387.711 392.642 387.992L392.692 388.06C394.822 390.932 396.395 392.169 398.529 392.169L401.797 392.162C404.46 392.149 406.257 392.116 408.384 392.053L410.924 391.974C412.776 391.921 414.461 391.89 416.721 391.874L418.102 391.866L415.756 390.158C410.04 385.959 406.259 382.87 395.263 373.587L388.812 368.134C386.303 366.017 384.217 364.284 382.16 362.616L381.817 362.338C378.552 359.697 375.449 357.294 372.271 354.962C371.825 354.635 371.728 354.007 372.056 353.56Z" fill="black"/>
<path d="M401.704 392.168C402.258 392.168 402.707 392.617 402.707 393.171C402.707 393.692 402.31 394.121 401.801 394.169L401.704 394.174H369.681C369.127 394.174 368.678 393.725 368.678 393.171C368.678 392.65 369.076 392.221 369.584 392.173L369.681 392.168H401.704Z" fill="black"/>
<path d="M305.138 197.327C305.595 197.014 306.219 197.132 306.532 197.589C309.166 201.44 311.588 205.563 313.753 209.998C315.812 214.212 317.38 218.076 318.715 222.135C318.888 222.661 318.602 223.228 318.076 223.401C317.55 223.574 316.983 223.288 316.81 222.762C315.503 218.789 313.969 215.01 311.95 210.879C309.83 206.533 307.457 202.494 304.876 198.721C304.564 198.264 304.681 197.64 305.138 197.327Z" fill="black"/>
<path d="M180.382 145.476C178.418 142.67 181.824 139.038 184.663 141.007C184.779 141.086 184.888 141.173 184.985 141.264C189.601 145.55 193.504 150.598 196.487 156.145L196.899 156.924C197.741 158.537 198.496 160.144 199.596 162.627L201.131 166.123C204.64 174.064 206.686 177.673 210.141 181.216L210.318 181.396C213.885 185.003 218.2 187.974 224.921 191.749L226.268 192.498C227.391 193.118 231.709 195.461 232.726 196.022L233.501 196.451C233.877 196.661 234.238 196.863 234.586 197.06L237.697 198.837C238.824 199.473 239.974 200.106 241.714 201.047L248.551 204.729C255.667 208.577 259.76 210.98 264.276 214.079C266.608 215.68 269.604 215.898 272.12 214.657L272.328 214.55L322.021 188.549C322.512 188.292 323.118 188.482 323.375 188.973C323.617 189.435 323.463 189.999 323.035 190.278L322.951 190.327L273.264 216.325C270.051 218.032 266.152 217.8 263.14 215.733L262.344 215.191C258.199 212.392 254.226 210.079 247.588 206.489L240.009 202.405C238.425 201.544 237.347 200.947 236.206 200.298L233.937 198.998C233.376 198.679 232.786 198.348 232.146 197.994L229.421 196.503C227.84 195.643 225.984 194.633 225.299 194.255L224.375 193.742C217.251 189.765 212.699 186.657 208.891 182.807L208.524 182.43C204.962 178.727 202.845 174.963 199.298 166.938L197.9 163.752C196.608 160.827 195.803 159.122 194.822 157.286L194.72 157.096C191.941 151.928 188.333 147.206 184.075 143.162L183.617 142.731C183.592 142.708 183.563 142.685 183.525 142.659C182.561 141.99 181.318 143.315 182.025 144.325L182.235 144.62C182.331 144.753 182.433 144.893 182.55 145.051L183.434 146.228C184.652 147.863 185.23 148.781 185.743 150.018L185.93 150.479C187.145 153.545 187.755 156.529 188.397 161.65L188.732 164.422C189.875 173.746 191.091 177.833 194.806 181.993L194.969 182.174C197.215 184.642 199.557 186.456 204.022 189.385L206.701 191.126L207.239 191.479C210.007 193.312 212.582 195.26 216.377 198.317L219.612 200.937C230.495 209.752 240.975 218.371 251.142 226.876L254.346 229.56C258.058 232.678 261.684 235.744 265.238 238.774C267.412 240.628 270.416 241.138 273.063 240.115L273.272 240.031L325.858 217.963C326.369 217.749 326.957 217.989 327.171 218.5C327.373 218.981 327.172 219.53 326.722 219.771L326.634 219.813L274.048 241.881C270.652 243.307 266.744 242.694 263.937 240.301C259.372 236.409 254.689 232.458 249.855 228.414C240.331 220.447 230.532 212.381 220.384 204.146L215.123 199.883C211.372 196.861 208.839 194.945 206.133 193.152L202.903 191.051C198.313 188.038 195.872 186.147 193.486 183.524C191.068 180.867 189.468 177.791 188.41 174.085L188.247 173.496C187.652 171.291 187.306 169.24 186.85 165.566L186.454 162.281C185.799 156.964 185.203 154.025 183.98 151.007L183.89 150.786C183.475 149.785 182.985 148.993 181.954 147.599L180.899 146.191C180.702 145.926 180.544 145.708 180.382 145.476Z" fill="black"/>
<path d="M352.276 145.066C352.69 144.698 353.324 144.737 353.692 145.151C354.059 145.566 354.021 146.2 353.606 146.567C350.994 148.883 347.39 151.193 343.075 153.292L342.6 153.518C339.068 155.174 336.106 155.829 330.049 156.464C329.498 156.522 329.005 156.122 328.947 155.571C328.889 155.02 329.289 154.526 329.84 154.469L330.971 154.346C336.186 153.756 338.799 153.113 341.975 151.595L342.197 151.488C346.358 149.464 349.811 147.251 352.276 145.066Z" fill="black"/>
<path d="M56.665 182.379L38.7517 244.265C38.5977 244.798 38.9042 245.354 39.4363 245.508L101.323 263.421C101.855 263.575 102.412 263.269 102.566 262.736L120.479 200.85C120.633 200.317 120.326 199.761 119.794 199.607L57.9073 181.695C57.3752 181.541 56.819 181.847 56.665 182.379ZM58.3125 183.9L118.273 201.255L100.917 261.215L40.9569 243.859L58.3125 183.9Z" fill="black"/>
<path d="M66.6156 210.699C67.0681 210.455 67.6264 210.594 67.9147 211.007L67.9655 211.088L78.1368 229.075C78.4095 229.557 78.2396 230.169 77.7574 230.442C77.3036 230.698 76.7348 230.563 76.4422 230.144L76.3906 230.062L66.703 212.932L46.4283 223.887C45.9696 224.135 45.4035 223.989 45.119 223.564L45.069 223.482C44.8212 223.023 44.9675 222.457 45.3918 222.172L45.4746 222.122L66.6156 210.699Z" fill="black"/>
<path d="M89.0454 222.063C89.4978 221.819 90.056 221.957 90.3444 222.371L90.3952 222.452L101.21 241.573C101.482 242.055 101.313 242.667 100.831 242.94C100.377 243.196 99.8079 243.061 99.5152 242.642L99.4637 242.56L89.1332 224.295L58.3169 240.947C57.8582 241.195 57.2922 241.048 57.0076 240.624L56.9577 240.541C56.7098 240.083 56.8561 239.517 57.2805 239.232L57.3633 239.182L89.0454 222.063Z" fill="black"/>
<path fill-rule="evenodd" clip-rule="evenodd" d="M104.801 212.216C103.919 215.264 100.732 217.019 97.6845 216.137C94.6366 215.255 92.8807 212.069 93.7633 209.021C94.6453 205.973 97.8316 204.217 100.879 205.099C103.927 205.982 105.683 209.168 104.801 212.216Z" fill="black"/>
<path d="M182.74 74.0884C183.244 73.9558 183.76 74.2317 183.936 74.7113L183.965 74.8035L203.792 150.254C203.933 150.79 203.612 151.338 203.077 151.479C202.572 151.611 202.057 151.336 201.881 150.856L201.852 150.764L182.279 76.2827L108.769 95.6002L128.087 169.111L175.462 156.662C175.966 156.529 176.482 156.805 176.658 157.284L176.687 157.377C176.819 157.881 176.544 158.396 176.064 158.573L175.972 158.602L127.626 171.306C127.122 171.438 126.606 171.163 126.43 170.683L126.401 170.591L106.574 95.1404C106.442 94.6361 106.718 94.1206 107.197 93.9444L107.289 93.9154L182.74 74.0884Z" fill="black"/>
<path d="M140.92 111.137L148.445 139.776C148.641 140.523 149.572 140.777 150.121 140.234L171.16 119.397C171.709 118.854 171.464 117.92 170.719 117.717L142.154 109.914C141.409 109.711 140.723 110.39 140.92 111.137ZM143.301 112.307L168.515 119.194L149.944 137.586L143.301 112.307Z" fill="black"/>
<path fill-rule="evenodd" clip-rule="evenodd" d="M78.0005 136.579C78.0005 143.645 72.2719 149.375 65.2053 149.375C58.1387 149.375 52.4102 143.645 52.4102 136.579C52.4102 129.513 58.1387 123.784 65.2053 123.784C72.2719 123.784 78.0005 129.513 78.0005 136.579Z" fill="black"/>
<path fill-rule="evenodd" clip-rule="evenodd" d="M175.498 227.172C175.498 231.743 171.792 235.449 167.221 235.449C162.65 235.449 158.944 231.743 158.944 227.172C158.944 222.601 162.65 218.896 167.221 218.896C171.792 218.896 175.498 222.601 175.498 227.172Z" fill="black"/>
<path fill-rule="evenodd" clip-rule="evenodd" d="M256.335 115.684C256.335 121.009 252.018 125.326 246.692 125.326C241.367 125.326 237.05 121.009 237.05 115.684C237.05 110.358 241.367 106.041 246.692 106.041C252.018 106.041 256.335 110.358 256.335 115.684Z" fill="black"/>
<path d="M216.195 231.963C216.657 231.722 217.221 231.877 217.499 232.305L217.548 232.389L223.9 244.584C224.156 245.076 223.965 245.681 223.474 245.937C223.012 246.178 222.448 246.023 222.17 245.595L222.121 245.511L216.232 234.205L173.248 256.597L195.639 299.581L215.032 289.479C215.494 289.238 216.058 289.393 216.336 289.822L216.385 289.905C216.626 290.368 216.471 290.932 216.042 291.21L215.959 291.258L195.676 301.824C195.213 302.065 194.65 301.91 194.371 301.482L194.323 301.398L171.005 256.634C170.764 256.172 170.919 255.608 171.348 255.33L171.431 255.281L216.195 231.963Z" fill="black"/>
<path d="M191.564 267.045C192.027 266.804 192.59 266.959 192.869 267.387L192.917 267.471L198.001 277.231C198.257 277.722 198.066 278.328 197.575 278.584C197.113 278.825 196.549 278.67 196.271 278.241L196.222 278.158L191.138 268.398C190.882 267.906 191.073 267.301 191.564 267.045Z" fill="black"/>
<path d="M195.27 260.289C195.733 260.049 196.296 260.203 196.575 260.632L196.623 260.716L205.661 278.066C205.917 278.557 205.726 279.163 205.235 279.419C204.773 279.66 204.209 279.505 203.931 279.076L203.882 278.993L194.844 261.642C194.588 261.151 194.779 260.545 195.27 260.289Z" fill="black"/>
<path d="M202.93 261.124C203.393 260.884 203.957 261.038 204.235 261.467L204.283 261.551L209.367 271.31C209.623 271.801 209.433 272.407 208.941 272.663C208.479 272.904 207.915 272.749 207.637 272.32L207.588 272.237L202.504 262.477C202.248 261.986 202.439 261.38 202.93 261.124Z" fill="black"/>
<path d="M206.637 254.369C207.099 254.128 207.663 254.283 207.941 254.711L207.989 254.795L217.027 272.145C217.283 272.636 217.092 273.242 216.601 273.498C216.139 273.739 215.575 273.584 215.297 273.155L215.248 273.072L206.21 255.721C205.954 255.23 206.145 254.624 206.637 254.369Z" fill="black"/>
<path d="M214.296 255.204C214.758 254.963 215.322 255.117 215.6 255.546L215.649 255.63L220.733 265.39C220.989 265.881 220.798 266.487 220.306 266.743C219.844 266.984 219.28 266.829 219.002 266.4L218.953 266.316L213.87 256.556C213.614 256.065 213.804 255.459 214.296 255.204Z" fill="black"/>
<path fill-rule="evenodd" clip-rule="evenodd" d="M250.142 393.171H190.208V392.496C190.208 389.005 192.294 385.856 195.511 384.492L222.92 372.87C223.007 372.629 223.107 372.369 223.214 372.088C225.394 372.696 227.875 373.198 230.603 373.452C234.267 373.793 237.597 373.612 240.473 373.191C240.198 376.554 240.566 380.452 242.425 384.351C244.659 389.038 248.142 391.82 250.142 393.171Z" fill="black"/>
<path fill-rule="evenodd" clip-rule="evenodd" d="M421.203 392.864C407.724 392.864 411.334 393.171 398.529 393.171C394.825 393.171 392.691 389.728 390.745 387.093C386.786 381.744 381.09 378.701 374.944 376.495C373.212 375.873 371.407 375.357 369.682 374.688V355.458C370.718 355.043 371.789 354.609 372.865 354.153C389.709 366.511 400.548 378.032 421.203 392.864Z" fill="black"/>
<path d="M556.839 392.168C557.393 392.168 557.842 392.617 557.842 393.171C557.842 393.692 557.444 394.121 556.935 394.169L556.839 394.174H1.00302C0.449067 394.174 0 393.725 0 393.171C0 392.65 0.397789 392.221 0.906422 392.173L1.00302 392.168H556.839Z" fill="black"/>
<path d="M153.76 312.166H24.9073C24.3534 312.166 23.9043 312.615 23.9043 313.169V393.171C23.9043 393.725 24.3534 394.174 24.9073 394.174H153.76C154.314 394.174 154.763 393.725 154.763 393.171V313.169C154.763 312.615 154.314 312.166 153.76 312.166ZM152.756 314.172V392.168H25.9097V314.172H152.756Z" fill="black"/>
<path d="M65.2052 312.167C65.7265 312.167 66.155 312.564 66.2036 313.073L66.2082 313.17V393.171C66.2082 393.725 65.7591 394.174 65.2052 394.174C64.6838 394.174 64.2553 393.776 64.2067 393.268L64.2021 393.171V313.17C64.2021 312.616 64.6512 312.167 65.2052 312.167Z" fill="black"/>
<path d="M51.8311 289.48H11.5338C10.7577 289.48 10.2756 290.324 10.6698 290.992L24.0434 313.679C24.2237 313.985 24.5523 314.172 24.9074 314.172H65.2047C65.9809 314.172 66.463 313.329 66.0688 312.66L52.6952 289.974C52.5149 289.668 52.1862 289.48 51.8311 289.48ZM51.2579 291.485L63.4493 312.166H25.4796L13.2889 291.485H51.2579Z" fill="black"/>
<path d="M167.054 289.48H126.757C126.402 289.48 126.073 289.668 125.893 289.974L112.519 312.66C112.125 313.329 112.607 314.172 113.383 314.172H153.681C154.036 314.172 154.364 313.985 154.545 313.679L167.918 290.992C168.313 290.324 167.831 289.48 167.054 289.48ZM165.298 291.485L153.108 312.166H115.139L127.33 291.485H165.298Z" fill="black"/>
<path fill-rule="evenodd" clip-rule="evenodd" d="M24.9072 393.171H65.2045V313.169H24.9072V393.171Z" fill="black"/>
<path d="M117.483 312.167H100.337C99.7831 312.167 99.334 312.616 99.334 313.17V332.439L99.3375 332.525C99.394 333.205 100.113 333.641 100.75 333.353L108.91 329.662L117.07 333.353C117.734 333.653 118.486 333.167 118.486 332.439V313.17C118.486 312.616 118.037 312.167 117.483 312.167ZM116.48 314.172V330.884L109.323 327.648L109.223 327.609C108.986 327.531 108.727 327.544 108.497 327.648L101.34 330.884V314.172H116.48Z" fill="black"/>
<path d="M117.483 372.628H100.337C99.7831 372.628 99.334 373.077 99.334 373.631V392.899C99.334 393.453 99.7831 393.902 100.337 393.902H117.483C118.037 393.902 118.486 393.453 118.486 392.899V373.631C118.486 373.077 118.037 372.628 117.483 372.628ZM116.48 374.634V391.896H101.339V374.634H116.48Z" fill="black"/>
<path fill-rule="evenodd" clip-rule="evenodd" d="M327.781 122.697C329.505 122.627 332.082 122.381 334.752 121.03C337.111 119.836 339.821 117.37 341.169 116.407C341.169 118.594 339.975 122.71 337.585 125.659C334.385 129.608 330.399 130.855 329.262 131.16C328.708 127.687 329.04 129.538 328.665 127.455C328.316 125.509 328.304 125.061 327.781 122.697Z" fill="black"/>
<path d="M340.585 115.591L340.355 115.763C339.636 116.314 337.871 117.729 337.442 118.057C336.801 118.548 336.223 118.964 335.679 119.323C335.183 119.649 334.723 119.92 334.299 120.135C332.22 121.187 330.176 121.596 327.74 121.695C327.116 121.72 326.666 122.303 326.801 122.913L327.008 123.871C327.128 124.448 327.217 124.923 327.306 125.44L327.558 126.951L327.903 128.928L327.995 129.559C328.057 129.969 328.146 130.536 328.271 131.318C328.364 131.906 328.947 132.283 329.521 132.129C332.523 131.322 335.695 129.583 338.364 126.29C340.65 123.47 342.171 119.212 342.171 116.407C342.171 115.591 341.249 115.117 340.585 115.591ZM339.847 118.715L339.788 118.948C339.252 121.001 338.178 123.333 336.805 125.027C335.462 126.685 333.882 127.956 332.167 128.896L331.877 129.052C331.301 129.353 330.754 129.596 330.235 129.792L330.07 129.852L329.849 128.387L329.592 126.941L329.283 125.1C329.222 124.747 329.161 124.412 329.091 124.055L329.005 123.624L329.196 123.608C331.324 123.407 333.241 122.918 335.204 121.925C335.702 121.673 336.225 121.364 336.781 120.999C337.286 120.667 337.81 120.293 338.376 119.867L338.857 119.499L339.847 118.715Z" fill="black"/>
<path fill-rule="evenodd" clip-rule="evenodd" d="M584.611 345.178V393.971H412.574C414.057 392.333 427.258 373.587 444.284 373.587C461.485 373.587 470.448 384.318 484.852 373.01C489.832 369.1 497.486 363.637 503.658 363.637C509.616 363.637 515.207 366.303 520.893 368.067C526.898 369.932 532.552 369.891 538.524 367.696C543.327 365.931 547.835 363.2 552.326 360.505C562.609 354.333 573.23 347.837 584.611 345.178Z" fill="black"/>
<path d="M544.478 311.349C560.016 311.349 572.61 323.947 572.61 339.487C572.61 355.027 560.016 367.625 544.478 367.625C535.585 367.625 527.382 363.474 522.095 356.538C521.759 356.097 521.844 355.468 522.285 355.132C522.725 354.796 523.355 354.881 523.691 355.322C528.602 361.765 536.217 365.619 544.478 365.619C558.908 365.619 570.604 353.92 570.604 339.487C570.604 325.055 558.908 313.355 544.478 313.355C531.372 313.355 520.346 323.055 518.591 335.912C518.516 336.461 518.01 336.845 517.461 336.77C516.912 336.695 516.528 336.189 516.603 335.64C518.493 321.793 530.366 311.349 544.478 311.349Z" fill="black"/>
<path d="M437.181 348.921C437.304 348.455 437.738 348.147 438.21 348.175L438.305 348.185L451.176 350.179L468.669 352.879C469.216 352.964 469.592 353.476 469.507 354.024C469.428 354.539 468.969 354.902 468.459 354.872L468.363 354.862L450.87 352.161L438.891 350.305L430.682 381.429L428.723 388.845C428.582 389.381 428.033 389.7 427.497 389.559C426.993 389.426 426.68 388.932 426.763 388.427L426.784 388.333L428.743 380.917L437.181 348.921Z" fill="black"/>
<path d="M472.731 282.282C473.046 282.034 473.476 282 473.824 282.187L473.909 282.238L512.632 308.257C512.965 308.48 513.13 308.878 513.06 309.267L513.038 309.364L505.441 336.051C505.29 336.584 504.735 336.893 504.202 336.741C503.701 336.598 503.397 336.098 503.49 335.596L503.512 335.502L510.909 309.515L473.394 284.31L437.832 312.203L451.761 350.268L468.669 352.879C469.184 352.959 469.547 353.417 469.517 353.928L469.507 354.024C469.427 354.539 468.969 354.902 468.459 354.872L468.363 354.862L450.87 352.161C450.542 352.11 450.262 351.901 450.12 351.606L450.081 351.515L435.698 312.209C435.56 311.832 435.661 311.413 435.946 311.14L436.021 311.075L472.731 282.282Z" fill="black"/>
<path d="M522.892 334.771H468.517C467.963 334.771 467.514 335.22 467.514 335.774V382.992C467.514 383.546 467.963 383.995 468.517 383.995H522.892C523.446 383.995 523.895 383.546 523.895 382.992V335.774C523.895 335.22 523.446 334.771 522.892 334.771ZM521.889 336.777V381.989H469.519V336.777H521.889Z" fill="black"/>
</svg>
