<svg width="494" height="468" viewBox="0 0 494 468" fill="none" xmlns="http://www.w3.org/2000/svg">
<path fill-rule="evenodd" clip-rule="evenodd" d="M283.423 80.0952C302.65 102.984 306.538 139.271 302.117 170.924C297.644 202.577 284.861 229.541 265.581 249.359C246.301 269.178 220.577 281.85 195.811 280.901C170.992 279.896 147.131 265.27 123.804 245.452C100.476 225.633 77.6274 200.623 75.71 173.659C73.8459 146.64 92.9129 117.722 116.294 94.8332C139.622 71.9446 167.21 55.0851 198.367 51.4006C229.524 47.7161 264.143 57.2065 283.423 80.0952Z" fill="black" fill-opacity="0.04"/>
<path fill-rule="evenodd" clip-rule="evenodd" d="M358.034 175.328C374.653 191.619 386.38 223.041 388.319 257.361C390.303 291.617 382.544 328.834 365.969 352.015C349.349 375.195 323.869 384.339 299.27 383.18C274.628 381.956 250.822 370.366 229.53 347.186C208.238 324.005 189.414 289.234 189.679 254.85C189.943 220.466 209.252 186.468 230.588 170.177C251.88 153.822 275.157 155.238 297.551 156.526C319.946 157.814 341.458 159.037 358.034 175.328Z" fill="black" fill-opacity="0.04"/>
<path fill-rule="evenodd" clip-rule="evenodd" d="M204.329 11.4725C204.358 11.4282 204.386 11.3833 204.416 11.3391C206.752 7.81795 210.598 8.07181 214.322 7.89639C218.965 7.67748 223.602 7.2097 227.999 5.606C235.144 3.00043 242.327 -0.782421 250.177 0.142435C256.162 0.846951 259.626 4.96851 259.48 10.9876C259.473 11.2792 259.459 11.5694 259.438 11.8596C259.421 12.1114 262.289 14.0809 262.59 14.3654C263.949 15.6503 265.278 17.1592 266.156 18.8214C270.293 26.6531 266.488 36.0029 262.199 42.8534C261.988 43.1906 259.696 46.4979 259.738 46.54C258.036 44.8756 257.195 44.3815 254.736 40.23C256.664 38.7168 257.406 36.1063 257.169 34.5689C256.851 32.5152 255.7 30.801 250.805 32.1958C249.964 31.2595 248.947 28.5841 248.168 26.355C247.691 24.9952 247.499 23.7637 247.427 22.801C241.811 25.7303 236.882 27.1986 233.507 27.9837C223.262 30.3689 206.772 31.9291 203.397 18.6153C202.791 16.2222 203.012 13.5546 204.329 11.4725Z" fill="black"/>
<path d="M260.582 41.8973C261.173 41.9122 261.64 42.4028 261.626 42.9933C261.555 45.8488 261.004 48.7742 259.845 51.6765C257.937 56.4659 255.038 59.8681 251.699 62.4209L251.563 62.5225L251.564 77.3791C251.564 77.6698 251.446 77.9464 251.239 78.1467L251.158 78.2181L240.226 86.8613C239.855 87.1553 239.338 87.1672 238.955 86.9023L238.869 86.8363L228.729 78.1931C228.517 78.0125 228.385 77.7573 228.359 77.4828L228.354 77.3791V67.6478C228.354 67.0571 228.832 66.5782 229.423 66.5782C229.979 66.5782 230.436 67.0024 230.488 67.5448L230.493 67.6478L230.492 76.8845L239.588 84.6377L249.424 76.861L249.425 61.9846C249.425 61.68 249.555 61.3918 249.778 61.1902L249.866 61.1188C253.147 58.7384 256.012 55.5179 257.858 50.8841C258.918 48.2287 259.422 45.5528 259.487 42.9405C259.501 42.3499 259.992 41.883 260.582 41.8973Z" fill="black"/>
<path d="M250.201 76.3512C250.736 76.1999 251.291 76.4837 251.489 76.9915L251.522 77.0893L256.498 94.6779C256.749 95.5656 255.84 96.3175 255.027 95.944L254.944 95.9013L239.567 87.25L224.375 95.8987C223.556 96.3646 222.596 95.6243 222.802 94.7352L222.826 94.6459L228.402 77.0572C228.581 76.4941 229.182 76.1823 229.745 76.3608C230.275 76.5289 230.582 77.0713 230.468 77.604L230.441 77.7037L225.69 92.6872L239.035 85.0919C239.329 84.9247 239.682 84.9072 239.988 85.0396L240.088 85.0893L253.733 92.7649L249.463 77.6716C249.312 77.1366 249.596 76.5815 250.104 76.384L250.201 76.3512Z" fill="black"/>
<path d="M228.946 73.8336C229.475 73.5702 230.117 73.7854 230.38 74.3142C230.643 74.843 230.428 75.4851 229.899 75.7485L228.28 76.5432C226.685 77.3164 224.609 78.301 221.816 79.6101L201.288 89.1892L200.387 89.6185L199.942 90.2434C198.292 92.5114 194.62 97.1604 187.623 105.891L174.462 122.306L172.506 124.768L172.95 125.314C174.924 127.729 176.961 130.131 179.063 132.52L180.12 133.713C182.789 136.706 185.5 139.603 188.253 142.412L188.593 142.757L197.055 132.154C197.703 131.341 199.012 131.838 198.959 132.876L193.683 235.218L257.503 235.218C258.059 235.218 258.516 235.642 258.568 236.185L258.573 236.288C258.573 236.844 258.149 237.301 257.606 237.353L257.503 237.357H192.557C191.944 237.357 191.457 236.844 191.489 236.233L196.65 136.09L189.512 145.033C189.113 145.532 188.368 145.572 187.918 145.119C184.731 141.909 181.599 138.586 178.524 135.137C175.667 131.931 172.929 128.702 170.304 125.449C169.99 125.061 169.987 124.506 170.297 124.114L175.621 117.431L189.525 100.09C195.06 93.1567 197.791 89.6481 198.781 88.1788C198.888 88.0206 199.035 87.8938 199.207 87.8115L204.315 85.4033L220.896 77.6789C224.738 75.8777 227.22 74.6932 228.946 73.8336Z" fill="black"/>
<path d="M249.517 72.8493C249.745 72.3418 250.318 72.098 250.835 72.2723L250.931 72.3099L282.379 86.3838C282.569 86.469 282.73 86.6078 282.842 86.7821L282.893 86.8721L305.561 131.085C305.781 131.516 305.684 132.036 305.334 132.359L305.256 132.425L303.18 134L303.095 134.072L285.34 147.563C284.862 147.926 284.186 147.822 283.835 147.351L283.777 147.264L274.51 131.898L278.218 197.682C278.218 198.273 277.739 198.751 277.148 198.751C276.592 198.751 276.135 198.327 276.084 197.785L272.132 127.715C272.071 126.635 273.452 126.175 274.061 127.019L274.116 127.102L284.993 145.138L301.72 132.43L301.801 132.361L303.248 131.263L281.162 88.1831L250.057 74.2625C249.549 74.0354 249.306 73.4615 249.48 72.9453L249.517 72.8493Z" fill="black"/>
<path d="M302.449 132.143C302.901 132.143 303.287 132.423 303.444 132.819L303.456 132.855L313.336 156.575C314.416 159.168 314.271 162.104 312.95 164.572L312.819 164.809L270.548 238.593C268.325 242.474 263.543 244.042 259.467 242.263L259.26 242.169L258.524 241.825C256.74 240.993 255.948 238.901 256.707 237.105L256.774 236.956L261.372 227.288L258.218 227.288C256.437 227.288 254.983 225.885 254.904 224.123L254.9 223.971C254.9 222.661 255.671 221.479 256.858 220.944L257.003 220.883L267.339 216.811L276.152 197.282L276.173 197.228L293.395 159.026L285.646 145.826C285.364 145.347 285.499 144.738 285.94 144.419L286.026 144.363C286.506 144.081 287.115 144.216 287.434 144.657L287.49 144.743L295.52 158.421C295.676 158.687 295.709 159.005 295.614 159.295L295.572 159.402L278.141 198.067L278.123 198.115L269.11 218.088C269.01 218.31 268.837 218.49 268.622 218.6L268.527 218.643L257.788 222.873C257.336 223.052 257.04 223.487 257.04 223.971C257.04 224.587 257.513 225.093 258.117 225.145L258.218 225.149H263.065C263.82 225.149 264.327 225.904 264.067 226.593L264.031 226.678L258.706 237.875C258.363 238.596 258.643 239.451 259.329 239.836L259.429 239.887L260.166 240.231C263.218 241.657 266.842 240.555 268.591 237.7L268.692 237.53L310.963 163.746C312.034 161.876 312.209 159.628 311.449 157.62L311.361 157.398L301.461 133.631C301.421 133.533 301.395 133.43 301.384 133.325L301.379 133.213C301.379 132.622 301.858 132.143 302.449 132.143Z" fill="black"/>
<path d="M113.039 86.2446C113.238 85.8483 113.657 85.6184 114.092 85.6576L114.192 85.6715L139.704 90.4299C141.45 90.736 142.976 91.7772 143.899 93.2828L144.007 93.4657L166.197 132.646L172.377 126.466C172.769 126.075 173.388 126.05 173.808 126.393L173.89 126.466C174.281 126.858 174.306 127.478 173.963 127.898L173.89 127.979L166.716 135.153C166.241 135.628 165.461 135.549 165.085 135.013L165.029 134.924L142.146 94.5203C141.583 93.5277 140.628 92.8224 139.511 92.5724L139.323 92.535L114.592 87.922L113.442 90.2217L136.047 99.913C136.268 100.008 136.449 100.173 136.564 100.382L136.608 100.474L157.473 149.027C160.521 156.114 169.732 157.883 175.191 152.498L175.355 152.333L185.873 141.536C186.285 141.113 186.962 141.104 187.385 141.517C187.782 141.903 187.815 142.522 187.478 142.947L187.405 143.029L176.888 153.825C170.453 160.436 159.413 158.472 155.62 150.127L155.508 149.872L134.812 101.711L111.557 91.7414C111.022 91.5124 110.774 90.9033 110.98 90.3726L111.021 90.2799L113.039 86.2446Z" fill="black"/>
<path d="M274.333 228.757L274.437 228.762C274.99 228.811 275.407 229.275 275.411 229.82L275.406 229.923L257.037 434.646C256.99 435.163 256.581 435.566 256.074 435.615L255.971 435.62H237.125C236.585 435.62 236.135 435.218 236.065 434.693L236.056 434.593L229.411 268.519L212.528 336.619L204.384 434.639C204.341 435.161 203.928 435.569 203.415 435.615L203.318 435.62H183.794C183.238 435.62 182.781 435.196 182.73 434.653L182.725 434.55V332.746L182.734 332.601L195.876 236.143C195.956 235.558 196.495 235.148 197.081 235.228C197.631 235.303 198.027 235.785 198.005 236.329L197.996 236.432L184.864 332.816V433.48H202.333L210.403 336.357C210.406 336.329 210.409 336.3 210.414 336.272L210.431 336.188L229.141 260.717C229.43 259.551 231.097 259.686 231.24 260.825L231.248 260.931L238.152 433.48H254.994L273.276 229.731C273.322 229.212 273.732 228.813 274.232 228.763L274.333 228.757Z" fill="black"/>
<path d="M251.991 433.481C252.547 433.481 253.004 433.905 253.055 434.448L253.06 434.551L253.06 446.793L260.627 457.627C260.731 457.777 260.795 457.95 260.814 458.131L260.819 458.24V466.254C260.819 466.81 260.395 467.267 259.853 467.318L259.75 467.323H231.583C231.027 467.323 230.57 466.899 230.519 466.357L230.514 466.254V458.24C230.514 458.015 230.584 457.797 230.714 457.617L230.784 457.529L239.918 447.243L239.918 434.551C239.918 433.995 240.343 433.538 240.885 433.486L240.988 433.481C241.544 433.481 242.001 433.905 242.053 434.448L242.058 434.551V447.65C242.058 447.874 241.987 448.092 241.857 448.273L241.788 448.36L232.653 458.645V465.184H258.68V458.576L251.114 447.742C251.009 447.593 250.945 447.419 250.927 447.239L250.921 447.13V434.551C250.921 433.96 251.4 433.481 251.991 433.481Z" fill="black"/>
<path d="M259.748 457.172C260.339 457.172 260.818 457.651 260.818 458.242C260.818 458.798 260.394 459.255 259.851 459.307L259.748 459.312H231.581C230.991 459.312 230.512 458.833 230.512 458.242C230.512 457.686 230.936 457.229 231.478 457.177L231.581 457.172H259.748Z" fill="black"/>
<path d="M198.376 433.481C198.932 433.481 199.389 433.905 199.441 434.448L199.446 434.551L199.445 446.793L207.011 457.627C207.116 457.777 207.18 457.95 207.198 458.131L207.204 458.24V466.254C207.204 466.81 206.78 467.267 206.237 467.318L206.134 467.323H177.968C177.412 467.323 176.955 466.899 176.903 466.357L176.898 466.254V458.24C176.898 458.027 176.961 457.821 177.078 457.646L177.141 457.561L185.59 447.267L185.591 434.551C185.591 433.995 186.015 433.538 186.557 433.486L186.66 433.481C187.216 433.481 187.673 433.905 187.725 434.448L187.73 434.551V447.65C187.73 447.862 187.667 448.068 187.55 448.243L187.487 448.328L179.037 458.623V465.184H205.064V458.575L197.499 447.742C197.395 447.593 197.331 447.419 197.312 447.239L197.307 447.13V434.551C197.307 433.96 197.785 433.481 198.376 433.481Z" fill="black"/>
<path d="M206.135 457.172C206.726 457.172 207.205 457.651 207.205 458.242C207.205 458.798 206.781 459.255 206.238 459.307L206.135 459.312H177.968C177.377 459.312 176.898 458.833 176.898 458.242C176.898 457.686 177.323 457.229 177.865 457.177L177.968 457.172H206.135Z" fill="black"/>
<path d="M217.118 25.5986C217.273 25.0285 217.861 24.6919 218.431 24.8467C219.001 25.0016 219.337 25.5892 219.182 26.1593C216.274 36.8674 216.146 47.3912 219.434 55.8274C221.104 60.1104 223.921 63.656 227.444 65.6528C231.148 67.7523 236.195 67.6367 241.429 65.7799C241.986 65.5824 242.597 65.8736 242.795 66.4303C242.992 66.987 242.701 67.5985 242.144 67.796C236.381 69.8406 230.723 69.9702 226.389 67.5138C222.408 65.2571 219.28 61.3204 217.441 56.6044C213.966 47.688 214.099 36.713 217.118 25.5986Z" fill="black"/>
<path fill-rule="evenodd" clip-rule="evenodd" d="M460.18 294.146H268.568L273.261 247.383H460.18V294.146Z" fill="black"/>
<path fill-rule="evenodd" clip-rule="evenodd" d="M114.839 86.4918C114.839 92.9544 109.6 98.1926 103.138 98.1926C96.6757 98.1926 91.4375 92.9544 91.4375 86.4918C91.4375 80.0293 96.6757 74.791 103.138 74.791C109.6 74.791 114.839 80.0293 114.839 86.4918Z" fill="black"/>
<path d="M103.613 89.4912C104.169 89.4912 104.626 89.9154 104.677 90.4578L104.682 90.5608V186.514C104.682 187.07 104.258 187.527 103.716 187.579L103.613 187.584H53.2884C52.7324 187.584 52.2755 187.159 52.2237 186.617L52.2188 186.514V132.611C52.2188 132.02 52.6976 131.541 53.2884 131.541C53.8443 131.541 54.3012 131.965 54.3531 132.508L54.358 132.611L54.3573 185.444H102.542L102.543 90.5608C102.543 90.0048 102.967 89.5479 103.51 89.4961L103.613 89.4912Z" fill="black"/>
<path fill-rule="evenodd" clip-rule="evenodd" d="M41.3574 126.823L53.8055 105.535L66.0825 126.823H41.3574Z" fill="black"/>
<path d="M101.95 47.5605C102.506 47.5605 102.963 47.9847 103.015 48.5271L103.02 48.6302V64.4939C103.02 65.0846 102.541 65.5635 101.95 65.5635C101.394 65.5635 100.938 65.1393 100.886 64.5969L100.881 64.4939V48.6302C100.881 48.0394 101.36 47.5605 101.95 47.5605Z" fill="black"/>
<path d="M125.561 55.8807C125.979 55.463 126.656 55.463 127.074 55.8807C127.465 56.2723 127.49 56.892 127.147 57.3121L127.074 57.3933L114.191 70.2757C113.773 70.6934 113.096 70.6934 112.679 70.2757C112.287 69.8841 112.262 69.2644 112.605 68.8443L112.679 68.763L125.561 55.8807Z" fill="black"/>
<path d="M394.362 55.5674C394.918 55.5674 395.375 55.9916 395.427 56.534L395.432 56.637V86.022C395.432 86.578 395.008 87.0349 394.465 87.0867L394.362 87.0916H302.862C302.271 87.0916 301.792 86.6127 301.792 86.022C301.792 85.466 302.217 85.0091 302.759 84.9573L302.862 84.9524L393.292 84.9523V57.7065L274.339 57.7066C273.783 57.7066 273.326 57.2824 273.274 56.74L273.27 56.637C273.27 56.081 273.694 55.6241 274.236 55.5723L274.339 55.5674H394.362Z" fill="black"/>
<path d="M394.363 84.9521C394.919 84.9521 395.376 85.3763 395.428 85.9187L395.433 86.0218V197.682C395.433 198.238 395.009 198.695 394.466 198.747L394.363 198.751H306.298C305.707 198.751 305.229 198.273 305.229 197.682C305.229 197.126 305.653 196.669 306.195 196.617L306.298 196.612L393.293 196.612L393.294 86.0218C393.294 85.4658 393.718 85.0089 394.26 84.957L394.363 84.9521Z" fill="black"/>
<path d="M372.93 65.6248C373.322 65.2332 373.942 65.2087 374.362 65.5514L374.443 65.6248L383.555 74.7364C383.973 75.1542 383.973 75.8314 383.555 76.2491C383.163 76.6407 382.543 76.6652 382.123 76.3225L382.042 76.2491L372.93 67.1375C372.513 66.7198 372.513 66.0425 372.93 65.6248Z" fill="black"/>
<path d="M382.042 65.6248C382.46 65.2071 383.137 65.2071 383.555 65.6248C383.946 66.0164 383.971 66.6361 383.628 67.0562L383.555 67.1375L374.443 76.2491C374.025 76.6668 373.348 76.6668 372.93 76.2491C372.539 75.8575 372.514 75.2378 372.857 74.8177L372.93 74.7365L382.042 65.6248Z" fill="black"/>
<path fill-rule="evenodd" clip-rule="evenodd" d="M361.424 116.853C361.424 119.449 359.32 121.553 356.724 121.553C354.128 121.553 352.023 119.449 352.023 116.853C352.023 114.257 354.128 112.152 356.724 112.152C359.32 112.152 361.424 114.257 361.424 116.853Z" fill="black"/>
<path fill-rule="evenodd" clip-rule="evenodd" d="M337.717 116.853C337.717 119.449 335.613 121.553 333.017 121.553C330.421 121.553 328.316 119.449 328.316 116.853C328.316 114.257 330.421 112.152 333.017 112.152C335.613 112.152 337.717 114.257 337.717 116.853Z" fill="black"/>
<path fill-rule="evenodd" clip-rule="evenodd" d="M314.01 116.853C314.01 119.449 311.906 121.553 309.31 121.553C306.714 121.553 304.609 119.449 304.609 116.853C304.609 114.257 306.714 112.152 309.31 112.152C311.906 112.152 314.01 114.257 314.01 116.853Z" fill="black"/>
<path fill-rule="evenodd" clip-rule="evenodd" d="M361.424 140.184C361.424 142.781 359.32 144.884 356.724 144.884C354.128 144.884 352.023 142.781 352.023 140.184C352.023 137.588 354.128 135.484 356.724 135.484C359.32 135.484 361.424 137.588 361.424 140.184Z" fill="black"/>
<path fill-rule="evenodd" clip-rule="evenodd" d="M337.717 140.184C337.717 142.781 335.613 144.884 333.017 144.884C330.421 144.884 328.316 142.781 328.316 140.184C328.316 137.588 330.421 135.484 333.017 135.484C335.613 135.484 337.717 137.588 337.717 140.184Z" fill="black"/>
<path fill-rule="evenodd" clip-rule="evenodd" d="M314.01 140.184C314.01 142.781 311.906 144.884 309.31 144.884C306.714 144.884 304.609 142.781 304.609 140.184C304.609 137.588 306.714 135.484 309.31 135.484C311.906 135.484 314.01 137.588 314.01 140.184Z" fill="black"/>
<path fill-rule="evenodd" clip-rule="evenodd" d="M361.424 163.516C361.424 166.112 359.32 168.216 356.724 168.216C354.128 168.216 352.023 166.112 352.023 163.516C352.023 160.92 354.128 158.816 356.724 158.816C359.32 158.816 361.424 160.92 361.424 163.516Z" fill="black"/>
<path fill-rule="evenodd" clip-rule="evenodd" d="M337.717 163.516C337.717 166.112 335.613 168.216 333.017 168.216C330.421 168.216 328.316 166.112 328.316 163.516C328.316 160.92 330.421 158.816 333.017 158.816C335.613 158.816 337.717 160.92 337.717 163.516Z" fill="black"/>
<path d="M469.316 113.352C472.233 113.352 474.648 114.186 476.814 115.79C478.364 116.938 479.41 118.06 481.491 120.618L482.14 121.414C486.007 126.109 488.19 127.614 492.427 127.614C493.018 127.614 493.497 128.092 493.497 128.683C493.497 129.274 493.018 129.753 492.427 129.753C489.51 129.753 487.096 128.918 484.93 127.314L484.626 127.085C483.235 126.01 482.195 124.874 480.252 122.486L479.604 121.691C475.736 116.996 473.553 115.491 469.316 115.491C465.08 115.491 462.896 116.996 459.029 121.691L457.977 122.979C456.157 125.195 455.15 126.243 453.703 127.314C451.537 128.918 449.123 129.753 446.206 129.753C443.289 129.753 440.875 128.918 438.709 127.314L438.405 127.085C437.015 126.01 435.975 124.874 434.032 122.486L433.821 122.226C429.676 117.11 427.491 115.491 423.098 115.491C418.783 115.491 416.598 117.052 412.595 121.955L411.76 122.979C409.94 125.195 408.932 126.243 407.486 127.314C405.32 128.919 402.906 129.753 399.989 129.753C397.072 129.753 394.658 128.918 392.493 127.314L392.189 127.085C390.798 126.01 389.758 124.874 387.816 122.486L387.384 121.955L386.954 121.433C383.219 116.941 381.039 115.491 376.882 115.491C376.291 115.491 375.812 115.012 375.812 114.422C375.812 113.831 376.291 113.352 376.882 113.352C379.799 113.352 382.212 114.186 384.378 115.79L384.682 116.02C386.023 117.056 387.038 118.149 388.85 120.367L389.266 120.879C393.411 125.995 395.596 127.614 399.989 127.614C404.225 127.614 406.408 126.109 410.275 121.414L411.538 119.869C413.227 117.828 414.211 116.82 415.601 115.79C417.767 114.186 420.181 113.352 423.098 113.352C426.015 113.352 428.429 114.186 430.595 115.79C432.145 116.938 433.19 118.06 435.271 120.618L435.92 121.414C439.787 126.109 441.97 127.614 446.206 127.614C450.442 127.614 452.626 126.109 456.493 121.414L457.736 119.892C459.437 117.835 460.424 116.824 461.819 115.79C463.985 114.186 466.399 113.352 469.316 113.352Z" fill="black"/>
<path d="M469.316 138.401C472.233 138.401 474.648 139.236 476.814 140.84L477.118 141.069C478.359 142.029 479.322 143.037 480.896 144.942L482.14 146.463C486.007 151.158 488.19 152.663 492.427 152.663C493.018 152.663 493.497 153.142 493.497 153.732C493.497 154.323 493.018 154.802 492.427 154.802C489.51 154.802 487.096 153.968 484.93 152.364L484.626 152.134C483.235 151.06 482.195 149.924 480.252 147.536L480.041 147.275C475.895 142.159 473.71 140.541 469.316 140.541C465.001 140.541 462.816 142.102 458.812 147.004L457.977 148.029C456.157 150.244 455.15 151.292 453.703 152.364C451.537 153.968 449.123 154.802 446.206 154.802C443.289 154.802 440.875 153.968 438.709 152.364L438.405 152.134C437.015 151.06 435.975 149.924 434.032 147.536L433.821 147.275C429.676 142.159 427.491 140.541 423.098 140.541C418.783 140.541 416.598 142.102 412.595 147.004L411.76 148.029C409.94 150.244 408.932 151.292 407.486 152.364C405.32 153.968 402.906 154.802 399.989 154.802C397.072 154.802 394.658 153.968 392.493 152.364L392.189 152.134C390.798 151.06 389.758 149.924 387.816 147.536L387.384 147.004L386.954 146.482C383.219 141.99 381.039 140.541 376.882 140.541C376.291 140.541 375.812 140.062 375.812 139.471C375.812 138.88 376.291 138.401 376.882 138.401C379.799 138.401 382.212 139.236 384.378 140.84L384.682 141.069C386.023 142.105 387.038 143.198 388.85 145.416L389.266 145.928C393.411 151.044 395.596 152.663 399.989 152.663C404.225 152.663 406.408 151.158 410.275 146.464L411.538 144.918C413.227 142.877 414.211 141.869 415.601 140.84C417.767 139.236 420.181 138.401 423.098 138.401C426.015 138.401 428.429 139.236 430.595 140.84L430.898 141.069C432.289 142.144 433.329 143.28 435.271 145.668L435.92 146.463C439.787 151.158 441.97 152.663 446.206 152.663C450.442 152.663 452.626 151.158 456.493 146.463L457.736 144.942C459.437 142.885 460.424 141.873 461.819 140.84C463.985 139.236 466.399 138.401 469.316 138.401Z" fill="black"/>
<path d="M488.933 465.184C489.523 465.184 490.002 465.663 490.002 466.254C490.002 466.81 489.578 467.267 489.036 467.318L488.933 467.323H1.06961C0.47888 467.323 0 466.844 0 466.254C0 465.698 0.424199 465.241 0.966599 465.189L1.06961 465.184H488.933Z" fill="black"/>
<path fill-rule="evenodd" clip-rule="evenodd" d="M177.967 466.254H206.134V458.242H177.967V466.254Z" fill="black"/>
<path fill-rule="evenodd" clip-rule="evenodd" d="M231.582 466.254H259.749V458.242H231.582V466.254Z" fill="black"/>
<path fill-rule="evenodd" clip-rule="evenodd" d="M314.515 264.333C314.913 263.903 315.577 263.878 316.006 264.257L316.084 264.333L325.876 274.896L335.669 264.333C336.067 263.903 336.73 263.878 337.16 264.257L337.238 264.333L347.031 274.896L356.827 264.333C357.225 263.903 357.888 263.878 358.318 264.257L358.395 264.333L368.187 274.896L377.983 264.333C378.381 263.903 379.044 263.878 379.474 264.257L379.551 264.333L389.343 274.896L399.143 264.333C399.542 263.904 400.205 263.878 400.634 264.257L400.712 264.333L411.295 275.742C411.697 276.175 411.671 276.852 411.238 277.254C410.832 277.63 410.212 277.632 409.805 277.273L409.727 277.197L399.927 266.633L390.128 277.197C389.729 277.626 389.066 277.652 388.637 277.272L388.559 277.197L378.766 266.633L368.971 277.197C368.573 277.626 367.91 277.652 367.48 277.272L367.403 277.197L357.61 266.633L347.815 277.197C347.417 277.626 346.754 277.652 346.324 277.273L346.247 277.197L336.453 266.633L326.66 277.197C326.262 277.626 325.598 277.652 325.169 277.272L325.091 277.197L315.299 266.633L305.505 277.197C305.107 277.626 304.444 277.652 304.014 277.273L303.936 277.197L293.359 265.788C292.958 265.354 292.983 264.678 293.417 264.276C293.823 263.899 294.443 263.898 294.85 264.257L294.928 264.333L304.721 274.896L314.515 264.333ZM434.877 275.332C435.468 275.332 435.946 275.811 435.946 276.402C435.946 276.958 435.522 277.415 434.98 277.467L434.877 277.472H420.738C420.147 277.472 419.668 276.993 419.668 276.402C419.668 275.846 420.093 275.389 420.635 275.337L420.738 275.332H434.877Z" stroke="white" stroke-width="3" stroke-linecap="round" stroke-linejoin="round"/>
<path fill-rule="evenodd" clip-rule="evenodd" d="M229.626 67.707C231.149 68.0607 233.458 68.4094 236.24 68.117C238.723 67.856 240.711 67.1758 242.068 66.5903C241.507 67.8147 240.006 70.657 236.752 72.814C233.727 74.8206 230.77 75.1843 229.422 75.2677C229.49 72.747 229.557 70.227 229.626 67.707Z" fill="black"/>
<path d="M241.645 65.6081C239.984 66.325 238.162 66.8395 236.129 67.0531C233.876 67.2899 231.801 67.1135 229.869 66.6649C229.21 66.5119 228.576 67.0015 228.558 67.6778L228.354 75.2385C228.337 75.8665 228.862 76.3739 229.489 76.3351C232.062 76.1759 234.715 75.4492 237.345 73.7052C240.154 71.8432 241.91 69.5073 243.041 67.0354C243.449 66.1446 242.544 65.2199 241.645 65.6081ZM239.698 68.5528L239.636 68.6388C238.753 69.8392 237.621 70.9556 236.163 71.9224L235.866 72.1143C234.083 73.2363 232.287 73.8302 230.525 74.0813L230.662 69.0042L230.93 69.0487C232.633 69.3148 234.434 69.3822 236.353 69.1806C237.409 69.0696 238.414 68.8857 239.373 68.64L239.698 68.5528Z" fill="black"/>
<path fill-rule="evenodd" clip-rule="evenodd" d="M419.318 369.819C419.318 376.282 414.079 381.521 407.617 381.521C401.154 381.521 395.916 376.282 395.916 369.819C395.916 363.356 401.154 358.118 407.617 358.118C414.079 358.118 419.318 363.356 419.318 369.819Z" fill="black"/>
<path fill-rule="evenodd" clip-rule="evenodd" d="M411.848 449.175H434.764V426.258H411.848V449.175Z" fill="black"/>
<path fill-rule="evenodd" clip-rule="evenodd" d="M330.152 326.557H419.317V310.954H330.152V326.557Z" fill="black"/>
<path fill-rule="evenodd" clip-rule="evenodd" d="M344.906 380.312L357.354 359.024L369.631 380.312H344.906Z" fill="black"/>
<path d="M433.763 300.251C434.319 300.251 434.776 300.675 434.828 301.218L434.833 301.321V397.274C434.833 397.83 434.409 398.287 433.866 398.338L433.763 398.343H383.439C382.883 398.343 382.426 397.919 382.374 397.377L382.369 397.274L382.369 344.44H331.934V436.647H423.306C423.862 436.647 424.319 437.072 424.371 437.614L424.375 437.717C424.375 438.273 423.951 438.73 423.409 438.782L423.306 438.787H330.865C330.309 438.787 329.852 438.362 329.8 437.82L329.795 437.717V343.37C329.795 342.814 330.219 342.357 330.762 342.306L330.865 342.301H383.439C383.995 342.301 384.452 342.725 384.503 343.267L384.508 343.37L384.508 396.204H432.693L432.693 301.321C432.693 300.765 433.118 300.308 433.66 300.256L433.763 300.251Z" fill="black"/>
<path d="M110.188 413.831H16.9954C16.4047 413.831 15.9258 414.31 15.9258 414.901V466.931C15.9258 467.521 16.4047 468 16.9954 468H110.188C110.779 468 111.258 467.521 111.258 466.931V414.901C111.258 414.31 110.779 413.831 110.188 413.831ZM109.118 415.97V465.86H18.0644V415.97H109.118Z" fill="black"/>
<path d="M100.888 358.396L100.815 358.473C100.538 358.764 100.257 359.07 99.9703 359.391L99.6812 359.717C98.2738 361.321 93.0339 367.969 92.6527 368.436C89.6301 372.143 83.8915 381.604 79.67 389.214C79.0587 390.316 77.3774 389.639 77.7008 388.421L77.8305 387.924C79.0574 383.156 81.3075 372.529 81.7382 368.897L81.8596 367.767C82.7029 359.759 82.9973 354.937 82.7039 351.038L82.685 350.803L82.435 351.16C77.779 357.873 73.9898 365.488 71.4976 374.283L71.3085 374.962C69.5911 381.231 68.7536 387.355 68.5886 393.359C68.5537 394.627 66.7313 394.79 66.4723 393.548C65.0284 386.621 63.0274 379.596 60.3754 372.511C57.6778 365.314 54.5167 358.608 50.9816 352.334L50.8442 352.092L50.8414 352.174C50.6492 357.974 50.7317 363.886 51.1252 369.918L51.2144 371.213C51.8141 379.521 52.9673 387.513 54.5843 395.226C54.8467 396.477 53.089 397.051 52.5626 395.885C49.8947 389.977 46.5415 384.166 42.2991 378.501C38.33 373.203 34.0234 368.616 29.467 364.598L28.9757 364.168L29.117 364.777C30.4136 370.279 32.1021 375.823 34.2514 381.41L34.6139 382.341C37.2223 388.975 40.2682 395.125 43.6517 400.833C44.3305 401.978 42.7243 403.086 41.8949 402.044C38.3002 397.531 33.9659 393.377 28.5731 389.768C24.7641 387.213 20.8957 385.253 16.983 383.748L16.857 383.7L17.0655 384.196C19.8317 390.698 23.4661 397.083 28.2408 403.258L28.7389 403.896C31.7027 407.655 34.8767 411.047 38.2179 414.113C38.6532 414.512 38.6822 415.189 38.2829 415.624C37.8835 416.059 37.2068 416.088 36.7716 415.689C33.348 412.547 30.0958 409.072 27.0588 405.22C21.2275 397.819 17.0163 390.118 13.975 382.273C13.6471 381.427 14.4551 380.582 15.3146 380.873C20.201 382.523 25.0267 384.814 29.7638 387.991C32.4617 389.796 34.9039 391.733 37.1277 393.78L37.581 394.202L37.1417 393.323C35.6703 390.351 34.2877 387.274 33.005 384.084L32.6232 383.124C29.7644 375.862 27.6769 368.668 26.2144 361.545C26.0122 360.561 27.1569 359.866 27.9369 360.5C33.6934 365.181 39.1042 370.669 44.0113 377.219C46.6157 380.697 48.8926 384.228 50.8869 387.802L51.0774 388.147L50.949 387.365C50.1711 382.561 49.5735 377.65 49.1759 372.626L49.0807 371.367C48.5107 363.497 48.4653 355.83 48.8662 348.347C48.9227 347.293 50.3092 346.949 50.8517 347.854C55.2509 355.193 59.1432 363.129 62.3787 371.761C64.173 376.554 65.6737 381.321 66.909 386.049L66.9539 386.226L66.999 385.837C67.4226 382.325 68.0897 378.771 69.0378 375.17L69.2452 374.397C72.121 363.896 76.7848 355.023 82.5571 347.338C83.1216 346.586 84.3115 346.876 84.4672 347.803L84.5401 348.257C85.2513 352.882 85.0362 358.019 83.9922 367.943L83.8868 368.934C83.6585 371.053 82.7424 375.808 81.7695 380.355L81.4664 381.754L82.1551 380.587C85.3005 375.285 88.5247 370.223 90.6806 367.477L94.7652 362.349C96.1113 360.669 97.4477 359.019 98.0733 358.306C99.3033 356.905 100.436 355.763 101.581 354.794C102.313 354.175 103.427 354.757 103.337 355.711C102.701 362.455 101.336 369.32 99.0521 376.288C96.0638 385.372 91.8822 393.479 86.8249 400.76C85.3676 402.856 83.869 404.836 82.3345 406.717C81.9611 407.175 81.2874 407.244 80.8296 406.87C80.3718 406.497 80.3034 405.823 80.6767 405.365C82.1775 403.525 83.6432 401.589 85.0681 399.539C90.0125 392.421 94.0997 384.497 97.0197 375.62C98.8947 369.901 100.136 364.252 100.853 358.683L100.888 358.396Z" fill="black"/>
<path d="M118.824 383.628C119.778 383.412 120.497 384.483 119.937 385.284C116.189 390.643 111.916 395.837 107.034 400.804C101.396 406.539 95.4076 411.5 89.1683 415.783C88.6812 416.117 88.0154 415.993 87.6811 415.506C87.3468 415.019 87.4706 414.353 87.9576 414.019C94.087 409.812 99.9701 404.939 105.509 399.304C109.33 395.416 112.772 391.386 115.876 387.246L116.506 386.396L116.368 386.432C111.972 387.595 107.563 389.147 103.145 391.171L102.408 391.512C98.6071 393.3 91.1924 397.848 86.5518 401.032C86.0647 401.366 85.3989 401.242 85.0647 400.755C84.7305 400.268 84.8544 399.602 85.3415 399.268L86.0029 398.817C90.7441 395.611 97.7465 391.341 101.498 389.576C107.292 386.854 113.071 384.93 118.824 383.628Z" fill="black"/>
<path fill-rule="evenodd" clip-rule="evenodd" d="M31.1257 432.734C31.1257 434.896 29.373 436.648 27.2116 436.648C25.0496 436.648 23.2969 434.896 23.2969 432.734C23.2969 430.573 25.0496 428.82 27.2116 428.82C29.373 428.82 31.1257 430.573 31.1257 432.734Z" fill="black"/>
<path fill-rule="evenodd" clip-rule="evenodd" d="M49.3171 432.734C49.3171 434.896 47.5644 436.648 45.4031 436.648C43.241 436.648 41.4883 434.896 41.4883 432.734C41.4883 430.573 43.241 428.82 45.4031 428.82C47.5644 428.82 49.3171 430.573 49.3171 432.734Z" fill="black"/>
<path fill-rule="evenodd" clip-rule="evenodd" d="M67.5046 432.734C67.5046 434.896 65.7526 436.648 63.5906 436.648C61.4285 436.648 59.6758 434.896 59.6758 432.734C59.6758 430.573 61.4285 428.82 63.5906 428.82C65.7526 428.82 67.5046 430.573 67.5046 432.734Z" fill="black"/>
<path fill-rule="evenodd" clip-rule="evenodd" d="M85.696 432.734C85.696 434.896 83.9433 436.648 81.782 436.648C79.6199 436.648 77.8672 434.896 77.8672 432.734C77.8672 430.573 79.6199 428.82 81.782 428.82C83.9433 428.82 85.696 430.573 85.696 432.734Z" fill="black"/>
<path fill-rule="evenodd" clip-rule="evenodd" d="M103.885 432.734C103.885 434.896 102.133 436.648 99.9714 436.648C97.8094 436.648 96.0566 434.896 96.0566 432.734C96.0566 430.573 97.8094 428.82 99.9714 428.82C102.133 428.82 103.885 430.573 103.885 432.734Z" fill="black"/>
<path d="M110.188 449.5C110.779 449.5 111.258 449.978 111.258 450.569C111.258 451.125 110.834 451.582 110.291 451.634L110.188 451.639H16.9954C16.4047 451.639 15.9258 451.16 15.9258 450.569C15.9258 450.013 16.35 449.556 16.8924 449.504L16.9954 449.5H110.188Z" fill="black"/>
<path fill-rule="evenodd" clip-rule="evenodd" d="M16.9961 466.931H110.189V450.569H16.9961V466.931Z" fill="black"/>
</svg>
