<svg width="202" height="202" viewBox="0 0 202 202" fill="none" xmlns="http://www.w3.org/2000/svg">
<path fill-rule="evenodd" clip-rule="evenodd" d="M62.082 149.268C65.5992 150.141 59.5806 141.012 60.4788 147.631C60.561 149.266 60.5612 149.266 62.082 149.268ZM140.07 88.5188C139.874 81.5662 130.996 86.8728 134.23 90.5906C136.019 93.2405 139.96 91.3882 140.07 88.5188ZM121.791 115.934C121.762 111.798 115.781 111.479 115.699 115.837C115.902 119.852 121.961 121.452 121.791 115.934ZM51.1268 144.905C50.788 143.552 52.0071 140.547 50.2016 140.3C47.9797 140.764 44.3879 139.24 42.9065 141.197C43.3894 143.479 41.597 148.343 43.862 149.276C47.8309 148.928 52.3067 151.073 51.1268 144.905ZM55.8768 121.528C61.8078 122.806 59.6979 117.915 60.0243 113.764C59.0854 111.578 54.9987 113.184 52.9585 112.545C49.9612 112.758 52.089 118.022 51.4441 120.206C51.3441 122.54 54.4921 121.17 55.8768 121.528ZM55.6036 149.267C61.7511 150.513 59.6979 145.887 59.5979 141.542C59.8893 139.641 51.15 139.619 51.4518 141.361C51.6817 145.302 49.9473 150.657 55.6036 149.267ZM130.604 101.745C131.076 94.9394 120.658 92.4022 119.613 99.5834C116.194 109.539 130.164 113.653 130.604 101.745ZM98.6969 105.641C107.287 104.404 108.632 90.6221 98.7778 90.4696C91.7246 90.5998 91.1705 105.563 98.6969 105.641ZM93.059 119.489C94.543 107.748 78.1632 105.668 78.4429 117.488C80.1636 128.174 92.5439 132.987 93.059 119.489ZM103.458 110.272C98.5517 112.048 106.16 120.72 109.312 115.766C114.6 111.047 105.716 102.494 103.458 110.272ZM59.3392 138.062C59.8546 134.176 60.0187 128.555 60.0491 123.208C59.3735 120.305 53.9134 122.711 51.5491 122.065C49.1089 122.481 43.7071 120.418 42.8317 123.192C42.9209 128.336 42.9209 133.485 42.8463 138.628C45.2734 142.197 56.6626 138.152 61.2213 140.481C67.606 141.6 74.4791 131.468 68.0952 126.693C66.3587 124.525 61.5833 126.398 62.5962 122.975C62.5968 122.635 63.6697 122.157 62.5686 121.995C59.0914 120.751 60.7609 126.283 60.4657 128.334C71.1445 126.451 68.2907 138.275 59.3392 138.062ZM142.928 80.7489C147.724 83.6169 153.988 86.1174 154.89 92.4015C158.294 96.6891 161.904 102.211 162.436 108.153C151.196 103.49 154.95 124.37 162.803 113.662C164.981 111.541 163.092 117.022 164.48 117.773C163.758 119.068 164.869 119.976 165.113 121.068C165.155 121.954 165.166 122.867 166.415 122.696C165.126 123.24 166.497 130.296 166.519 132.122C162.511 128.722 157.856 125.257 152.653 124.491C151.944 121.741 148.647 121.303 146.421 120.222C143.412 119.39 143.186 118.581 146.164 117.71C150.602 114.764 152.775 105.803 147.453 102.663C138.55 97.9027 134.651 109.122 137.907 116.244C136.314 116.259 134.709 116.159 133.129 116.317C125.17 116.846 118.756 121.36 112.365 125.803C108.881 129.957 108.25 124.014 104.59 126.473C105.243 127.965 107.296 128.216 107.038 130.173C105.568 131.973 104.55 126.957 102.686 127.3C100.509 129.665 105.509 132.478 104.915 133.398C103.1 133.267 102.722 135.165 101.305 135.707C99.9586 131.775 95.9288 130.128 92.1366 131.161C85.3491 132.652 85.2563 142.335 89.5032 146.732C88.2926 149.017 86.2023 150.676 84.5241 152.587C72.5059 160.475 84.6244 143.89 71.8238 145.387C68.0996 145.128 68.0598 151.24 65.8083 150.407C56.001 148.434 44.0021 150.291 33.484 149.735C27.9233 149.141 39.117 149.167 41.2472 149.286C43.515 148.932 42.5055 142.15 42.1294 140.309C32.9408 140.327 23.7479 140.334 14.5645 140.307C16.6211 139.5 15.8542 138.102 15.7415 135.788C18.1107 140.356 13.4601 140.126 23.7242 139.932C26.6655 138.486 23.8075 131.795 25.0876 129.048C26.428 131.783 23.3371 138.797 26.6361 139.954C30.0691 138.994 41.7449 141.936 42.489 138.404C42.8532 112.783 43.3293 125.133 25.6913 121.529C33.813 121.448 41.9328 121.448 50.0547 121.545C50.9799 121.555 51.145 121.083 51.1359 120.274C50.4827 118.067 52.6089 112.899 49.7596 112.527C43.5311 112.504 42.1497 111.315 42.8243 118.878C42.6695 110.715 41.8652 112.689 35.0048 112.448C36.6234 110.492 41.0149 113.496 42.4419 111.444C42.1906 107.434 43.0494 106 42.807 110.903C43.2992 113.614 47.9111 111.528 49.9355 112.186C52.6629 111.392 50.2269 106.262 51.4412 103.922C52.4813 106.271 49.8997 111.555 52.7134 112.182C60.4324 112.243 60.0573 113.299 60.2817 105.329C61.3477 109.153 58.9916 119.414 61.2847 121.499C64.7632 122.17 65.0922 115.754 66.5991 113.264C67.2786 109.883 70.0874 107.577 71.4533 104.395C71.4744 101.339 76.3571 104.614 78.4493 102.898C82.6664 101.02 86.7981 93.5634 82.1415 90.0925C79.6827 88.0969 84.5337 87.3897 85.7733 87.3426C85.9422 86.2364 86.6921 87.1285 87.1144 86.9001C87.6235 86.6248 88.1588 86.287 88.7077 86.2273C92.0436 86.4304 95.612 84.7055 98.7244 85.6445C98.9385 85.7236 99.1673 85.7576 99.3896 85.8115C99.5345 84.4347 101.153 84.2549 102.041 83.8766C104.756 84.8289 103.957 81.6748 105.546 86.8868C108.143 93.0713 114.572 86.3911 112.84 81.7938C123.014 81.2722 132.817 80.0503 142.928 80.7489Z" fill="#34BFF4"/>
<path fill-rule="evenodd" clip-rule="evenodd" d="M106.802 195.638C106.592 195.38 106.431 195.059 106.212 195.414C106.286 195.848 106.412 195.882 106.802 195.638ZM79.5926 186.435C81.0196 186.242 79.0507 184.728 78.2462 184.823C77.649 185.916 78.3601 186.679 79.5926 186.435ZM71.1624 168.122C67.872 167.638 69.669 172.862 69.7099 175.025C69.6613 177.258 72.4055 177.395 72.1191 175.571C70.3956 173.164 74.9372 167.72 71.1624 168.122ZM69.3464 181.974C69.661 183.394 68.4211 186.557 70.6143 186.443C72.5084 185.791 77.8371 188.029 77.2731 184.708C75.9758 180.378 68.3822 172.122 69.3464 181.974ZM33.4998 163.24C34.6925 157.924 30.0459 159.629 26.6788 159.393C24.355 159.968 26.1043 164.339 25.5798 166.308C26.3713 168.622 30.4747 166.803 32.4515 167.367C34.3295 167.323 33.212 164.509 33.4998 163.24ZM46.8507 167.357C48.0812 167.001 50.8441 168.239 51.0712 166.38C50.5665 164.385 52.2328 160.162 50.1016 159.396C48.0779 159.92 44.1654 158.221 43.1626 160.344C43.2334 164.275 41.2746 168.478 46.8507 167.357ZM38.4569 159.396C37.1455 159.729 34.2827 158.461 34.1908 160.555C34.7091 162.512 33.0316 166.638 35.2034 167.359C37.33 166.954 40.5563 168.256 42.1163 166.607C42.1349 162.649 44.0867 158.235 38.4569 159.396ZM64.5807 167.349C65.7916 167.033 68.4291 168.201 68.6387 166.393C68.1316 164.394 69.7993 160.163 67.6625 159.396C65.615 159.959 61.275 158.107 60.4722 160.45C60.6627 164.509 59.0612 168.461 64.5807 167.349ZM59.7523 172.174C59.6924 165.24 59.9685 169.875 56.5738 168.126C55.1652 168.469 51.9188 167.098 51.766 169.236C52.3266 171.373 50.5081 175.953 52.8353 176.73C56.9408 176.513 60.8661 178.268 59.7523 172.174ZM68.7679 172.309C68.8968 166.128 66.6211 168.56 61.7987 168.107C59.4555 168.853 61.2934 173.469 60.7273 175.599C60.7296 177.523 63.3095 176.483 64.4861 176.724C68.086 177.145 68.9049 175.987 68.7679 172.309ZM51.212 181.963C50.4734 180.94 52.1287 177.509 50.0391 177.452C48.0645 178.007 43.9828 176.235 43.1567 178.469C43.7088 180.665 41.8871 185.303 44.2156 186.159C47.9869 186.089 51.8418 187.238 51.212 181.963ZM51.2065 172.529C51.704 166.446 48.9359 168.408 44.4051 168.096C41.7828 168.522 43.749 173.322 43.1413 175.396C43.0141 177.586 45.7768 176.473 47.0686 176.724C50.4916 177.134 51.2975 176.033 51.2065 172.529ZM68.653 182.089C68.3163 180.639 69.6166 177.343 67.3907 177.449C65.3777 177.964 59.6384 175.89 60.8507 179.801C62.0296 181.609 59.2713 185.882 61.7678 186.428C65.7093 186.169 69.7742 188.054 68.653 182.089ZM24.6053 154.309C24.2696 152.903 25.5393 149.739 23.4611 149.707C21.4996 150.285 17.3437 148.44 16.6134 150.779C17.1983 153.028 15.3265 157.774 17.6696 158.663C21.606 158.38 25.7358 160.302 24.6053 154.309ZM59.8793 182.014C59.1691 180.89 60.8493 177.403 58.5488 177.446C56.6016 178.048 52.3938 176.139 51.7645 178.606C52.3641 180.809 50.4433 185.713 52.8876 186.426C56.8105 186.401 60.5459 187.398 59.8793 182.014ZM33.4275 168.081C25.9433 168.124 25.0151 166.552 25.5652 175.347C26.7086 178.605 37.4223 175.828 40.9197 176.74C43.5034 176.345 41.65 171.658 42.1759 169.635C42.1629 166.463 35.6747 168.759 33.4275 168.081ZM66.4931 150.862C67.6103 151.009 68.2735 152.205 68.782 150.764C71.2986 145.66 78 148.355 74.7517 154.08C70.8021 154.189 68.7758 150.333 69.3476 157.622C70.1321 159.889 74.4053 158.146 76.3996 158.619C79.0212 157.781 74.9506 151.978 79.0619 154.566C77.4078 155.219 77.9857 157.442 78.339 158.496C83.1988 154.943 86.7507 149.343 91.3914 145.24C104.407 131.593 96.0169 145.096 95.6853 154.401C93.3143 170.662 96.359 165.808 74.723 166.239C73.5248 164.444 78.9839 160.234 76.3062 159.393C74.3174 159.983 69.7036 157.976 69.3376 160.74C69.7053 164.258 67.8869 168.147 72.8754 167.366C88.9864 168.371 103.082 162.692 86.0506 183.18C78.4046 194.041 90.2761 179.918 92.4738 176.887C95.234 177.512 91.812 187.596 94.5564 191.037C96.9072 187.762 90.5919 167.167 101.97 168.513C104.919 169.649 113.673 168.371 114.322 171.502C113.543 177.282 109.125 192.889 112.064 196.729C113.69 196.833 113.888 168.126 117.702 170.746C120.13 171.995 135.116 171.886 132.632 175.266C127.767 182.824 122.548 190.116 116.871 197.026C116.411 197.6 116.953 197.735 117.061 198.067C116.254 198.39 115.532 198.848 114.667 197.954C113.317 197.207 111.321 197.227 109.865 196.51C109.049 196.176 108.279 195.771 107.403 196.2C105.506 196.585 104.567 194.079 102.474 194.421C99.4757 195.16 96.9835 191.41 94.269 192.941C92.218 192.459 90.3579 190.834 87.9959 191.019C85.8021 191.193 84.0642 188.891 81.946 189.371C82.5882 187.994 82.5861 188 81.1868 187.476C77.606 184.462 76.998 191.403 79.1822 189.872C79.6964 189.535 80.5173 189.714 81.1985 189.659C78.7346 191.073 76.217 192.539 73.3767 192.857C75.3714 190.74 78.5913 191.66 77.6164 187.833C77.5344 187.11 77.2341 186.878 76.5941 186.883C74.5498 187.48 69.9869 185.529 69.3414 188.042C69.7149 189.997 68.1829 193.481 71.1081 193.332C68.3401 194.747 64.9975 194.892 61.9988 194.504C61.7432 192.33 66.0089 194.815 67.5072 193.642C69.2546 193.777 69.2775 186.584 67.6314 186.882C61.3316 186.331 60.3703 187.239 60.4921 193.791C58.8629 193.309 59.1239 192.952 59.7255 191.592C60.8898 185.023 57.3701 187.236 52.9001 186.879C50.4416 187.554 52.3746 192.3 51.825 194.449C50.0411 193.984 51.4922 189.946 51.0864 188.155C50.6526 185.464 45.9295 187.498 43.9141 186.883C43.3569 186.881 43.0719 186.974 43.1078 187.716C43.8039 195.583 42.8126 193.805 36.8125 191.731C41.3183 191.04 42.6123 195.477 42.185 188.094C42.116 185.824 38.7309 187.286 37.2908 186.885C34.2594 186.885 34.2599 186.886 34.1869 189.964C32.0125 190.252 35.69 185.789 30.6664 186.9C25.4882 185.635 38.7756 186.215 41.2662 186.167C43.3426 185.099 41.6299 180.894 42.1898 178.733C40.4842 175.624 30.6791 178.346 26.9347 177.441C24.7187 177.259 25.8504 180.193 25.5968 181.604C23.5908 179.961 26.3863 176.985 22.9852 177.467C25.9896 176.453 24.5531 173.383 24.8816 169.394C24.4852 165.809 18.4154 170.337 18.2579 167.325C20.1556 166.794 24.2311 168.644 24.8739 166.26C24.5267 164.108 25.6015 161.037 24.2698 159.333C18.25 159.046 14.6014 157.829 17.7206 165.756C13.3338 161.419 18.1622 151.358 14.7953 149.696C14.2473 149.705 14.3878 149.18 14.7807 149.053C17.3439 147.978 15.3018 142.88 15.9095 140.362C19.1212 145.535 11.848 150.335 23.7425 148.954C25.8401 147.714 22.6828 140.412 25.6262 140.305C26.0679 149.41 23.0751 148.097 31.3712 149.66C29.6918 150.167 25.8753 148.523 25.5697 150.913C26.1736 153.114 24.2391 157.964 26.7223 158.667C38.1036 160.078 31.0556 154.757 34.2308 149.689C34.4731 157.303 32.0077 159.508 40.9578 158.671C43.6943 157.768 41.4935 152.229 42.1429 149.686C45.4005 149.768 40.7503 158.519 44.5915 158.678C53.3705 159.521 50.7273 157.046 51.0589 149.74C53.6277 150.288 49.6788 158.159 52.9953 158.671C61.9059 159.508 59.491 157.302 59.7151 149.688C62.9175 149.759 58.4777 158.236 61.9677 158.666C66.1893 158.741 69.6349 159.255 68.642 153.708C68.9798 151.828 66.2926 152.717 66.4931 150.862Z" fill="#0C88DE"/>
<path fill-rule="evenodd" clip-rule="evenodd" d="M95.5926 169.899C95.9532 169.363 97.4644 168.811 96.7878 168.21C95.627 167.823 94.6881 168.867 95.5926 169.899ZM141.246 175.221C139.49 175.918 142.893 178.51 143.344 179.736C144.54 181.003 144.588 178.216 145.161 177.682C146.54 175.425 142.537 175.804 141.246 175.221ZM147.704 176.768C143.32 180.525 147.076 184.964 149.844 188.347C150.4 189.15 150.779 188.913 151.175 188.325C157.322 178.647 160.319 179.283 147.704 176.768ZM174.323 194.865C174.004 203.62 182.507 187.37 185.066 185.194C185.618 184.471 185.43 184.284 184.678 184.175C171.727 181.109 175.9 183.628 174.323 194.865ZM116.949 167.94C120.733 170.676 128.377 169.886 133.4 171.708C135.808 171.442 130.713 167.004 130.008 165.416C119.399 152.067 121.931 150.081 116.949 167.94ZM114.43 168.355C116.715 163.954 118.919 156.369 119.307 151.284C117.617 149.734 114.856 142.454 112.863 144.025C102.279 168.539 90.6979 166.541 114.43 168.355ZM172.751 180.103C173.707 180.134 173.842 179.852 174.156 178.352C175.434 171.239 177.652 164.368 181.344 158.209C183.443 155.319 178.064 154.685 176.601 153.01C172.706 149.28 170.991 160.625 168.607 162.974C162.113 177.124 153.027 177.367 172.751 180.103ZM185.92 182.497C190.677 179.689 192.683 172.301 195.909 167.588C196.987 165.706 197.069 165.661 195.311 164.589C191.526 163.166 186.871 157.745 183.297 158.58C179.463 165.088 176.967 172.181 175.817 179.717C176.561 182.322 183.376 181.363 185.92 182.497ZM149.828 134.648C147.742 132.681 137.697 124.396 135.701 126.944C130.747 134.355 123.09 143.169 122.735 152.079C126.86 157.477 130.905 162.941 135.087 168.289C136.831 170.868 138.105 165.186 139.087 164.005C142.413 157.13 145.469 150.151 147.703 142.796C153.218 137.927 139.389 167.767 137.923 169.552C135.577 173.948 142.717 173.102 145.079 174.163C148.271 174.533 149.427 164.579 152.354 162.238C156.042 161.546 148.88 171.367 148.498 173.585C147.943 174.74 148.004 174.901 149.183 175.174C152.193 175.222 156.567 178.246 158.961 176.229C163.871 167.974 168.833 159.725 172.835 150.935C173.604 149.384 170.886 149.504 170.165 148.493C168.456 147.805 166.38 144.361 164.581 146.084C161.691 148.705 156.818 160.299 153.954 159.947C153.67 155.994 165.956 145.142 162.903 143.377C160.328 142.319 152.502 133.934 151.021 136.087C149.753 144.254 147.537 140.516 149.828 134.648ZM117.06 198.067C115.599 196.022 137.475 173.583 131.922 173.319C110.938 169.573 116.826 166.597 112.77 194.346C112.528 195.156 113.384 196.726 112.066 196.729C109.794 196.118 111.684 191.496 111.413 189.509C112.245 183.493 112.788 177.382 114.32 171.503C114.723 169.289 111.38 170.114 110.093 169.596C105.686 169.73 99.2709 165.846 96.7485 171.108C92.2019 175.785 96.8414 187.927 94.5552 191.038C90.0576 177.722 99.4649 170.196 85.1782 184.978C86.7894 179.799 97.5359 172.705 92.5494 167.658C85.9903 167.594 79.433 167.427 72.8749 167.367C69.3442 167.334 69.3433 167.398 69.3437 163.74C69.6129 162.358 68.479 159.352 70.5719 159.384C81.1231 159.133 75.7264 159.485 74.722 166.238C80.485 166.948 86.5155 166.064 92.3632 166.236C95.5354 167.106 95.337 151.11 96.8074 147.983C97.0363 143.653 101.95 130.564 99.5242 142.922C94.0879 167.855 93.1956 177.298 108.565 148.884C109.713 146.202 113.001 143.646 111.679 140.455C110.577 138.339 103.339 128.44 108.122 130.879C106.67 131.131 107.91 133.441 108.792 132.27C111.934 136.945 113.387 142.117 115.336 133.907C116.685 132.483 117.929 117.436 119.506 122.997C119.157 134.571 110.056 138.722 119.84 148.248C120.68 149.216 120.923 149.101 121.437 147.922C124.568 139.898 129.119 132.605 134.49 126.032C136.237 123.067 126.995 121.645 125.058 120.035C120.658 114.679 136.565 126.484 137.708 122.517C139.031 121.071 142.202 116.752 143.942 119.266C134.734 125.753 138.762 125.075 146.013 129.742C152.016 135.217 150.54 126.974 151.176 122.632C154.901 124.777 150.821 130.623 151.92 133.659C155.488 136.628 159.552 138.905 163.286 141.639C166.256 144.302 169.251 137.626 171.3 135.631C177.233 136.108 164.913 141.867 167.211 144.487C177.596 152.733 172.268 146.466 178.444 141.169C176.864 150.482 171.807 148.727 182.153 154.799C184.267 155.724 185.428 151.64 186.845 150.392C187.531 149.266 188.226 150.749 188.809 150.165C187.816 153.277 182.174 156.146 187.59 157.989C190.668 159.858 193.748 161.727 196.82 163.609C198.164 164.622 198.561 161.509 199.657 161.823C200.816 162.62 198.318 164.768 199.983 165.494C200.81 165.803 200.815 166.648 200.911 167.427C199.336 167.432 198.431 165.737 197.612 167.784C194.871 172.492 192.145 177.209 189.424 181.929C187.795 184.556 196.2 182.457 194.43 184.999C192.02 186.115 188.656 183.782 186.885 185.566C183.03 190.12 179.36 198.058 174.081 199.819C167.998 183.62 183.006 183.238 160.779 179.58C156.533 179.715 155.22 186.791 152.278 189.618C150.333 191.885 163.877 203.142 155.808 199.681C154.048 198.406 151.421 191.878 149.429 193.661C147.754 197.115 139.046 205.369 144.951 196.936C149.661 191.339 149.529 190.163 144.134 185.357C142.118 189.461 141.916 194.185 141.487 198.692C141.643 200.845 138.93 200.385 139.796 198.5C140.241 186.22 146.793 185.21 136.793 174.659C134.986 172.661 134.009 177.345 132.878 178.352C127.862 184.652 123.647 194.424 117.06 198.067Z" fill="#0441A8"/>
<path fill-rule="evenodd" clip-rule="evenodd" d="M124.932 30.8677C128.612 31.681 126.802 27.5802 124.407 27.5299C120.995 28.2308 120.401 32.2976 124.932 30.8677ZM107.906 31.0909C112.77 32.0913 111.628 28.1804 108.409 27.5466C105.854 27.6309 104.086 32.3379 107.906 31.0909ZM77.2158 31.4325C81.4588 32.3294 80.2438 28.097 77.3841 27.4987C74.3822 27.6582 72.8568 32.5348 77.2158 31.4325ZM92.9943 31.319C97.139 32.3999 96.5393 28.599 93.5698 27.5281C90.8445 27.2026 88.432 32.2523 92.9943 31.319ZM26.4866 94.0401C29.3795 95.9747 26.4178 90.5668 28.4119 90.0948C29.738 89.4554 27.7929 87.7155 27.5652 86.729C25.6235 83.7821 24.714 94.0066 26.4866 94.0401ZM142.928 80.749C137.865 79.7122 143.717 46.7923 140.473 40.2079C139.69 35.1669 131.054 30.1175 128.325 35.7748C127.545 37.2811 125.738 39.5656 123.894 39.126C123.838 36.8724 126.329 36.1317 126.71 34.0164C122.547 33.8253 118.366 33.9623 114.197 33.8859C112.876 33.6764 112.833 35.4693 112.177 36.3302C111.571 37.6217 108.946 40.535 107.747 38.9068C107.6 38.3472 107.287 37.6335 108.397 37.2147C115.05 31.9703 103.588 34.8349 100.54 34.0232C96.6714 33.2889 97.2268 38.4423 93.8711 39.2085C91.4155 39.6334 92.9657 37.068 94.2249 36.3437C97.5443 32.1751 86.3695 34.8808 83.6156 34.1342C80.3754 34.1207 80.5814 40.0664 76.721 39.1386C75.6884 37.2566 81.8504 34.4025 78.0159 34.3194C72.1558 34.8353 63.5027 31.7729 61.1906 39.4994C58.8683 47.1041 60.4276 55.3093 60.0477 63.165C60.0281 65.5272 59.9374 65.5678 62.1393 66.5492C79.6726 73.9111 80.1404 98.3079 75.3807 86.5544C72.0816 64.7191 35.6512 61.3541 43.3021 72.5386C38.6756 75.6292 43.5678 63.9513 34.6977 72.2189C33.9804 72.7716 33.2004 73.2282 33.4679 74.3878C33.4265 74.6244 32.3551 74.6535 32.2201 74.5843C31.0999 75.9243 30.3801 77.5946 29.5848 79.0714C27.9405 79.9663 27.2809 82.2772 27.3288 84.0443C27.3268 84.4096 26.391 84.6673 27.1629 85.0758C28.2633 84.8559 28.1903 83.6859 28.679 85.3094C30.5457 86.2098 27.575 89.749 30.4058 88.9717C31.6683 90.9563 32.1383 88.2878 33.3007 87.9343C34.4544 87.7765 33.7112 86.3502 34.604 86.1711C35.3249 85.8744 35.9196 85.7989 35.1609 84.9471C35.7319 85.3346 35.3495 85.7618 35.2511 86.2191C34.3833 87.4877 35.4304 89.19 33.8967 89.6204C31.9959 88.5088 33.9033 91.0827 32.1692 90.8685C31.454 91.1551 27.0598 93.114 29.1192 94.8183C30.861 97.4355 24.9033 94.9235 25.7881 96.8342C27.3041 102.399 29.414 107.128 33.2121 111.7C34.7839 115.979 28.4014 105.584 18.7592 108.449C14.3617 108.166 11.2273 111.328 7.66945 113.204C7.50813 109.862 12.003 108.386 14.3281 106.814C15.4865 106.15 17.441 106.79 18.0203 105.499C18.3589 105.211 18.9867 105.8 19.2162 105.979C25.4072 105.187 31.4709 110.673 23.9525 101.321C22.2843 100.572 19.5363 99.7867 18.2105 101.224C19.0125 101.166 17.4515 102.661 18.8276 102.266C18.8714 102.253 19.0307 102.682 19.136 102.905C14.6763 104.993 19.2858 98.3191 11.8228 103.259C7.59077 105.211 -3.32653 115.795 5.37089 118.081C13.3545 117.564 20.4257 111.967 28.5833 112.236C38.1472 114.678 24.6647 114.631 21.2891 115.926C-6.05976 128.95 -6.31266 108.026 16.2497 99.2221C18.2196 97.5246 24.4157 100.374 24.0183 97.853C20.8992 84.5398 28.4882 69.9601 40.9996 65.7113C41.4449 65.4899 42.957 64.8861 41.8746 64.5073C34.3231 61.0534 28.5349 54.1348 24.1931 46.9832C19.7473 33.2804 40.4497 40.0119 45.213 45.4221C47.0064 46.6581 59.9656 60.4413 52.7813 58.9059C52.2214 58.1257 50.9665 58.463 51.1629 59.4707C51.8004 58.9334 50.8418 58.7056 50.375 58.6704C54.1292 56.3986 36.7014 42.0999 33.3287 42.1869C30.9479 40.437 22.8715 42.1501 26.5061 45.9734C31.3033 52.6799 36.816 60.402 44.7408 62.7014C44.6957 64.5396 44.6917 64.5038 46.2244 64.2401C49.4172 63.6898 52.6069 63.7966 55.786 64.3972C57.5633 64.6119 58.273 65.108 58.0588 62.7917C58.2216 51.3027 54.167 30.0123 70.9245 31.458C73.4892 31.4431 72.1414 26.2775 75.8656 25.3719C82.6889 23.7806 81.3743 30.9842 83.2822 31.3719C85.0542 31.2762 87.7974 32.7191 88.4033 30.0667C88.8091 24.2213 96.9786 23.4835 98.1594 29.2251C98.1762 31.617 99.3866 31.1576 101.23 31.184C103.192 31.1426 103.132 31.1196 103.805 29.1581C105.007 23.438 113.232 24.1242 113.482 29.9535C113.651 31.8707 116.305 30.7807 117.583 31.1297C119.214 31.147 119.243 31.1099 119.673 29.3526C120.973 24.6 126.642 23.4377 129.089 28.1218C129.731 30.2456 129.459 31.3201 132.061 31.0114C141.714 30.7377 144.547 42.1957 143.816 50.354C143.48 60.3647 144.972 71.0879 142.928 80.749Z" fill="#171616"/>
<path fill-rule="evenodd" clip-rule="evenodd" d="M117.408 198.372C124.688 191.836 129.681 182.941 135.082 174.752C137.633 172.806 140.554 180.947 142.6 182.653C143.101 187.035 139.697 191.305 140.063 195.918C140.23 197.181 138.892 199.545 140.277 200.13C142.943 198.517 141.376 192.257 142.715 189.14C144.058 182.222 146.205 187.638 148.564 190.718C148.756 193.091 145.982 194.923 144.951 196.937C142.904 202.158 138.13 201.161 133.735 200.491C131.761 201.014 129.617 199.945 127.747 200.789C126.826 201.39 125.766 201.166 125.279 200.643C122.967 199.045 119.919 200.037 117.408 198.372Z" fill="#0C88DE"/>
<path fill-rule="evenodd" clip-rule="evenodd" d="M142.988 200.708C146.39 200.356 148.294 191.909 151.015 193.681C152.968 195.285 156.173 202.662 158.525 199.654C150.061 189.563 151.277 190.99 158.261 180.556C161.764 177.839 167.648 182.053 171.932 181.948C175.436 183.464 171.221 191.292 173.007 194.931C172.28 197.094 175.075 200.227 172.582 200.141C166.734 202.13 160.67 199.502 154.896 201.516C153.458 202.258 151.66 200.8 150.29 201.622C148.73 200.015 146.643 202.164 144.973 200.795C144.55 200.448 143.662 200.72 142.988 200.708Z" fill="#0C88DE"/>
<path fill-rule="evenodd" clip-rule="evenodd" d="M150.741 85.1434C147.092 83.5034 151.184 81.5337 151.46 78.5804C152.802 74.2468 154.353 69.9331 157.358 66.6161C167.356 52.2156 190.849 60.8133 175.253 77.4478C164.678 90.7744 192.654 85.1618 179.509 102.327C187.347 99.8958 204.412 107.084 193.282 115.811C191.021 117.879 164.25 125.247 165.113 121.069C213.842 115.866 193.798 97.6368 171.552 106.599C169.11 107.335 162.312 113.019 162.394 108.065C163.041 107.671 168.198 105.486 166.95 104.742C166.097 104.227 166.443 103.898 167.149 103.462C168.03 104.152 167.059 105.633 168.333 104.961C172.263 103.627 175.905 101.744 178.858 98.6466C184.814 92.9254 176.711 90.292 173.012 87.4871C166.525 82.502 174.444 75.5326 177.307 70.8546C182.275 61.2185 167.836 58.8386 162.811 64.4475C155.531 69.048 155.171 78.3934 150.741 85.1434Z" fill="#171616"/>
<path fill-rule="evenodd" clip-rule="evenodd" d="M199.481 161.685C198.429 162.202 198.105 164.404 196.818 163.609C193.07 161.341 189.359 159.003 185.573 156.807C183.733 154.761 188.595 152.469 188.807 150.165C188.224 150.749 187.529 149.266 186.842 150.391C182.844 157.685 181.356 153.957 176.014 150.672C173.658 149.213 181.519 140.586 177.39 141.533C175.8 143.333 175.475 148.607 173.148 148.623C171.68 146.821 165.797 145.41 167.188 142.829C173.269 136.18 172.748 134.91 179.685 141.455C187.011 147.313 194.826 153.533 199.481 161.685Z" fill="#0C88DE"/>
<path fill-rule="evenodd" clip-rule="evenodd" d="M175.598 199.903C180.198 195.481 183.664 188.131 188.462 184.848C190.415 185.402 192.444 185.339 194.43 184.999C192.662 189.273 192.544 194.158 188.724 197.279C184.91 199.725 179.949 199.896 175.598 199.903Z" fill="#0C88DE"/>
<mask id="mask0" mask-type="alpha" maskUnits="userSpaceOnUse" x="189" y="162" width="14" height="23">
<path d="M189.273 162.187H202V184.062H189.273V162.187Z" fill="white"/>
</mask>
<g mask="url(#mask0)">
<path fill-rule="evenodd" clip-rule="evenodd" d="M194.888 184.062C193.582 183.3 188.32 183.987 189.425 181.93C191.836 179.381 196.789 165.344 199.793 167.203C201.312 168.087 201.099 165.968 199.984 165.493C198.641 164.818 200.031 163.321 200.012 162.187C204.169 167.906 201.015 174.444 197.775 179.646C197.51 180.622 197.394 181.277 196.269 180.672C195.283 182.26 197.894 181.676 194.888 184.062Z" fill="#0C88DE"/>
</g>
<path fill-rule="evenodd" clip-rule="evenodd" d="M24.8724 131.682C24.275 134.023 26.3296 139.144 23.7234 139.933C18.3524 139.761 14.705 141.626 16.7358 134.05C18.0083 130.847 21.9985 131.711 24.8724 131.682Z" fill="#0441A8"/>
<path fill-rule="evenodd" clip-rule="evenodd" d="M21.2414 70.965C21.2856 68.1489 17.0083 68.1491 16.6824 71.0543C16.8264 74.1615 21.0296 74.1539 21.2414 70.965ZM18.9186 66.0077C26.1114 66.0147 24.746 76.1628 19.4356 76.3307C13.4441 76.6852 12.3684 65.7561 18.9186 66.0077Z" fill="#171616"/>
<mask id="mask1" mask-type="alpha" maskUnits="userSpaceOnUse" x="95" y="0" width="11" height="14">
<path d="M95.5059 0.101562H105.986V13.6187H95.5059V0.101562Z" fill="white"/>
</mask>
<g mask="url(#mask1)">
<path fill-rule="evenodd" clip-rule="evenodd" d="M102.895 0.214768C104.471 -0.326109 107.509 1.17389 105.075 2.37306C102.274 2.64458 100.463 2.09687 102.869 5.3878C105.026 9.81047 98.4682 7.26019 98.4725 9.23129C98.7619 10.5628 100.742 12.4881 99.2423 13.5579C97.5528 14.4863 91.5793 4.37114 99.5586 5.83122C101.508 4.00648 94.7352 0.066602 102.895 0.214768Z" fill="#171616"/>
</g>
<path fill-rule="evenodd" clip-rule="evenodd" d="M17.7179 165.756C14.6086 157.849 18.2273 159.032 24.2671 159.333C25.5968 161.033 24.5263 164.114 24.8713 166.259C24.8359 168.186 17.3483 168.006 17.7179 165.756Z" fill="#0441A8"/>
<path fill-rule="evenodd" clip-rule="evenodd" d="M43.1986 193.528C42.6749 185.598 43.0376 186.866 50.0068 186.877C50.9222 186.858 51.1016 187.338 51.0864 188.155C52.2973 194.819 48.6073 196.374 43.1986 193.528Z" fill="#0441A8"/>
<path fill-rule="evenodd" clip-rule="evenodd" d="M25.5947 181.604C24.221 175.616 29.8357 177.823 33.5013 177.46C33.4237 182.533 35.1295 187.81 28.5087 186.004C27.7098 184.165 26.4223 183.415 25.5947 181.604Z" fill="#0441A8"/>
<path fill-rule="evenodd" clip-rule="evenodd" d="M51.8228 194.449C51.4465 186.249 51.1431 186.596 58.964 186.876C60.5529 187.043 59.9996 192.506 58.7527 193.2C58.0462 194.537 55.7537 194 54.3224 194.594C53.3833 192.876 52.9361 194.961 51.8228 194.449Z" fill="#0441A8"/>
<path fill-rule="evenodd" clip-rule="evenodd" d="M60.4902 193.789C60.9158 189.608 59.8953 186.005 65.1319 186.894C66.2562 187.103 68.7391 186.132 68.6605 188.008C69.2777 193.158 67.8852 194.933 62.8297 193.601C61.6362 193.07 61.6494 195.882 60.4902 193.789Z" fill="#0441A8"/>
<path fill-rule="evenodd" clip-rule="evenodd" d="M45.927 60.592C42.6017 57.9798 40.0913 53.888 36.2522 51.6947C35.4157 51.2635 35.1887 49.9298 33.9773 50.0855C33.8816 50.0978 33.6026 49.5767 33.6332 49.3344C35.9828 47.2247 39.234 51.471 41.5482 52.4438C42.7465 52.9019 43.4889 55.0771 44.6845 54.1903C45.3147 56.1078 46.6534 57.2732 48.3693 58.0271C49.3737 60.3345 47.2818 61.6297 45.927 60.592Z" fill="#171616"/>
<path fill-rule="evenodd" clip-rule="evenodd" d="M161.537 51.1921C156.182 45.0576 157.749 51.683 154.079 50.3874C153.274 49.253 154.756 48.5931 155.435 48.0089C158.972 46.2562 154.948 45.0398 155.068 42.4347C157.009 42.019 157.812 45.7076 159.314 44.6547C162.776 40.8122 166.083 42.7767 160.919 46.0104C159.05 47.3011 165.34 50.2348 161.537 51.1921Z" fill="#171616"/>
<path fill-rule="evenodd" clip-rule="evenodd" d="M71.108 193.332C68.1824 193.482 69.715 189.995 69.3415 188.043C68.6466 186.213 77.8723 186.312 77.6168 187.832C77.9214 190.513 77.633 190.895 75.0386 191.614C73.8227 192.251 72.6706 193.688 71.108 193.332Z" fill="#0441A8"/>
<path fill-rule="evenodd" clip-rule="evenodd" d="M18.791 168.77C20.1393 167.945 24.7646 167.1 24.8799 169.394C25.7632 182.148 21.3055 176.755 18.791 168.77Z" fill="#0441A8"/>
<path fill-rule="evenodd" clip-rule="evenodd" d="M34.14 190.333C33.4321 185.259 37.8521 187.289 41.0369 186.879C43.1781 186.952 41.7928 190.353 42.167 191.827C42.167 192.764 41.5999 192.988 41.0343 192.5C38.795 190.966 36.2837 192.247 34.14 190.333Z" fill="#0441A8"/>
<path fill-rule="evenodd" clip-rule="evenodd" d="M32.0389 114.677C34.8473 112.293 33.019 119.608 33.4805 121.482C23.5466 122.224 26.2644 120.569 32.0389 114.677Z" fill="#0441A8"/>
<path fill-rule="evenodd" clip-rule="evenodd" d="M15.9073 140.361C15.363 143.394 17.4232 148.085 14.3288 149.51C17.4812 149.991 15.3533 155.093 15.902 157.577C14.3783 160.76 12.2288 139.03 15.9073 140.361Z" fill="#0441A8"/>
<path fill-rule="evenodd" clip-rule="evenodd" d="M24.9424 129.05C24.9192 129.659 24.8958 130.269 24.8728 130.879C23.062 130.421 17.5235 132.343 19.1512 129.169C22.8472 124.274 25.6518 120.004 24.9424 129.05Z" fill="#0441A8"/>
<path fill-rule="evenodd" clip-rule="evenodd" d="M38.9877 53.6807C42.6187 56.296 39.3194 55.3727 40.2331 58.4363C39.8577 57.196 38.2566 58.0535 38.5619 59.5857C37.8484 58.8871 36.6003 58.8129 36.4023 57.531C38.3451 57.3719 37.4974 54.6509 38.9877 53.6807Z" fill="#0441A8"/>
<path fill-rule="evenodd" clip-rule="evenodd" d="M48.3694 58.0269C46.7879 57.5133 43.218 54.1384 46.7094 55.3602C46.9242 55.3795 47.1781 54.921 47.4141 54.6802C44.6773 54.2887 48.0378 54.2614 46.6103 52.9315C47.2167 51.6494 50.8818 56.2402 49.4024 55.7488C46.8788 55.7211 50.2477 58.1567 48.3694 58.0269Z" fill="#95E7FD"/>
<path fill-rule="evenodd" clip-rule="evenodd" d="M81.1964 189.658C79.8434 189.229 77.6653 191.261 78.028 189.003C76.8989 184.537 85.078 188.067 81.1964 189.658Z" fill="#0441A8"/>
<path fill-rule="evenodd" clip-rule="evenodd" d="M29.6151 186.94C32.5797 187.124 33.9562 185.61 33.4526 189.921C32.5383 188.98 29.3015 187.847 29.6151 186.94Z" fill="#0441A8"/>
<path fill-rule="evenodd" clip-rule="evenodd" d="M18.7741 130.924C20.4633 131.374 24.6043 129.835 24.8738 131.681C22.9395 130.86 16.2749 133.365 18.7741 130.924Z" fill="#0C88DE"/>
<path fill-rule="evenodd" clip-rule="evenodd" d="M22.9844 177.466C25.0814 177.488 25.2433 177.776 24.5892 180.32C24.0542 179.369 23.5194 178.418 22.9844 177.466Z" fill="#0441A8"/>
<path fill-rule="evenodd" clip-rule="evenodd" d="M15.7395 135.788C15.62 137.154 16.9274 140.358 14.6211 139.891C14.9939 138.523 15.3667 137.156 15.7395 135.788Z" fill="#0441A8"/>
<path fill-rule="evenodd" clip-rule="evenodd" d="M166.557 132.086C167.737 132.973 170.186 133.181 170.493 134.748C169.066 134.145 167.123 133.886 166.557 132.086Z" fill="#34BFF4"/>
<path fill-rule="evenodd" clip-rule="evenodd" d="M24.9433 129.05C25.3792 127.016 23.9173 122.969 25.3125 122.048C25.0241 124.176 25.7692 127.511 24.9433 129.05Z" fill="#0C88DE"/>
<path fill-rule="evenodd" clip-rule="evenodd" d="M55.0195 194.536C56.0954 194.09 57.1851 193.891 58.3434 193.993C57.7447 195.338 56.1406 194.402 55.0195 194.536Z" fill="#0C88DE"/>
<path fill-rule="evenodd" clip-rule="evenodd" d="M52.5508 194.63C53.1231 193.632 53.7144 193.648 54.3233 194.594C53.7324 194.606 53.1416 194.618 52.5508 194.63Z" fill="#0C88DE"/>
<path fill-rule="evenodd" clip-rule="evenodd" d="M41.9277 56.6118C42.2035 56.9252 42.4794 57.2386 42.7538 57.5515C42.4775 57.2376 42.2026 56.9247 41.9277 56.6118Z" fill="#0441A8"/>
<path fill-rule="evenodd" clip-rule="evenodd" d="M171.885 135.434C171.342 135.859 170.614 135.125 170.557 134.656C171.016 134.884 171.888 134.341 171.885 135.434Z" fill="#34BFF4"/>
<path fill-rule="evenodd" clip-rule="evenodd" d="M27.9532 184.957C28.1384 185.306 28.3238 185.655 28.5086 186.004C27.4745 186.148 28.0698 185.346 27.9532 184.957Z" fill="#0C88DE"/>
<path fill-rule="evenodd" clip-rule="evenodd" d="M26.5859 183.459C27.2814 183.413 27.4479 183.856 27.4329 184.465C27.1503 184.13 26.8682 183.794 26.5859 183.459Z" fill="#0C88DE"/>
<path fill-rule="evenodd" clip-rule="evenodd" d="M44.7026 62.7272C45.046 62.4064 44.4755 62.2838 44.7409 62.7009C44.7431 62.7001 44.7026 62.7272 44.7026 62.7272Z" fill="#171616"/>
<path fill-rule="evenodd" clip-rule="evenodd" d="M60.7832 194.414C61.0514 194.432 61.3194 194.45 61.5874 194.469C61.3192 194.451 61.0512 194.432 60.7832 194.414Z" fill="#0C88DE"/>
<path fill-rule="evenodd" clip-rule="evenodd" d="M23.8475 123.339C23.757 123.442 23.6666 123.545 23.5781 123.646C23.6692 123.543 23.7583 123.441 23.8475 123.339Z" fill="#0C88DE"/>
<path fill-rule="evenodd" clip-rule="evenodd" d="M50.75 56.6074C50.8378 56.7158 50.9254 56.8243 51.0129 56.9322C50.9249 56.8236 50.8374 56.7155 50.75 56.6074Z" fill="#95E7FD"/>
<path fill-rule="evenodd" clip-rule="evenodd" d="M199.848 161.965C199.732 161.997 199.667 161.949 199.654 161.823C199.776 161.8 199.843 161.827 199.848 161.965Z" fill="#0C88DE"/>
<path fill-rule="evenodd" clip-rule="evenodd" d="M58.6055 193.439C58.608 193.328 58.6577 193.248 58.7539 193.2C58.7864 193.333 58.7371 193.412 58.6055 193.439Z" fill="#0C88DE"/>
<path fill-rule="evenodd" clip-rule="evenodd" d="M71.918 193.394C72.0284 193.344 72.1391 193.294 72.2492 193.244C72.1387 193.294 72.0283 193.344 71.918 193.394Z" fill="#0C88DE"/>
<path fill-rule="evenodd" clip-rule="evenodd" d="M16.8161 134.007C16.8103 134.098 16.8079 134.118 16.7363 134.05C16.7363 133.96 16.7472 133.962 16.8161 134.007Z" fill="#34BFF4"/>
<path fill-rule="evenodd" clip-rule="evenodd" d="M123.639 118.977C131.921 125.383 139.824 120.567 129.944 132.034C127.256 133.906 121.037 151.535 119.841 148.249C118.425 145.49 114.409 143.115 114.927 139.781C115.633 136.814 122.206 121.908 118.212 121.94C119.47 119.966 121.65 119.693 123.639 118.977Z" fill="#0C88DE"/>
<path fill-rule="evenodd" clip-rule="evenodd" d="M106.205 131.607C110.428 138.187 114.663 141.715 108.562 148.884C105.314 152.741 100.663 166.674 96.0517 166.412C95.483 157.761 98.6545 148.172 100.406 139.519C99.5025 135.127 104.35 134.411 106.205 131.607Z" fill="#0C88DE"/>
<path fill-rule="evenodd" clip-rule="evenodd" d="M170.491 134.749C172.488 136.813 167.609 139.231 166.591 141.178C164.758 145.176 154.84 135.125 151.919 133.66C151.659 133.411 151.397 132.796 151.515 132.537C153.496 128.886 150.585 122.416 156.456 125.335C159.812 127.543 163.643 129.18 166.52 132.122C167.286 133.921 169.006 134.14 170.491 134.749Z" fill="#0C88DE"/>
<path fill-rule="evenodd" clip-rule="evenodd" d="M33.8496 113.631C35.5061 111.374 38.6874 112.929 41.0905 112.487C43.846 112.616 41.8409 116.958 42.8238 118.877C42.1818 111.347 43.4521 112.484 49.759 112.528C52.5974 112.887 50.5 118.08 51.1362 120.273C49.4803 123.387 37.9075 120.589 33.9414 121.447C33.9103 118.841 33.88 116.235 33.8496 113.631Z" fill="#0441A8"/>
<path fill-rule="evenodd" clip-rule="evenodd" d="M71.793 102.902C74.0159 96.8072 75.3414 88.4452 82.6151 87.2457C86.7836 83.6563 92.5007 86.126 97.244 84.4072C101.073 82.7466 103.025 83.6424 98.7262 85.6455C95.1741 85.0949 90.6608 85.8374 87.1158 86.8983C86.6937 87.1281 85.9438 86.236 85.7752 87.3422C84.6183 87.501 83.3605 87.325 82.3569 88.2122C81.0436 88.8467 81.0788 89.0951 82.143 90.0925C88.4935 96.0808 78.7134 106.265 71.793 102.902Z" fill="#95E7FD"/>
<path fill-rule="evenodd" clip-rule="evenodd" d="M42.4308 131.704C41.8042 134.063 44.0033 139.385 41.1151 139.954C36.2889 139.895 31.4623 139.896 26.6372 139.954C23.7196 139.401 25.9424 134.041 25.2969 131.678C33.2581 132.018 33.1374 129.419 33.9211 137.684C32.8104 129.213 36.5296 132.1 42.4308 131.704Z" fill="#0441A8"/>
<path fill-rule="evenodd" clip-rule="evenodd" d="M90.1168 119.274C90.2354 112.32 82.6114 110.184 81.2435 117.119C81.5902 123.189 89.3037 128.119 90.1168 119.274ZM93.0595 119.489C92.5441 132.989 80.1594 128.17 78.445 117.487C78.1651 105.666 94.5452 107.75 93.0595 119.489Z" fill="#95E7FD"/>
<path fill-rule="evenodd" clip-rule="evenodd" d="M158.811 89.5561C159.017 89.5395 159.26 89.5077 158.992 89.3416C157.009 89.9594 159.393 93.4846 158.811 89.5561ZM154.329 87.9779C155.005 88.3619 156.944 89.0192 156.086 87.6407C155.94 87.2485 154.943 87.487 155.55 86.4005C156.21 85.7236 156.769 85.9904 157.256 86.4514C158.329 89.1637 155.678 89.8515 159.301 88.4817C160.701 83.4642 161.094 77.5658 165.333 73.9611C167.916 73.453 163.277 80.974 163.046 82.518C162.54 83.6102 164.12 83.6784 163.746 83.9929C162.296 84.2971 162.977 86.0478 162.392 87.282C162.482 88.7976 159.516 95.804 162.429 94.1023C164.456 92.9114 171.039 89.5534 168.478 93.8919C169.191 95.5453 167.984 95.069 167.377 94.8877C166.338 94.5772 165.391 94.0697 165.179 95.8447C162.842 96.9768 161.161 96.3066 159.447 99.173C158.481 97.2781 156.287 94.4912 157.952 92.4737C156.4 90.9816 152.966 91.5862 154.329 87.9779Z" fill="#171616"/>
<path fill-rule="evenodd" clip-rule="evenodd" d="M143.799 104.618C139.11 103.666 138.71 110.435 139.988 114.044C144.953 121.511 152.917 104.023 143.799 104.618ZM143.664 118.593C135.136 117.152 135.741 109.913 138.717 103.411C150.493 95.2176 155.496 115.777 143.664 118.593Z" fill="#95E7FD"/>
<path fill-rule="evenodd" clip-rule="evenodd" d="M98.7323 93.4355C95.4794 93.5648 94.9903 97.3184 95.8766 99.7793C99.3089 107.22 106.943 94.2436 98.7323 93.4355ZM98.697 105.64C91.1706 105.562 91.7248 90.5997 98.7784 90.4688C108.633 90.6227 107.286 104.406 98.697 105.64Z" fill="#95E7FD"/>
<path fill-rule="evenodd" clip-rule="evenodd" d="M151.175 122.632C151.175 138.105 147.632 129.602 138.8 125.321C136.791 123.161 142.762 121.027 143.941 119.266C146.231 120.452 149.458 120.743 151.175 122.632Z" fill="#0C88DE"/>
<path fill-rule="evenodd" clip-rule="evenodd" d="M124.058 98.2692C118.633 97.7006 121.361 106.918 125.314 106.013C128.615 104.192 127.988 98.4031 124.058 98.2692ZM130.605 101.745C130.163 113.656 116.194 109.536 119.615 99.5825C120.661 92.4035 131.078 94.9387 130.605 101.745Z" fill="#95E7FD"/>
<path fill-rule="evenodd" clip-rule="evenodd" d="M117.867 122.32C117.592 128.41 115.389 133.775 113.335 139.447C105.374 129.194 107.916 128.075 117.867 122.32Z" fill="#0C88DE"/>
<path fill-rule="evenodd" clip-rule="evenodd" d="M101.304 135.707C98.854 141.569 96.8949 131.659 92.0473 135.014C87.7699 136.475 89.8125 142.236 91.3884 145.24C87.4342 149.349 85.7239 138.705 87.1104 135.677C89.3311 129.291 99.2504 129.248 101.304 135.707Z" fill="#95E7FD"/>
<path fill-rule="evenodd" clip-rule="evenodd" d="M51.5505 122.068C61.1621 121.594 60.2785 120.865 59.9871 130.846C50.5237 131.17 51.2382 132.005 51.5505 122.068Z" fill="#0441A8"/>
<path fill-rule="evenodd" clip-rule="evenodd" d="M33.9412 121.99C43.5562 121.614 42.7198 120.839 42.4261 130.861C32.8784 131.192 33.6817 131.947 33.9412 121.99Z" fill="#0441A8"/>
<path fill-rule="evenodd" clip-rule="evenodd" d="M55.6067 149.267C49.9521 150.655 51.6825 145.302 51.4554 141.361C51.1411 139.601 59.8892 139.659 59.6013 141.542C59.6977 145.889 61.7572 150.514 55.6067 149.267Z" fill="#0441A8"/>
<path fill-rule="evenodd" clip-rule="evenodd" d="M55.8775 121.527C54.4912 121.174 51.3469 122.537 51.4455 120.206C52.0839 118.021 49.9671 112.761 52.9581 112.545C54.9994 113.178 59.0849 111.583 60.0256 113.764C59.6955 117.918 61.8111 122.806 55.8775 121.527Z" fill="#0441A8"/>
<path fill-rule="evenodd" clip-rule="evenodd" d="M42.9027 130.862C42.7223 121.244 41.4834 121.527 51.0493 121.966C51.1874 131.538 52.4566 131.311 42.9027 130.862Z" fill="#0441A8"/>
<path fill-rule="evenodd" clip-rule="evenodd" d="M51.1258 144.905C52.3038 151.07 47.8282 148.931 43.8609 149.275C41.5898 148.344 43.3939 143.48 42.9043 141.198C44.3861 139.238 47.9776 140.767 50.1992 140.3C52.0099 140.544 50.7816 143.555 51.1258 144.905Z" fill="#0441A8"/>
<path fill-rule="evenodd" clip-rule="evenodd" d="M25.2295 129.052C24.219 121.008 26.8373 121.759 33.4804 121.954C32.9458 124.595 34.6623 129.262 32.6998 130.887C30.3718 130.228 24.7689 132.616 25.2295 129.052Z" fill="#0441A8"/>
<path fill-rule="evenodd" clip-rule="evenodd" d="M42.4772 144.048C43.6845 151.516 39.2284 148.824 34.2868 149.247C34.2715 146.269 34.2559 143.292 34.2402 140.314C38.3467 140.575 43.7135 138.744 42.4772 144.048Z" fill="#0441A8"/>
<path fill-rule="evenodd" clip-rule="evenodd" d="M137.907 116.243C139.673 116.986 141.439 117.73 143.204 118.472C139.13 118.19 138.145 125.574 134.163 122.967C120.218 117.63 127.579 116.319 137.907 116.243Z" fill="#0C88DE"/>
<path fill-rule="evenodd" clip-rule="evenodd" d="M59.3242 138.045C63.124 138.217 67.3829 135.498 67.6124 131.165C66.8087 127.321 58.5094 129.19 62.3803 124.809C80.4604 126.101 63.6061 148.314 59.3242 138.045Z" fill="#95E7FD"/>
<path fill-rule="evenodd" clip-rule="evenodd" d="M51.0564 149.74C50.7147 157.052 53.3853 159.517 44.5886 158.677C43.5099 158.722 43.0951 158.354 43.131 157.187C42.5191 148.797 43.5764 149.356 51.0564 149.74Z" fill="#0441A8"/>
<path fill-rule="evenodd" clip-rule="evenodd" d="M33.482 149.736C33.2219 157.377 35.6626 159.499 26.7193 158.665C24.2266 157.966 26.1812 153.112 25.5658 150.914C26.3716 148.302 31.2458 150.222 33.482 149.736Z" fill="#0441A8"/>
<path fill-rule="evenodd" clip-rule="evenodd" d="M42.1407 149.685C41.8999 157.301 44.3725 159.508 35.4203 158.67C34.4857 158.695 34.163 158.305 34.1809 157.352C33.5459 148.909 34.5394 149.308 42.1407 149.685Z" fill="#0441A8"/>
<path fill-rule="evenodd" clip-rule="evenodd" d="M59.7158 149.688C59.4717 157.303 61.9441 159.503 52.9953 158.669C52.059 158.695 51.7405 158.302 51.7584 157.35C51.1253 148.912 52.1172 149.309 59.7158 149.688Z" fill="#0441A8"/>
<path fill-rule="evenodd" clip-rule="evenodd" d="M31.3585 149.258C23.0994 149.607 26.0553 146.952 25.6241 140.305C28.241 140.322 30.8579 140.34 33.4748 140.356C32.7579 143.166 35.3568 149.958 31.3585 149.258Z" fill="#0441A8"/>
<path fill-rule="evenodd" clip-rule="evenodd" d="M58.1352 104.273C61.2624 105.004 59.767 108.212 60.0527 110.743C59.7373 113.704 54.7917 111.499 52.716 112.182C50.2217 112.122 52.0573 108.148 51.6434 106.469C50.3652 102.078 55.5114 104.093 58.1352 104.273Z" fill="#0441A8"/>
<path fill-rule="evenodd" clip-rule="evenodd" d="M51.0523 139.871C42.4958 140.174 42.399 141.014 42.8988 131.699C51.4399 131.399 51.5351 130.58 51.0523 139.871Z" fill="#0441A8"/>
<path fill-rule="evenodd" clip-rule="evenodd" d="M24.5633 140.314C23.892 148.113 26.6578 149.705 17.6511 148.972C16.7179 148.983 16.6053 148.385 16.6129 147.619C15.7121 139.676 17.6482 139.865 24.5633 140.314Z" fill="#0441A8"/>
<path fill-rule="evenodd" clip-rule="evenodd" d="M42.7694 106.993C44.5845 104.944 48.9063 105.334 49.8718 103.385C50.7423 102.132 47.7186 101.895 49.2636 101.23C51.3431 101.531 49.6538 101.913 51.1875 102.462C51.7506 102.399 52.2935 102.136 52.8445 101.955C52.9251 103.138 54.6993 102.076 54.1763 103.097C50.7885 102.93 51.8635 101.937 51.1466 105.824C50.6006 107.665 52.3683 111.866 49.9364 112.185C45.0398 111.913 41.8635 113.904 42.7694 106.993Z" fill="#0441A8"/>
<path fill-rule="evenodd" clip-rule="evenodd" d="M170.646 115.665C148.929 121.125 184.885 106.905 189.97 110.14C191.131 111.48 189.577 112.273 188.294 112.084C182.332 112.794 176.458 114.29 170.646 115.665Z" fill="#171616"/>
<path fill-rule="evenodd" clip-rule="evenodd" d="M66.4938 150.861C66.5501 151.606 66.7575 152.221 67.6102 152.277C69.7498 152.947 68.1316 156.56 68.5027 158.36C66.316 157.985 61.3295 160.215 60.7132 157.36C60.3145 152.197 60.5586 146.907 66.4938 150.861Z" fill="#0441A8"/>
<path fill-rule="evenodd" clip-rule="evenodd" d="M59.8484 132.003C58.057 140.056 60.4564 140.37 51.5253 139.833C51.0809 130.031 51.0807 131.571 59.8484 132.003Z" fill="#0441A8"/>
<path fill-rule="evenodd" clip-rule="evenodd" d="M103.48 110.249C103.661 105.979 109.924 106.652 110.555 109.891C113.01 116.829 102.781 120.267 101.993 112.588C101.941 110.655 101.981 110.592 103.46 110.272C103.492 112.121 104.565 114.857 106.484 114.409C110.109 111.412 107.584 108.778 103.48 110.249Z" fill="#95E7FD"/>
<path fill-rule="evenodd" clip-rule="evenodd" d="M74.7519 154.08C78.0053 148.361 71.2832 145.654 68.7803 150.764C64.7599 153.483 68.7307 144.888 71.825 145.388C78.1574 142.725 82.242 155.747 74.7519 154.08Z" fill="#95E7FD"/>
<path fill-rule="evenodd" clip-rule="evenodd" d="M158.939 110.224C155.459 109.853 156.463 113.836 158.466 114.265C160.112 114.008 162.336 109.974 158.939 110.224ZM163.274 110.371C165.381 116.222 154.424 119.54 155.195 112.121C155.619 106.879 161.788 105.859 163.274 110.371Z" fill="#95E7FD"/>
<path fill-rule="evenodd" clip-rule="evenodd" d="M66.5982 113.264C65.0854 115.759 64.7719 122.16 61.2856 121.499C60.2347 121.605 60.4383 120.69 60.4371 120.046C59.8696 114.297 60.4938 111.385 66.5982 113.264Z" fill="#0441A8"/>
<path fill-rule="evenodd" clip-rule="evenodd" d="M109.861 83.1215C117.667 77.5861 109.578 96.3789 105.544 86.8842C103.637 83.3216 105.482 83.5359 108.569 83.3958C107.828 84.287 107.023 85.4714 108.095 86.3273C109.257 87.8293 111.981 82.9717 109.861 83.1215Z" fill="#95E7FD"/>
<path fill-rule="evenodd" clip-rule="evenodd" d="M60.3807 105.436C63.1347 104.452 61.3119 105.13 61.8787 106.09C63.6544 108.037 68.9714 108.963 66.844 112.105C60.653 112.715 59.8765 111.925 60.3807 105.436Z" fill="#0441A8"/>
<path fill-rule="evenodd" clip-rule="evenodd" d="M119.494 116.084C118.855 115.643 118.341 114.443 117.864 115.349C118.397 116.131 118.38 117.045 119.494 116.084ZM121.791 115.933C121.961 121.452 115.9 119.851 115.699 115.836C115.781 111.479 121.762 111.798 121.791 115.933Z" fill="#95E7FD"/>
<path fill-rule="evenodd" clip-rule="evenodd" d="M136.273 89.946C137.33 88.7535 137.993 88.2776 136.556 87.1631C135.465 88.2995 134.507 88.4525 136.273 89.946ZM140.069 88.5185C139.958 91.3863 136.02 93.2418 134.23 90.5898C130.995 86.8712 139.875 81.5668 140.069 88.5185Z" fill="#95E7FD"/>
<path fill-rule="evenodd" clip-rule="evenodd" d="M41.6797 107.053C43.2111 106.665 42.4755 111.391 42.009 112.097C31.8178 112.1 37.0377 111.314 41.6797 107.053Z" fill="#0441A8"/>
<path fill-rule="evenodd" clip-rule="evenodd" d="M59.8498 132.003C48.4685 131.111 52.7957 131.244 51.0541 139.872C52.1696 126.38 48.7628 134.404 42.9023 130.863C54.8243 131.848 49.4622 129.639 51.5498 122.065C50.0468 137.734 55.4009 127.084 59.8498 132.003Z" fill="#0C88DE"/>
<path fill-rule="evenodd" clip-rule="evenodd" d="M25.3066 130.882C34.8962 131.267 33.6233 131.565 33.4814 121.953C35.3921 123.389 32.0063 130.247 35.1469 130.924C37.1738 131.397 41.9098 129.707 42.4322 131.703C40.0385 132.393 34.5815 130 33.9085 133.038C34.2332 138.018 33.2045 138.334 33.5213 133.158C33.4529 129.326 25.804 133.629 25.3066 130.882Z" fill="#0C88DE"/>
<path fill-rule="evenodd" clip-rule="evenodd" d="M106.205 131.607C104.626 134.864 101.063 128.985 102.686 127.3C104.107 127.6 106.327 130.089 106.205 131.607Z" fill="#95E7FD"/>
<path fill-rule="evenodd" clip-rule="evenodd" d="M61.7508 125.768C60.4597 132.446 60.1398 125.137 60.5126 122.594C60.6532 121.382 61.8615 121.891 62.5669 121.995C63.6682 122.156 62.5953 122.635 62.5947 122.974C62.613 124.013 62.3975 124.978 61.7508 125.768Z" fill="#0441A8"/>
<path fill-rule="evenodd" clip-rule="evenodd" d="M109.346 127.948C107.252 131.189 107.493 129.296 105.4 127.551C103.138 124.951 109.005 125.475 109.346 127.948Z" fill="#95E7FD"/>
<path fill-rule="evenodd" clip-rule="evenodd" d="M82.2356 154.285C82.1995 155.311 78.5626 159.714 78.0702 157.912C77.3697 154.512 79.4549 154.327 82.2356 154.285Z" fill="#0441A8"/>
<path fill-rule="evenodd" clip-rule="evenodd" d="M62.0831 149.268C60.5623 149.266 60.5621 149.265 60.4791 147.632C59.5821 141.014 65.5994 150.138 62.0831 149.268Z" fill="#0441A8"/>
<path fill-rule="evenodd" clip-rule="evenodd" d="M154.877 91.5279C159.892 91.2484 156.143 93.0586 157.95 95.8596C158.549 98.4296 154.772 92.0544 154.877 91.5279Z" fill="#95E7FD"/>
<path fill-rule="evenodd" clip-rule="evenodd" d="M67.5566 110.365C68.0593 107.671 69.8391 105.084 71.6789 103.035C71.1566 105.69 69.3575 108.472 67.5566 110.365Z" fill="#95E7FD"/>
<path fill-rule="evenodd" clip-rule="evenodd" d="M154.327 87.9779C153.981 90.3518 149.823 85.754 151.179 84.7559C151.993 87.8794 154.51 83.9021 154.327 87.9779Z" fill="#95E7FD"/>
<path fill-rule="evenodd" clip-rule="evenodd" d="M33.4414 149.21C33.9891 146.678 32.3327 141.399 34.2423 140.313C33.6915 142.777 35.5058 148.498 33.4414 149.21Z" fill="#0C88DE"/>
<path fill-rule="evenodd" clip-rule="evenodd" d="M60.4902 112.08C62.1676 112.594 67.3433 110.848 66.6001 113.263C64.9029 112.308 60.6883 113.943 60.4902 112.08Z" fill="#0C88DE"/>
<path fill-rule="evenodd" clip-rule="evenodd" d="M160.669 100.891C160.491 100.99 160.601 101.1 160.662 101.236C160.84 101.137 160.73 101.027 160.669 100.891ZM159.92 100.266C160.755 99.9886 161.59 99.7114 162.426 99.4341C161.749 101.583 161.113 102.878 159.92 100.266Z" fill="#0441A8"/>
<path fill-rule="evenodd" clip-rule="evenodd" d="M33.8489 113.63C33.4943 115.956 34.695 120.019 33.4802 121.482C33.7563 118.968 32.973 115.838 33.8489 113.63Z" fill="#0C88DE"/>
<path fill-rule="evenodd" clip-rule="evenodd" d="M58.8282 136.899C58.3798 136.208 58.748 135.787 59.2745 135.419C60.0492 135.907 59.6925 137.212 58.8282 136.899Z" fill="#0C88DE"/>
<path fill-rule="evenodd" clip-rule="evenodd" d="M58.5898 139.876C58.7941 139.209 58.4541 137.864 59.3216 138.045C59.2028 138.851 59.7885 140.257 58.5898 139.876Z" fill="#0C88DE"/>
<path fill-rule="evenodd" clip-rule="evenodd" d="M102.043 83.8766C102.535 83.816 103.027 83.7555 103.519 83.6953C103.123 84.6143 102.611 84.4915 102.043 83.8766Z" fill="#95E7FD"/>
<path fill-rule="evenodd" clip-rule="evenodd" d="M65.8046 150.405C65.3248 150.173 64.8449 149.942 64.3652 149.711C64.9404 149.726 65.6321 149.476 65.8046 150.405Z" fill="#0C88DE"/>
<path fill-rule="evenodd" clip-rule="evenodd" d="M59.34 138.062C58.5636 138.383 58.5749 136.548 59.3384 136.968C59.9584 137.332 59.6255 137.697 59.34 138.062Z" fill="#95E7FD"/>
<path fill-rule="evenodd" clip-rule="evenodd" d="M42.4762 144.048C41.9643 143.734 41.9526 143.608 42.4764 143.303C42.4762 143.551 42.4762 143.8 42.4762 144.048Z" fill="#0C88DE"/>
<path fill-rule="evenodd" clip-rule="evenodd" d="M154.447 90.4165C154.512 90.6231 154.576 90.8299 154.64 91.0358C154.576 90.8288 154.512 90.6226 154.447 90.4165Z" fill="#95E7FD"/>
<path fill-rule="evenodd" clip-rule="evenodd" d="M59.3594 135.044C59.4186 134.578 59.5116 134.593 59.8232 134.898C59.6686 134.947 59.514 134.995 59.3594 135.044Z" fill="#0C88DE"/>
<path fill-rule="evenodd" clip-rule="evenodd" d="M42.4723 140.67C42.3577 140.55 42.2433 140.429 42.1289 140.308C42.2435 140.429 42.3579 140.55 42.4723 140.67Z" fill="#0C88DE"/>
<path fill-rule="evenodd" clip-rule="evenodd" d="M33.9683 177.466C41.6124 177.512 42.8497 175.716 42.18 184.883C42.1843 185.568 42.0763 186.167 41.2671 186.166C32.8701 186.991 33.6134 185.456 33.9683 177.466Z" fill="#0441A8"/>
<path fill-rule="evenodd" clip-rule="evenodd" d="M59.8758 182.013C60.5412 187.394 56.8067 186.405 52.8842 186.424C50.4343 185.713 52.3664 180.809 51.7604 178.606C52.3877 176.132 56.5993 178.053 58.5448 177.445C60.8466 177.401 59.1647 180.89 59.8758 182.013Z" fill="#0441A8"/>
<path fill-rule="evenodd" clip-rule="evenodd" d="M24.6019 154.309C25.7317 160.299 21.6009 158.383 17.6664 158.663C15.3178 157.776 17.2001 153.028 16.6094 150.781C17.3379 148.435 21.4969 150.29 23.457 149.706C25.5391 149.737 24.2623 152.905 24.6019 154.309Z" fill="#0441A8"/>
<path fill-rule="evenodd" clip-rule="evenodd" d="M34.0403 168.085C41.8232 168.274 42.7496 166.124 42.1863 175.432C42.2072 176.406 41.8308 176.755 40.9183 176.738C33.1203 177.763 33.4325 175.389 34.0403 168.085Z" fill="#0441A8"/>
<path fill-rule="evenodd" clip-rule="evenodd" d="M68.6508 182.088C69.7714 188.05 65.7059 186.172 61.7655 186.427C59.2665 185.882 62.0305 181.608 60.8483 179.801C59.6364 175.885 65.3739 177.97 67.3882 177.448C69.6179 177.34 68.3103 180.64 68.6508 182.088Z" fill="#0441A8"/>
<path fill-rule="evenodd" clip-rule="evenodd" d="M51.2078 172.528C51.2946 176.029 50.4957 177.14 47.0692 176.722C45.7767 176.476 43.0172 177.582 43.1433 175.396C43.7447 173.321 41.7897 168.524 44.4063 168.094C48.9409 168.412 51.7047 166.441 51.2078 172.528Z" fill="#0441A8"/>
<path fill-rule="evenodd" clip-rule="evenodd" d="M51.21 181.963C51.8386 187.235 47.9845 186.093 44.2139 186.158C41.8801 185.304 43.7123 180.665 43.1542 178.47C43.9791 176.23 48.063 178.012 50.0367 177.451C52.1281 177.508 50.4705 180.94 51.21 181.963Z" fill="#0441A8"/>
<path fill-rule="evenodd" clip-rule="evenodd" d="M33.5144 176.715C25.9138 176.733 25.0111 178.274 25.5648 169.38C25.5421 168.395 25.9328 168.083 26.8341 168.096C34.4201 166.937 33.8587 169.812 33.5144 176.715Z" fill="#0441A8"/>
<path fill-rule="evenodd" clip-rule="evenodd" d="M68.7667 172.308C68.8994 175.982 68.0876 177.15 64.4843 176.722C63.3065 176.487 60.7308 177.519 60.7268 175.598C61.2866 173.468 59.4596 168.854 61.7972 168.106C66.6257 168.564 68.8934 166.123 68.7667 172.308Z" fill="#0441A8"/>
<path fill-rule="evenodd" clip-rule="evenodd" d="M59.75 172.174C60.8641 178.263 56.9356 176.518 52.8331 176.729C51.1244 177.227 51.1448 167.635 52.8125 168.105C54.3258 168.295 56.1615 167.703 57.5222 168.46C57.9354 168.94 58.1577 169.033 58.6334 168.492C60.426 167.011 59.5589 171.254 59.75 172.174Z" fill="#0441A8"/>
<path fill-rule="evenodd" clip-rule="evenodd" d="M64.5785 167.347C59.0622 168.462 60.6571 164.506 60.4707 160.451C61.2716 158.102 65.6124 159.964 67.6591 159.395C69.8017 160.161 68.1244 164.394 68.637 166.392C68.4299 168.204 65.7872 167.029 64.5785 167.347Z" fill="#0441A8"/>
<path fill-rule="evenodd" clip-rule="evenodd" d="M91.39 145.239C84.8886 135.973 96.6611 129.652 98.8055 138.786C95.5688 139.681 94.3543 144.015 91.39 145.239Z" fill="#34BFF4"/>
<path fill-rule="evenodd" clip-rule="evenodd" d="M38.4556 159.397C44.0825 158.233 42.1367 162.652 42.1147 166.606C40.5547 168.257 37.3298 166.951 35.2032 167.359C33.0259 166.64 34.7129 162.511 34.189 160.555C34.2791 158.458 37.1461 159.732 38.4556 159.397Z" fill="#0441A8"/>
<path fill-rule="evenodd" clip-rule="evenodd" d="M46.8486 167.356C41.2756 168.478 43.228 164.272 43.1612 160.344C44.1623 158.216 48.0758 159.925 50.0985 159.396C52.2354 160.16 50.5596 164.385 51.0698 166.379C50.8448 168.242 48.0775 166.997 46.8486 167.356Z" fill="#0441A8"/>
<path fill-rule="evenodd" clip-rule="evenodd" d="M33.4984 163.24C33.2125 164.51 34.3237 167.321 32.4495 167.366C30.4713 166.807 26.3707 168.617 25.5775 166.309C26.096 164.339 24.3577 159.969 26.6758 159.392C30.0439 159.631 34.6895 157.922 33.4984 163.24Z" fill="#0441A8"/>
<path fill-rule="evenodd" clip-rule="evenodd" d="M69.3466 181.973C68.3787 172.12 75.9778 180.38 77.2714 184.707C77.8387 188.033 72.5065 185.784 70.6137 186.443C68.4175 186.558 69.6622 183.392 69.3466 181.973Z" fill="#0441A8"/>
<path fill-rule="evenodd" clip-rule="evenodd" d="M74.7529 154.08C77.2286 153.733 78.529 157.57 76.4003 158.618C74.3964 158.14 70.1467 159.897 69.3471 157.622C68.7989 150.364 70.7368 154.155 74.7529 154.08Z" fill="#0441A8"/>
<path fill-rule="evenodd" clip-rule="evenodd" d="M71.1603 168.122C74.9354 167.717 70.3934 173.166 72.1176 175.57C72.404 177.4 69.6591 177.253 69.7093 175.025C69.6654 172.861 67.871 167.64 71.1603 168.122Z" fill="#0441A8"/>
<path fill-rule="evenodd" clip-rule="evenodd" d="M79.5892 186.434C78.3576 186.679 77.6442 185.915 78.2426 184.823C79.047 184.728 81.0164 186.241 79.5892 186.434Z" fill="#0441A8"/>
<path fill-rule="evenodd" clip-rule="evenodd" d="M33.9679 177.466C33.6458 180.113 34.4844 184.119 33.5685 186.103C33.9485 183.549 32.716 179.068 33.9679 177.466Z" fill="#34BFF4"/>
<path fill-rule="evenodd" clip-rule="evenodd" d="M85.1773 184.977C84.5585 185.836 84.5361 187.641 83.2285 187.439C83.2265 186.307 84.5471 185.743 85.1773 184.977Z" fill="#0441A8"/>
<path fill-rule="evenodd" clip-rule="evenodd" d="M33.5718 173.688C33.9067 172.14 32.6022 168.424 34.0374 168.085C33.7285 169.724 34.4278 172.718 33.5718 173.688Z" fill="#34BFF4"/>
<path fill-rule="evenodd" clip-rule="evenodd" d="M33.5165 176.715C33.6958 176.075 33.1978 174.569 33.8752 174.453C33.7202 175.118 34.4045 176.825 33.5165 176.715Z" fill="#34BFF4"/>
<path fill-rule="evenodd" clip-rule="evenodd" d="M149.828 134.648C147.517 140.622 149.787 144.164 151.022 136.088C152.481 133.883 160.338 142.353 162.902 143.374C166.017 145.029 153.629 156.079 153.955 159.945C156.819 160.313 161.686 148.7 164.582 146.086C166.399 144.354 168.437 147.811 170.165 148.492C170.903 149.501 173.585 149.386 172.836 150.934C168.834 159.725 163.872 167.974 158.961 176.227C156.571 178.263 152.192 175.204 149.183 175.175C148.004 174.9 147.943 174.739 148.497 173.584C148.859 171.454 156.052 161.467 152.355 162.236C149.455 164.565 148.204 174.618 145.08 174.163C142.708 173.128 135.587 173.926 137.923 169.553C139.307 167.915 153.253 137.886 147.704 142.795C134.194 175.969 140.111 174.42 122.738 152.079C123.089 143.16 130.752 134.366 135.7 126.944C137.494 124.266 147.911 132.807 149.828 134.648Z" fill="#0C88DE"/>
<path fill-rule="evenodd" clip-rule="evenodd" d="M185.918 182.497C183.359 181.369 176.581 182.313 175.814 179.718C176.966 172.18 179.461 165.087 183.295 158.581C186.874 157.74 191.519 163.17 195.309 164.587C197.067 165.66 196.985 165.706 195.906 167.586C192.684 172.299 190.673 179.689 185.918 182.497Z" fill="#0C88DE"/>
<path fill-rule="evenodd" clip-rule="evenodd" d="M172.752 180.103C153.031 177.367 162.11 177.125 168.608 162.973C171.003 160.605 172.691 149.304 176.601 153.009C178.073 154.673 183.434 155.33 181.345 158.207C177.652 164.367 175.435 171.238 174.157 178.351C173.843 179.851 173.708 180.133 172.752 180.103Z" fill="#0C88DE"/>
<path fill-rule="evenodd" clip-rule="evenodd" d="M114.428 168.355C90.6726 166.561 102.323 168.468 112.859 144.025C114.854 142.421 117.613 149.761 119.303 151.282C118.919 156.366 116.711 163.952 114.428 168.355Z" fill="#0C88DE"/>
<path fill-rule="evenodd" clip-rule="evenodd" d="M116.949 167.939C121.934 150.063 119.403 152.08 130.006 165.416C130.738 167.012 135.781 171.428 133.402 171.705C128.383 169.888 120.727 170.674 116.949 167.939Z" fill="#0C88DE"/>
<path fill-rule="evenodd" clip-rule="evenodd" d="M174.323 194.865C175.897 183.614 171.736 181.113 184.678 184.176C185.43 184.284 185.618 184.471 185.065 185.193C182.507 187.369 174.009 203.615 174.323 194.865Z" fill="#0C88DE"/>
<path fill-rule="evenodd" clip-rule="evenodd" d="M147.704 176.767C160.33 179.281 157.312 178.658 151.175 188.325C150.779 188.912 150.401 189.149 149.844 188.346C147.078 184.966 143.319 180.52 147.704 176.767Z" fill="#0C88DE"/>
<path fill-rule="evenodd" clip-rule="evenodd" d="M141.247 175.22C142.537 175.801 146.542 175.426 145.163 177.681C144.593 178.217 144.539 181.001 143.346 179.735C142.894 178.512 139.492 175.916 141.247 175.22Z" fill="#0C88DE"/>
<path fill-rule="evenodd" clip-rule="evenodd" d="M95.5923 169.898C94.6877 168.866 95.6268 167.823 96.7872 168.209C97.4644 168.81 95.9527 169.362 95.5923 169.898Z" fill="#0C88DE"/>
<path fill-rule="evenodd" clip-rule="evenodd" d="M108.12 130.881C108.779 131.608 108.871 133.415 107.664 132.245C107.293 131.613 107.34 131.106 108.12 130.881Z" fill="#34BFF4"/>
<path fill-rule="evenodd" clip-rule="evenodd" d="M107.453 130.024C107.82 129.726 107.962 129.719 108.115 130.201C107.894 130.142 107.674 130.083 107.453 130.024Z" fill="#34BFF4"/>
<path fill-rule="evenodd" clip-rule="evenodd" d="M42.4298 69.2838C42.8707 69.2895 43.78 68.3563 43.7125 69.3722C43.4421 70.3529 44.0774 71.8882 43.3036 72.5402C42.4363 71.4253 41.266 70.4597 42.4298 69.2838Z" fill="#0441A8"/>
<path fill-rule="evenodd" clip-rule="evenodd" d="M18.6688 109.355C21.2871 108.173 18.5274 111.779 17.2734 110.986C16.8965 110.265 17.4985 110.379 17.844 110.275C15.9696 109.603 17.6048 107.73 18.6688 109.355Z" fill="#0441A8"/>
<path fill-rule="evenodd" clip-rule="evenodd" d="M34.8381 90.0746C35.7204 92.0098 32.9426 92.1759 32.168 90.8667C34.7699 91.621 33.0845 88.9984 34.8381 90.0746Z" fill="#0441A8"/>
<path fill-rule="evenodd" clip-rule="evenodd" d="M28.0172 81.3193C27.3054 82.7321 29.4658 84.6919 27.1624 85.0756C26.3907 84.6673 27.3265 84.4096 27.3291 84.0444C27.336 83.072 27.1475 82.0512 28.0172 81.3193Z" fill="#95E7FD"/>
<path fill-rule="evenodd" clip-rule="evenodd" d="M26.4863 94.0393C26.7303 93.2825 26.5764 91.7892 27.7257 92.382C27.9273 93.6533 27.9245 95.2973 26.4863 94.0393Z" fill="#95E7FD"/>
<path fill-rule="evenodd" clip-rule="evenodd" d="M27.5204 101.222C28.3851 100.535 28.1892 101.807 28.6397 101.885C28.538 103.814 26.9304 102.649 27.5204 101.222Z" fill="#95E7FD"/>
<path fill-rule="evenodd" clip-rule="evenodd" d="M14.3292 106.815C13.7017 105.16 15.8711 106.131 16.6496 106.224C15.8735 106.422 15.1013 106.619 14.3292 106.815Z" fill="#95E7FD"/>
<path fill-rule="evenodd" clip-rule="evenodd" d="M141.288 52.9795C141.271 52.257 141.255 51.5347 141.238 50.8154C141.441 51.648 142.521 52.5544 141.288 52.9795Z" fill="#0441A8"/>
<path fill-rule="evenodd" clip-rule="evenodd" d="M34.8377 90.0742C33.6142 89.6455 34.0622 89.4939 34.9901 88.9932C36.4427 89.5885 34.884 89.7135 34.8377 90.0742Z" fill="#95E7FD"/>
<path fill-rule="evenodd" clip-rule="evenodd" d="M18.6676 109.354C18.3216 109.081 17.9758 108.808 17.6289 108.535C18.4658 108.435 18.947 108.299 18.6676 109.354Z" fill="#95E7FD"/>
<path fill-rule="evenodd" clip-rule="evenodd" d="M40.3391 69.3182C40.215 69.2057 40.0908 69.0929 39.9707 68.9814C40.0963 69.0945 40.2176 69.2064 40.3391 69.3182Z" fill="#0441A8"/>
<path fill-rule="evenodd" clip-rule="evenodd" d="M41.7486 70.4558C41.3244 70.9009 41.0985 70.4634 41.7167 70.4033C41.7165 70.403 41.7486 70.4558 41.7486 70.4558Z" fill="#0441A8"/>
<path fill-rule="evenodd" clip-rule="evenodd" d="M44.9747 53.8109C45.1236 52.7135 45.889 52.8695 46.609 52.9316C48.04 54.2611 44.675 54.2892 47.4139 54.681C46.7951 55.8463 45.9199 55.1055 45.0212 54.8852C46.0041 54.4796 44.8783 54.1743 44.9747 53.8109Z" fill="#0441A8"/>
<path fill-rule="evenodd" clip-rule="evenodd" d="M44.9763 53.811C44.88 54.1744 46.0058 54.4798 45.0231 54.8854C44.8207 54.4808 44.5496 54.1534 44.9763 53.811Z" fill="#95E7FD"/>
<path fill-rule="evenodd" clip-rule="evenodd" d="M42.6562 53.3447C42.8157 53.4677 42.9753 53.5905 43.1335 53.7119C42.9736 53.5884 42.8148 53.4666 42.6562 53.3447Z" fill="#95E7FD"/>
<path fill-rule="evenodd" clip-rule="evenodd" d="M43.875 54.4822C43.9412 54.4355 43.9657 54.4286 43.9765 54.5209C43.9001 54.577 43.8801 54.5969 43.875 54.4822Z" fill="#0441A8"/>
<path fill-rule="evenodd" clip-rule="evenodd" d="M122.321 64.79C120.997 65.1354 117.57 63.7088 117.819 66.0452C118.399 68.2641 116.985 72.3592 118.609 73.6646C121.027 73.6168 123.445 73.6035 125.862 73.5395C127.202 72.7122 126.312 69.9641 124.8 71.8714C123.736 73.0427 122.378 73.1968 121.535 71.7113C118.307 65.6845 120.084 65.7633 123.898 70.0047C127.865 67.7198 127.297 63.7291 122.321 64.79ZM122.619 62.8921C125.547 62.9453 128.866 61.9892 128.181 66.3349C129.821 66.0087 135.079 59.8937 134.328 64.0518C122.369 71.2613 132.485 75.4129 125.422 75.5795C122.641 74.8354 116.13 77.7543 115.783 73.5693C116.303 66.0255 113.682 62.2075 122.619 62.8921Z" fill="#171616"/>
<path fill-rule="evenodd" clip-rule="evenodd" d="M83.161 72.5012C83.8404 72.383 83.7357 71.7564 83.5323 71.1715C82.4554 67.1226 86.7688 70.3114 85.7804 66.1096C85.6881 63.4866 80.3462 65.5554 78.4158 64.8769C75.8674 65.6269 78.025 70.8805 77.458 73.2221C80.332 75.7223 76.5701 70.0295 80.2749 69.7096C80.7589 70.9508 80.5958 72.1132 81.9266 70.7538C83.8002 70.6137 81.2262 72.8004 81.1652 73.7261C82.5798 72.3823 82.4898 74.4782 83.161 72.5012ZM75.4008 72.2167C75.6292 69.8657 74.1384 64.2312 76.8139 63.3205C79.8358 64.1149 86.7999 60.8761 87.5895 64.873C86.6311 68.0406 89.4092 74.2511 86.2839 75.7939C82.857 75.0926 74.0111 78.5148 75.4008 72.2167Z" fill="#171616"/>
<path fill-rule="evenodd" clip-rule="evenodd" d="M105.224 51.0913C105.224 51.0913 105.185 50.9612 105.186 50.9619C104.562 50.2034 103.255 49.594 104.753 48.8602C107.782 45.3086 101.151 46.7782 99.6061 46.7891C98.5639 47.854 98.4854 47.4778 97.32 46.5559C96.8063 48.9924 96.9653 52.8905 97.2625 55.1472C99.7772 55.9306 102.381 55.573 105.218 55.375C106.318 54.6635 105.449 52.0897 105.224 51.0913ZM102.84 57.5031C91.9927 58.8512 95.708 54.4495 95.2828 45.969C97.298 43.4984 102.529 45.3979 105.608 44.6172C109.085 45.3046 106.56 52.8355 107.33 55.8472C107.444 58.5663 104.021 56.7459 102.84 57.5031Z" fill="#171616"/>
<path fill-rule="evenodd" clip-rule="evenodd" d="M105.659 69.29C106.341 62.4264 102.866 65.3703 98.0919 64.7415C96.3486 63.5484 96.8011 74.1644 97.8828 73.6437C102.044 73.4579 106.753 75.7201 105.659 69.29ZM101.706 62.8802C110.32 61.2603 106.533 68.3834 107.305 74.2539C105.897 77.3591 99.9119 74.9025 96.9282 75.7108C93.4162 75.7056 95.5017 68.2849 95.1523 65.706C95.1124 61.5223 99.2105 63.4076 101.706 62.8802Z" fill="#171616"/>
<path fill-rule="evenodd" clip-rule="evenodd" d="M126.363 49.9392C127.526 44.686 122.34 46.948 119.24 46.4976C116.289 46.346 118.613 52.5508 117.953 54.7138C119.257 56.5434 123.582 54.8878 125.88 55.4005C127.402 55.5224 125.576 53.3127 125.943 52.914C126.921 51.863 126.169 50.6671 126.363 49.9392ZM123.523 57.4421C113.096 58.6567 116.155 54.9252 116.008 46.5699C114.67 44.1223 129.762 43.5496 128.122 46.4339C127.112 51.4683 131.078 58.7396 123.523 57.4421Z" fill="#171616"/>
<path fill-rule="evenodd" clip-rule="evenodd" d="M83.2845 55.6348C87.5776 56.1367 85.2149 50.4201 85.7989 47.574C84.2492 45.6365 80.4862 47.2586 78.1699 46.729C76.0493 47.8545 77.9306 52.5791 77.4471 54.933C78.5836 56.4959 81.5168 55.257 83.2845 55.6348ZM82.1082 44.8674C84.203 45.1445 88.3625 43.7127 87.5566 47.3972C86.7338 50.305 89.4626 56.5411 86.1509 57.6118C83.0564 56.7444 75.8612 59.8906 75.248 55.5463C75.7671 47.9784 73.1569 44.1849 82.1082 44.8674Z" fill="#171616"/>
<path fill-rule="evenodd" clip-rule="evenodd" d="M109.863 83.1223C111.402 83.0144 110.339 84.7873 109.947 85.6134C107.374 88.9167 106.679 82.7439 109.863 83.1223Z" fill="#34BFF4"/>
<path fill-rule="evenodd" clip-rule="evenodd" d="M61.8816 97.4856C58.245 97.2355 54.9082 94.1163 51.7494 96.2043C44.796 100.329 42.2005 86.9651 49.3247 86.9828C53.5126 86.0486 54.1703 75.4685 58.3539 74.4058C59.9094 78.4079 54.4086 83.1883 53.107 87.1618C52.0796 88.5426 54.1765 89.6355 54.0238 91.121C54.0573 92.011 54.3557 92.3029 55.1025 92.473C57.2774 93.1724 66.3696 94.0677 61.8816 97.4856Z" fill="#171616"/>
<path fill-rule="evenodd" clip-rule="evenodd" d="M39.6734 104.666C39.6885 106.063 40.3821 107.233 38.9257 107.948C38.4378 107.963 38.0682 106.98 37.4375 107.877C36.5943 108.92 37.8387 108.963 37.7932 109.886C37.2666 109.691 36.0243 110.069 36.6301 108.454C37.3772 106.452 32.3226 103.784 36.4861 103.721C37.48 105.021 38.0273 102.045 39.6126 103.264C38.5213 103.784 39.5095 104.206 39.6734 104.666Z" fill="#171616"/>
<path fill-rule="evenodd" clip-rule="evenodd" d="M36.4878 103.72C35.0898 103.567 34.8354 104.51 34.0444 105.575C33.7035 106.06 33.3723 106.383 32.8816 105.763C33.0639 105.053 33.8436 104.189 32.4377 103.892C32.3142 102.428 31.366 101.983 30.1523 101.865C32.4798 101.853 31.0502 99.4395 32.644 98.4415C33.3922 97.9221 33.3273 97.841 33.8224 98.8839C34.5772 99.2572 35.4154 100.351 34.2392 101.045C32.8904 101.631 34.8914 104.137 35.1565 102.303C35.8439 102.423 36.0562 103.234 36.4878 103.72Z" fill="#95E7FD"/>
<path fill-rule="evenodd" clip-rule="evenodd" d="M54.2366 103.041C53.5473 99.5589 56.4225 99.3993 53.1582 98.0699C56.8053 95.8442 56.7967 102.115 58.1354 104.272C57.0612 104.018 54.6512 103.866 54.2366 103.041Z" fill="#171616"/>
<path fill-rule="evenodd" clip-rule="evenodd" d="M38.623 74.4056C39.4204 74.1526 40.0592 74.1561 40.6175 73.3892C40.0421 74.2465 42.3101 76.307 42.151 74.6842C42.4258 73.3782 43.8713 73.8801 44.7994 73.7909C44.7071 74.6716 42.5938 75.3275 44.5996 75.5572C46.2484 76.428 43.7445 76.8164 42.9102 77.189C41.704 77.7609 43.0078 75.1495 40.8486 76.4192C39.897 77.9337 40.5625 74.7502 38.623 74.4056Z" fill="#171616"/>
<path fill-rule="evenodd" clip-rule="evenodd" d="M33.6285 95.7749C29.6601 96.2726 33.6104 90.5414 35.0687 93.7845C34.8174 94.497 33.6249 95.1184 33.6285 95.7749Z" fill="#0441A8"/>
<path fill-rule="evenodd" clip-rule="evenodd" d="M39.6764 104.667C39.5125 104.206 38.5243 103.785 39.6154 103.264C39.3892 102.524 39.015 101.689 39.7276 101.157C41.1261 101.956 42.2453 100.239 42.442 102.687C41.2984 102.045 41.373 103.112 41.1198 103.72C39.8261 104.288 40.6659 102 39.6764 104.667Z" fill="#0441A8"/>
<path fill-rule="evenodd" clip-rule="evenodd" d="M43.0041 97.8737C42.9788 96.5427 45.8823 95.5677 45.5715 97.3053C46.1192 98.0004 46.8745 100.8 45.4652 99.1246C45.1827 98.1304 43.8976 98.4629 44.4835 97.4446C44.0072 97.5996 43.443 98.3755 43.0041 97.8737Z" fill="#95E7FD"/>
<path fill-rule="evenodd" clip-rule="evenodd" d="M34.7067 85.2956C34.0084 85.5984 32.5701 85.0126 32.166 84.4334C32.8252 82.0317 33.8586 84.1634 34.7067 85.2956Z" fill="#171616"/>
<path fill-rule="evenodd" clip-rule="evenodd" d="M39.5221 101.321C39.3328 102.367 38.6317 101.631 38.0142 101.344C38.0747 100.663 38.1657 99.8262 37.7012 99.2048C39.1156 98.2836 39.6202 100.166 39.5221 101.321Z" fill="#95E7FD"/>
<path fill-rule="evenodd" clip-rule="evenodd" d="M31.7493 101.015C29.4552 103.981 28.3773 97.5294 30.3364 99.7235C30.239 100.836 30.9595 100.967 31.7493 101.015Z" fill="#171616"/>
<path fill-rule="evenodd" clip-rule="evenodd" d="M39.7989 106.499C39.6051 104.381 43.2557 107.015 40.8594 107.322C40.8154 108.373 40.0916 108.538 39.3484 108.707C37.865 107.421 42.0411 106.671 39.7989 106.499Z" fill="#95E7FD"/>
<path fill-rule="evenodd" clip-rule="evenodd" d="M38.0879 79.7594C38.616 79.4073 39.5188 79.7986 39.7441 78.8452C42.1736 79.0137 38.5147 82.59 38.0879 79.7594Z" fill="#0441A8"/>
<path fill-rule="evenodd" clip-rule="evenodd" d="M32.4373 103.892C35.4277 105.174 29.9658 107.063 30.3931 104.702C31.03 104.111 33.4317 105.657 32.4373 103.892Z" fill="#0441A8"/>
<path fill-rule="evenodd" clip-rule="evenodd" d="M40.5623 83.9624C40.9174 84.7388 42.3504 85.6661 41.0462 86.0943C39.975 86.0256 39.7936 84.5862 40.5623 83.9624Z" fill="#171616"/>
<path fill-rule="evenodd" clip-rule="evenodd" d="M38.0879 79.7594C38.1958 80.4833 38.8263 80.7199 39.2622 81.1373C38.0482 82.8226 35.6449 79.7414 38.0879 79.7594Z" fill="#171616"/>
<path fill-rule="evenodd" clip-rule="evenodd" d="M53.1504 98.0558C52.4124 98.5744 51.6901 99.3591 50.7509 99.4778C50.3889 98.1231 52.0883 97.2397 53.1504 98.0558Z" fill="#0441A8"/>
<path fill-rule="evenodd" clip-rule="evenodd" d="M41.1196 103.72C41.0914 102.7 42.4803 101.738 42.4232 103.38C43.4456 104.994 42.1148 104.235 41.1196 103.72Z" fill="#95E7FD"/>
<path fill-rule="evenodd" clip-rule="evenodd" d="M41.7077 95.0537C42.8717 95.7962 41.6024 96.0905 40.9985 96.6397C40.0489 96.0576 41.0981 95.594 41.7077 95.0537Z" fill="#34BFF4"/>
<path fill-rule="evenodd" clip-rule="evenodd" d="M43.5929 83.5962C46.2748 83.7257 42.9549 85.3168 42.3652 84.1923C42.4195 83.6144 43.234 83.7014 43.5929 83.5962Z" fill="#95E7FD"/>
<path fill-rule="evenodd" clip-rule="evenodd" d="M38.1614 78.8015C37.3694 79.5299 37.214 78.0655 36.8613 77.4795C37.4394 76.3711 37.7315 78.1743 38.1614 78.8015Z" fill="#171616"/>
<path fill-rule="evenodd" clip-rule="evenodd" d="M47.873 69.1276C47.0878 69.4594 46.3709 70.0988 46.1582 69.0627C46.6834 68.1728 47.1158 68.5206 47.873 69.1276Z" fill="#95E7FD"/>
<path fill-rule="evenodd" clip-rule="evenodd" d="M41.9716 101.117C41.2215 101.081 40.4857 101.902 39.7246 101.157C40.5814 100.737 41.5739 100.719 41.9716 101.117Z" fill="#95E7FD"/>
<path fill-rule="evenodd" clip-rule="evenodd" d="M30.9906 103.069C30.7961 103.43 30.6369 103.772 30.3496 103.361C30.4024 102.92 30.5436 102.774 30.9906 103.069Z" fill="#95E7FD"/>
<path fill-rule="evenodd" clip-rule="evenodd" d="M161.785 101.15C162.561 98.3734 163.56 96.4532 166.237 98.5885C166.76 99.4235 164.628 99.2018 166.216 99.9162C167.718 102.27 163.806 100.518 163.258 102.046C162.767 101.748 162.276 101.449 161.785 101.15Z" fill="#171616"/>
<path fill-rule="evenodd" clip-rule="evenodd" d="M161.234 78.2385C159.966 80.5045 160.813 77.5063 158.709 77.8519C159.28 76.8306 160.207 76.8813 161.205 76.8633C161.383 77.3177 160.074 77.8068 161.234 78.2385Z" fill="#0441A8"/>
<path fill-rule="evenodd" clip-rule="evenodd" d="M161.233 78.2382C160.073 77.8065 161.382 77.3174 161.204 76.8628C163.01 75.1754 162.876 79.389 161.233 78.2382Z" fill="#95E7FD"/>
<path fill-rule="evenodd" clip-rule="evenodd" d="M161.298 80.5843C161.142 81.4059 160.985 82.2276 160.832 83.0456C160.527 81.6452 158.923 79.7038 161.298 80.5843Z" fill="#0441A8"/>
<path fill-rule="evenodd" clip-rule="evenodd" d="M160.862 74.6004C161.046 76.6925 158.197 75.112 158.937 73.7476C159.337 75.0312 159.982 74.9746 160.862 74.6004Z" fill="#95E7FD"/>
<path fill-rule="evenodd" clip-rule="evenodd" d="M158.386 85.8632C157.909 85.1525 158.353 84.6228 158.591 83.9473C159.256 84.8388 159.697 85.1364 158.386 85.8632Z" fill="#171616"/>
<path fill-rule="evenodd" clip-rule="evenodd" d="M161.215 73.8466C159.568 71.7489 162.224 70.8195 161.217 73.8491L161.215 73.8466Z" fill="#95E7FD"/>
<path fill-rule="evenodd" clip-rule="evenodd" d="M160.854 74.5933C161.235 73.7998 161.238 73.8104 160.861 74.5998L160.854 74.5933Z" fill="#95E7FD"/>
<path fill-rule="evenodd" clip-rule="evenodd" d="M173.411 112.383C169.066 115.132 170.156 109.878 171.788 111.142C172.152 112.532 173.152 111.178 173.411 112.383Z" fill="#0441A8"/>
<path fill-rule="evenodd" clip-rule="evenodd" d="M177.866 108.814C177.053 109.343 176.695 110.227 175.982 109.216C176.703 108.971 177.097 108.124 177.866 108.814Z" fill="#34BFF4"/>
<path fill-rule="evenodd" clip-rule="evenodd" d="M171.346 115.407C172.414 115.142 173.042 115.161 173.128 116.278C172.09 116.724 173.011 115.112 171.346 115.407Z" fill="#0441A8"/>
<path fill-rule="evenodd" clip-rule="evenodd" d="M170.646 115.666C170.752 115.608 170.857 115.551 170.961 115.494C170.855 115.552 170.751 115.609 170.646 115.666Z" fill="#0441A8"/>
<path fill-rule="evenodd" clip-rule="evenodd" d="M90.1184 119.274C89.4657 130.711 76.4493 118.54 83.1149 113.775C87.5028 110.921 89.6669 115.021 90.1184 119.274Z" fill="#34BFF4"/>
<path fill-rule="evenodd" clip-rule="evenodd" d="M158.813 89.5562C159.395 92.1063 157.543 91.6988 158.509 89.444C158.647 89.1996 159.599 89.4893 158.813 89.5562Z" fill="#95E7FD"/>
<path fill-rule="evenodd" clip-rule="evenodd" d="M143.8 104.618C152.918 104.023 144.953 121.512 139.989 114.045C138.709 110.437 139.112 103.664 143.8 104.618Z" fill="#34BFF4"/>
<path fill-rule="evenodd" clip-rule="evenodd" d="M98.7329 93.4355C106.945 94.247 99.308 107.218 95.8763 99.7802C94.9909 97.3177 95.48 93.5659 98.7329 93.4355Z" fill="#34BFF4"/>
<path fill-rule="evenodd" clip-rule="evenodd" d="M124.056 98.2685C127.986 98.4037 128.613 104.191 125.311 106.012C121.359 106.917 118.631 97.6999 124.056 98.2685Z" fill="#34BFF4"/>
<path fill-rule="evenodd" clip-rule="evenodd" d="M61.752 125.768C61.7724 125.692 61.8121 125.629 61.8676 125.579C61.9787 125.766 61.964 125.796 61.752 125.768Z" fill="#34BFF4"/>
<path fill-rule="evenodd" clip-rule="evenodd" d="M51.4434 103.894C51.6382 103.211 51.5138 102.073 52.7583 103.071C55.7623 103.302 52.9896 104.014 51.4434 103.894Z" fill="#95E7FD"/>
<path fill-rule="evenodd" clip-rule="evenodd" d="M54.1328 103.717C54.1799 103.502 54.0973 103.204 54.2362 103.042C54.4517 104.064 55.2743 102.999 55.7892 103.891C55.237 103.833 54.685 103.775 54.1328 103.717Z" fill="#34BFF4"/>
<path fill-rule="evenodd" clip-rule="evenodd" d="M103.478 110.248C107.586 108.775 110.104 111.417 106.481 114.409C104.58 114.863 103.432 112.078 103.478 110.248Z" fill="#34BFF4"/>
<path fill-rule="evenodd" clip-rule="evenodd" d="M158.938 110.224C162.335 109.974 160.111 114.01 158.465 114.265C156.462 113.834 155.458 109.854 158.938 110.224Z" fill="#34BFF4"/>
<path fill-rule="evenodd" clip-rule="evenodd" d="M119.496 116.084C118.382 117.045 118.397 116.131 117.865 115.349C118.343 114.443 118.855 115.643 119.496 116.084Z" fill="#34BFF4"/>
<path fill-rule="evenodd" clip-rule="evenodd" d="M136.275 89.9459C134.508 88.4529 135.466 88.2983 136.558 87.1626C137.994 88.278 137.332 88.7536 136.275 89.9459Z" fill="#34BFF4"/>
<path fill-rule="evenodd" clip-rule="evenodd" d="M160.671 100.89C160.732 101.026 160.842 101.136 160.664 101.236C160.603 101.1 160.493 100.989 160.671 100.89Z" fill="#34BFF4"/>
<path fill-rule="evenodd" clip-rule="evenodd" d="M33.8745 174.453C33.382 174.621 33.6271 174.021 33.5728 173.688C34.0467 173.616 33.8329 174.117 33.8745 174.453Z" fill="#0C88DE"/>
<path fill-rule="evenodd" clip-rule="evenodd" d="M15.6233 103.164C15.6692 103.786 14.8559 103.825 14.4573 104.103C13.8476 103.618 15.1859 102.973 15.6233 103.164Z" fill="#95E7FD"/>
<path fill-rule="evenodd" clip-rule="evenodd" d="M15.5664 103.099C15.6296 103.053 15.693 103.007 15.7564 102.961C15.6875 103.032 15.652 103.237 15.5664 103.099Z" fill="#95E7FD"/>
<path fill-rule="evenodd" clip-rule="evenodd" d="M42.498 52.7999C42.0535 52.4487 41.7015 51.4009 41.6553 51.0275C40.8957 51.1147 40.5478 50.9428 40.8707 50.0572C39.7747 48.0681 41.8522 48.6318 43.1895 48.3315C42.6882 49.6221 41.3601 49.735 43.1725 50.5477C43.6671 50.8577 44.2738 51.2993 44.6325 51.7081C43.7272 52.1028 42.922 51.5347 42.498 52.7999Z" fill="#95E7FD"/>
<path fill-rule="evenodd" clip-rule="evenodd" d="M44.6543 51.6782C45.1329 51.7503 45.8315 51.5108 45.3721 52.1957C45.1632 52.017 44.766 51.8753 44.6543 51.6782Z" fill="#95E7FD"/>
<path fill-rule="evenodd" clip-rule="evenodd" d="M44.118 52.9371C43.87 53.0943 43.7841 53.0285 43.7246 52.749C43.9718 52.5919 44.0555 52.6636 44.118 52.9371Z" fill="#95E7FD"/>
<path fill-rule="evenodd" clip-rule="evenodd" d="M81.6936 72.4822C82.7529 72.3227 83.4561 74.342 82.332 73.3014C81.8501 72.8289 81.5413 73.4555 81.1641 73.7265L81.6936 72.4822Z" fill="#95E7FD"/>
<path fill-rule="evenodd" clip-rule="evenodd" d="M83.1602 72.5013C83.2211 72.4521 83.2034 72.5093 83.2121 72.5549L83.1602 72.5013Z" fill="#95E7FD"/>
<path fill-rule="evenodd" clip-rule="evenodd" d="M102.145 47.9085C101.71 47.0643 99.4068 46.7821 99.9038 46.4883C101.604 47.4512 104.586 45.5047 105.549 47.1711C105.255 49.3522 102.742 49.1373 105.184 50.9612C102.14 51.4511 104.7 47.7429 102.145 47.9085Z" fill="#95E7FD"/>
<path fill-rule="evenodd" clip-rule="evenodd" d="M100.645 55.5156C101.724 55.2598 104.571 55.7667 103.109 53.5431C106.588 53.4708 101.596 56.9892 100.645 55.5156Z" fill="#0441A8"/>
<path fill-rule="evenodd" clip-rule="evenodd" d="M105.383 51.2865C105.281 51.2726 105.222 51.1971 105.227 51.0908C105.347 51.0935 105.391 51.1672 105.383 51.2865Z" fill="#95E7FD"/>
<path fill-rule="evenodd" clip-rule="evenodd" d="M83.2852 55.6352C84.0131 54.5696 84.244 53.2266 85.7327 53.3255C86.3917 55.3883 84.8518 55.59 83.2852 55.6352Z" fill="#95E7FD"/>
<path fill-rule="evenodd" clip-rule="evenodd" d="M102.147 47.9082C103.586 48.0922 103.525 48.0832 103.34 49.4337C104.131 52.5055 101.779 52.7587 102.147 47.9082Z" fill="#171616"/>
<path fill-rule="evenodd" clip-rule="evenodd" d="M101.401 53.0373C99.7546 53.4027 99.6288 52.5957 99.1758 51.3143C99.7673 50.4082 100.805 52.3955 101.401 53.0373Z" fill="#171616"/>
<path fill-rule="evenodd" clip-rule="evenodd" d="M101.938 71.1885C101.479 71.875 101.009 70.6771 100.684 70.1582C101.106 68.4956 101.826 70.1684 101.938 71.1885Z" fill="#95E7FD"/>
<path fill-rule="evenodd" clip-rule="evenodd" d="M121.957 52.4721C121.394 52.7452 120.994 53.6312 120.635 52.8508C121.116 52.6223 121.451 51.86 121.957 52.4721Z" fill="#0441A8"/>
</svg>
